G75*
G70*
%OFA0B0*%
%FSLAX24Y24*%
%IPPOS*%
%LPD*%
%AMOC8*
5,1,8,0,0,1.08239X$1,22.5*
%
%ADD10C,0.1330*%
%ADD11OC8,0.0680*%
%ADD12R,0.0356X0.0631*%
%ADD13R,0.2049X0.1773*%
%ADD14R,0.0631X0.0474*%
%ADD15C,0.1380*%
%ADD16C,0.1280*%
%ADD17C,0.1145*%
%ADD18C,0.0480*%
D10*
X010460Y001351D03*
X012585Y001351D03*
X012585Y015851D03*
X010460Y015851D03*
D11*
X001460Y001101D03*
X002460Y001101D03*
X002460Y002101D03*
X001460Y002101D03*
X001460Y003101D03*
X002460Y003101D03*
X002460Y004101D03*
X001460Y004101D03*
X003585Y004101D03*
X004585Y004101D03*
X004585Y003101D03*
X004585Y002101D03*
X004585Y001101D03*
X003585Y001101D03*
X003585Y002101D03*
X003585Y003101D03*
X003585Y013101D03*
X004585Y013101D03*
X004585Y014101D03*
X004585Y015101D03*
X004585Y016101D03*
X003585Y016101D03*
X003585Y015101D03*
X003585Y014101D03*
X002460Y014101D03*
X001460Y014101D03*
X001460Y015101D03*
X002460Y015101D03*
X002460Y016101D03*
X001460Y016101D03*
X001460Y013101D03*
X002460Y013101D03*
D12*
X006960Y010769D03*
X007460Y010769D03*
X007960Y010769D03*
X008460Y010769D03*
X008460Y007394D03*
X007960Y007394D03*
X007460Y007394D03*
X006960Y007394D03*
D13*
X007710Y005957D03*
X007710Y009332D03*
D14*
X010276Y013102D03*
X010276Y013850D03*
X011143Y013476D03*
X007643Y013352D03*
X007643Y014100D03*
X006776Y013726D03*
D15*
X009935Y010351D03*
X009935Y008701D03*
X009935Y007051D03*
X012105Y007051D03*
X012105Y008701D03*
X012105Y010351D03*
D16*
X014975Y010351D03*
X014975Y007051D03*
D17*
X007960Y011851D03*
D18*
X007285Y012851D03*
X005685Y013651D03*
X005185Y012301D03*
X004685Y012301D03*
X007185Y004801D03*
X006785Y004201D03*
X006085Y004551D03*
M02*
