G75*
G70*
%OFA0B0*%
%FSLAX24Y24*%
%IPPOS*%
%LPD*%
%AMOC8*
5,1,8,0,0,1.08239X$1,22.5*
%
%ADD10C,0.0000*%
%ADD11C,0.0060*%
%ADD12C,0.0050*%
%ADD13C,0.0040*%
%ADD14C,0.0080*%
D10*
X000585Y000101D02*
X014585Y000101D01*
X014585Y001226D01*
X014587Y001286D01*
X014592Y001347D01*
X014601Y001406D01*
X014614Y001465D01*
X014630Y001524D01*
X014650Y001581D01*
X014673Y001636D01*
X014700Y001691D01*
X014729Y001743D01*
X014762Y001794D01*
X014798Y001843D01*
X014836Y001889D01*
X014878Y001933D01*
X014922Y001975D01*
X014968Y002013D01*
X015017Y002049D01*
X015068Y002082D01*
X015120Y002111D01*
X015175Y002138D01*
X015230Y002161D01*
X015287Y002181D01*
X015346Y002197D01*
X015405Y002210D01*
X015464Y002219D01*
X015525Y002224D01*
X015585Y002226D01*
X016085Y002226D01*
X016085Y014726D01*
X015588Y014724D01*
X015528Y014725D01*
X015467Y014731D01*
X015407Y014739D01*
X015348Y014752D01*
X015290Y014768D01*
X015232Y014787D01*
X015176Y014810D01*
X015122Y014836D01*
X015069Y014866D01*
X015018Y014899D01*
X014969Y014934D01*
X014922Y014973D01*
X014878Y015015D01*
X014836Y015059D01*
X014797Y015105D01*
X014762Y015154D01*
X014729Y015205D01*
X014699Y015258D01*
X014672Y015312D01*
X014649Y015368D01*
X014630Y015425D01*
X014613Y015484D01*
X014601Y015543D01*
X014592Y015603D01*
X014587Y015663D01*
X014585Y015724D01*
X014585Y016976D01*
X000585Y016976D01*
X000585Y010601D01*
X005566Y010601D01*
X005605Y010599D01*
X005643Y010593D01*
X005680Y010584D01*
X005717Y010571D01*
X005752Y010554D01*
X005785Y010535D01*
X005816Y010512D01*
X005845Y010486D01*
X005871Y010457D01*
X005894Y010426D01*
X005913Y010393D01*
X005930Y010358D01*
X005943Y010321D01*
X005952Y010284D01*
X005958Y010246D01*
X005960Y010207D01*
X005960Y006619D01*
X005958Y006580D01*
X005952Y006542D01*
X005943Y006505D01*
X005930Y006468D01*
X005913Y006433D01*
X005894Y006400D01*
X005871Y006369D01*
X005845Y006340D01*
X005816Y006314D01*
X005785Y006291D01*
X005752Y006272D01*
X005717Y006255D01*
X005680Y006242D01*
X005643Y006233D01*
X005605Y006227D01*
X005566Y006225D01*
X005566Y006226D02*
X000585Y006226D01*
X000585Y000101D01*
X009835Y001351D02*
X009837Y001401D01*
X009843Y001450D01*
X009853Y001499D01*
X009866Y001546D01*
X009884Y001593D01*
X009905Y001638D01*
X009929Y001681D01*
X009957Y001722D01*
X009988Y001761D01*
X010022Y001797D01*
X010059Y001831D01*
X010099Y001861D01*
X010140Y001888D01*
X010184Y001912D01*
X010229Y001932D01*
X010276Y001948D01*
X010324Y001961D01*
X010373Y001970D01*
X010423Y001975D01*
X010472Y001976D01*
X010522Y001973D01*
X010571Y001966D01*
X010620Y001955D01*
X010667Y001941D01*
X010713Y001922D01*
X010758Y001900D01*
X010801Y001875D01*
X010841Y001846D01*
X010879Y001814D01*
X010915Y001780D01*
X010948Y001742D01*
X010977Y001702D01*
X011003Y001660D01*
X011026Y001616D01*
X011045Y001570D01*
X011061Y001523D01*
X011073Y001474D01*
X011081Y001425D01*
X011085Y001376D01*
X011085Y001326D01*
X011081Y001277D01*
X011073Y001228D01*
X011061Y001179D01*
X011045Y001132D01*
X011026Y001086D01*
X011003Y001042D01*
X010977Y001000D01*
X010948Y000960D01*
X010915Y000922D01*
X010879Y000888D01*
X010841Y000856D01*
X010801Y000827D01*
X010758Y000802D01*
X010713Y000780D01*
X010667Y000761D01*
X010620Y000747D01*
X010571Y000736D01*
X010522Y000729D01*
X010472Y000726D01*
X010423Y000727D01*
X010373Y000732D01*
X010324Y000741D01*
X010276Y000754D01*
X010229Y000770D01*
X010184Y000790D01*
X010140Y000814D01*
X010099Y000841D01*
X010059Y000871D01*
X010022Y000905D01*
X009988Y000941D01*
X009957Y000980D01*
X009929Y001021D01*
X009905Y001064D01*
X009884Y001109D01*
X009866Y001156D01*
X009853Y001203D01*
X009843Y001252D01*
X009837Y001301D01*
X009835Y001351D01*
X011960Y001351D02*
X011962Y001401D01*
X011968Y001450D01*
X011978Y001499D01*
X011991Y001546D01*
X012009Y001593D01*
X012030Y001638D01*
X012054Y001681D01*
X012082Y001722D01*
X012113Y001761D01*
X012147Y001797D01*
X012184Y001831D01*
X012224Y001861D01*
X012265Y001888D01*
X012309Y001912D01*
X012354Y001932D01*
X012401Y001948D01*
X012449Y001961D01*
X012498Y001970D01*
X012548Y001975D01*
X012597Y001976D01*
X012647Y001973D01*
X012696Y001966D01*
X012745Y001955D01*
X012792Y001941D01*
X012838Y001922D01*
X012883Y001900D01*
X012926Y001875D01*
X012966Y001846D01*
X013004Y001814D01*
X013040Y001780D01*
X013073Y001742D01*
X013102Y001702D01*
X013128Y001660D01*
X013151Y001616D01*
X013170Y001570D01*
X013186Y001523D01*
X013198Y001474D01*
X013206Y001425D01*
X013210Y001376D01*
X013210Y001326D01*
X013206Y001277D01*
X013198Y001228D01*
X013186Y001179D01*
X013170Y001132D01*
X013151Y001086D01*
X013128Y001042D01*
X013102Y001000D01*
X013073Y000960D01*
X013040Y000922D01*
X013004Y000888D01*
X012966Y000856D01*
X012926Y000827D01*
X012883Y000802D01*
X012838Y000780D01*
X012792Y000761D01*
X012745Y000747D01*
X012696Y000736D01*
X012647Y000729D01*
X012597Y000726D01*
X012548Y000727D01*
X012498Y000732D01*
X012449Y000741D01*
X012401Y000754D01*
X012354Y000770D01*
X012309Y000790D01*
X012265Y000814D01*
X012224Y000841D01*
X012184Y000871D01*
X012147Y000905D01*
X012113Y000941D01*
X012082Y000980D01*
X012054Y001021D01*
X012030Y001064D01*
X012009Y001109D01*
X011991Y001156D01*
X011978Y001203D01*
X011968Y001252D01*
X011962Y001301D01*
X011960Y001351D01*
X014375Y007051D02*
X014377Y007100D01*
X014383Y007148D01*
X014393Y007196D01*
X014407Y007243D01*
X014424Y007289D01*
X014445Y007333D01*
X014470Y007375D01*
X014498Y007415D01*
X014530Y007453D01*
X014564Y007488D01*
X014601Y007520D01*
X014640Y007549D01*
X014682Y007575D01*
X014726Y007597D01*
X014771Y007615D01*
X014818Y007630D01*
X014865Y007641D01*
X014914Y007648D01*
X014963Y007651D01*
X015012Y007650D01*
X015060Y007645D01*
X015109Y007636D01*
X015156Y007623D01*
X015202Y007606D01*
X015246Y007586D01*
X015289Y007562D01*
X015330Y007535D01*
X015368Y007504D01*
X015404Y007471D01*
X015436Y007435D01*
X015466Y007396D01*
X015493Y007355D01*
X015516Y007311D01*
X015535Y007266D01*
X015551Y007220D01*
X015563Y007173D01*
X015571Y007124D01*
X015575Y007075D01*
X015575Y007027D01*
X015571Y006978D01*
X015563Y006929D01*
X015551Y006882D01*
X015535Y006836D01*
X015516Y006791D01*
X015493Y006747D01*
X015466Y006706D01*
X015436Y006667D01*
X015404Y006631D01*
X015368Y006598D01*
X015330Y006567D01*
X015289Y006540D01*
X015246Y006516D01*
X015202Y006496D01*
X015156Y006479D01*
X015109Y006466D01*
X015060Y006457D01*
X015012Y006452D01*
X014963Y006451D01*
X014914Y006454D01*
X014865Y006461D01*
X014818Y006472D01*
X014771Y006487D01*
X014726Y006505D01*
X014682Y006527D01*
X014640Y006553D01*
X014601Y006582D01*
X014564Y006614D01*
X014530Y006649D01*
X014498Y006687D01*
X014470Y006727D01*
X014445Y006769D01*
X014424Y006813D01*
X014407Y006859D01*
X014393Y006906D01*
X014383Y006954D01*
X014377Y007002D01*
X014375Y007051D01*
X014375Y010351D02*
X014377Y010400D01*
X014383Y010448D01*
X014393Y010496D01*
X014407Y010543D01*
X014424Y010589D01*
X014445Y010633D01*
X014470Y010675D01*
X014498Y010715D01*
X014530Y010753D01*
X014564Y010788D01*
X014601Y010820D01*
X014640Y010849D01*
X014682Y010875D01*
X014726Y010897D01*
X014771Y010915D01*
X014818Y010930D01*
X014865Y010941D01*
X014914Y010948D01*
X014963Y010951D01*
X015012Y010950D01*
X015060Y010945D01*
X015109Y010936D01*
X015156Y010923D01*
X015202Y010906D01*
X015246Y010886D01*
X015289Y010862D01*
X015330Y010835D01*
X015368Y010804D01*
X015404Y010771D01*
X015436Y010735D01*
X015466Y010696D01*
X015493Y010655D01*
X015516Y010611D01*
X015535Y010566D01*
X015551Y010520D01*
X015563Y010473D01*
X015571Y010424D01*
X015575Y010375D01*
X015575Y010327D01*
X015571Y010278D01*
X015563Y010229D01*
X015551Y010182D01*
X015535Y010136D01*
X015516Y010091D01*
X015493Y010047D01*
X015466Y010006D01*
X015436Y009967D01*
X015404Y009931D01*
X015368Y009898D01*
X015330Y009867D01*
X015289Y009840D01*
X015246Y009816D01*
X015202Y009796D01*
X015156Y009779D01*
X015109Y009766D01*
X015060Y009757D01*
X015012Y009752D01*
X014963Y009751D01*
X014914Y009754D01*
X014865Y009761D01*
X014818Y009772D01*
X014771Y009787D01*
X014726Y009805D01*
X014682Y009827D01*
X014640Y009853D01*
X014601Y009882D01*
X014564Y009914D01*
X014530Y009949D01*
X014498Y009987D01*
X014470Y010027D01*
X014445Y010069D01*
X014424Y010113D01*
X014407Y010159D01*
X014393Y010206D01*
X014383Y010254D01*
X014377Y010302D01*
X014375Y010351D01*
X011960Y015851D02*
X011962Y015901D01*
X011968Y015950D01*
X011978Y015999D01*
X011991Y016046D01*
X012009Y016093D01*
X012030Y016138D01*
X012054Y016181D01*
X012082Y016222D01*
X012113Y016261D01*
X012147Y016297D01*
X012184Y016331D01*
X012224Y016361D01*
X012265Y016388D01*
X012309Y016412D01*
X012354Y016432D01*
X012401Y016448D01*
X012449Y016461D01*
X012498Y016470D01*
X012548Y016475D01*
X012597Y016476D01*
X012647Y016473D01*
X012696Y016466D01*
X012745Y016455D01*
X012792Y016441D01*
X012838Y016422D01*
X012883Y016400D01*
X012926Y016375D01*
X012966Y016346D01*
X013004Y016314D01*
X013040Y016280D01*
X013073Y016242D01*
X013102Y016202D01*
X013128Y016160D01*
X013151Y016116D01*
X013170Y016070D01*
X013186Y016023D01*
X013198Y015974D01*
X013206Y015925D01*
X013210Y015876D01*
X013210Y015826D01*
X013206Y015777D01*
X013198Y015728D01*
X013186Y015679D01*
X013170Y015632D01*
X013151Y015586D01*
X013128Y015542D01*
X013102Y015500D01*
X013073Y015460D01*
X013040Y015422D01*
X013004Y015388D01*
X012966Y015356D01*
X012926Y015327D01*
X012883Y015302D01*
X012838Y015280D01*
X012792Y015261D01*
X012745Y015247D01*
X012696Y015236D01*
X012647Y015229D01*
X012597Y015226D01*
X012548Y015227D01*
X012498Y015232D01*
X012449Y015241D01*
X012401Y015254D01*
X012354Y015270D01*
X012309Y015290D01*
X012265Y015314D01*
X012224Y015341D01*
X012184Y015371D01*
X012147Y015405D01*
X012113Y015441D01*
X012082Y015480D01*
X012054Y015521D01*
X012030Y015564D01*
X012009Y015609D01*
X011991Y015656D01*
X011978Y015703D01*
X011968Y015752D01*
X011962Y015801D01*
X011960Y015851D01*
X009835Y015851D02*
X009837Y015901D01*
X009843Y015950D01*
X009853Y015999D01*
X009866Y016046D01*
X009884Y016093D01*
X009905Y016138D01*
X009929Y016181D01*
X009957Y016222D01*
X009988Y016261D01*
X010022Y016297D01*
X010059Y016331D01*
X010099Y016361D01*
X010140Y016388D01*
X010184Y016412D01*
X010229Y016432D01*
X010276Y016448D01*
X010324Y016461D01*
X010373Y016470D01*
X010423Y016475D01*
X010472Y016476D01*
X010522Y016473D01*
X010571Y016466D01*
X010620Y016455D01*
X010667Y016441D01*
X010713Y016422D01*
X010758Y016400D01*
X010801Y016375D01*
X010841Y016346D01*
X010879Y016314D01*
X010915Y016280D01*
X010948Y016242D01*
X010977Y016202D01*
X011003Y016160D01*
X011026Y016116D01*
X011045Y016070D01*
X011061Y016023D01*
X011073Y015974D01*
X011081Y015925D01*
X011085Y015876D01*
X011085Y015826D01*
X011081Y015777D01*
X011073Y015728D01*
X011061Y015679D01*
X011045Y015632D01*
X011026Y015586D01*
X011003Y015542D01*
X010977Y015500D01*
X010948Y015460D01*
X010915Y015422D01*
X010879Y015388D01*
X010841Y015356D01*
X010801Y015327D01*
X010758Y015302D01*
X010713Y015280D01*
X010667Y015261D01*
X010620Y015247D01*
X010571Y015236D01*
X010522Y015229D01*
X010472Y015226D01*
X010423Y015227D01*
X010373Y015232D01*
X010324Y015241D01*
X010276Y015254D01*
X010229Y015270D01*
X010184Y015290D01*
X010140Y015314D01*
X010099Y015341D01*
X010059Y015371D01*
X010022Y015405D01*
X009988Y015441D01*
X009957Y015480D01*
X009929Y015521D01*
X009905Y015564D01*
X009884Y015609D01*
X009866Y015656D01*
X009853Y015703D01*
X009843Y015752D01*
X009837Y015801D01*
X009835Y015851D01*
D11*
X005085Y015851D02*
X004835Y015601D01*
X005085Y015351D01*
X005085Y014851D01*
X004835Y014601D01*
X005085Y014351D01*
X005085Y013851D01*
X004835Y013601D01*
X005085Y013351D01*
X005085Y012851D01*
X004835Y012601D01*
X003335Y012601D01*
X003085Y012851D01*
X003085Y013351D01*
X003335Y013601D01*
X003085Y013851D01*
X003085Y014351D01*
X003335Y014601D01*
X003085Y014851D01*
X003085Y015351D01*
X003335Y015601D01*
X003085Y015851D01*
X003085Y016351D01*
X003335Y016601D01*
X004835Y016601D01*
X005085Y016351D01*
X005085Y015851D01*
X002960Y015851D02*
X002710Y015601D01*
X002960Y015351D01*
X002960Y014851D01*
X002710Y014601D01*
X002960Y014351D01*
X002960Y013851D01*
X002710Y013601D01*
X002960Y013351D01*
X002960Y012851D01*
X002710Y012601D01*
X001210Y012601D01*
X000960Y012851D01*
X000960Y013351D01*
X001210Y013601D01*
X000960Y013851D01*
X000960Y014351D01*
X001210Y014601D01*
X000960Y014851D01*
X000960Y015351D01*
X001210Y015601D01*
X000960Y015851D01*
X000960Y016351D01*
X001210Y016601D01*
X002710Y016601D01*
X002960Y016351D01*
X002960Y015851D01*
X002710Y004601D02*
X001210Y004601D01*
X000960Y004351D01*
X000960Y003851D01*
X001210Y003601D01*
X000960Y003351D01*
X000960Y002851D01*
X001210Y002601D01*
X000960Y002351D01*
X000960Y001851D01*
X001210Y001601D01*
X000960Y001351D01*
X000960Y000851D01*
X001210Y000601D01*
X002710Y000601D01*
X002960Y000851D01*
X002960Y001351D01*
X002710Y001601D01*
X002960Y001851D01*
X002960Y002351D01*
X002710Y002601D01*
X002960Y002851D01*
X002960Y003351D01*
X002710Y003601D01*
X002960Y003851D01*
X002960Y004351D01*
X002710Y004601D01*
X003085Y004351D02*
X003085Y003851D01*
X003335Y003601D01*
X003085Y003351D01*
X003085Y002851D01*
X003335Y002601D01*
X003085Y002351D01*
X003085Y001851D01*
X003335Y001601D01*
X003085Y001351D01*
X003085Y000851D01*
X003335Y000601D01*
X004835Y000601D01*
X005085Y000851D01*
X005085Y001351D01*
X004835Y001601D01*
X005085Y001851D01*
X005085Y002351D01*
X004835Y002601D01*
X005085Y002851D01*
X005085Y003351D01*
X004835Y003601D01*
X005085Y003851D01*
X005085Y004351D01*
X004835Y004601D01*
X003335Y004601D01*
X003085Y004351D01*
D12*
X003134Y004165D02*
X003585Y004165D01*
X003585Y004466D01*
X003510Y004005D02*
X003434Y004005D01*
X003359Y003930D01*
X003359Y003705D01*
X003434Y003545D02*
X003510Y003545D01*
X003585Y003470D01*
X003585Y003320D01*
X003510Y003245D01*
X003359Y003320D02*
X003359Y003470D01*
X003434Y003545D01*
X003585Y003705D02*
X003134Y003705D01*
X003134Y003930D01*
X003209Y004005D01*
X003284Y004005D01*
X003359Y003930D01*
X003510Y004005D02*
X003585Y003930D01*
X003585Y003705D01*
X003209Y003545D02*
X003134Y003470D01*
X003134Y003320D01*
X003209Y003245D01*
X003284Y003245D01*
X003359Y003320D01*
X002910Y003865D02*
X002910Y004166D01*
X002910Y004016D02*
X002459Y004016D01*
X002609Y003865D01*
X000785Y003865D02*
X000785Y004166D01*
X000785Y004016D02*
X000334Y004016D01*
X000484Y003865D01*
X003209Y000966D02*
X003284Y000966D01*
X003359Y000891D01*
X003359Y000740D01*
X003284Y000665D01*
X003209Y000665D01*
X003134Y000740D01*
X003134Y000891D01*
X003209Y000966D01*
X003359Y000891D02*
X003434Y000966D01*
X003510Y000966D01*
X003585Y000891D01*
X003585Y000740D01*
X003510Y000665D01*
X003434Y000665D01*
X003359Y000740D01*
X005259Y000740D02*
X005259Y000891D01*
X005334Y000966D01*
X005409Y000966D01*
X005484Y000891D01*
X005484Y000740D01*
X005409Y000665D01*
X005334Y000665D01*
X005259Y000740D01*
X005484Y000740D02*
X005559Y000665D01*
X005635Y000665D01*
X005710Y000740D01*
X005710Y000891D01*
X005635Y000966D01*
X005559Y000966D01*
X005484Y000891D01*
X005409Y003245D02*
X005484Y003320D01*
X005484Y003470D01*
X005559Y003545D01*
X005635Y003545D01*
X005710Y003470D01*
X005710Y003320D01*
X005635Y003245D01*
X005409Y003245D02*
X005334Y003245D01*
X005259Y003320D01*
X005259Y003470D01*
X005334Y003545D01*
X005259Y003705D02*
X005259Y003930D01*
X005334Y004005D01*
X005409Y004005D01*
X005484Y003930D01*
X005484Y003705D01*
X005259Y003705D02*
X005710Y003705D01*
X005710Y003930D01*
X005635Y004005D01*
X005559Y004005D01*
X005484Y003930D01*
X005559Y004165D02*
X005559Y004391D01*
X005484Y004466D01*
X005334Y004466D01*
X005259Y004391D01*
X005259Y004165D01*
X005710Y004165D01*
X005559Y004315D02*
X005710Y004466D01*
X009085Y005101D02*
X018085Y005101D01*
X018085Y012476D01*
X009085Y012476D01*
X009085Y005101D01*
X005635Y012665D02*
X005559Y012665D01*
X005484Y012740D01*
X005484Y012891D01*
X005559Y012966D01*
X005635Y012966D01*
X005710Y012891D01*
X005710Y012740D01*
X005635Y012665D01*
X005484Y012740D02*
X005409Y012665D01*
X005334Y012665D01*
X005259Y012740D01*
X005259Y012891D01*
X005334Y012966D01*
X005409Y012966D01*
X005484Y012891D01*
X003585Y012891D02*
X003585Y012740D01*
X003510Y012665D01*
X003434Y012665D01*
X003359Y012740D01*
X003359Y012891D01*
X003434Y012966D01*
X003510Y012966D01*
X003585Y012891D01*
X003359Y012891D02*
X003284Y012966D01*
X003209Y012966D01*
X003134Y012891D01*
X003134Y012740D01*
X003209Y012665D01*
X003284Y012665D01*
X003359Y012740D01*
X003284Y015245D02*
X003209Y015245D01*
X003134Y015320D01*
X003134Y015470D01*
X003209Y015545D01*
X003359Y015470D02*
X003359Y015320D01*
X003284Y015245D01*
X003510Y015245D02*
X003585Y015320D01*
X003585Y015470D01*
X003510Y015545D01*
X003434Y015545D01*
X003359Y015470D01*
X003134Y015705D02*
X003134Y016005D01*
X003134Y015855D02*
X003585Y015855D01*
X003585Y016165D02*
X003134Y016165D01*
X002910Y016166D02*
X002910Y015865D01*
X002910Y016016D02*
X002459Y016016D01*
X002609Y015865D01*
X003585Y016165D02*
X003585Y016466D01*
X005259Y016391D02*
X005259Y016165D01*
X005710Y016165D01*
X005559Y016165D02*
X005559Y016391D01*
X005484Y016466D01*
X005334Y016466D01*
X005259Y016391D01*
X005559Y016315D02*
X005710Y016466D01*
X005259Y016005D02*
X005259Y015705D01*
X005259Y015855D02*
X005710Y015855D01*
X005635Y015545D02*
X005710Y015470D01*
X005710Y015320D01*
X005635Y015245D01*
X005484Y015320D02*
X005484Y015470D01*
X005559Y015545D01*
X005635Y015545D01*
X005484Y015320D02*
X005409Y015245D01*
X005334Y015245D01*
X005259Y015320D01*
X005259Y015470D01*
X005334Y015545D01*
X000785Y015865D02*
X000785Y016166D01*
X000785Y016016D02*
X000334Y016016D01*
X000484Y015865D01*
D13*
X005979Y013686D02*
X005979Y013533D01*
X006056Y013456D01*
X006056Y013303D02*
X005979Y013226D01*
X005979Y013072D01*
X006056Y012996D01*
X006363Y012996D01*
X006440Y013072D01*
X006440Y013226D01*
X006363Y013303D01*
X006056Y013303D01*
X006286Y013149D02*
X006440Y013303D01*
X006363Y013456D02*
X006440Y013533D01*
X006440Y013686D01*
X006363Y013763D01*
X006286Y013763D01*
X006209Y013686D01*
X006209Y013610D01*
X006209Y013686D02*
X006133Y013763D01*
X006056Y013763D01*
X005979Y013686D01*
X009056Y010342D02*
X008979Y010266D01*
X008979Y010112D01*
X009056Y010035D01*
X009056Y009882D02*
X009363Y009882D01*
X009440Y009805D01*
X009440Y009652D01*
X009363Y009575D01*
X009056Y009575D01*
X008979Y009652D01*
X008979Y009805D01*
X009056Y009882D01*
X009286Y009728D02*
X009440Y009882D01*
X009440Y010035D02*
X009133Y010342D01*
X009056Y010342D01*
X009440Y010342D02*
X009440Y010035D01*
X009440Y006967D02*
X009440Y006660D01*
X009440Y006507D02*
X009286Y006353D01*
X009363Y006200D02*
X009056Y006200D01*
X008979Y006277D01*
X008979Y006430D01*
X009056Y006507D01*
X009363Y006507D01*
X009440Y006430D01*
X009440Y006277D01*
X009363Y006200D01*
X009133Y006660D02*
X008979Y006814D01*
X009440Y006814D01*
X011556Y013325D02*
X011479Y013402D01*
X011479Y013555D01*
X011556Y013632D01*
X011863Y013632D01*
X011940Y013555D01*
X011940Y013402D01*
X011863Y013325D01*
X011556Y013325D01*
X011786Y013478D02*
X011940Y013632D01*
X011709Y013785D02*
X011709Y014092D01*
X011479Y014016D02*
X011709Y013785D01*
X011479Y014016D02*
X011940Y014016D01*
D14*
X008654Y010494D02*
X008654Y010208D01*
X006765Y010208D02*
X006765Y010494D01*
X006765Y007119D02*
X006765Y006833D01*
X008654Y006833D02*
X008654Y007119D01*
M02*
