G75*
G70*
%OFA0B0*%
%FSLAX24Y24*%
%IPPOS*%
%LPD*%
%AMOC8*
5,1,8,0,0,1.08239X$1,22.5*
%
%ADD10C,0.0000*%
%ADD11C,0.0060*%
%ADD12C,0.0160*%
%ADD13C,0.0030*%
%ADD14C,0.0100*%
%ADD15C,0.0050*%
%ADD16C,0.0080*%
%ADD17C,0.0040*%
%ADD18R,0.0118X0.0059*%
%ADD19R,0.0118X0.0118*%
D10*
X000585Y000151D02*
X017085Y000151D01*
X017085Y018151D01*
X000585Y018151D01*
X000585Y011214D01*
X005566Y011214D01*
X005605Y011212D01*
X005643Y011206D01*
X005680Y011197D01*
X005717Y011184D01*
X005752Y011167D01*
X005785Y011148D01*
X005816Y011125D01*
X005845Y011099D01*
X005871Y011070D01*
X005894Y011039D01*
X005913Y011006D01*
X005930Y010971D01*
X005943Y010934D01*
X005952Y010897D01*
X005958Y010859D01*
X005960Y010820D01*
X005960Y007232D01*
X005958Y007193D01*
X005952Y007155D01*
X005943Y007118D01*
X005930Y007081D01*
X005913Y007046D01*
X005894Y007013D01*
X005871Y006982D01*
X005845Y006953D01*
X005816Y006927D01*
X005785Y006904D01*
X005752Y006885D01*
X005717Y006868D01*
X005680Y006855D01*
X005643Y006846D01*
X005605Y006840D01*
X005566Y006838D01*
X005566Y006839D02*
X000585Y006839D01*
X000585Y000151D01*
X012085Y001964D02*
X012087Y002014D01*
X012093Y002063D01*
X012103Y002112D01*
X012116Y002159D01*
X012134Y002206D01*
X012155Y002251D01*
X012179Y002294D01*
X012207Y002335D01*
X012238Y002374D01*
X012272Y002410D01*
X012309Y002444D01*
X012349Y002474D01*
X012390Y002501D01*
X012434Y002525D01*
X012479Y002545D01*
X012526Y002561D01*
X012574Y002574D01*
X012623Y002583D01*
X012673Y002588D01*
X012722Y002589D01*
X012772Y002586D01*
X012821Y002579D01*
X012870Y002568D01*
X012917Y002554D01*
X012963Y002535D01*
X013008Y002513D01*
X013051Y002488D01*
X013091Y002459D01*
X013129Y002427D01*
X013165Y002393D01*
X013198Y002355D01*
X013227Y002315D01*
X013253Y002273D01*
X013276Y002229D01*
X013295Y002183D01*
X013311Y002136D01*
X013323Y002087D01*
X013331Y002038D01*
X013335Y001989D01*
X013335Y001939D01*
X013331Y001890D01*
X013323Y001841D01*
X013311Y001792D01*
X013295Y001745D01*
X013276Y001699D01*
X013253Y001655D01*
X013227Y001613D01*
X013198Y001573D01*
X013165Y001535D01*
X013129Y001501D01*
X013091Y001469D01*
X013051Y001440D01*
X013008Y001415D01*
X012963Y001393D01*
X012917Y001374D01*
X012870Y001360D01*
X012821Y001349D01*
X012772Y001342D01*
X012722Y001339D01*
X012673Y001340D01*
X012623Y001345D01*
X012574Y001354D01*
X012526Y001367D01*
X012479Y001383D01*
X012434Y001403D01*
X012390Y001427D01*
X012349Y001454D01*
X012309Y001484D01*
X012272Y001518D01*
X012238Y001554D01*
X012207Y001593D01*
X012179Y001634D01*
X012155Y001677D01*
X012134Y001722D01*
X012116Y001769D01*
X012103Y001816D01*
X012093Y001865D01*
X012087Y001914D01*
X012085Y001964D01*
X014210Y001964D02*
X014212Y002014D01*
X014218Y002063D01*
X014228Y002112D01*
X014241Y002159D01*
X014259Y002206D01*
X014280Y002251D01*
X014304Y002294D01*
X014332Y002335D01*
X014363Y002374D01*
X014397Y002410D01*
X014434Y002444D01*
X014474Y002474D01*
X014515Y002501D01*
X014559Y002525D01*
X014604Y002545D01*
X014651Y002561D01*
X014699Y002574D01*
X014748Y002583D01*
X014798Y002588D01*
X014847Y002589D01*
X014897Y002586D01*
X014946Y002579D01*
X014995Y002568D01*
X015042Y002554D01*
X015088Y002535D01*
X015133Y002513D01*
X015176Y002488D01*
X015216Y002459D01*
X015254Y002427D01*
X015290Y002393D01*
X015323Y002355D01*
X015352Y002315D01*
X015378Y002273D01*
X015401Y002229D01*
X015420Y002183D01*
X015436Y002136D01*
X015448Y002087D01*
X015456Y002038D01*
X015460Y001989D01*
X015460Y001939D01*
X015456Y001890D01*
X015448Y001841D01*
X015436Y001792D01*
X015420Y001745D01*
X015401Y001699D01*
X015378Y001655D01*
X015352Y001613D01*
X015323Y001573D01*
X015290Y001535D01*
X015254Y001501D01*
X015216Y001469D01*
X015176Y001440D01*
X015133Y001415D01*
X015088Y001393D01*
X015042Y001374D01*
X014995Y001360D01*
X014946Y001349D01*
X014897Y001342D01*
X014847Y001339D01*
X014798Y001340D01*
X014748Y001345D01*
X014699Y001354D01*
X014651Y001367D01*
X014604Y001383D01*
X014559Y001403D01*
X014515Y001427D01*
X014474Y001454D01*
X014434Y001484D01*
X014397Y001518D01*
X014363Y001554D01*
X014332Y001593D01*
X014304Y001634D01*
X014280Y001677D01*
X014259Y001722D01*
X014241Y001769D01*
X014228Y001816D01*
X014218Y001865D01*
X014212Y001914D01*
X014210Y001964D01*
X014125Y005601D02*
X014127Y005650D01*
X014133Y005698D01*
X014143Y005746D01*
X014157Y005793D01*
X014174Y005839D01*
X014195Y005883D01*
X014220Y005925D01*
X014248Y005965D01*
X014280Y006003D01*
X014314Y006038D01*
X014351Y006070D01*
X014390Y006099D01*
X014432Y006125D01*
X014476Y006147D01*
X014521Y006165D01*
X014568Y006180D01*
X014615Y006191D01*
X014664Y006198D01*
X014713Y006201D01*
X014762Y006200D01*
X014810Y006195D01*
X014859Y006186D01*
X014906Y006173D01*
X014952Y006156D01*
X014996Y006136D01*
X015039Y006112D01*
X015080Y006085D01*
X015118Y006054D01*
X015154Y006021D01*
X015186Y005985D01*
X015216Y005946D01*
X015243Y005905D01*
X015266Y005861D01*
X015285Y005816D01*
X015301Y005770D01*
X015313Y005723D01*
X015321Y005674D01*
X015325Y005625D01*
X015325Y005577D01*
X015321Y005528D01*
X015313Y005479D01*
X015301Y005432D01*
X015285Y005386D01*
X015266Y005341D01*
X015243Y005297D01*
X015216Y005256D01*
X015186Y005217D01*
X015154Y005181D01*
X015118Y005148D01*
X015080Y005117D01*
X015039Y005090D01*
X014996Y005066D01*
X014952Y005046D01*
X014906Y005029D01*
X014859Y005016D01*
X014810Y005007D01*
X014762Y005002D01*
X014713Y005001D01*
X014664Y005004D01*
X014615Y005011D01*
X014568Y005022D01*
X014521Y005037D01*
X014476Y005055D01*
X014432Y005077D01*
X014390Y005103D01*
X014351Y005132D01*
X014314Y005164D01*
X014280Y005199D01*
X014248Y005237D01*
X014220Y005277D01*
X014195Y005319D01*
X014174Y005363D01*
X014157Y005409D01*
X014143Y005456D01*
X014133Y005504D01*
X014127Y005552D01*
X014125Y005601D01*
X014125Y008901D02*
X014127Y008950D01*
X014133Y008998D01*
X014143Y009046D01*
X014157Y009093D01*
X014174Y009139D01*
X014195Y009183D01*
X014220Y009225D01*
X014248Y009265D01*
X014280Y009303D01*
X014314Y009338D01*
X014351Y009370D01*
X014390Y009399D01*
X014432Y009425D01*
X014476Y009447D01*
X014521Y009465D01*
X014568Y009480D01*
X014615Y009491D01*
X014664Y009498D01*
X014713Y009501D01*
X014762Y009500D01*
X014810Y009495D01*
X014859Y009486D01*
X014906Y009473D01*
X014952Y009456D01*
X014996Y009436D01*
X015039Y009412D01*
X015080Y009385D01*
X015118Y009354D01*
X015154Y009321D01*
X015186Y009285D01*
X015216Y009246D01*
X015243Y009205D01*
X015266Y009161D01*
X015285Y009116D01*
X015301Y009070D01*
X015313Y009023D01*
X015321Y008974D01*
X015325Y008925D01*
X015325Y008877D01*
X015321Y008828D01*
X015313Y008779D01*
X015301Y008732D01*
X015285Y008686D01*
X015266Y008641D01*
X015243Y008597D01*
X015216Y008556D01*
X015186Y008517D01*
X015154Y008481D01*
X015118Y008448D01*
X015080Y008417D01*
X015039Y008390D01*
X014996Y008366D01*
X014952Y008346D01*
X014906Y008329D01*
X014859Y008316D01*
X014810Y008307D01*
X014762Y008302D01*
X014713Y008301D01*
X014664Y008304D01*
X014615Y008311D01*
X014568Y008322D01*
X014521Y008337D01*
X014476Y008355D01*
X014432Y008377D01*
X014390Y008403D01*
X014351Y008432D01*
X014314Y008464D01*
X014280Y008499D01*
X014248Y008537D01*
X014220Y008577D01*
X014195Y008619D01*
X014174Y008663D01*
X014157Y008709D01*
X014143Y008756D01*
X014133Y008804D01*
X014127Y008852D01*
X014125Y008901D01*
X014210Y016464D02*
X014212Y016514D01*
X014218Y016563D01*
X014228Y016612D01*
X014241Y016659D01*
X014259Y016706D01*
X014280Y016751D01*
X014304Y016794D01*
X014332Y016835D01*
X014363Y016874D01*
X014397Y016910D01*
X014434Y016944D01*
X014474Y016974D01*
X014515Y017001D01*
X014559Y017025D01*
X014604Y017045D01*
X014651Y017061D01*
X014699Y017074D01*
X014748Y017083D01*
X014798Y017088D01*
X014847Y017089D01*
X014897Y017086D01*
X014946Y017079D01*
X014995Y017068D01*
X015042Y017054D01*
X015088Y017035D01*
X015133Y017013D01*
X015176Y016988D01*
X015216Y016959D01*
X015254Y016927D01*
X015290Y016893D01*
X015323Y016855D01*
X015352Y016815D01*
X015378Y016773D01*
X015401Y016729D01*
X015420Y016683D01*
X015436Y016636D01*
X015448Y016587D01*
X015456Y016538D01*
X015460Y016489D01*
X015460Y016439D01*
X015456Y016390D01*
X015448Y016341D01*
X015436Y016292D01*
X015420Y016245D01*
X015401Y016199D01*
X015378Y016155D01*
X015352Y016113D01*
X015323Y016073D01*
X015290Y016035D01*
X015254Y016001D01*
X015216Y015969D01*
X015176Y015940D01*
X015133Y015915D01*
X015088Y015893D01*
X015042Y015874D01*
X014995Y015860D01*
X014946Y015849D01*
X014897Y015842D01*
X014847Y015839D01*
X014798Y015840D01*
X014748Y015845D01*
X014699Y015854D01*
X014651Y015867D01*
X014604Y015883D01*
X014559Y015903D01*
X014515Y015927D01*
X014474Y015954D01*
X014434Y015984D01*
X014397Y016018D01*
X014363Y016054D01*
X014332Y016093D01*
X014304Y016134D01*
X014280Y016177D01*
X014259Y016222D01*
X014241Y016269D01*
X014228Y016316D01*
X014218Y016365D01*
X014212Y016414D01*
X014210Y016464D01*
X012085Y016464D02*
X012087Y016514D01*
X012093Y016563D01*
X012103Y016612D01*
X012116Y016659D01*
X012134Y016706D01*
X012155Y016751D01*
X012179Y016794D01*
X012207Y016835D01*
X012238Y016874D01*
X012272Y016910D01*
X012309Y016944D01*
X012349Y016974D01*
X012390Y017001D01*
X012434Y017025D01*
X012479Y017045D01*
X012526Y017061D01*
X012574Y017074D01*
X012623Y017083D01*
X012673Y017088D01*
X012722Y017089D01*
X012772Y017086D01*
X012821Y017079D01*
X012870Y017068D01*
X012917Y017054D01*
X012963Y017035D01*
X013008Y017013D01*
X013051Y016988D01*
X013091Y016959D01*
X013129Y016927D01*
X013165Y016893D01*
X013198Y016855D01*
X013227Y016815D01*
X013253Y016773D01*
X013276Y016729D01*
X013295Y016683D01*
X013311Y016636D01*
X013323Y016587D01*
X013331Y016538D01*
X013335Y016489D01*
X013335Y016439D01*
X013331Y016390D01*
X013323Y016341D01*
X013311Y016292D01*
X013295Y016245D01*
X013276Y016199D01*
X013253Y016155D01*
X013227Y016113D01*
X013198Y016073D01*
X013165Y016035D01*
X013129Y016001D01*
X013091Y015969D01*
X013051Y015940D01*
X013008Y015915D01*
X012963Y015893D01*
X012917Y015874D01*
X012870Y015860D01*
X012821Y015849D01*
X012772Y015842D01*
X012722Y015839D01*
X012673Y015840D01*
X012623Y015845D01*
X012574Y015854D01*
X012526Y015867D01*
X012479Y015883D01*
X012434Y015903D01*
X012390Y015927D01*
X012349Y015954D01*
X012309Y015984D01*
X012272Y016018D01*
X012238Y016054D01*
X012207Y016093D01*
X012179Y016134D01*
X012155Y016177D01*
X012134Y016222D01*
X012116Y016269D01*
X012103Y016316D01*
X012093Y016365D01*
X012087Y016414D01*
X012085Y016464D01*
D11*
X009854Y010189D02*
X009427Y010189D01*
X008680Y007663D02*
X008039Y007663D01*
X008039Y007236D02*
X008680Y007663D01*
X008680Y007236D02*
X008039Y007236D01*
X008039Y007020D02*
X008039Y006806D01*
X008039Y006913D02*
X008680Y006913D01*
X008680Y006806D02*
X008680Y007020D01*
X011490Y004251D02*
X011917Y004251D01*
X011703Y004038D02*
X011703Y004465D01*
X005085Y004464D02*
X004835Y004214D01*
X005085Y003964D01*
X005085Y003464D01*
X004835Y003214D01*
X005085Y002964D01*
X005085Y002464D01*
X004835Y002214D01*
X005085Y001964D01*
X005085Y001464D01*
X004835Y001214D01*
X003335Y001214D01*
X003085Y001464D01*
X003085Y001964D01*
X003335Y002214D01*
X003085Y002464D01*
X003085Y002964D01*
X003335Y003214D01*
X003085Y003464D01*
X003085Y003964D01*
X003335Y004214D01*
X003085Y004464D01*
X003085Y004964D01*
X003335Y005214D01*
X004835Y005214D01*
X005085Y004964D01*
X005085Y004464D01*
X003700Y005994D02*
X003487Y005994D01*
X003380Y006100D01*
X003807Y006527D01*
X003807Y006100D01*
X003700Y005994D01*
X003380Y006100D02*
X003380Y006527D01*
X003487Y006634D01*
X003700Y006634D01*
X003807Y006527D01*
X003165Y006100D02*
X003165Y005994D01*
X003058Y005994D01*
X003058Y006100D01*
X003165Y006100D01*
X002840Y006100D02*
X002734Y005994D01*
X002520Y005994D01*
X002413Y006100D01*
X002413Y006314D01*
X002734Y006314D01*
X002840Y006207D01*
X002840Y006100D01*
X002627Y006527D02*
X002413Y006314D01*
X002627Y006527D02*
X002840Y006634D01*
X002198Y006100D02*
X002198Y005994D01*
X002091Y005994D01*
X002091Y006100D01*
X002198Y006100D01*
X001874Y006100D02*
X001874Y006527D01*
X001447Y006100D01*
X001553Y005994D01*
X001767Y005994D01*
X001874Y006100D01*
X001447Y006100D02*
X001447Y006527D01*
X001553Y006634D01*
X001767Y006634D01*
X001874Y006527D01*
X001229Y006421D02*
X001016Y005994D01*
X000802Y006421D01*
X001210Y005214D02*
X000960Y004964D01*
X000960Y004464D01*
X001210Y004214D01*
X000960Y003964D01*
X000960Y003464D01*
X001210Y003214D01*
X000960Y002964D01*
X000960Y002464D01*
X001210Y002214D01*
X000960Y001964D01*
X000960Y001464D01*
X001210Y001214D01*
X002710Y001214D01*
X002960Y001464D01*
X002960Y001964D01*
X002710Y002214D01*
X002960Y002464D01*
X002960Y002964D01*
X002710Y003214D01*
X002960Y003464D01*
X002960Y003964D01*
X002710Y004214D01*
X002960Y004464D01*
X002960Y004964D01*
X002710Y005214D01*
X001210Y005214D01*
X001415Y011419D02*
X001629Y011632D01*
X001842Y011419D01*
X001842Y012059D01*
X002060Y012059D02*
X002380Y012059D01*
X002487Y011952D01*
X002487Y011739D01*
X002380Y011632D01*
X002060Y011632D01*
X002273Y011632D02*
X002487Y011419D01*
X002060Y011419D02*
X002060Y012059D01*
X001415Y012059D02*
X001415Y011419D01*
X001198Y011739D02*
X001091Y011632D01*
X000771Y011632D01*
X000771Y011419D02*
X000771Y012059D01*
X001091Y012059D01*
X001198Y011952D01*
X001198Y011739D01*
X001210Y013214D02*
X000960Y013464D01*
X000960Y013964D01*
X001210Y014214D01*
X000960Y014464D01*
X000960Y014964D01*
X001210Y015214D01*
X000960Y015464D01*
X000960Y015964D01*
X001210Y016214D01*
X000960Y016464D01*
X000960Y016964D01*
X001210Y017214D01*
X002710Y017214D01*
X002960Y016964D01*
X002960Y016464D01*
X002710Y016214D01*
X002960Y015964D01*
X002960Y015464D01*
X002710Y015214D01*
X002960Y014964D01*
X002960Y014464D01*
X002710Y014214D01*
X002960Y013964D01*
X002960Y013464D01*
X002710Y013214D01*
X001210Y013214D01*
X003085Y013464D02*
X003335Y013214D01*
X004835Y013214D01*
X005085Y013464D01*
X005085Y013964D01*
X004835Y014214D01*
X005085Y014464D01*
X005085Y014964D01*
X004835Y015214D01*
X005085Y015464D01*
X005085Y015964D01*
X004835Y016214D01*
X005085Y016464D01*
X005085Y016964D01*
X004835Y017214D01*
X003335Y017214D01*
X003085Y016964D01*
X003085Y016464D01*
X003335Y016214D01*
X003085Y015964D01*
X003085Y015464D01*
X003335Y015214D01*
X003085Y014964D01*
X003085Y014464D01*
X003335Y014214D01*
X003085Y013964D01*
X003085Y013464D01*
X003456Y012059D02*
X003349Y011952D01*
X003349Y011525D01*
X003456Y011419D01*
X003669Y011419D01*
X003776Y011525D01*
X004207Y011419D02*
X004207Y012059D01*
X004420Y012059D02*
X003993Y012059D01*
X003776Y011952D02*
X003669Y012059D01*
X003456Y012059D01*
X004638Y012059D02*
X004638Y011419D01*
X004638Y011632D02*
X004958Y011632D01*
X005065Y011739D01*
X005065Y011952D01*
X004958Y012059D01*
X004638Y012059D01*
X004851Y011632D02*
X005065Y011419D01*
X005282Y011419D02*
X005709Y011419D01*
X005282Y011419D02*
X005282Y012059D01*
D12*
X007147Y003401D02*
X009272Y003401D01*
X009272Y000651D01*
X008147Y000651D01*
X008147Y003401D01*
X007897Y003401D01*
X007147Y003401D02*
X007147Y000651D01*
X008147Y000651D01*
X009272Y000651D02*
X010335Y000651D01*
X010335Y002089D01*
X007210Y002089D01*
X007210Y002151D01*
X009272Y003401D02*
X010335Y003401D01*
X010335Y002089D01*
D13*
X010152Y002726D02*
X009905Y002726D01*
X009784Y002788D02*
X009784Y002850D01*
X009722Y002911D01*
X009599Y002911D01*
X009537Y002850D01*
X009784Y002788D02*
X009537Y002541D01*
X009784Y002541D01*
X008967Y002726D02*
X008720Y002726D01*
X008598Y002541D02*
X008475Y002541D01*
X008536Y002541D02*
X008536Y002911D01*
X008475Y002911D02*
X008598Y002911D01*
X007965Y002726D02*
X007718Y002726D01*
X007596Y002541D02*
X007350Y002541D01*
X007473Y002541D02*
X007473Y002911D01*
X007350Y002788D01*
X007473Y001536D02*
X007473Y001166D01*
X007350Y001166D02*
X007596Y001166D01*
X007718Y001351D02*
X007965Y001351D01*
X007841Y001228D02*
X007841Y001475D01*
X007473Y001536D02*
X007350Y001413D01*
X008475Y001536D02*
X008598Y001536D01*
X008536Y001536D02*
X008536Y001166D01*
X008475Y001166D02*
X008598Y001166D01*
X008720Y001351D02*
X008967Y001351D01*
X008844Y001228D02*
X008844Y001475D01*
X009537Y001475D02*
X009599Y001536D01*
X009722Y001536D01*
X009784Y001475D01*
X009784Y001413D01*
X009537Y001166D01*
X009784Y001166D01*
X009905Y001351D02*
X010152Y001351D01*
X010029Y001228D02*
X010029Y001475D01*
D14*
X000585Y000151D02*
X000585Y006839D01*
X005460Y006839D01*
X005504Y006841D01*
X005547Y006847D01*
X005589Y006856D01*
X005631Y006869D01*
X005671Y006886D01*
X005710Y006906D01*
X005747Y006929D01*
X005781Y006956D01*
X005814Y006985D01*
X005843Y007018D01*
X005870Y007052D01*
X005893Y007089D01*
X005913Y007128D01*
X005930Y007168D01*
X005943Y007210D01*
X005952Y007252D01*
X005958Y007295D01*
X005960Y007339D01*
X005960Y010714D01*
X005958Y010758D01*
X005952Y010801D01*
X005943Y010843D01*
X005930Y010885D01*
X005913Y010925D01*
X005893Y010964D01*
X005870Y011001D01*
X005843Y011035D01*
X005814Y011068D01*
X005781Y011097D01*
X005747Y011124D01*
X005710Y011147D01*
X005671Y011167D01*
X005631Y011184D01*
X005589Y011197D01*
X005547Y011206D01*
X005504Y011212D01*
X005460Y011214D01*
X000585Y011214D01*
X000585Y018151D01*
X017085Y018151D01*
X017085Y000151D01*
X000585Y000151D01*
D15*
X003134Y001353D02*
X003209Y001278D01*
X003284Y001278D01*
X003359Y001353D01*
X003359Y001503D01*
X003434Y001579D01*
X003510Y001579D01*
X003585Y001503D01*
X003585Y001353D01*
X003510Y001278D01*
X003434Y001278D01*
X003359Y001353D01*
X003359Y001503D02*
X003284Y001579D01*
X003209Y001579D01*
X003134Y001503D01*
X003134Y001353D01*
X005259Y001353D02*
X005334Y001278D01*
X005409Y001278D01*
X005484Y001353D01*
X005484Y001503D01*
X005559Y001579D01*
X005635Y001579D01*
X005710Y001503D01*
X005710Y001353D01*
X005635Y001278D01*
X005559Y001278D01*
X005484Y001353D01*
X005484Y001503D02*
X005409Y001579D01*
X005334Y001579D01*
X005259Y001503D01*
X005259Y001353D01*
X002910Y004478D02*
X002910Y004779D01*
X002910Y004628D02*
X002459Y004628D01*
X002609Y004478D01*
X002706Y005326D02*
X002405Y005326D01*
X002405Y005777D01*
X002245Y005701D02*
X002245Y005626D01*
X002170Y005551D01*
X001945Y005551D01*
X001785Y005476D02*
X001785Y005401D01*
X001710Y005326D01*
X001560Y005326D01*
X001485Y005401D01*
X001560Y005551D02*
X001710Y005551D01*
X001785Y005476D01*
X001945Y005326D02*
X002170Y005326D01*
X002245Y005401D01*
X002245Y005476D01*
X002170Y005551D01*
X002245Y005701D02*
X002170Y005777D01*
X001945Y005777D01*
X001945Y005326D01*
X001785Y005701D02*
X001710Y005777D01*
X001560Y005777D01*
X001485Y005701D01*
X001485Y005626D01*
X001560Y005551D01*
X000785Y004779D02*
X000785Y004478D01*
X000785Y004628D02*
X000334Y004628D01*
X000484Y004478D01*
X003485Y005401D02*
X003560Y005326D01*
X003710Y005326D01*
X003785Y005401D01*
X003785Y005476D01*
X003710Y005551D01*
X003560Y005551D01*
X003485Y005626D01*
X003485Y005701D01*
X003560Y005776D01*
X003710Y005776D01*
X003785Y005701D01*
X003945Y005776D02*
X004170Y005776D01*
X004245Y005701D01*
X004245Y005626D01*
X004170Y005551D01*
X003945Y005551D01*
X003945Y005326D02*
X004170Y005326D01*
X004245Y005401D01*
X004245Y005476D01*
X004170Y005551D01*
X004405Y005476D02*
X004630Y005476D01*
X004706Y005551D01*
X004706Y005701D01*
X004630Y005776D01*
X004405Y005776D01*
X004405Y005326D01*
X004555Y005476D02*
X004706Y005326D01*
X003945Y005326D02*
X003945Y005776D01*
X008835Y003651D02*
X008835Y011026D01*
X005710Y013353D02*
X005635Y013278D01*
X005559Y013278D01*
X005484Y013353D01*
X005484Y013503D01*
X005559Y013579D01*
X005635Y013579D01*
X005710Y013503D01*
X005710Y013353D01*
X005484Y013353D02*
X005409Y013278D01*
X005334Y013278D01*
X005259Y013353D01*
X005259Y013503D01*
X005334Y013579D01*
X005409Y013579D01*
X005484Y013503D01*
X004706Y013014D02*
X004706Y012864D01*
X004630Y012789D01*
X004405Y012789D01*
X004405Y012639D02*
X004405Y013089D01*
X004630Y013089D01*
X004706Y013014D01*
X004555Y012789D02*
X004706Y012639D01*
X004245Y013089D02*
X003945Y013089D01*
X004095Y013089D02*
X004095Y012639D01*
X003785Y012714D02*
X003710Y012639D01*
X003560Y012639D01*
X003485Y012714D01*
X003560Y012864D02*
X003710Y012864D01*
X003785Y012789D01*
X003785Y012714D01*
X003560Y012864D02*
X003485Y012939D01*
X003485Y013014D01*
X003560Y013089D01*
X003710Y013089D01*
X003785Y013014D01*
X003510Y013278D02*
X003434Y013278D01*
X003359Y013353D01*
X003359Y013503D01*
X003434Y013579D01*
X003510Y013579D01*
X003585Y013503D01*
X003585Y013353D01*
X003510Y013278D01*
X003359Y013353D02*
X003284Y013278D01*
X003209Y013278D01*
X003134Y013353D01*
X003134Y013503D01*
X003209Y013579D01*
X003284Y013579D01*
X003359Y013503D01*
X002643Y012639D02*
X002343Y012639D01*
X002343Y013089D01*
X002183Y013089D02*
X001882Y013089D01*
X002033Y013089D02*
X002033Y012639D01*
X001722Y012714D02*
X001647Y012639D01*
X001497Y012639D01*
X001422Y012714D01*
X001497Y012864D02*
X001422Y012939D01*
X001422Y013014D01*
X001497Y013089D01*
X001647Y013089D01*
X001722Y013014D01*
X001647Y012864D02*
X001497Y012864D01*
X001647Y012864D02*
X001722Y012789D01*
X001722Y012714D01*
X002609Y016478D02*
X002459Y016628D01*
X002910Y016628D01*
X002910Y016478D02*
X002910Y016779D01*
X000785Y016779D02*
X000785Y016478D01*
X000785Y016628D02*
X000334Y016628D01*
X000484Y016478D01*
D16*
X006890Y008919D02*
X006890Y008633D01*
X008779Y008633D02*
X008779Y008919D01*
X008529Y005669D02*
X008529Y005383D01*
X006640Y005383D02*
X006640Y005669D01*
D17*
X006440Y005143D02*
X006440Y004836D01*
X006440Y004989D02*
X005979Y004989D01*
X006133Y004836D01*
X006056Y004682D02*
X006363Y004682D01*
X006440Y004606D01*
X006440Y004452D01*
X006363Y004375D01*
X006056Y004375D01*
X005979Y004452D01*
X005979Y004606D01*
X006056Y004682D01*
X006286Y004529D02*
X006440Y004682D01*
X010513Y003069D02*
X010513Y002609D01*
X010820Y002609D01*
X010973Y002609D02*
X011280Y002609D01*
X011434Y002609D02*
X011664Y002609D01*
X011741Y002685D01*
X011741Y002992D01*
X011664Y003069D01*
X011434Y003069D01*
X011434Y002609D01*
X011127Y002839D02*
X010973Y002839D01*
X010973Y003069D02*
X010973Y002609D01*
X010973Y003069D02*
X011280Y003069D01*
X011894Y002915D02*
X012047Y003069D01*
X012047Y002609D01*
X011894Y002609D02*
X012201Y002609D01*
X013417Y003609D02*
X013417Y004069D01*
X013647Y004069D01*
X013724Y003992D01*
X013724Y003839D01*
X013647Y003762D01*
X013417Y003762D01*
X013570Y003762D02*
X013724Y003609D01*
X013877Y003609D02*
X014184Y003609D01*
X014031Y003609D02*
X014031Y004069D01*
X013877Y003916D01*
X008201Y010859D02*
X007894Y010859D01*
X008201Y011166D01*
X008201Y011242D01*
X008124Y011319D01*
X007971Y011319D01*
X007894Y011242D01*
X007741Y011242D02*
X007741Y010935D01*
X007664Y010859D01*
X007511Y010859D01*
X007434Y010935D01*
X007434Y011242D01*
X007511Y011319D01*
X007664Y011319D01*
X007741Y011242D01*
X007587Y011012D02*
X007741Y010859D01*
X007675Y012796D02*
X007368Y012796D01*
X007292Y012873D01*
X007292Y013026D01*
X007368Y013103D01*
X007368Y013257D02*
X007292Y013333D01*
X007292Y013487D01*
X007368Y013563D01*
X007445Y013563D01*
X007752Y013257D01*
X007752Y013563D01*
X007675Y013103D02*
X007752Y013026D01*
X007752Y012873D01*
X007675Y012796D01*
X007678Y014921D02*
X007525Y015075D01*
X007601Y015075D02*
X007371Y015075D01*
X007371Y014921D02*
X007371Y015382D01*
X007601Y015382D01*
X007678Y015305D01*
X007678Y015151D01*
X007601Y015075D01*
X007832Y014998D02*
X007908Y014921D01*
X008062Y014921D01*
X008139Y014998D01*
X008139Y015075D01*
X008062Y015151D01*
X007985Y015151D01*
X008062Y015151D02*
X008139Y015228D01*
X008139Y015305D01*
X008062Y015382D01*
X007908Y015382D01*
X007832Y015305D01*
X007815Y015796D02*
X008122Y016103D01*
X008122Y016180D01*
X008045Y016257D01*
X007892Y016257D01*
X007815Y016180D01*
X007661Y016180D02*
X007661Y016026D01*
X007585Y015950D01*
X007355Y015950D01*
X007508Y015950D02*
X007661Y015796D01*
X007815Y015796D02*
X008122Y015796D01*
X007661Y016180D02*
X007585Y016257D01*
X007355Y016257D01*
X007355Y015796D01*
X011229Y013378D02*
X011459Y013148D01*
X011459Y013455D01*
X011229Y013378D02*
X011690Y013378D01*
X011690Y012995D02*
X011536Y012841D01*
X011536Y012918D02*
X011536Y012688D01*
X011690Y012688D02*
X011229Y012688D01*
X011229Y012918D01*
X011306Y012995D01*
X011459Y012995D01*
X011536Y012918D01*
X013042Y012873D02*
X013118Y012796D01*
X013425Y012796D01*
X013502Y012873D01*
X013502Y013026D01*
X013425Y013103D01*
X013502Y013256D02*
X013502Y013563D01*
X013502Y013410D02*
X013042Y013410D01*
X013195Y013256D01*
X013118Y013103D02*
X013042Y013026D01*
X013042Y012873D01*
X015059Y013484D02*
X015059Y013944D01*
X015289Y013944D01*
X015366Y013867D01*
X015366Y013714D01*
X015289Y013637D01*
X015059Y013637D01*
X015212Y013637D02*
X015366Y013484D01*
X015519Y013560D02*
X015596Y013484D01*
X015749Y013484D01*
X015826Y013560D01*
X015826Y013714D01*
X015749Y013791D01*
X015673Y013791D01*
X015519Y013714D01*
X015519Y013944D01*
X015826Y013944D01*
D18*
X011150Y003736D03*
X011150Y003441D03*
D19*
X011150Y003589D03*
M02*
