G75*
G70*
%OFA0B0*%
%FSLAX24Y24*%
%IPPOS*%
%LPD*%
%AMOC8*
5,1,8,0,0,1.08239X$1,22.5*
%
%ADD10OC8,0.0600*%
%ADD11C,0.1300*%
%ADD12C,0.1065*%
%ADD13C,0.1000*%
%ADD14C,0.0100*%
%ADD15C,0.0320*%
%ADD16C,0.0400*%
D10*
X001460Y001101D03*
X002460Y001101D03*
X002460Y002101D03*
X001460Y002101D03*
X001460Y003101D03*
X002460Y003101D03*
X002460Y004101D03*
X001460Y004101D03*
X003585Y004101D03*
X004585Y004101D03*
X004585Y003101D03*
X004585Y002101D03*
X004585Y001101D03*
X003585Y001101D03*
X003585Y002101D03*
X003585Y003101D03*
X003585Y013101D03*
X004585Y013101D03*
X004585Y014101D03*
X004585Y015101D03*
X004585Y016101D03*
X003585Y016101D03*
X003585Y015101D03*
X003585Y014101D03*
X002460Y014101D03*
X001460Y014101D03*
X001460Y015101D03*
X002460Y015101D03*
X002460Y016101D03*
X001460Y016101D03*
X001460Y013101D03*
X002460Y013101D03*
D11*
X009935Y010351D03*
X009935Y008701D03*
X009935Y007051D03*
X012105Y007051D03*
X012105Y008701D03*
X012105Y010351D03*
D12*
X007960Y011851D03*
D13*
X007960Y008951D01*
X008210Y008701D01*
X009935Y008701D01*
D14*
X006785Y010701D02*
X005185Y012301D01*
X004785Y012651D02*
X001935Y012651D01*
X001485Y013101D01*
X001460Y013101D01*
X002460Y013101D02*
X002935Y013101D01*
X003385Y013551D01*
X004135Y013551D01*
X004585Y013101D01*
X004985Y012851D02*
X004785Y012651D01*
X004985Y012851D02*
X007285Y012851D01*
X007635Y012701D02*
X007635Y013001D01*
X004985Y015651D01*
X004035Y015651D01*
X003585Y016101D01*
X003585Y015101D02*
X004035Y014651D01*
X004685Y014651D01*
X005685Y013651D01*
X004585Y014101D02*
X004285Y014101D01*
X003835Y014551D01*
X003385Y014551D01*
X002935Y014101D01*
X002460Y014101D01*
X004685Y012301D02*
X006435Y010551D01*
X006435Y003301D01*
X004785Y001651D01*
X002385Y001651D01*
X001835Y001101D01*
X001460Y001101D01*
X001460Y004101D02*
X001835Y004101D01*
X002285Y004551D01*
X006085Y004551D01*
X006785Y004201D02*
X006785Y010701D01*
X007185Y012251D02*
X007635Y012701D01*
X007185Y012251D02*
X007185Y004801D01*
D15*
X010712Y009851D02*
X010845Y010170D01*
X010845Y010323D01*
X009962Y010323D01*
X009962Y010378D01*
X010845Y010378D01*
X010845Y010532D01*
X010706Y010866D01*
X010450Y011122D01*
X010116Y011261D01*
X009962Y011261D01*
X009962Y010379D01*
X009907Y010379D01*
X009907Y011261D01*
X009754Y011261D01*
X009419Y011122D01*
X009167Y010870D01*
X009085Y012851D01*
X008585Y012851D01*
X005835Y015976D01*
X009085Y015976D01*
X009085Y014476D01*
X014585Y014476D01*
X014585Y011476D01*
X010960Y011476D01*
X010960Y009851D01*
X010712Y009851D01*
X010764Y009976D02*
X010960Y009976D01*
X010960Y010294D02*
X010845Y010294D01*
X010811Y010613D02*
X010960Y010613D01*
X010960Y010931D02*
X010641Y010931D01*
X010960Y011250D02*
X010142Y011250D01*
X009962Y011250D02*
X009907Y011250D01*
X009727Y011250D02*
X009151Y011250D01*
X009138Y011568D02*
X014585Y011568D01*
X014585Y011887D02*
X009125Y011887D01*
X009111Y012205D02*
X014585Y012205D01*
X014585Y012524D02*
X009098Y012524D01*
X009085Y012843D02*
X014585Y012843D01*
X014585Y013161D02*
X008312Y013161D01*
X008031Y013480D02*
X014585Y013480D01*
X014585Y013798D02*
X007751Y013798D01*
X007471Y014117D02*
X014585Y014117D01*
X014585Y014435D02*
X007190Y014435D01*
X006910Y014754D02*
X009085Y014754D01*
X009085Y015072D02*
X006630Y015072D01*
X006349Y015391D02*
X009085Y015391D01*
X009085Y015709D02*
X006069Y015709D01*
X009165Y010931D02*
X009228Y010931D01*
X009907Y010931D02*
X009962Y010931D01*
X009962Y010613D02*
X009907Y010613D01*
D16*
X007285Y012851D03*
X005685Y013651D03*
X005185Y012301D03*
X004685Y012301D03*
X007185Y004801D03*
X006785Y004201D03*
X006085Y004551D03*
M02*
