G75*
G70*
%OFA0B0*%
%FSLAX24Y24*%
%IPPOS*%
%LPD*%
%AMOC8*
5,1,8,0,0,1.08239X$1,22.5*
%
%ADD10C,0.1330*%
%ADD11OC8,0.0680*%
%ADD12C,0.1420*%
%ADD13C,0.0480*%
D10*
X003662Y001351D03*
X005787Y001351D03*
X005787Y015851D03*
X003662Y015851D03*
D11*
X011662Y016101D03*
X011662Y015101D03*
X011662Y014101D03*
X011662Y013101D03*
X012662Y013101D03*
X012662Y014101D03*
X012662Y015101D03*
X012662Y016101D03*
X013787Y016101D03*
X013787Y015101D03*
X013787Y014101D03*
X013787Y013101D03*
X014787Y013101D03*
X014787Y014101D03*
X014787Y015101D03*
X014787Y016101D03*
X014787Y004101D03*
X014787Y003101D03*
X013787Y003101D03*
X013787Y004101D03*
X012662Y004101D03*
X012662Y003101D03*
X012662Y002101D03*
X012662Y001101D03*
X011662Y001101D03*
X011662Y002101D03*
X011662Y003101D03*
X011662Y004101D03*
X013787Y002101D03*
X013787Y001101D03*
X014787Y001101D03*
X014787Y002101D03*
D12*
X001957Y003676D03*
X001957Y005776D03*
X001832Y007551D03*
X001832Y009651D03*
X001957Y011551D03*
X001957Y013651D03*
D13*
X008712Y013151D03*
X009612Y013151D03*
X010862Y013951D03*
X010862Y014451D03*
X013062Y011751D03*
X010562Y010451D03*
X009212Y007001D03*
X008862Y006351D03*
X009062Y005351D03*
X010212Y005001D03*
X010762Y003351D03*
X009562Y002551D03*
X012012Y005201D03*
M02*
