G75*
G70*
%OFA0B0*%
%FSLAX24Y24*%
%IPPOS*%
%LPD*%
%AMOC8*
5,1,8,0,0,1.08239X$1,22.5*
%
%ADD10C,0.0000*%
%ADD11C,0.0060*%
%ADD12C,0.0160*%
%ADD13C,0.0030*%
%ADD14C,0.0100*%
%ADD15C,0.0050*%
%ADD16C,0.0080*%
%ADD17C,0.0040*%
%ADD18C,0.0020*%
%ADD19R,0.0140X0.0240*%
%ADD20R,0.0118X0.0059*%
%ADD21R,0.0118X0.0118*%
D10*
X001784Y000343D02*
X018284Y000343D01*
X018284Y018343D01*
X001784Y018343D01*
X001784Y011405D01*
X006765Y011405D01*
X006804Y011403D01*
X006842Y011397D01*
X006879Y011388D01*
X006916Y011375D01*
X006951Y011358D01*
X006984Y011339D01*
X007015Y011316D01*
X007044Y011290D01*
X007070Y011261D01*
X007093Y011230D01*
X007112Y011197D01*
X007129Y011162D01*
X007142Y011125D01*
X007151Y011088D01*
X007157Y011050D01*
X007159Y011011D01*
X007159Y007424D01*
X007157Y007385D01*
X007151Y007347D01*
X007142Y007310D01*
X007129Y007273D01*
X007112Y007238D01*
X007093Y007205D01*
X007070Y007174D01*
X007044Y007145D01*
X007015Y007119D01*
X006984Y007096D01*
X006951Y007077D01*
X006916Y007060D01*
X006879Y007047D01*
X006842Y007038D01*
X006804Y007032D01*
X006765Y007030D01*
X001784Y007030D01*
X001784Y000343D01*
X013284Y002155D02*
X013286Y002205D01*
X013292Y002254D01*
X013302Y002303D01*
X013315Y002350D01*
X013333Y002397D01*
X013354Y002442D01*
X013378Y002485D01*
X013406Y002526D01*
X013437Y002565D01*
X013471Y002601D01*
X013508Y002635D01*
X013548Y002665D01*
X013589Y002692D01*
X013633Y002716D01*
X013678Y002736D01*
X013725Y002752D01*
X013773Y002765D01*
X013822Y002774D01*
X013872Y002779D01*
X013921Y002780D01*
X013971Y002777D01*
X014020Y002770D01*
X014069Y002759D01*
X014116Y002745D01*
X014162Y002726D01*
X014207Y002704D01*
X014250Y002679D01*
X014290Y002650D01*
X014328Y002618D01*
X014364Y002584D01*
X014397Y002546D01*
X014426Y002506D01*
X014452Y002464D01*
X014475Y002420D01*
X014494Y002374D01*
X014510Y002327D01*
X014522Y002278D01*
X014530Y002229D01*
X014534Y002180D01*
X014534Y002130D01*
X014530Y002081D01*
X014522Y002032D01*
X014510Y001983D01*
X014494Y001936D01*
X014475Y001890D01*
X014452Y001846D01*
X014426Y001804D01*
X014397Y001764D01*
X014364Y001726D01*
X014328Y001692D01*
X014290Y001660D01*
X014250Y001631D01*
X014207Y001606D01*
X014162Y001584D01*
X014116Y001565D01*
X014069Y001551D01*
X014020Y001540D01*
X013971Y001533D01*
X013921Y001530D01*
X013872Y001531D01*
X013822Y001536D01*
X013773Y001545D01*
X013725Y001558D01*
X013678Y001574D01*
X013633Y001594D01*
X013589Y001618D01*
X013548Y001645D01*
X013508Y001675D01*
X013471Y001709D01*
X013437Y001745D01*
X013406Y001784D01*
X013378Y001825D01*
X013354Y001868D01*
X013333Y001913D01*
X013315Y001960D01*
X013302Y002007D01*
X013292Y002056D01*
X013286Y002105D01*
X013284Y002155D01*
X015409Y002155D02*
X015411Y002205D01*
X015417Y002254D01*
X015427Y002303D01*
X015440Y002350D01*
X015458Y002397D01*
X015479Y002442D01*
X015503Y002485D01*
X015531Y002526D01*
X015562Y002565D01*
X015596Y002601D01*
X015633Y002635D01*
X015673Y002665D01*
X015714Y002692D01*
X015758Y002716D01*
X015803Y002736D01*
X015850Y002752D01*
X015898Y002765D01*
X015947Y002774D01*
X015997Y002779D01*
X016046Y002780D01*
X016096Y002777D01*
X016145Y002770D01*
X016194Y002759D01*
X016241Y002745D01*
X016287Y002726D01*
X016332Y002704D01*
X016375Y002679D01*
X016415Y002650D01*
X016453Y002618D01*
X016489Y002584D01*
X016522Y002546D01*
X016551Y002506D01*
X016577Y002464D01*
X016600Y002420D01*
X016619Y002374D01*
X016635Y002327D01*
X016647Y002278D01*
X016655Y002229D01*
X016659Y002180D01*
X016659Y002130D01*
X016655Y002081D01*
X016647Y002032D01*
X016635Y001983D01*
X016619Y001936D01*
X016600Y001890D01*
X016577Y001846D01*
X016551Y001804D01*
X016522Y001764D01*
X016489Y001726D01*
X016453Y001692D01*
X016415Y001660D01*
X016375Y001631D01*
X016332Y001606D01*
X016287Y001584D01*
X016241Y001565D01*
X016194Y001551D01*
X016145Y001540D01*
X016096Y001533D01*
X016046Y001530D01*
X015997Y001531D01*
X015947Y001536D01*
X015898Y001545D01*
X015850Y001558D01*
X015803Y001574D01*
X015758Y001594D01*
X015714Y001618D01*
X015673Y001645D01*
X015633Y001675D01*
X015596Y001709D01*
X015562Y001745D01*
X015531Y001784D01*
X015503Y001825D01*
X015479Y001868D01*
X015458Y001913D01*
X015440Y001960D01*
X015427Y002007D01*
X015417Y002056D01*
X015411Y002105D01*
X015409Y002155D01*
X015449Y007855D02*
X015451Y007904D01*
X015457Y007952D01*
X015467Y008000D01*
X015481Y008047D01*
X015498Y008093D01*
X015519Y008137D01*
X015544Y008179D01*
X015572Y008219D01*
X015604Y008257D01*
X015638Y008292D01*
X015675Y008324D01*
X015714Y008353D01*
X015756Y008379D01*
X015800Y008401D01*
X015845Y008419D01*
X015892Y008434D01*
X015939Y008445D01*
X015988Y008452D01*
X016037Y008455D01*
X016086Y008454D01*
X016134Y008449D01*
X016183Y008440D01*
X016230Y008427D01*
X016276Y008410D01*
X016320Y008390D01*
X016363Y008366D01*
X016404Y008339D01*
X016442Y008308D01*
X016478Y008275D01*
X016510Y008239D01*
X016540Y008200D01*
X016567Y008159D01*
X016590Y008115D01*
X016609Y008070D01*
X016625Y008024D01*
X016637Y007977D01*
X016645Y007928D01*
X016649Y007879D01*
X016649Y007831D01*
X016645Y007782D01*
X016637Y007733D01*
X016625Y007686D01*
X016609Y007640D01*
X016590Y007595D01*
X016567Y007551D01*
X016540Y007510D01*
X016510Y007471D01*
X016478Y007435D01*
X016442Y007402D01*
X016404Y007371D01*
X016363Y007344D01*
X016320Y007320D01*
X016276Y007300D01*
X016230Y007283D01*
X016183Y007270D01*
X016134Y007261D01*
X016086Y007256D01*
X016037Y007255D01*
X015988Y007258D01*
X015939Y007265D01*
X015892Y007276D01*
X015845Y007291D01*
X015800Y007309D01*
X015756Y007331D01*
X015714Y007357D01*
X015675Y007386D01*
X015638Y007418D01*
X015604Y007453D01*
X015572Y007491D01*
X015544Y007531D01*
X015519Y007573D01*
X015498Y007617D01*
X015481Y007663D01*
X015467Y007710D01*
X015457Y007758D01*
X015451Y007806D01*
X015449Y007855D01*
X015449Y011155D02*
X015451Y011204D01*
X015457Y011252D01*
X015467Y011300D01*
X015481Y011347D01*
X015498Y011393D01*
X015519Y011437D01*
X015544Y011479D01*
X015572Y011519D01*
X015604Y011557D01*
X015638Y011592D01*
X015675Y011624D01*
X015714Y011653D01*
X015756Y011679D01*
X015800Y011701D01*
X015845Y011719D01*
X015892Y011734D01*
X015939Y011745D01*
X015988Y011752D01*
X016037Y011755D01*
X016086Y011754D01*
X016134Y011749D01*
X016183Y011740D01*
X016230Y011727D01*
X016276Y011710D01*
X016320Y011690D01*
X016363Y011666D01*
X016404Y011639D01*
X016442Y011608D01*
X016478Y011575D01*
X016510Y011539D01*
X016540Y011500D01*
X016567Y011459D01*
X016590Y011415D01*
X016609Y011370D01*
X016625Y011324D01*
X016637Y011277D01*
X016645Y011228D01*
X016649Y011179D01*
X016649Y011131D01*
X016645Y011082D01*
X016637Y011033D01*
X016625Y010986D01*
X016609Y010940D01*
X016590Y010895D01*
X016567Y010851D01*
X016540Y010810D01*
X016510Y010771D01*
X016478Y010735D01*
X016442Y010702D01*
X016404Y010671D01*
X016363Y010644D01*
X016320Y010620D01*
X016276Y010600D01*
X016230Y010583D01*
X016183Y010570D01*
X016134Y010561D01*
X016086Y010556D01*
X016037Y010555D01*
X015988Y010558D01*
X015939Y010565D01*
X015892Y010576D01*
X015845Y010591D01*
X015800Y010609D01*
X015756Y010631D01*
X015714Y010657D01*
X015675Y010686D01*
X015638Y010718D01*
X015604Y010753D01*
X015572Y010791D01*
X015544Y010831D01*
X015519Y010873D01*
X015498Y010917D01*
X015481Y010963D01*
X015467Y011010D01*
X015457Y011058D01*
X015451Y011106D01*
X015449Y011155D01*
X015409Y016655D02*
X015411Y016705D01*
X015417Y016754D01*
X015427Y016803D01*
X015440Y016850D01*
X015458Y016897D01*
X015479Y016942D01*
X015503Y016985D01*
X015531Y017026D01*
X015562Y017065D01*
X015596Y017101D01*
X015633Y017135D01*
X015673Y017165D01*
X015714Y017192D01*
X015758Y017216D01*
X015803Y017236D01*
X015850Y017252D01*
X015898Y017265D01*
X015947Y017274D01*
X015997Y017279D01*
X016046Y017280D01*
X016096Y017277D01*
X016145Y017270D01*
X016194Y017259D01*
X016241Y017245D01*
X016287Y017226D01*
X016332Y017204D01*
X016375Y017179D01*
X016415Y017150D01*
X016453Y017118D01*
X016489Y017084D01*
X016522Y017046D01*
X016551Y017006D01*
X016577Y016964D01*
X016600Y016920D01*
X016619Y016874D01*
X016635Y016827D01*
X016647Y016778D01*
X016655Y016729D01*
X016659Y016680D01*
X016659Y016630D01*
X016655Y016581D01*
X016647Y016532D01*
X016635Y016483D01*
X016619Y016436D01*
X016600Y016390D01*
X016577Y016346D01*
X016551Y016304D01*
X016522Y016264D01*
X016489Y016226D01*
X016453Y016192D01*
X016415Y016160D01*
X016375Y016131D01*
X016332Y016106D01*
X016287Y016084D01*
X016241Y016065D01*
X016194Y016051D01*
X016145Y016040D01*
X016096Y016033D01*
X016046Y016030D01*
X015997Y016031D01*
X015947Y016036D01*
X015898Y016045D01*
X015850Y016058D01*
X015803Y016074D01*
X015758Y016094D01*
X015714Y016118D01*
X015673Y016145D01*
X015633Y016175D01*
X015596Y016209D01*
X015562Y016245D01*
X015531Y016284D01*
X015503Y016325D01*
X015479Y016368D01*
X015458Y016413D01*
X015440Y016460D01*
X015427Y016507D01*
X015417Y016556D01*
X015411Y016605D01*
X015409Y016655D01*
X013284Y016655D02*
X013286Y016705D01*
X013292Y016754D01*
X013302Y016803D01*
X013315Y016850D01*
X013333Y016897D01*
X013354Y016942D01*
X013378Y016985D01*
X013406Y017026D01*
X013437Y017065D01*
X013471Y017101D01*
X013508Y017135D01*
X013548Y017165D01*
X013589Y017192D01*
X013633Y017216D01*
X013678Y017236D01*
X013725Y017252D01*
X013773Y017265D01*
X013822Y017274D01*
X013872Y017279D01*
X013921Y017280D01*
X013971Y017277D01*
X014020Y017270D01*
X014069Y017259D01*
X014116Y017245D01*
X014162Y017226D01*
X014207Y017204D01*
X014250Y017179D01*
X014290Y017150D01*
X014328Y017118D01*
X014364Y017084D01*
X014397Y017046D01*
X014426Y017006D01*
X014452Y016964D01*
X014475Y016920D01*
X014494Y016874D01*
X014510Y016827D01*
X014522Y016778D01*
X014530Y016729D01*
X014534Y016680D01*
X014534Y016630D01*
X014530Y016581D01*
X014522Y016532D01*
X014510Y016483D01*
X014494Y016436D01*
X014475Y016390D01*
X014452Y016346D01*
X014426Y016304D01*
X014397Y016264D01*
X014364Y016226D01*
X014328Y016192D01*
X014290Y016160D01*
X014250Y016131D01*
X014207Y016106D01*
X014162Y016084D01*
X014116Y016065D01*
X014069Y016051D01*
X014020Y016040D01*
X013971Y016033D01*
X013921Y016030D01*
X013872Y016031D01*
X013822Y016036D01*
X013773Y016045D01*
X013725Y016058D01*
X013678Y016074D01*
X013633Y016094D01*
X013589Y016118D01*
X013548Y016145D01*
X013508Y016175D01*
X013471Y016209D01*
X013437Y016245D01*
X013406Y016284D01*
X013378Y016325D01*
X013354Y016368D01*
X013333Y016413D01*
X013315Y016460D01*
X013302Y016507D01*
X013292Y016556D01*
X013286Y016605D01*
X013284Y016655D01*
D11*
X013309Y014655D02*
X013009Y014355D01*
X012909Y014355D01*
X012909Y013955D01*
X013009Y013955D01*
X013309Y013655D01*
X013809Y013655D01*
X013909Y013755D01*
X014909Y013755D01*
X015009Y013655D01*
X015509Y013655D01*
X015809Y013955D01*
X015909Y013955D01*
X015909Y014355D01*
X015809Y014355D01*
X015509Y014655D01*
X015009Y014655D01*
X014909Y014555D01*
X013909Y014555D01*
X013809Y014655D01*
X013309Y014655D01*
X011178Y012443D02*
X010751Y012443D01*
X010004Y009917D02*
X009363Y009917D01*
X009363Y009490D02*
X010004Y009917D01*
X010004Y009490D02*
X009363Y009490D01*
X009363Y009274D02*
X009363Y009060D01*
X009363Y009167D02*
X010004Y009167D01*
X010004Y009060D02*
X010004Y009274D01*
X012876Y006568D02*
X013303Y006568D01*
X013090Y006781D02*
X013090Y006354D01*
X013184Y005155D02*
X012884Y004855D01*
X012784Y004855D01*
X012784Y004455D01*
X012884Y004455D01*
X013184Y004155D01*
X013684Y004155D01*
X013784Y004255D01*
X014784Y004255D01*
X014884Y004155D01*
X015384Y004155D01*
X015684Y004455D01*
X015784Y004455D01*
X015784Y004855D01*
X015684Y004855D01*
X015384Y005155D01*
X014884Y005155D01*
X014784Y005055D01*
X013784Y005055D01*
X013684Y005155D01*
X013184Y005155D01*
X006909Y011610D02*
X006482Y011610D01*
X006482Y012251D01*
X006264Y012144D02*
X006264Y011930D01*
X006157Y011824D01*
X005837Y011824D01*
X006051Y011824D02*
X006264Y011610D01*
X005837Y011610D02*
X005837Y012251D01*
X006157Y012251D01*
X006264Y012144D01*
X005620Y012251D02*
X005193Y012251D01*
X004975Y012144D02*
X004868Y012251D01*
X004655Y012251D01*
X004548Y012144D01*
X004548Y011717D01*
X004655Y011610D01*
X004868Y011610D01*
X004975Y011717D01*
X005406Y011610D02*
X005406Y012251D01*
X006034Y013405D02*
X004534Y013405D01*
X004284Y013655D01*
X004284Y014155D01*
X004534Y014405D01*
X004284Y014655D01*
X004284Y015155D01*
X004534Y015405D01*
X004284Y015655D01*
X004284Y016155D01*
X004534Y016405D01*
X004284Y016655D01*
X004284Y017155D01*
X004534Y017405D01*
X006034Y017405D01*
X006284Y017155D01*
X006284Y016655D01*
X006034Y016405D01*
X006284Y016155D01*
X006284Y015655D01*
X006034Y015405D01*
X006284Y015155D01*
X006284Y014655D01*
X006034Y014405D01*
X006284Y014155D01*
X006284Y013655D01*
X006034Y013405D01*
X004159Y013655D02*
X003909Y013405D01*
X002409Y013405D01*
X002159Y013655D01*
X002159Y014155D01*
X002409Y014405D01*
X002159Y014655D01*
X002159Y015155D01*
X002409Y015405D01*
X002159Y015655D01*
X002159Y016155D01*
X002409Y016405D01*
X002159Y016655D01*
X002159Y017155D01*
X002409Y017405D01*
X003909Y017405D01*
X004159Y017155D01*
X004159Y016655D01*
X003909Y016405D01*
X004159Y016155D01*
X004159Y015655D01*
X003909Y015405D01*
X004159Y015155D01*
X004159Y014655D01*
X003909Y014405D01*
X004159Y014155D01*
X004159Y013655D01*
X003579Y012251D02*
X003259Y012251D01*
X003259Y011610D01*
X003259Y011824D02*
X003579Y011824D01*
X003686Y011930D01*
X003686Y012144D01*
X003579Y012251D01*
X003473Y011824D02*
X003686Y011610D01*
X003042Y011610D02*
X003042Y012251D01*
X002615Y012251D02*
X002615Y011610D01*
X002828Y011824D01*
X003042Y011610D01*
X002397Y011930D02*
X002397Y012144D01*
X002290Y012251D01*
X001970Y012251D01*
X001970Y011610D01*
X001970Y011824D02*
X002290Y011824D01*
X002397Y011930D01*
X002753Y006826D02*
X002966Y006826D01*
X003073Y006719D01*
X002646Y006292D01*
X002753Y006185D01*
X002966Y006185D01*
X003073Y006292D01*
X003073Y006719D01*
X002753Y006826D02*
X002646Y006719D01*
X002646Y006292D01*
X002428Y006612D02*
X002215Y006185D01*
X002001Y006612D01*
X002409Y005405D02*
X002159Y005155D01*
X002159Y004655D01*
X002409Y004405D01*
X002159Y004155D01*
X002159Y003655D01*
X002409Y003405D01*
X002159Y003155D01*
X002159Y002655D01*
X002409Y002405D01*
X002159Y002155D01*
X002159Y001655D01*
X002409Y001405D01*
X003909Y001405D01*
X004159Y001655D01*
X004159Y002155D01*
X003909Y002405D01*
X004159Y002655D01*
X004159Y003155D01*
X003909Y003405D01*
X004159Y003655D01*
X004159Y004155D01*
X003909Y004405D01*
X004159Y004655D01*
X004159Y005155D01*
X003909Y005405D01*
X002409Y005405D01*
X003291Y006185D02*
X003397Y006185D01*
X003397Y006292D01*
X003291Y006292D01*
X003291Y006185D01*
X003613Y006505D02*
X004040Y006505D01*
X003933Y006185D02*
X003933Y006826D01*
X003613Y006505D01*
X004257Y006292D02*
X004364Y006292D01*
X004364Y006185D01*
X004257Y006185D01*
X004257Y006292D01*
X004580Y006292D02*
X004686Y006185D01*
X004900Y006185D01*
X005007Y006292D01*
X005007Y006399D01*
X004900Y006505D01*
X004793Y006505D01*
X004900Y006505D02*
X005007Y006612D01*
X005007Y006719D01*
X004900Y006826D01*
X004686Y006826D01*
X004580Y006719D01*
X004534Y005405D02*
X004284Y005155D01*
X004284Y004655D01*
X004534Y004405D01*
X004284Y004155D01*
X004284Y003655D01*
X004534Y003405D01*
X004284Y003155D01*
X004284Y002655D01*
X004534Y002405D01*
X004284Y002155D01*
X004284Y001655D01*
X004534Y001405D01*
X006034Y001405D01*
X006284Y001655D01*
X006284Y002155D01*
X006034Y002405D01*
X006284Y002655D01*
X006284Y003155D01*
X006034Y003405D01*
X006284Y003655D01*
X006284Y004155D01*
X006034Y004405D01*
X006284Y004655D01*
X006284Y005155D01*
X006034Y005405D01*
X004534Y005405D01*
D12*
X008346Y003593D02*
X010471Y003593D01*
X010471Y000843D01*
X009346Y000843D01*
X009346Y003593D01*
X009096Y003593D01*
X008346Y003593D02*
X008346Y000843D01*
X009346Y000843D01*
X010471Y000843D02*
X011534Y000843D01*
X011534Y002280D01*
X008409Y002280D01*
X008409Y002343D01*
X010471Y003593D02*
X011534Y003593D01*
X011534Y002280D01*
D13*
X011228Y001666D02*
X011228Y001419D01*
X011105Y001543D02*
X011352Y001543D01*
X010983Y001604D02*
X010983Y001666D01*
X010922Y001728D01*
X010798Y001728D01*
X010736Y001666D01*
X010983Y001604D02*
X010736Y001358D01*
X010983Y001358D01*
X010166Y001543D02*
X009919Y001543D01*
X010043Y001666D02*
X010043Y001419D01*
X009797Y001358D02*
X009674Y001358D01*
X009736Y001358D02*
X009736Y001728D01*
X009797Y001728D02*
X009674Y001728D01*
X009164Y001543D02*
X008917Y001543D01*
X009041Y001666D02*
X009041Y001419D01*
X008796Y001358D02*
X008549Y001358D01*
X008672Y001358D02*
X008672Y001728D01*
X008549Y001604D01*
X008549Y002733D02*
X008796Y002733D01*
X008672Y002733D02*
X008672Y003103D01*
X008549Y002979D01*
X008917Y002918D02*
X009164Y002918D01*
X009674Y003103D02*
X009797Y003103D01*
X009736Y003103D02*
X009736Y002733D01*
X009797Y002733D02*
X009674Y002733D01*
X009919Y002918D02*
X010166Y002918D01*
X010736Y003041D02*
X010798Y003103D01*
X010922Y003103D01*
X010983Y003041D01*
X010983Y002979D01*
X010736Y002733D01*
X010983Y002733D01*
X011105Y002918D02*
X011352Y002918D01*
D14*
X001784Y000343D02*
X001784Y007030D01*
X006659Y007030D01*
X006703Y007032D01*
X006746Y007038D01*
X006788Y007047D01*
X006830Y007060D01*
X006870Y007077D01*
X006909Y007097D01*
X006946Y007120D01*
X006980Y007147D01*
X007013Y007176D01*
X007042Y007209D01*
X007069Y007243D01*
X007092Y007280D01*
X007112Y007319D01*
X007129Y007359D01*
X007142Y007401D01*
X007151Y007443D01*
X007157Y007486D01*
X007159Y007530D01*
X007159Y010905D01*
X007157Y010949D01*
X007151Y010992D01*
X007142Y011034D01*
X007129Y011076D01*
X007112Y011116D01*
X007092Y011155D01*
X007069Y011192D01*
X007042Y011226D01*
X007013Y011259D01*
X006980Y011288D01*
X006946Y011315D01*
X006909Y011338D01*
X006870Y011358D01*
X006830Y011375D01*
X006788Y011388D01*
X006746Y011397D01*
X006703Y011403D01*
X006659Y011405D01*
X001784Y011405D01*
X001784Y018343D01*
X018284Y018343D01*
X018284Y000343D01*
X001784Y000343D01*
D15*
X004334Y001545D02*
X004409Y001470D01*
X004484Y001470D01*
X004559Y001545D01*
X004559Y001695D01*
X004634Y001770D01*
X004709Y001770D01*
X004784Y001695D01*
X004784Y001545D01*
X004709Y001470D01*
X004634Y001470D01*
X004559Y001545D01*
X004559Y001695D02*
X004484Y001770D01*
X004409Y001770D01*
X004334Y001695D01*
X004334Y001545D01*
X006459Y001545D02*
X006534Y001470D01*
X006609Y001470D01*
X006684Y001545D01*
X006684Y001695D01*
X006759Y001770D01*
X006834Y001770D01*
X006909Y001695D01*
X006909Y001545D01*
X006834Y001470D01*
X006759Y001470D01*
X006684Y001545D01*
X006684Y001695D02*
X006609Y001770D01*
X006534Y001770D01*
X006459Y001695D01*
X006459Y001545D01*
X004109Y004670D02*
X004109Y004970D01*
X004109Y004820D02*
X003659Y004820D01*
X003809Y004670D01*
X003905Y005518D02*
X003605Y005518D01*
X003605Y005968D01*
X003445Y005893D02*
X003445Y005818D01*
X003369Y005743D01*
X003144Y005743D01*
X002984Y005668D02*
X002984Y005593D01*
X002909Y005518D01*
X002759Y005518D01*
X002684Y005593D01*
X002759Y005743D02*
X002684Y005818D01*
X002684Y005893D01*
X002759Y005968D01*
X002909Y005968D01*
X002984Y005893D01*
X002909Y005743D02*
X002759Y005743D01*
X002909Y005743D02*
X002984Y005668D01*
X003144Y005518D02*
X003369Y005518D01*
X003445Y005593D01*
X003445Y005668D01*
X003369Y005743D01*
X003445Y005893D02*
X003369Y005968D01*
X003144Y005968D01*
X003144Y005518D01*
X001984Y004970D02*
X001984Y004670D01*
X001984Y004820D02*
X001534Y004820D01*
X001684Y004670D01*
X004684Y005593D02*
X004759Y005518D01*
X004909Y005518D01*
X004984Y005593D01*
X004984Y005668D01*
X004909Y005743D01*
X004759Y005743D01*
X004684Y005818D01*
X004684Y005893D01*
X004759Y005968D01*
X004909Y005968D01*
X004984Y005893D01*
X005144Y005968D02*
X005369Y005968D01*
X005445Y005893D01*
X005445Y005818D01*
X005369Y005743D01*
X005144Y005743D01*
X005144Y005518D02*
X005144Y005968D01*
X005369Y005743D02*
X005445Y005668D01*
X005445Y005593D01*
X005369Y005518D01*
X005144Y005518D01*
X005605Y005518D02*
X005605Y005968D01*
X005830Y005968D01*
X005905Y005893D01*
X005905Y005743D01*
X005830Y005668D01*
X005605Y005668D01*
X005755Y005668D02*
X005905Y005518D01*
X010159Y005905D02*
X010159Y013280D01*
X006909Y013545D02*
X006834Y013470D01*
X006759Y013470D01*
X006684Y013545D01*
X006684Y013695D01*
X006759Y013770D01*
X006834Y013770D01*
X006909Y013695D01*
X006909Y013545D01*
X006684Y013545D02*
X006609Y013470D01*
X006534Y013470D01*
X006459Y013545D01*
X006459Y013695D01*
X006534Y013770D01*
X006609Y013770D01*
X006684Y013695D01*
X005905Y013205D02*
X005905Y013055D01*
X005830Y012980D01*
X005605Y012980D01*
X005755Y012980D02*
X005905Y012830D01*
X005605Y012830D02*
X005605Y013281D01*
X005830Y013281D01*
X005905Y013205D01*
X005445Y013281D02*
X005144Y013281D01*
X005294Y013281D02*
X005294Y012830D01*
X004984Y012905D02*
X004909Y012830D01*
X004759Y012830D01*
X004684Y012905D01*
X004759Y013055D02*
X004909Y013055D01*
X004984Y012980D01*
X004984Y012905D01*
X004759Y013055D02*
X004684Y013130D01*
X004684Y013205D01*
X004759Y013281D01*
X004909Y013281D01*
X004984Y013205D01*
X004709Y013470D02*
X004634Y013470D01*
X004559Y013545D01*
X004559Y013695D01*
X004634Y013770D01*
X004709Y013770D01*
X004784Y013695D01*
X004784Y013545D01*
X004709Y013470D01*
X004559Y013545D02*
X004484Y013470D01*
X004409Y013470D01*
X004334Y013545D01*
X004334Y013695D01*
X004409Y013770D01*
X004484Y013770D01*
X004559Y013695D01*
X003542Y013280D02*
X003542Y012830D01*
X003842Y012830D01*
X003382Y013280D02*
X003082Y013280D01*
X003232Y013280D02*
X003232Y012830D01*
X002922Y012905D02*
X002847Y012830D01*
X002696Y012830D01*
X002621Y012905D01*
X002696Y013055D02*
X002847Y013055D01*
X002922Y012980D01*
X002922Y012905D01*
X002922Y013205D02*
X002847Y013280D01*
X002696Y013280D01*
X002621Y013205D01*
X002621Y013130D01*
X002696Y013055D01*
X001984Y016670D02*
X001984Y016970D01*
X001984Y016820D02*
X001534Y016820D01*
X001684Y016670D01*
X003659Y016820D02*
X004109Y016820D01*
X004109Y016670D02*
X004109Y016970D01*
X003809Y016670D02*
X003659Y016820D01*
X013434Y015293D02*
X013434Y014843D01*
X013434Y015068D02*
X013584Y015068D01*
X013434Y015293D02*
X013734Y015293D01*
X013894Y015218D02*
X013969Y015293D01*
X014119Y015293D01*
X014195Y015218D01*
X014195Y015143D01*
X013894Y014843D01*
X014195Y014843D01*
X013919Y005731D02*
X013919Y005280D01*
X013769Y005280D02*
X014070Y005280D01*
X013769Y005580D02*
X013919Y005731D01*
X013609Y005731D02*
X013309Y005731D01*
X013309Y005280D01*
X013309Y005505D02*
X013459Y005505D01*
D16*
X009854Y007637D02*
X009854Y007923D01*
X007964Y007923D02*
X007964Y007637D01*
X008214Y010887D02*
X008214Y011173D01*
X010104Y011173D02*
X010104Y010887D01*
D17*
X011462Y011988D02*
X011769Y011988D01*
X011923Y011988D02*
X012230Y011988D01*
X012383Y011988D02*
X012613Y011988D01*
X012690Y012064D01*
X012690Y012371D01*
X012613Y012448D01*
X012383Y012448D01*
X012383Y011988D01*
X012076Y012218D02*
X011923Y012218D01*
X011923Y012448D02*
X011923Y011988D01*
X011923Y012448D02*
X012230Y012448D01*
X012843Y012295D02*
X012997Y012448D01*
X012997Y011988D01*
X013150Y011988D02*
X012843Y011988D01*
X011462Y011988D02*
X011462Y012448D01*
X009449Y014738D02*
X009295Y014738D01*
X009219Y014814D01*
X009065Y014814D02*
X008988Y014738D01*
X008835Y014738D01*
X008758Y014814D01*
X008758Y015121D01*
X008835Y015198D01*
X008988Y015198D01*
X009065Y015121D01*
X009065Y014814D01*
X009065Y014738D02*
X008912Y014891D01*
X009219Y015121D02*
X009295Y015198D01*
X009449Y015198D01*
X009525Y015121D01*
X009525Y015045D01*
X009449Y014968D01*
X009525Y014891D01*
X009525Y014814D01*
X009449Y014738D01*
X009449Y014968D02*
X009372Y014968D01*
X008525Y015752D02*
X008449Y015675D01*
X008295Y015675D01*
X008219Y015752D01*
X008372Y015905D02*
X008449Y015905D01*
X008525Y015829D01*
X008525Y015752D01*
X008449Y015905D02*
X008525Y015982D01*
X008525Y016059D01*
X008449Y016136D01*
X008295Y016136D01*
X008219Y016059D01*
X008065Y016136D02*
X007758Y016136D01*
X007758Y015675D01*
X007758Y015905D02*
X007912Y015905D01*
X007869Y013511D02*
X007639Y013280D01*
X007946Y013280D01*
X007869Y013050D02*
X007869Y013511D01*
X007486Y013511D02*
X007179Y013511D01*
X007179Y013050D01*
X007179Y013280D02*
X007332Y013280D01*
X007630Y011630D02*
X007554Y011553D01*
X007554Y011400D01*
X007630Y011323D01*
X007630Y011170D02*
X007937Y011170D01*
X008014Y011093D01*
X008014Y010939D01*
X007937Y010863D01*
X007630Y010863D01*
X007554Y010939D01*
X007554Y011093D01*
X007630Y011170D01*
X007861Y011016D02*
X008014Y011170D01*
X008014Y011323D02*
X007707Y011630D01*
X007630Y011630D01*
X008014Y011630D02*
X008014Y011323D01*
X007764Y007647D02*
X007764Y007340D01*
X007764Y007493D02*
X007304Y007493D01*
X007457Y007340D01*
X007380Y007186D02*
X007687Y007186D01*
X007764Y007110D01*
X007764Y006956D01*
X007687Y006879D01*
X007380Y006879D01*
X007304Y006956D01*
X007304Y007110D01*
X007380Y007186D01*
X007611Y007033D02*
X007764Y007186D01*
X014679Y012800D02*
X014679Y013261D01*
X014909Y013261D01*
X014986Y013184D01*
X014986Y013030D01*
X014909Y012954D01*
X014679Y012954D01*
X014832Y012954D02*
X014986Y012800D01*
X015139Y012800D02*
X015446Y012800D01*
X015293Y012800D02*
X015293Y013261D01*
X015139Y013107D01*
X011432Y015300D02*
X011432Y015761D01*
X011202Y015530D01*
X011509Y015530D01*
X011048Y015377D02*
X010972Y015300D01*
X010818Y015300D01*
X010741Y015377D01*
X010741Y015684D01*
X010818Y015761D01*
X010972Y015761D01*
X011048Y015684D01*
X011048Y015377D01*
X011048Y015300D02*
X010895Y015454D01*
D18*
X013309Y014555D02*
X013309Y013755D01*
X013809Y013755D02*
X013809Y014555D01*
X013909Y014155D02*
X014909Y014155D01*
X015009Y014555D02*
X015009Y013755D01*
X015509Y013755D02*
X015509Y014555D01*
X015384Y005055D02*
X015384Y004255D01*
X014884Y004255D02*
X014884Y005055D01*
X014784Y004655D02*
X013784Y004655D01*
X013684Y005055D02*
X013684Y004255D01*
X013184Y004255D02*
X013184Y005055D01*
D19*
X012714Y004655D03*
X015854Y004655D03*
X015979Y014155D03*
X012839Y014155D03*
D20*
X012412Y012928D03*
X012412Y012632D03*
D21*
X012412Y012780D03*
M02*
