G75*
G70*
%OFA0B0*%
%FSLAX24Y24*%
%IPPOS*%
%LPD*%
%AMOC8*
5,1,8,0,0,1.08239X$1,22.5*
%
%ADD10OC8,0.0600*%
%ADD11C,0.1300*%
%ADD12C,0.0520*%
%ADD13C,0.0100*%
%ADD14C,0.0160*%
%ADD15C,0.0240*%
%ADD16C,0.0400*%
D10*
X001460Y001714D03*
X002460Y001714D03*
X002460Y002714D03*
X001460Y002714D03*
X001460Y003714D03*
X002460Y003714D03*
X002460Y004714D03*
X001460Y004714D03*
X003585Y004714D03*
X003585Y003714D03*
X004585Y003714D03*
X004585Y004714D03*
X004585Y002714D03*
X004585Y001714D03*
X003585Y001714D03*
X003585Y002714D03*
X003585Y013714D03*
X004585Y013714D03*
X004585Y014714D03*
X004585Y015714D03*
X004585Y016714D03*
X003585Y016714D03*
X003585Y015714D03*
X003585Y014714D03*
X002460Y014714D03*
X002460Y015714D03*
X001460Y015714D03*
X001460Y014714D03*
X001460Y013714D03*
X002460Y013714D03*
X002460Y016714D03*
X001460Y016714D03*
D11*
X009685Y008901D03*
X009685Y007251D03*
X009685Y005601D03*
X011855Y005601D03*
X011855Y007251D03*
X011855Y008901D03*
D12*
X011460Y011391D02*
X011460Y011911D01*
X010460Y011911D02*
X010460Y011391D01*
X009460Y011391D02*
X009460Y011911D01*
X008460Y011911D02*
X008460Y011391D01*
X008460Y014391D02*
X008460Y014911D01*
X009460Y014911D02*
X009460Y014391D01*
X010460Y014391D02*
X010460Y014911D01*
X011460Y014911D02*
X011460Y014391D01*
X012897Y014454D02*
X012897Y014974D01*
X013897Y014974D02*
X013897Y014454D01*
X014897Y014454D02*
X014897Y014974D01*
X015897Y014974D02*
X015897Y014454D01*
X015897Y011974D02*
X015897Y011454D01*
X014897Y011454D02*
X014897Y011974D01*
X013897Y011974D02*
X013897Y011454D01*
X012897Y011454D02*
X012897Y011974D01*
D13*
X012885Y011751D02*
X012897Y011714D01*
X012885Y011701D01*
X011785Y012551D02*
X009335Y012551D01*
X008485Y011701D01*
X008460Y011651D01*
X006960Y012776D02*
X006960Y006151D01*
X005460Y004651D01*
X005460Y002276D01*
X005147Y003214D02*
X004022Y003214D01*
X003585Y002776D01*
X003585Y002714D01*
X003585Y002751D01*
X003585Y001714D02*
X003585Y001714D01*
X005147Y003214D02*
X005210Y003276D01*
X005210Y004901D01*
X006772Y006401D01*
X006772Y012526D01*
X005022Y014214D01*
X004897Y014214D01*
X004835Y014214D01*
X003397Y014214D01*
X003022Y014651D01*
X003022Y014776D01*
X002522Y015276D01*
X002272Y015276D01*
X001897Y015651D01*
X001460Y015651D01*
X001460Y015714D01*
X002272Y016276D02*
X001897Y016651D01*
X001460Y016651D01*
X001460Y016714D01*
X002272Y016276D02*
X002522Y016276D01*
X003022Y015776D01*
X003022Y015651D01*
X003397Y015276D01*
X003772Y015276D01*
X003897Y015401D01*
X004272Y015401D01*
X004522Y015151D01*
X004772Y015151D01*
X004960Y014964D01*
X005460Y014339D01*
X006960Y012776D01*
X006585Y012151D02*
X006585Y006714D01*
X005522Y005776D01*
X004960Y005776D01*
X004647Y006276D02*
X005585Y006276D01*
X006335Y006964D01*
X006335Y011964D01*
X005585Y012714D01*
X002022Y012714D01*
X001460Y013276D01*
X001460Y013714D01*
X001960Y013276D02*
X002210Y013026D01*
X005710Y013026D01*
X006585Y012151D01*
X005035Y016201D02*
X005022Y016214D01*
X004585Y016651D01*
X004585Y016714D01*
X005035Y016201D02*
X008935Y016201D01*
X010435Y014701D01*
X010460Y014651D01*
X010485Y014651D01*
X010635Y014651D01*
X011285Y014001D01*
X014035Y014001D01*
X014685Y014651D01*
X014885Y014651D01*
X014897Y014714D01*
X014935Y014651D01*
X014935Y014701D02*
X014897Y014714D01*
X015085Y013551D02*
X013335Y013551D01*
X011485Y011701D01*
X011460Y011651D01*
X011435Y011651D01*
X011435Y011501D01*
X009735Y007501D02*
X009735Y007251D01*
X009685Y007251D01*
X010685Y006251D01*
X010685Y005351D01*
X010885Y005151D01*
X010885Y004751D01*
X001960Y013276D02*
X001960Y014276D01*
X001522Y014714D01*
X001460Y014714D01*
D14*
X001460Y001589D02*
X001835Y001214D01*
X004085Y001214D01*
X004585Y001714D01*
X004085Y002214D02*
X004585Y002714D01*
X004085Y002214D02*
X001960Y002214D01*
X001460Y002714D01*
X001460Y001714D02*
X001460Y001589D01*
X001460Y003714D02*
X001585Y003714D01*
X002085Y004214D01*
X004085Y004214D01*
X004585Y003714D01*
X004585Y004714D02*
X004085Y005214D01*
X001960Y005214D01*
X001460Y004714D01*
X007372Y004151D02*
X007372Y007164D01*
X007372Y004151D02*
X013272Y004151D01*
X013272Y009651D01*
X014460Y010839D01*
X014460Y011276D01*
X014897Y011714D01*
D15*
X012897Y011714D02*
X011855Y010484D01*
X011855Y008901D01*
X010772Y008214D02*
X009810Y007251D01*
X009685Y007251D01*
X010772Y008214D02*
X010772Y010401D01*
X011460Y011089D01*
X011460Y011651D01*
D16*
X011785Y012551D03*
X015085Y013551D03*
X007372Y007164D03*
X004960Y005776D03*
X004647Y006276D03*
X005460Y002276D03*
X010885Y004751D03*
M02*
