G75*
G70*
%OFA0B0*%
%FSLAX24Y24*%
%IPPOS*%
%LPD*%
%AMOC8*
5,1,8,0,0,1.08239X$1,22.5*
%
%ADD10C,0.1330*%
%ADD11R,0.0200X0.0470*%
%ADD12R,0.0513X0.0474*%
%ADD13R,0.0474X0.0513*%
%ADD14R,0.0218X0.0178*%
%ADD15R,0.0178X0.0218*%
%ADD16R,0.0190X0.0249*%
%ADD17OC8,0.0680*%
%ADD18C,0.0654*%
%ADD19C,0.0454*%
%ADD20C,0.0480*%
D10*
X012770Y001141D03*
X014958Y001141D03*
X014895Y015641D03*
X012770Y015641D03*
D11*
X010916Y009852D03*
X010660Y009852D03*
X010404Y009852D03*
X010148Y009852D03*
X009892Y009852D03*
X009636Y009852D03*
X009380Y009852D03*
X009124Y009852D03*
X009124Y007555D03*
X009380Y007555D03*
X009636Y007555D03*
X009892Y007555D03*
X010148Y007555D03*
X010404Y007555D03*
X010660Y007555D03*
X010916Y007555D03*
D12*
X007020Y008181D03*
X007020Y008851D03*
D13*
X007208Y009619D03*
X007208Y010288D03*
X008270Y010288D03*
X008270Y009619D03*
X008333Y007413D03*
X008333Y006744D03*
X007270Y006744D03*
X007270Y007413D03*
X007355Y012891D03*
X006685Y012891D03*
X006685Y013891D03*
X007355Y013891D03*
X007355Y014891D03*
X006685Y014891D03*
X006685Y015891D03*
X007355Y015891D03*
X013333Y003476D03*
X013333Y002806D03*
D14*
X011208Y006168D03*
X011208Y006365D03*
X010833Y006365D03*
X010833Y006168D03*
X010458Y006168D03*
X010458Y006365D03*
X010083Y006365D03*
X010083Y006168D03*
X009770Y006168D03*
X009770Y006365D03*
D15*
X010172Y010891D03*
X010369Y010891D03*
D16*
X013795Y011766D03*
X013995Y011766D03*
X013995Y013766D03*
X013795Y013766D03*
X013795Y009766D03*
X013995Y009766D03*
X013995Y007766D03*
X013795Y007766D03*
X013732Y005766D03*
X013933Y005766D03*
X013808Y004266D03*
X013607Y004266D03*
D17*
X001458Y000891D03*
X002458Y000891D03*
X002458Y001891D03*
X002458Y002891D03*
X002458Y003891D03*
X001458Y003891D03*
X001458Y002891D03*
X001458Y001891D03*
X003708Y001891D03*
X003708Y002891D03*
X004708Y002891D03*
X004708Y001891D03*
X004708Y000891D03*
X003708Y000891D03*
X003708Y003891D03*
X004708Y003891D03*
X004645Y012891D03*
X003645Y012891D03*
X003645Y013891D03*
X004645Y013891D03*
X004645Y014891D03*
X003645Y014891D03*
X003645Y015891D03*
X004645Y015891D03*
X002520Y015891D03*
X002520Y014891D03*
X002520Y013891D03*
X002520Y012891D03*
X001520Y012891D03*
X001520Y013891D03*
X001520Y014891D03*
X001520Y015891D03*
D18*
X015117Y012954D03*
X015708Y013741D03*
X016298Y012954D03*
X015707Y011741D03*
X015117Y010954D03*
X016298Y010954D03*
X015708Y009741D03*
X016298Y008954D03*
X015117Y008954D03*
X015708Y007741D03*
X016298Y006954D03*
X015117Y006954D03*
X015708Y005741D03*
X016298Y004954D03*
X015117Y004954D03*
X015708Y003741D03*
X016298Y002954D03*
X015117Y002954D03*
D19*
X014526Y003544D03*
X014526Y005544D03*
X014526Y007544D03*
X014526Y009544D03*
X014526Y011544D03*
X014526Y013544D03*
D20*
X014045Y012391D03*
X013795Y010591D03*
X011945Y009241D03*
X011545Y008341D03*
X011045Y008341D03*
X010645Y009341D03*
X010245Y010341D03*
X009395Y009341D03*
X008795Y010191D03*
X009145Y008191D03*
X007845Y007441D03*
X009145Y006141D03*
X010095Y006741D03*
X013745Y006291D03*
X007895Y012354D03*
X005995Y011791D03*
X004495Y011991D03*
X003045Y012091D03*
X003095Y012591D03*
X007845Y014891D03*
M02*
