%
M48
M72
T01C0.0240
T02C0.0400
T03C0.1250
T04C0.1340
%
T01
X4204Y5201
X5454Y3351
X6654Y2551
X6004Y5001
X7154Y5351
X7354Y6351
X7004Y7001
X5654Y10451
X3154Y11751
X5354Y13951
X5354Y14451
X6604Y13151
X7504Y13151
T02
X1429Y1101
X1429Y2101
X1429Y3101
X1429Y4101
X2429Y4101
X2429Y3101
X2429Y2101
X2429Y1101
X3554Y1101
X3554Y2101
X3554Y3101
X3554Y4101
X4554Y4101
X4554Y3101
X4554Y2101
X4554Y1101
X4554Y13101
X4554Y14101
X4554Y15101
X4554Y16101
X3554Y16101
X3554Y15101
X3554Y14101
X3554Y13101
X2429Y13101
X2429Y14101
X1429Y14101
X1429Y13101
X1429Y15101
X1429Y16101
X2429Y16101
X2429Y15101
T03
X10429Y15851
X12554Y15851
X12554Y1351
X10429Y1351
T04
X14259Y3676
X14259Y5776
X14384Y7551
X14384Y9651
X14259Y11551
X14259Y13651
M30
