G75*
G70*
%OFA0B0*%
%FSLAX24Y24*%
%IPPOS*%
%LPD*%
%AMOC8*
5,1,8,0,0,1.08239X$1,22.5*
%
%ADD10C,0.0000*%
%ADD11C,0.0060*%
%ADD12C,0.0050*%
%ADD13C,0.0040*%
%ADD14C,0.0080*%
%ADD15C,0.0100*%
D10*
X000554Y000101D02*
X014554Y000101D01*
X014554Y001226D01*
X014556Y001286D01*
X014561Y001347D01*
X014570Y001406D01*
X014583Y001465D01*
X014599Y001524D01*
X014619Y001581D01*
X014642Y001636D01*
X014669Y001691D01*
X014698Y001743D01*
X014731Y001794D01*
X014767Y001843D01*
X014805Y001889D01*
X014847Y001933D01*
X014891Y001975D01*
X014937Y002013D01*
X014986Y002049D01*
X015037Y002082D01*
X015089Y002111D01*
X015144Y002138D01*
X015199Y002161D01*
X015256Y002181D01*
X015315Y002197D01*
X015374Y002210D01*
X015433Y002219D01*
X015494Y002224D01*
X015554Y002226D01*
X016054Y002226D01*
X016054Y014726D01*
X015558Y014724D01*
X015557Y014724D02*
X015497Y014725D01*
X015436Y014731D01*
X015376Y014739D01*
X015317Y014752D01*
X015259Y014768D01*
X015201Y014787D01*
X015145Y014810D01*
X015091Y014836D01*
X015038Y014866D01*
X014987Y014899D01*
X014938Y014934D01*
X014891Y014973D01*
X014847Y015015D01*
X014805Y015059D01*
X014766Y015105D01*
X014731Y015154D01*
X014698Y015205D01*
X014668Y015258D01*
X014641Y015312D01*
X014618Y015368D01*
X014599Y015425D01*
X014582Y015484D01*
X014570Y015543D01*
X014561Y015603D01*
X014556Y015663D01*
X014554Y015724D01*
X014554Y016976D01*
X000554Y016976D01*
X000554Y010601D01*
X004429Y010601D01*
X004473Y010599D01*
X004516Y010593D01*
X004558Y010584D01*
X004600Y010571D01*
X004640Y010554D01*
X004679Y010534D01*
X004716Y010511D01*
X004750Y010484D01*
X004783Y010455D01*
X004812Y010422D01*
X004839Y010388D01*
X004862Y010351D01*
X004882Y010312D01*
X004899Y010272D01*
X004912Y010230D01*
X004921Y010188D01*
X004927Y010145D01*
X004929Y010101D01*
X004929Y006726D01*
X004927Y006682D01*
X004921Y006639D01*
X004912Y006597D01*
X004899Y006555D01*
X004882Y006515D01*
X004862Y006476D01*
X004839Y006439D01*
X004812Y006405D01*
X004783Y006372D01*
X004750Y006343D01*
X004716Y006316D01*
X004679Y006293D01*
X004640Y006273D01*
X004600Y006256D01*
X004558Y006243D01*
X004516Y006234D01*
X004473Y006228D01*
X004429Y006226D01*
X000554Y006226D01*
X000554Y000101D01*
X009804Y001351D02*
X009806Y001401D01*
X009812Y001450D01*
X009822Y001499D01*
X009835Y001546D01*
X009853Y001593D01*
X009874Y001638D01*
X009898Y001681D01*
X009926Y001722D01*
X009957Y001761D01*
X009991Y001797D01*
X010028Y001831D01*
X010068Y001861D01*
X010109Y001888D01*
X010153Y001912D01*
X010198Y001932D01*
X010245Y001948D01*
X010293Y001961D01*
X010342Y001970D01*
X010392Y001975D01*
X010441Y001976D01*
X010491Y001973D01*
X010540Y001966D01*
X010589Y001955D01*
X010636Y001941D01*
X010682Y001922D01*
X010727Y001900D01*
X010770Y001875D01*
X010810Y001846D01*
X010848Y001814D01*
X010884Y001780D01*
X010917Y001742D01*
X010946Y001702D01*
X010972Y001660D01*
X010995Y001616D01*
X011014Y001570D01*
X011030Y001523D01*
X011042Y001474D01*
X011050Y001425D01*
X011054Y001376D01*
X011054Y001326D01*
X011050Y001277D01*
X011042Y001228D01*
X011030Y001179D01*
X011014Y001132D01*
X010995Y001086D01*
X010972Y001042D01*
X010946Y001000D01*
X010917Y000960D01*
X010884Y000922D01*
X010848Y000888D01*
X010810Y000856D01*
X010770Y000827D01*
X010727Y000802D01*
X010682Y000780D01*
X010636Y000761D01*
X010589Y000747D01*
X010540Y000736D01*
X010491Y000729D01*
X010441Y000726D01*
X010392Y000727D01*
X010342Y000732D01*
X010293Y000741D01*
X010245Y000754D01*
X010198Y000770D01*
X010153Y000790D01*
X010109Y000814D01*
X010068Y000841D01*
X010028Y000871D01*
X009991Y000905D01*
X009957Y000941D01*
X009926Y000980D01*
X009898Y001021D01*
X009874Y001064D01*
X009853Y001109D01*
X009835Y001156D01*
X009822Y001203D01*
X009812Y001252D01*
X009806Y001301D01*
X009804Y001351D01*
X011929Y001351D02*
X011931Y001401D01*
X011937Y001450D01*
X011947Y001499D01*
X011960Y001546D01*
X011978Y001593D01*
X011999Y001638D01*
X012023Y001681D01*
X012051Y001722D01*
X012082Y001761D01*
X012116Y001797D01*
X012153Y001831D01*
X012193Y001861D01*
X012234Y001888D01*
X012278Y001912D01*
X012323Y001932D01*
X012370Y001948D01*
X012418Y001961D01*
X012467Y001970D01*
X012517Y001975D01*
X012566Y001976D01*
X012616Y001973D01*
X012665Y001966D01*
X012714Y001955D01*
X012761Y001941D01*
X012807Y001922D01*
X012852Y001900D01*
X012895Y001875D01*
X012935Y001846D01*
X012973Y001814D01*
X013009Y001780D01*
X013042Y001742D01*
X013071Y001702D01*
X013097Y001660D01*
X013120Y001616D01*
X013139Y001570D01*
X013155Y001523D01*
X013167Y001474D01*
X013175Y001425D01*
X013179Y001376D01*
X013179Y001326D01*
X013175Y001277D01*
X013167Y001228D01*
X013155Y001179D01*
X013139Y001132D01*
X013120Y001086D01*
X013097Y001042D01*
X013071Y001000D01*
X013042Y000960D01*
X013009Y000922D01*
X012973Y000888D01*
X012935Y000856D01*
X012895Y000827D01*
X012852Y000802D01*
X012807Y000780D01*
X012761Y000761D01*
X012714Y000747D01*
X012665Y000736D01*
X012616Y000729D01*
X012566Y000726D01*
X012517Y000727D01*
X012467Y000732D01*
X012418Y000741D01*
X012370Y000754D01*
X012323Y000770D01*
X012278Y000790D01*
X012234Y000814D01*
X012193Y000841D01*
X012153Y000871D01*
X012116Y000905D01*
X012082Y000941D01*
X012051Y000980D01*
X012023Y001021D01*
X011999Y001064D01*
X011978Y001109D01*
X011960Y001156D01*
X011947Y001203D01*
X011937Y001252D01*
X011931Y001301D01*
X011929Y001351D01*
X013589Y003676D02*
X013591Y003727D01*
X013597Y003778D01*
X013607Y003829D01*
X013620Y003878D01*
X013638Y003926D01*
X013659Y003973D01*
X013683Y004018D01*
X013711Y004061D01*
X013742Y004102D01*
X013776Y004141D01*
X013813Y004176D01*
X013853Y004209D01*
X013895Y004238D01*
X013939Y004265D01*
X013985Y004287D01*
X014033Y004307D01*
X014081Y004322D01*
X014131Y004334D01*
X014182Y004342D01*
X014233Y004346D01*
X014285Y004346D01*
X014336Y004342D01*
X014387Y004334D01*
X014437Y004322D01*
X014485Y004307D01*
X014533Y004287D01*
X014579Y004265D01*
X014623Y004238D01*
X014665Y004209D01*
X014705Y004176D01*
X014742Y004141D01*
X014776Y004102D01*
X014807Y004061D01*
X014835Y004018D01*
X014859Y003973D01*
X014880Y003926D01*
X014898Y003878D01*
X014911Y003829D01*
X014921Y003778D01*
X014927Y003727D01*
X014929Y003676D01*
X014927Y003625D01*
X014921Y003574D01*
X014911Y003523D01*
X014898Y003474D01*
X014880Y003426D01*
X014859Y003379D01*
X014835Y003334D01*
X014807Y003291D01*
X014776Y003250D01*
X014742Y003211D01*
X014705Y003176D01*
X014665Y003143D01*
X014623Y003114D01*
X014579Y003087D01*
X014533Y003065D01*
X014485Y003045D01*
X014437Y003030D01*
X014387Y003018D01*
X014336Y003010D01*
X014285Y003006D01*
X014233Y003006D01*
X014182Y003010D01*
X014131Y003018D01*
X014081Y003030D01*
X014033Y003045D01*
X013985Y003065D01*
X013939Y003087D01*
X013895Y003114D01*
X013853Y003143D01*
X013813Y003176D01*
X013776Y003211D01*
X013742Y003250D01*
X013711Y003291D01*
X013683Y003334D01*
X013659Y003379D01*
X013638Y003426D01*
X013620Y003474D01*
X013607Y003523D01*
X013597Y003574D01*
X013591Y003625D01*
X013589Y003676D01*
X013589Y005776D02*
X013591Y005827D01*
X013597Y005878D01*
X013607Y005929D01*
X013620Y005978D01*
X013638Y006026D01*
X013659Y006073D01*
X013683Y006118D01*
X013711Y006161D01*
X013742Y006202D01*
X013776Y006241D01*
X013813Y006276D01*
X013853Y006309D01*
X013895Y006338D01*
X013939Y006365D01*
X013985Y006387D01*
X014033Y006407D01*
X014081Y006422D01*
X014131Y006434D01*
X014182Y006442D01*
X014233Y006446D01*
X014285Y006446D01*
X014336Y006442D01*
X014387Y006434D01*
X014437Y006422D01*
X014485Y006407D01*
X014533Y006387D01*
X014579Y006365D01*
X014623Y006338D01*
X014665Y006309D01*
X014705Y006276D01*
X014742Y006241D01*
X014776Y006202D01*
X014807Y006161D01*
X014835Y006118D01*
X014859Y006073D01*
X014880Y006026D01*
X014898Y005978D01*
X014911Y005929D01*
X014921Y005878D01*
X014927Y005827D01*
X014929Y005776D01*
X014927Y005725D01*
X014921Y005674D01*
X014911Y005623D01*
X014898Y005574D01*
X014880Y005526D01*
X014859Y005479D01*
X014835Y005434D01*
X014807Y005391D01*
X014776Y005350D01*
X014742Y005311D01*
X014705Y005276D01*
X014665Y005243D01*
X014623Y005214D01*
X014579Y005187D01*
X014533Y005165D01*
X014485Y005145D01*
X014437Y005130D01*
X014387Y005118D01*
X014336Y005110D01*
X014285Y005106D01*
X014233Y005106D01*
X014182Y005110D01*
X014131Y005118D01*
X014081Y005130D01*
X014033Y005145D01*
X013985Y005165D01*
X013939Y005187D01*
X013895Y005214D01*
X013853Y005243D01*
X013813Y005276D01*
X013776Y005311D01*
X013742Y005350D01*
X013711Y005391D01*
X013683Y005434D01*
X013659Y005479D01*
X013638Y005526D01*
X013620Y005574D01*
X013607Y005623D01*
X013597Y005674D01*
X013591Y005725D01*
X013589Y005776D01*
X013714Y007551D02*
X013716Y007602D01*
X013722Y007653D01*
X013732Y007704D01*
X013745Y007753D01*
X013763Y007801D01*
X013784Y007848D01*
X013808Y007893D01*
X013836Y007936D01*
X013867Y007977D01*
X013901Y008016D01*
X013938Y008051D01*
X013978Y008084D01*
X014020Y008113D01*
X014064Y008140D01*
X014110Y008162D01*
X014158Y008182D01*
X014206Y008197D01*
X014256Y008209D01*
X014307Y008217D01*
X014358Y008221D01*
X014410Y008221D01*
X014461Y008217D01*
X014512Y008209D01*
X014562Y008197D01*
X014610Y008182D01*
X014658Y008162D01*
X014704Y008140D01*
X014748Y008113D01*
X014790Y008084D01*
X014830Y008051D01*
X014867Y008016D01*
X014901Y007977D01*
X014932Y007936D01*
X014960Y007893D01*
X014984Y007848D01*
X015005Y007801D01*
X015023Y007753D01*
X015036Y007704D01*
X015046Y007653D01*
X015052Y007602D01*
X015054Y007551D01*
X015052Y007500D01*
X015046Y007449D01*
X015036Y007398D01*
X015023Y007349D01*
X015005Y007301D01*
X014984Y007254D01*
X014960Y007209D01*
X014932Y007166D01*
X014901Y007125D01*
X014867Y007086D01*
X014830Y007051D01*
X014790Y007018D01*
X014748Y006989D01*
X014704Y006962D01*
X014658Y006940D01*
X014610Y006920D01*
X014562Y006905D01*
X014512Y006893D01*
X014461Y006885D01*
X014410Y006881D01*
X014358Y006881D01*
X014307Y006885D01*
X014256Y006893D01*
X014206Y006905D01*
X014158Y006920D01*
X014110Y006940D01*
X014064Y006962D01*
X014020Y006989D01*
X013978Y007018D01*
X013938Y007051D01*
X013901Y007086D01*
X013867Y007125D01*
X013836Y007166D01*
X013808Y007209D01*
X013784Y007254D01*
X013763Y007301D01*
X013745Y007349D01*
X013732Y007398D01*
X013722Y007449D01*
X013716Y007500D01*
X013714Y007551D01*
X013714Y009651D02*
X013716Y009702D01*
X013722Y009753D01*
X013732Y009804D01*
X013745Y009853D01*
X013763Y009901D01*
X013784Y009948D01*
X013808Y009993D01*
X013836Y010036D01*
X013867Y010077D01*
X013901Y010116D01*
X013938Y010151D01*
X013978Y010184D01*
X014020Y010213D01*
X014064Y010240D01*
X014110Y010262D01*
X014158Y010282D01*
X014206Y010297D01*
X014256Y010309D01*
X014307Y010317D01*
X014358Y010321D01*
X014410Y010321D01*
X014461Y010317D01*
X014512Y010309D01*
X014562Y010297D01*
X014610Y010282D01*
X014658Y010262D01*
X014704Y010240D01*
X014748Y010213D01*
X014790Y010184D01*
X014830Y010151D01*
X014867Y010116D01*
X014901Y010077D01*
X014932Y010036D01*
X014960Y009993D01*
X014984Y009948D01*
X015005Y009901D01*
X015023Y009853D01*
X015036Y009804D01*
X015046Y009753D01*
X015052Y009702D01*
X015054Y009651D01*
X015052Y009600D01*
X015046Y009549D01*
X015036Y009498D01*
X015023Y009449D01*
X015005Y009401D01*
X014984Y009354D01*
X014960Y009309D01*
X014932Y009266D01*
X014901Y009225D01*
X014867Y009186D01*
X014830Y009151D01*
X014790Y009118D01*
X014748Y009089D01*
X014704Y009062D01*
X014658Y009040D01*
X014610Y009020D01*
X014562Y009005D01*
X014512Y008993D01*
X014461Y008985D01*
X014410Y008981D01*
X014358Y008981D01*
X014307Y008985D01*
X014256Y008993D01*
X014206Y009005D01*
X014158Y009020D01*
X014110Y009040D01*
X014064Y009062D01*
X014020Y009089D01*
X013978Y009118D01*
X013938Y009151D01*
X013901Y009186D01*
X013867Y009225D01*
X013836Y009266D01*
X013808Y009309D01*
X013784Y009354D01*
X013763Y009401D01*
X013745Y009449D01*
X013732Y009498D01*
X013722Y009549D01*
X013716Y009600D01*
X013714Y009651D01*
X013589Y011551D02*
X013591Y011602D01*
X013597Y011653D01*
X013607Y011704D01*
X013620Y011753D01*
X013638Y011801D01*
X013659Y011848D01*
X013683Y011893D01*
X013711Y011936D01*
X013742Y011977D01*
X013776Y012016D01*
X013813Y012051D01*
X013853Y012084D01*
X013895Y012113D01*
X013939Y012140D01*
X013985Y012162D01*
X014033Y012182D01*
X014081Y012197D01*
X014131Y012209D01*
X014182Y012217D01*
X014233Y012221D01*
X014285Y012221D01*
X014336Y012217D01*
X014387Y012209D01*
X014437Y012197D01*
X014485Y012182D01*
X014533Y012162D01*
X014579Y012140D01*
X014623Y012113D01*
X014665Y012084D01*
X014705Y012051D01*
X014742Y012016D01*
X014776Y011977D01*
X014807Y011936D01*
X014835Y011893D01*
X014859Y011848D01*
X014880Y011801D01*
X014898Y011753D01*
X014911Y011704D01*
X014921Y011653D01*
X014927Y011602D01*
X014929Y011551D01*
X014927Y011500D01*
X014921Y011449D01*
X014911Y011398D01*
X014898Y011349D01*
X014880Y011301D01*
X014859Y011254D01*
X014835Y011209D01*
X014807Y011166D01*
X014776Y011125D01*
X014742Y011086D01*
X014705Y011051D01*
X014665Y011018D01*
X014623Y010989D01*
X014579Y010962D01*
X014533Y010940D01*
X014485Y010920D01*
X014437Y010905D01*
X014387Y010893D01*
X014336Y010885D01*
X014285Y010881D01*
X014233Y010881D01*
X014182Y010885D01*
X014131Y010893D01*
X014081Y010905D01*
X014033Y010920D01*
X013985Y010940D01*
X013939Y010962D01*
X013895Y010989D01*
X013853Y011018D01*
X013813Y011051D01*
X013776Y011086D01*
X013742Y011125D01*
X013711Y011166D01*
X013683Y011209D01*
X013659Y011254D01*
X013638Y011301D01*
X013620Y011349D01*
X013607Y011398D01*
X013597Y011449D01*
X013591Y011500D01*
X013589Y011551D01*
X013589Y013651D02*
X013591Y013702D01*
X013597Y013753D01*
X013607Y013804D01*
X013620Y013853D01*
X013638Y013901D01*
X013659Y013948D01*
X013683Y013993D01*
X013711Y014036D01*
X013742Y014077D01*
X013776Y014116D01*
X013813Y014151D01*
X013853Y014184D01*
X013895Y014213D01*
X013939Y014240D01*
X013985Y014262D01*
X014033Y014282D01*
X014081Y014297D01*
X014131Y014309D01*
X014182Y014317D01*
X014233Y014321D01*
X014285Y014321D01*
X014336Y014317D01*
X014387Y014309D01*
X014437Y014297D01*
X014485Y014282D01*
X014533Y014262D01*
X014579Y014240D01*
X014623Y014213D01*
X014665Y014184D01*
X014705Y014151D01*
X014742Y014116D01*
X014776Y014077D01*
X014807Y014036D01*
X014835Y013993D01*
X014859Y013948D01*
X014880Y013901D01*
X014898Y013853D01*
X014911Y013804D01*
X014921Y013753D01*
X014927Y013702D01*
X014929Y013651D01*
X014927Y013600D01*
X014921Y013549D01*
X014911Y013498D01*
X014898Y013449D01*
X014880Y013401D01*
X014859Y013354D01*
X014835Y013309D01*
X014807Y013266D01*
X014776Y013225D01*
X014742Y013186D01*
X014705Y013151D01*
X014665Y013118D01*
X014623Y013089D01*
X014579Y013062D01*
X014533Y013040D01*
X014485Y013020D01*
X014437Y013005D01*
X014387Y012993D01*
X014336Y012985D01*
X014285Y012981D01*
X014233Y012981D01*
X014182Y012985D01*
X014131Y012993D01*
X014081Y013005D01*
X014033Y013020D01*
X013985Y013040D01*
X013939Y013062D01*
X013895Y013089D01*
X013853Y013118D01*
X013813Y013151D01*
X013776Y013186D01*
X013742Y013225D01*
X013711Y013266D01*
X013683Y013309D01*
X013659Y013354D01*
X013638Y013401D01*
X013620Y013449D01*
X013607Y013498D01*
X013597Y013549D01*
X013591Y013600D01*
X013589Y013651D01*
X011929Y015851D02*
X011931Y015901D01*
X011937Y015950D01*
X011947Y015999D01*
X011960Y016046D01*
X011978Y016093D01*
X011999Y016138D01*
X012023Y016181D01*
X012051Y016222D01*
X012082Y016261D01*
X012116Y016297D01*
X012153Y016331D01*
X012193Y016361D01*
X012234Y016388D01*
X012278Y016412D01*
X012323Y016432D01*
X012370Y016448D01*
X012418Y016461D01*
X012467Y016470D01*
X012517Y016475D01*
X012566Y016476D01*
X012616Y016473D01*
X012665Y016466D01*
X012714Y016455D01*
X012761Y016441D01*
X012807Y016422D01*
X012852Y016400D01*
X012895Y016375D01*
X012935Y016346D01*
X012973Y016314D01*
X013009Y016280D01*
X013042Y016242D01*
X013071Y016202D01*
X013097Y016160D01*
X013120Y016116D01*
X013139Y016070D01*
X013155Y016023D01*
X013167Y015974D01*
X013175Y015925D01*
X013179Y015876D01*
X013179Y015826D01*
X013175Y015777D01*
X013167Y015728D01*
X013155Y015679D01*
X013139Y015632D01*
X013120Y015586D01*
X013097Y015542D01*
X013071Y015500D01*
X013042Y015460D01*
X013009Y015422D01*
X012973Y015388D01*
X012935Y015356D01*
X012895Y015327D01*
X012852Y015302D01*
X012807Y015280D01*
X012761Y015261D01*
X012714Y015247D01*
X012665Y015236D01*
X012616Y015229D01*
X012566Y015226D01*
X012517Y015227D01*
X012467Y015232D01*
X012418Y015241D01*
X012370Y015254D01*
X012323Y015270D01*
X012278Y015290D01*
X012234Y015314D01*
X012193Y015341D01*
X012153Y015371D01*
X012116Y015405D01*
X012082Y015441D01*
X012051Y015480D01*
X012023Y015521D01*
X011999Y015564D01*
X011978Y015609D01*
X011960Y015656D01*
X011947Y015703D01*
X011937Y015752D01*
X011931Y015801D01*
X011929Y015851D01*
X009804Y015851D02*
X009806Y015901D01*
X009812Y015950D01*
X009822Y015999D01*
X009835Y016046D01*
X009853Y016093D01*
X009874Y016138D01*
X009898Y016181D01*
X009926Y016222D01*
X009957Y016261D01*
X009991Y016297D01*
X010028Y016331D01*
X010068Y016361D01*
X010109Y016388D01*
X010153Y016412D01*
X010198Y016432D01*
X010245Y016448D01*
X010293Y016461D01*
X010342Y016470D01*
X010392Y016475D01*
X010441Y016476D01*
X010491Y016473D01*
X010540Y016466D01*
X010589Y016455D01*
X010636Y016441D01*
X010682Y016422D01*
X010727Y016400D01*
X010770Y016375D01*
X010810Y016346D01*
X010848Y016314D01*
X010884Y016280D01*
X010917Y016242D01*
X010946Y016202D01*
X010972Y016160D01*
X010995Y016116D01*
X011014Y016070D01*
X011030Y016023D01*
X011042Y015974D01*
X011050Y015925D01*
X011054Y015876D01*
X011054Y015826D01*
X011050Y015777D01*
X011042Y015728D01*
X011030Y015679D01*
X011014Y015632D01*
X010995Y015586D01*
X010972Y015542D01*
X010946Y015500D01*
X010917Y015460D01*
X010884Y015422D01*
X010848Y015388D01*
X010810Y015356D01*
X010770Y015327D01*
X010727Y015302D01*
X010682Y015280D01*
X010636Y015261D01*
X010589Y015247D01*
X010540Y015236D01*
X010491Y015229D01*
X010441Y015226D01*
X010392Y015227D01*
X010342Y015232D01*
X010293Y015241D01*
X010245Y015254D01*
X010198Y015270D01*
X010153Y015290D01*
X010109Y015314D01*
X010068Y015341D01*
X010028Y015371D01*
X009991Y015405D01*
X009957Y015441D01*
X009926Y015480D01*
X009898Y015521D01*
X009874Y015564D01*
X009853Y015609D01*
X009835Y015656D01*
X009822Y015703D01*
X009812Y015752D01*
X009806Y015801D01*
X009804Y015851D01*
D11*
X011459Y014721D02*
X011686Y014381D01*
X011828Y014437D02*
X011884Y014381D01*
X011998Y014381D01*
X012054Y014437D01*
X012054Y014494D01*
X011998Y014551D01*
X011941Y014551D01*
X011998Y014551D02*
X012054Y014608D01*
X012054Y014664D01*
X011998Y014721D01*
X011884Y014721D01*
X011828Y014664D01*
X011686Y014721D02*
X011459Y014381D01*
X011584Y010721D02*
X011811Y010381D01*
X011953Y010381D02*
X012179Y010381D01*
X012066Y010381D02*
X012066Y010721D01*
X011953Y010608D01*
X011811Y010721D02*
X011584Y010381D01*
X011686Y006846D02*
X011459Y006506D01*
X011686Y006506D02*
X011459Y006846D01*
X011828Y006789D02*
X011884Y006846D01*
X011998Y006846D01*
X012054Y006789D01*
X012054Y006733D01*
X011828Y006506D01*
X012054Y006506D01*
X005054Y004351D02*
X005054Y003851D01*
X004804Y003601D01*
X005054Y003351D01*
X005054Y002851D01*
X004804Y002601D01*
X005054Y002351D01*
X005054Y001851D01*
X004804Y001601D01*
X005054Y001351D01*
X005054Y000851D01*
X004804Y000601D01*
X003304Y000601D01*
X003054Y000851D01*
X003054Y001351D01*
X003304Y001601D01*
X003054Y001851D01*
X003054Y002351D01*
X003304Y002601D01*
X003054Y002851D01*
X003054Y003351D01*
X003304Y003601D01*
X003054Y003851D01*
X003054Y004351D01*
X003304Y004601D01*
X004804Y004601D01*
X005054Y004351D01*
X002929Y004351D02*
X002929Y003851D01*
X002679Y003601D01*
X002929Y003351D01*
X002929Y002851D01*
X002679Y002601D01*
X002929Y002351D01*
X002929Y001851D01*
X002679Y001601D01*
X002929Y001351D01*
X002929Y000851D01*
X002679Y000601D01*
X001179Y000601D01*
X000929Y000851D01*
X000929Y001351D01*
X001179Y001601D01*
X000929Y001851D01*
X000929Y002351D01*
X001179Y002601D01*
X000929Y002851D01*
X000929Y003351D01*
X001179Y003601D01*
X000929Y003851D01*
X000929Y004351D01*
X001179Y004601D01*
X002679Y004601D01*
X002929Y004351D01*
X002679Y012601D02*
X001179Y012601D01*
X000929Y012851D01*
X000929Y013351D01*
X001179Y013601D01*
X000929Y013851D01*
X000929Y014351D01*
X001179Y014601D01*
X000929Y014851D01*
X000929Y015351D01*
X001179Y015601D01*
X000929Y015851D01*
X000929Y016351D01*
X001179Y016601D01*
X002679Y016601D01*
X002929Y016351D01*
X002929Y015851D01*
X002679Y015601D01*
X002929Y015351D01*
X002929Y014851D01*
X002679Y014601D01*
X002929Y014351D01*
X002929Y013851D01*
X002679Y013601D01*
X002929Y013351D01*
X002929Y012851D01*
X002679Y012601D01*
X003054Y012851D02*
X003304Y012601D01*
X004804Y012601D01*
X005054Y012851D01*
X005054Y013351D01*
X004804Y013601D01*
X005054Y013851D01*
X005054Y014351D01*
X004804Y014601D01*
X005054Y014851D01*
X005054Y015351D01*
X004804Y015601D01*
X005054Y015851D01*
X005054Y016351D01*
X004804Y016601D01*
X003304Y016601D01*
X003054Y016351D01*
X003054Y015851D01*
X003304Y015601D01*
X003054Y015351D01*
X003054Y014851D01*
X003304Y014601D01*
X003054Y014351D01*
X003054Y013851D01*
X003304Y013601D01*
X003054Y013351D01*
X003054Y012851D01*
D12*
X002879Y012851D02*
X002804Y012926D01*
X002729Y012926D01*
X002654Y012851D01*
X002654Y012701D01*
X002579Y012626D01*
X002504Y012626D01*
X002429Y012701D01*
X002429Y012851D01*
X002504Y012926D01*
X002429Y013086D02*
X002429Y013386D01*
X002429Y013236D02*
X002879Y013236D01*
X002879Y013546D02*
X002429Y013546D01*
X002429Y013772D01*
X002504Y013847D01*
X002654Y013847D01*
X002729Y013772D01*
X002729Y013546D01*
X002729Y013697D02*
X002879Y013847D01*
X003104Y013076D02*
X003554Y013076D01*
X003554Y012926D02*
X003554Y013226D01*
X003254Y012926D02*
X003104Y013076D01*
X002879Y012851D02*
X002879Y012701D01*
X002804Y012626D01*
X000754Y012701D02*
X000679Y012626D01*
X000754Y012701D02*
X000754Y012851D01*
X000679Y012926D01*
X000604Y012926D01*
X000529Y012851D01*
X000529Y012701D01*
X000454Y012626D01*
X000379Y012626D01*
X000304Y012701D01*
X000304Y012851D01*
X000379Y012926D01*
X000304Y013086D02*
X000304Y013386D01*
X000304Y013236D02*
X000754Y013236D01*
X000754Y013546D02*
X000754Y013847D01*
X000754Y013546D02*
X000304Y013546D01*
X000379Y016126D02*
X000304Y016201D01*
X000304Y016351D01*
X000379Y016426D01*
X000454Y016426D01*
X000529Y016351D01*
X000529Y016201D01*
X000454Y016126D01*
X000379Y016126D01*
X000529Y016201D02*
X000604Y016126D01*
X000679Y016126D01*
X000754Y016201D01*
X000754Y016351D01*
X000679Y016426D01*
X000604Y016426D01*
X000529Y016351D01*
X002429Y016351D02*
X002429Y016201D01*
X002504Y016126D01*
X002579Y016126D01*
X002654Y016201D01*
X002654Y016351D01*
X002729Y016426D01*
X002804Y016426D01*
X002879Y016351D01*
X002879Y016201D01*
X002804Y016126D01*
X002729Y016126D01*
X002654Y016201D01*
X002654Y016351D02*
X002579Y016426D01*
X002504Y016426D01*
X002429Y016351D01*
X005229Y013076D02*
X005679Y013076D01*
X005679Y012926D02*
X005679Y013226D01*
X005379Y012926D02*
X005229Y013076D01*
X002804Y004426D02*
X002729Y004426D01*
X002654Y004351D01*
X002654Y004201D01*
X002579Y004126D01*
X002504Y004126D01*
X002429Y004201D01*
X002429Y004351D01*
X002504Y004426D01*
X002579Y004426D01*
X002654Y004351D01*
X002654Y004201D02*
X002729Y004126D01*
X002804Y004126D01*
X002879Y004201D01*
X002879Y004351D01*
X002804Y004426D01*
X000754Y004351D02*
X000754Y004201D01*
X000679Y004126D01*
X000604Y004126D01*
X000529Y004201D01*
X000529Y004351D01*
X000604Y004426D01*
X000679Y004426D01*
X000754Y004351D01*
X000529Y004351D02*
X000454Y004426D01*
X000379Y004426D01*
X000304Y004351D01*
X000304Y004201D01*
X000379Y004126D01*
X000454Y004126D01*
X000529Y004201D01*
X000754Y001847D02*
X000754Y001546D01*
X000304Y001546D01*
X000379Y001386D02*
X000304Y001311D01*
X000304Y001086D01*
X000754Y001086D01*
X000754Y001311D01*
X000679Y001386D01*
X000604Y001386D01*
X000529Y001311D01*
X000529Y001086D01*
X000604Y000926D02*
X000679Y000926D01*
X000754Y000851D01*
X000754Y000701D01*
X000679Y000626D01*
X000529Y000701D02*
X000529Y000851D01*
X000604Y000926D01*
X000379Y000926D02*
X000304Y000851D01*
X000304Y000701D01*
X000379Y000626D01*
X000454Y000626D01*
X000529Y000701D01*
X000529Y001311D02*
X000454Y001386D01*
X000379Y001386D01*
X002429Y001311D02*
X002429Y001086D01*
X002879Y001086D01*
X002879Y001311D01*
X002804Y001386D01*
X002729Y001386D01*
X002654Y001311D01*
X002654Y001086D01*
X002729Y000926D02*
X002804Y000926D01*
X002879Y000851D01*
X002879Y000701D01*
X002804Y000626D01*
X002654Y000701D02*
X002654Y000851D01*
X002729Y000926D01*
X002504Y000926D02*
X002429Y000851D01*
X002429Y000701D01*
X002504Y000626D01*
X002579Y000626D01*
X002654Y000701D01*
X003104Y001076D02*
X003554Y001076D01*
X003554Y000926D02*
X003554Y001226D01*
X003254Y000926D02*
X003104Y001076D01*
X002654Y001311D02*
X002579Y001386D01*
X002504Y001386D01*
X002429Y001311D01*
X002429Y001546D02*
X002429Y001772D01*
X002504Y001847D01*
X002654Y001847D01*
X002729Y001772D01*
X002729Y001546D01*
X002879Y001546D02*
X002429Y001546D01*
X002729Y001697D02*
X002879Y001847D01*
X005229Y001076D02*
X005679Y001076D01*
X005679Y000926D02*
X005679Y001226D01*
X005379Y000926D02*
X005229Y001076D01*
D13*
X006230Y007371D02*
X006154Y007447D01*
X006154Y007754D01*
X006230Y007831D01*
X006384Y007831D01*
X006460Y007754D01*
X006460Y007447D01*
X006384Y007371D01*
X006230Y007371D01*
X006307Y007524D02*
X006460Y007371D01*
X006614Y007371D02*
X006921Y007371D01*
X006767Y007371D02*
X006767Y007831D01*
X006614Y007678D01*
X006708Y011200D02*
X006401Y011200D01*
X006324Y011277D01*
X006324Y011430D01*
X006401Y011507D01*
X006708Y011507D01*
X006784Y011430D01*
X006784Y011277D01*
X006708Y011200D01*
X006631Y011353D02*
X006784Y011507D01*
X006554Y011660D02*
X006554Y011967D01*
X006784Y011891D02*
X006324Y011891D01*
X006554Y011660D01*
X005765Y013871D02*
X005611Y013871D01*
X005535Y013947D01*
X005381Y013947D02*
X005381Y014254D01*
X005304Y014331D01*
X005151Y014331D01*
X005074Y014254D01*
X005074Y013947D01*
X005151Y013871D01*
X005304Y013871D01*
X005381Y013947D01*
X005381Y013871D02*
X005228Y014024D01*
X005535Y014254D02*
X005611Y014331D01*
X005765Y014331D01*
X005842Y014254D01*
X005842Y014178D01*
X005765Y014101D01*
X005842Y014024D01*
X005842Y013947D01*
X005765Y013871D01*
X005765Y014101D02*
X005688Y014101D01*
X005333Y014621D02*
X005409Y014697D01*
X005409Y014851D01*
X005333Y014928D01*
X005026Y014928D01*
X004949Y014851D01*
X004949Y014697D01*
X005026Y014621D01*
X005333Y014621D01*
X005256Y014774D02*
X005409Y014928D01*
X005409Y015081D02*
X005102Y015388D01*
X005026Y015388D01*
X004949Y015311D01*
X004949Y015158D01*
X005026Y015081D01*
X005409Y015081D02*
X005409Y015388D01*
D14*
X005734Y014869D02*
X005734Y014583D01*
X007624Y014583D02*
X007624Y014869D01*
X007072Y010046D02*
X006787Y010046D01*
X006787Y008156D02*
X007072Y008156D01*
X015304Y006038D02*
X015929Y005851D01*
X015929Y006226D01*
X015304Y006038D01*
X015410Y006070D02*
X015929Y006070D01*
X015929Y005992D02*
X015460Y005992D01*
X015672Y006149D02*
X015929Y006149D01*
X015929Y005913D02*
X015722Y005913D01*
X016054Y009726D02*
X016054Y010101D01*
X015429Y009913D01*
X016054Y009726D01*
X016054Y009762D02*
X015935Y009762D01*
X016054Y009840D02*
X015673Y009840D01*
X015709Y009997D02*
X016054Y009997D01*
X016054Y009919D02*
X015447Y009919D01*
X015971Y010076D02*
X016054Y010076D01*
X015929Y013726D02*
X015929Y014101D01*
X015304Y013913D01*
X015929Y013726D01*
X015929Y013767D02*
X015791Y013767D01*
X015929Y013846D02*
X015529Y013846D01*
X015603Y014003D02*
X015929Y014003D01*
X015929Y014081D02*
X015865Y014081D01*
X015929Y013924D02*
X015342Y013924D01*
D15*
X014804Y014163D02*
X015929Y014163D01*
X015929Y011038D01*
X014804Y011038D01*
X014929Y010163D02*
X016054Y010163D01*
X016054Y007038D01*
X014929Y007038D01*
X014804Y006288D02*
X015929Y006288D01*
X015929Y003163D01*
X014804Y003163D01*
X013679Y003163D02*
X011429Y003163D01*
X011429Y006288D01*
X013679Y006288D01*
X013804Y007038D02*
X011554Y007038D01*
X011554Y010163D01*
X013804Y010163D01*
X013679Y011038D02*
X011429Y011038D01*
X011429Y014163D01*
X013679Y014163D01*
M02*
