%
M48
M72
T01C0.0240
T02C0.0320
T03C0.0400
T04C0.0750
T05C0.0787
T06C0.1200
T07C0.1250
%
T01
X6334Y3343
X8831Y9405
X7584Y11893
X8724Y13310
X7664Y13475
X7034Y14493
X7644Y15093
X11734Y15065
T02
X12409Y14155
X16409Y14155
X16284Y4655
X12284Y4655
T03
X2659Y1905
X3659Y1905
X3659Y2905
X2659Y2905
X2659Y3905
X3659Y3905
X3659Y4905
X2659Y4905
X4784Y4905
X4784Y3905
X4784Y2905
X5784Y2905
X5784Y3905
X5784Y4905
X5784Y1905
X4784Y1905
X4784Y13905
X5784Y13905
X5784Y14905
X4784Y14905
X4784Y15905
X5784Y15905
X5784Y16905
X4784Y16905
X3659Y16905
X3659Y15905
X3659Y14905
X3659Y13905
X2659Y13905
X2659Y14905
X2659Y15905
X2659Y16905
T04
X11009Y11155
X11009Y9505
X11009Y7855
X13179Y7855
X13179Y9505
X13179Y11155
T05
X10784Y13030
T06
X16049Y11155
X16049Y7855
T07
X16034Y2155
X13909Y2155
X13909Y16655
X16034Y16655
M30
