G75*
G70*
%OFA0B0*%
%FSLAX24Y24*%
%IPPOS*%
%LPD*%
%AMOC8*
5,1,8,0,0,1.08239X$1,22.5*
%
%ADD10OC8,0.0600*%
%ADD11R,0.0551X0.0276*%
%ADD12R,0.1693X0.1969*%
%ADD13R,0.0551X0.0394*%
%ADD14R,0.2100X0.0650*%
%ADD15R,0.0276X0.0551*%
%ADD16R,0.1969X0.1693*%
%ADD17R,0.0394X0.0551*%
%ADD18C,0.0100*%
%ADD19C,0.0320*%
%ADD20C,0.0400*%
D10*
X001429Y001101D03*
X001429Y002101D03*
X001429Y003101D03*
X001429Y004101D03*
X002429Y004101D03*
X002429Y003101D03*
X002429Y002101D03*
X002429Y001101D03*
X003554Y001101D03*
X003554Y002101D03*
X003554Y003101D03*
X003554Y004101D03*
X004554Y004101D03*
X004554Y003101D03*
X004554Y002101D03*
X004554Y001101D03*
X004554Y013101D03*
X004554Y014101D03*
X004554Y015101D03*
X004554Y016101D03*
X003554Y016101D03*
X003554Y015101D03*
X003554Y014101D03*
X003554Y013101D03*
X002429Y013101D03*
X002429Y014101D03*
X001429Y014101D03*
X001429Y013101D03*
X001429Y015101D03*
X001429Y016101D03*
X002429Y016101D03*
X002429Y015101D03*
D11*
X007348Y009851D03*
X007348Y009351D03*
X007348Y008851D03*
X007348Y008351D03*
D12*
X005911Y009101D03*
D13*
X005121Y010977D03*
X005121Y011725D03*
X005987Y011351D03*
D14*
X009679Y012101D03*
X009679Y013101D03*
X009804Y009101D03*
X009804Y008101D03*
X009679Y005226D03*
X009679Y004226D03*
D15*
X007429Y014307D03*
X006929Y014307D03*
X006429Y014307D03*
X005929Y014307D03*
D16*
X006679Y015744D03*
D17*
X005804Y013534D03*
X005430Y012668D03*
X006178Y012668D03*
D18*
X006154Y012651D01*
X005554Y012051D01*
X005554Y011501D01*
X005154Y011101D01*
X005154Y011001D01*
X005121Y010977D01*
X005154Y010951D01*
X005654Y010451D01*
X006004Y011151D02*
X006004Y011351D01*
X005987Y011351D01*
X006004Y011151D02*
X007304Y009851D01*
X007348Y009851D01*
X005121Y011725D02*
X005104Y011751D01*
X003154Y011751D01*
X001904Y012651D02*
X001454Y013101D01*
X001429Y013101D01*
X001904Y012651D02*
X005404Y012651D01*
X005430Y012668D01*
X005804Y013501D02*
X005804Y013534D01*
X005804Y013501D02*
X006104Y013501D01*
X006454Y013151D01*
X006604Y013151D01*
X007504Y013151D02*
X007504Y014251D01*
X007454Y014301D01*
X007429Y014307D01*
X005354Y014451D02*
X004904Y014451D01*
X004554Y014101D01*
X005354Y013951D02*
X004554Y013151D01*
X004554Y013101D01*
X007004Y007001D02*
X007204Y007001D01*
X007704Y006501D01*
X007704Y006201D01*
X007504Y006001D01*
X007304Y006001D01*
X006854Y005551D01*
X004054Y005551D01*
X003104Y004601D01*
X003104Y003151D01*
X002604Y002651D01*
X002354Y002651D01*
X001804Y002101D01*
X001429Y002101D01*
X001429Y001101D02*
X001804Y001101D01*
X002254Y000651D01*
X004754Y000651D01*
X006654Y002551D01*
X005454Y003351D02*
X004754Y002651D01*
X004454Y002651D01*
X003904Y002101D01*
X003554Y002101D01*
X002454Y002101D02*
X002454Y001601D01*
X004554Y001601D01*
X004554Y001101D01*
X004554Y001601D02*
X004554Y002101D01*
X003904Y004101D02*
X003554Y004101D01*
X003904Y004101D02*
X004804Y005001D01*
X006004Y005001D01*
X005704Y005201D02*
X005854Y005351D01*
X007154Y005351D01*
X006754Y005751D02*
X007354Y006351D01*
X006754Y005751D02*
X003454Y005751D01*
X001804Y004101D01*
X001429Y004101D01*
X002429Y002101D02*
X002454Y002101D01*
X002454Y001601D02*
X002454Y001101D01*
X002429Y001101D01*
X004204Y005201D02*
X005704Y005201D01*
D19*
X008054Y004101D02*
X009054Y004101D01*
X009179Y004226D01*
X009679Y004226D01*
X009679Y005226D02*
X010054Y005601D01*
X010054Y008101D01*
X009804Y008101D01*
X012054Y008101D01*
X012054Y013101D01*
X009679Y013101D01*
X009679Y012101D02*
X008054Y012101D01*
X008054Y015101D01*
X006679Y015101D01*
X006679Y015744D01*
X006554Y014351D02*
X006804Y014351D01*
X006429Y014307D02*
X005929Y014307D01*
X006429Y014307D02*
X006429Y013601D01*
X007054Y013601D01*
X007054Y010601D01*
X008054Y010601D01*
X008054Y009101D01*
X007304Y009101D01*
X007304Y008351D01*
X007304Y009351D01*
X008054Y009101D02*
X009804Y009101D01*
X008054Y006601D02*
X008054Y004101D01*
X008054Y006601D02*
X006554Y008101D01*
X006554Y008457D01*
X005911Y009101D01*
X007304Y008351D02*
X007348Y008351D01*
D20*
X007004Y007001D03*
X007354Y006351D03*
X007154Y005351D03*
X006004Y005001D03*
X005454Y003351D03*
X006654Y002551D03*
X004204Y005201D03*
X005654Y010451D03*
X003154Y011751D03*
X005354Y013951D03*
X005354Y014451D03*
X006604Y013151D03*
X007504Y013151D03*
M02*
