G75*
G70*
%OFA0B0*%
%FSLAX24Y24*%
%IPPOS*%
%LPD*%
%AMOC8*
5,1,8,0,0,1.08239X$1,22.5*
%
%ADD10C,0.0000*%
%ADD11C,0.0100*%
%ADD12C,0.0060*%
%ADD13C,0.0040*%
%ADD14C,0.0070*%
%ADD15C,0.0020*%
%ADD16R,0.0118X0.0118*%
%ADD17C,0.0050*%
D10*
X000645Y000141D02*
X000645Y006084D01*
X005524Y006084D01*
X005568Y006086D01*
X005611Y006092D01*
X005653Y006101D01*
X005695Y006114D01*
X005735Y006131D01*
X005774Y006151D01*
X005811Y006174D01*
X005845Y006201D01*
X005878Y006230D01*
X005907Y006263D01*
X005934Y006297D01*
X005957Y006334D01*
X005977Y006373D01*
X005994Y006413D01*
X006007Y006455D01*
X006016Y006497D01*
X006022Y006540D01*
X006024Y006584D01*
X006024Y009962D01*
X006022Y010006D01*
X006016Y010049D01*
X006007Y010091D01*
X005994Y010133D01*
X005977Y010173D01*
X005957Y010212D01*
X005934Y010249D01*
X005907Y010283D01*
X005878Y010316D01*
X005845Y010345D01*
X005811Y010372D01*
X005774Y010395D01*
X005735Y010415D01*
X005695Y010432D01*
X005653Y010445D01*
X005611Y010454D01*
X005568Y010460D01*
X005524Y010462D01*
X000645Y010462D01*
X000645Y016949D01*
X017138Y016949D01*
X017138Y000141D01*
X000645Y000141D01*
X012145Y001141D02*
X012147Y001191D01*
X012153Y001240D01*
X012163Y001289D01*
X012176Y001336D01*
X012194Y001383D01*
X012215Y001428D01*
X012239Y001471D01*
X012267Y001512D01*
X012298Y001551D01*
X012332Y001587D01*
X012369Y001621D01*
X012409Y001651D01*
X012450Y001678D01*
X012494Y001702D01*
X012539Y001722D01*
X012586Y001738D01*
X012634Y001751D01*
X012683Y001760D01*
X012733Y001765D01*
X012782Y001766D01*
X012832Y001763D01*
X012881Y001756D01*
X012930Y001745D01*
X012977Y001731D01*
X013023Y001712D01*
X013068Y001690D01*
X013111Y001665D01*
X013151Y001636D01*
X013189Y001604D01*
X013225Y001570D01*
X013258Y001532D01*
X013287Y001492D01*
X013313Y001450D01*
X013336Y001406D01*
X013355Y001360D01*
X013371Y001313D01*
X013383Y001264D01*
X013391Y001215D01*
X013395Y001166D01*
X013395Y001116D01*
X013391Y001067D01*
X013383Y001018D01*
X013371Y000969D01*
X013355Y000922D01*
X013336Y000876D01*
X013313Y000832D01*
X013287Y000790D01*
X013258Y000750D01*
X013225Y000712D01*
X013189Y000678D01*
X013151Y000646D01*
X013111Y000617D01*
X013068Y000592D01*
X013023Y000570D01*
X012977Y000551D01*
X012930Y000537D01*
X012881Y000526D01*
X012832Y000519D01*
X012782Y000516D01*
X012733Y000517D01*
X012683Y000522D01*
X012634Y000531D01*
X012586Y000544D01*
X012539Y000560D01*
X012494Y000580D01*
X012450Y000604D01*
X012409Y000631D01*
X012369Y000661D01*
X012332Y000695D01*
X012298Y000731D01*
X012267Y000770D01*
X012239Y000811D01*
X012215Y000854D01*
X012194Y000899D01*
X012176Y000946D01*
X012163Y000993D01*
X012153Y001042D01*
X012147Y001091D01*
X012145Y001141D01*
X014339Y003544D02*
X014341Y003571D01*
X014347Y003597D01*
X014356Y003622D01*
X014369Y003645D01*
X014385Y003666D01*
X014404Y003685D01*
X014425Y003701D01*
X014448Y003714D01*
X014473Y003723D01*
X014499Y003729D01*
X014526Y003731D01*
X014553Y003729D01*
X014579Y003723D01*
X014604Y003714D01*
X014627Y003701D01*
X014648Y003685D01*
X014667Y003666D01*
X014683Y003645D01*
X014696Y003622D01*
X014705Y003597D01*
X014711Y003571D01*
X014713Y003544D01*
X014711Y003517D01*
X014705Y003491D01*
X014696Y003466D01*
X014683Y003443D01*
X014667Y003422D01*
X014648Y003403D01*
X014627Y003387D01*
X014604Y003374D01*
X014579Y003365D01*
X014553Y003359D01*
X014526Y003357D01*
X014499Y003359D01*
X014473Y003365D01*
X014448Y003374D01*
X014425Y003387D01*
X014404Y003403D01*
X014385Y003422D01*
X014369Y003443D01*
X014356Y003466D01*
X014347Y003491D01*
X014341Y003517D01*
X014339Y003544D01*
X014339Y005544D02*
X014341Y005571D01*
X014347Y005597D01*
X014356Y005622D01*
X014369Y005645D01*
X014385Y005666D01*
X014404Y005685D01*
X014425Y005701D01*
X014448Y005714D01*
X014473Y005723D01*
X014499Y005729D01*
X014526Y005731D01*
X014553Y005729D01*
X014579Y005723D01*
X014604Y005714D01*
X014627Y005701D01*
X014648Y005685D01*
X014667Y005666D01*
X014683Y005645D01*
X014696Y005622D01*
X014705Y005597D01*
X014711Y005571D01*
X014713Y005544D01*
X014711Y005517D01*
X014705Y005491D01*
X014696Y005466D01*
X014683Y005443D01*
X014667Y005422D01*
X014648Y005403D01*
X014627Y005387D01*
X014604Y005374D01*
X014579Y005365D01*
X014553Y005359D01*
X014526Y005357D01*
X014499Y005359D01*
X014473Y005365D01*
X014448Y005374D01*
X014425Y005387D01*
X014404Y005403D01*
X014385Y005422D01*
X014369Y005443D01*
X014356Y005466D01*
X014347Y005491D01*
X014341Y005517D01*
X014339Y005544D01*
X014339Y007544D02*
X014341Y007571D01*
X014347Y007597D01*
X014356Y007622D01*
X014369Y007645D01*
X014385Y007666D01*
X014404Y007685D01*
X014425Y007701D01*
X014448Y007714D01*
X014473Y007723D01*
X014499Y007729D01*
X014526Y007731D01*
X014553Y007729D01*
X014579Y007723D01*
X014604Y007714D01*
X014627Y007701D01*
X014648Y007685D01*
X014667Y007666D01*
X014683Y007645D01*
X014696Y007622D01*
X014705Y007597D01*
X014711Y007571D01*
X014713Y007544D01*
X014711Y007517D01*
X014705Y007491D01*
X014696Y007466D01*
X014683Y007443D01*
X014667Y007422D01*
X014648Y007403D01*
X014627Y007387D01*
X014604Y007374D01*
X014579Y007365D01*
X014553Y007359D01*
X014526Y007357D01*
X014499Y007359D01*
X014473Y007365D01*
X014448Y007374D01*
X014425Y007387D01*
X014404Y007403D01*
X014385Y007422D01*
X014369Y007443D01*
X014356Y007466D01*
X014347Y007491D01*
X014341Y007517D01*
X014339Y007544D01*
X014339Y009544D02*
X014341Y009571D01*
X014347Y009597D01*
X014356Y009622D01*
X014369Y009645D01*
X014385Y009666D01*
X014404Y009685D01*
X014425Y009701D01*
X014448Y009714D01*
X014473Y009723D01*
X014499Y009729D01*
X014526Y009731D01*
X014553Y009729D01*
X014579Y009723D01*
X014604Y009714D01*
X014627Y009701D01*
X014648Y009685D01*
X014667Y009666D01*
X014683Y009645D01*
X014696Y009622D01*
X014705Y009597D01*
X014711Y009571D01*
X014713Y009544D01*
X014711Y009517D01*
X014705Y009491D01*
X014696Y009466D01*
X014683Y009443D01*
X014667Y009422D01*
X014648Y009403D01*
X014627Y009387D01*
X014604Y009374D01*
X014579Y009365D01*
X014553Y009359D01*
X014526Y009357D01*
X014499Y009359D01*
X014473Y009365D01*
X014448Y009374D01*
X014425Y009387D01*
X014404Y009403D01*
X014385Y009422D01*
X014369Y009443D01*
X014356Y009466D01*
X014347Y009491D01*
X014341Y009517D01*
X014339Y009544D01*
X014339Y011544D02*
X014341Y011571D01*
X014347Y011597D01*
X014356Y011622D01*
X014369Y011645D01*
X014385Y011666D01*
X014404Y011685D01*
X014425Y011701D01*
X014448Y011714D01*
X014473Y011723D01*
X014499Y011729D01*
X014526Y011731D01*
X014553Y011729D01*
X014579Y011723D01*
X014604Y011714D01*
X014627Y011701D01*
X014648Y011685D01*
X014667Y011666D01*
X014683Y011645D01*
X014696Y011622D01*
X014705Y011597D01*
X014711Y011571D01*
X014713Y011544D01*
X014711Y011517D01*
X014705Y011491D01*
X014696Y011466D01*
X014683Y011443D01*
X014667Y011422D01*
X014648Y011403D01*
X014627Y011387D01*
X014604Y011374D01*
X014579Y011365D01*
X014553Y011359D01*
X014526Y011357D01*
X014499Y011359D01*
X014473Y011365D01*
X014448Y011374D01*
X014425Y011387D01*
X014404Y011403D01*
X014385Y011422D01*
X014369Y011443D01*
X014356Y011466D01*
X014347Y011491D01*
X014341Y011517D01*
X014339Y011544D01*
X014339Y013544D02*
X014341Y013571D01*
X014347Y013597D01*
X014356Y013622D01*
X014369Y013645D01*
X014385Y013666D01*
X014404Y013685D01*
X014425Y013701D01*
X014448Y013714D01*
X014473Y013723D01*
X014499Y013729D01*
X014526Y013731D01*
X014553Y013729D01*
X014579Y013723D01*
X014604Y013714D01*
X014627Y013701D01*
X014648Y013685D01*
X014667Y013666D01*
X014683Y013645D01*
X014696Y013622D01*
X014705Y013597D01*
X014711Y013571D01*
X014713Y013544D01*
X014711Y013517D01*
X014705Y013491D01*
X014696Y013466D01*
X014683Y013443D01*
X014667Y013422D01*
X014648Y013403D01*
X014627Y013387D01*
X014604Y013374D01*
X014579Y013365D01*
X014553Y013359D01*
X014526Y013357D01*
X014499Y013359D01*
X014473Y013365D01*
X014448Y013374D01*
X014425Y013387D01*
X014404Y013403D01*
X014385Y013422D01*
X014369Y013443D01*
X014356Y013466D01*
X014347Y013491D01*
X014341Y013517D01*
X014339Y013544D01*
X014270Y015641D02*
X014272Y015691D01*
X014278Y015740D01*
X014288Y015789D01*
X014301Y015836D01*
X014319Y015883D01*
X014340Y015928D01*
X014364Y015971D01*
X014392Y016012D01*
X014423Y016051D01*
X014457Y016087D01*
X014494Y016121D01*
X014534Y016151D01*
X014575Y016178D01*
X014619Y016202D01*
X014664Y016222D01*
X014711Y016238D01*
X014759Y016251D01*
X014808Y016260D01*
X014858Y016265D01*
X014907Y016266D01*
X014957Y016263D01*
X015006Y016256D01*
X015055Y016245D01*
X015102Y016231D01*
X015148Y016212D01*
X015193Y016190D01*
X015236Y016165D01*
X015276Y016136D01*
X015314Y016104D01*
X015350Y016070D01*
X015383Y016032D01*
X015412Y015992D01*
X015438Y015950D01*
X015461Y015906D01*
X015480Y015860D01*
X015496Y015813D01*
X015508Y015764D01*
X015516Y015715D01*
X015520Y015666D01*
X015520Y015616D01*
X015516Y015567D01*
X015508Y015518D01*
X015496Y015469D01*
X015480Y015422D01*
X015461Y015376D01*
X015438Y015332D01*
X015412Y015290D01*
X015383Y015250D01*
X015350Y015212D01*
X015314Y015178D01*
X015276Y015146D01*
X015236Y015117D01*
X015193Y015092D01*
X015148Y015070D01*
X015102Y015051D01*
X015055Y015037D01*
X015006Y015026D01*
X014957Y015019D01*
X014907Y015016D01*
X014858Y015017D01*
X014808Y015022D01*
X014759Y015031D01*
X014711Y015044D01*
X014664Y015060D01*
X014619Y015080D01*
X014575Y015104D01*
X014534Y015131D01*
X014494Y015161D01*
X014457Y015195D01*
X014423Y015231D01*
X014392Y015270D01*
X014364Y015311D01*
X014340Y015354D01*
X014319Y015399D01*
X014301Y015446D01*
X014288Y015493D01*
X014278Y015542D01*
X014272Y015591D01*
X014270Y015641D01*
X012145Y015641D02*
X012147Y015691D01*
X012153Y015740D01*
X012163Y015789D01*
X012176Y015836D01*
X012194Y015883D01*
X012215Y015928D01*
X012239Y015971D01*
X012267Y016012D01*
X012298Y016051D01*
X012332Y016087D01*
X012369Y016121D01*
X012409Y016151D01*
X012450Y016178D01*
X012494Y016202D01*
X012539Y016222D01*
X012586Y016238D01*
X012634Y016251D01*
X012683Y016260D01*
X012733Y016265D01*
X012782Y016266D01*
X012832Y016263D01*
X012881Y016256D01*
X012930Y016245D01*
X012977Y016231D01*
X013023Y016212D01*
X013068Y016190D01*
X013111Y016165D01*
X013151Y016136D01*
X013189Y016104D01*
X013225Y016070D01*
X013258Y016032D01*
X013287Y015992D01*
X013313Y015950D01*
X013336Y015906D01*
X013355Y015860D01*
X013371Y015813D01*
X013383Y015764D01*
X013391Y015715D01*
X013395Y015666D01*
X013395Y015616D01*
X013391Y015567D01*
X013383Y015518D01*
X013371Y015469D01*
X013355Y015422D01*
X013336Y015376D01*
X013313Y015332D01*
X013287Y015290D01*
X013258Y015250D01*
X013225Y015212D01*
X013189Y015178D01*
X013151Y015146D01*
X013111Y015117D01*
X013068Y015092D01*
X013023Y015070D01*
X012977Y015051D01*
X012930Y015037D01*
X012881Y015026D01*
X012832Y015019D01*
X012782Y015016D01*
X012733Y015017D01*
X012683Y015022D01*
X012634Y015031D01*
X012586Y015044D01*
X012539Y015060D01*
X012494Y015080D01*
X012450Y015104D01*
X012409Y015131D01*
X012369Y015161D01*
X012332Y015195D01*
X012298Y015231D01*
X012267Y015270D01*
X012239Y015311D01*
X012215Y015354D01*
X012194Y015399D01*
X012176Y015446D01*
X012163Y015493D01*
X012153Y015542D01*
X012147Y015591D01*
X012145Y015641D01*
X014333Y001141D02*
X014335Y001191D01*
X014341Y001240D01*
X014351Y001289D01*
X014364Y001336D01*
X014382Y001383D01*
X014403Y001428D01*
X014427Y001471D01*
X014455Y001512D01*
X014486Y001551D01*
X014520Y001587D01*
X014557Y001621D01*
X014597Y001651D01*
X014638Y001678D01*
X014682Y001702D01*
X014727Y001722D01*
X014774Y001738D01*
X014822Y001751D01*
X014871Y001760D01*
X014921Y001765D01*
X014970Y001766D01*
X015020Y001763D01*
X015069Y001756D01*
X015118Y001745D01*
X015165Y001731D01*
X015211Y001712D01*
X015256Y001690D01*
X015299Y001665D01*
X015339Y001636D01*
X015377Y001604D01*
X015413Y001570D01*
X015446Y001532D01*
X015475Y001492D01*
X015501Y001450D01*
X015524Y001406D01*
X015543Y001360D01*
X015559Y001313D01*
X015571Y001264D01*
X015579Y001215D01*
X015583Y001166D01*
X015583Y001116D01*
X015579Y001067D01*
X015571Y001018D01*
X015559Y000969D01*
X015543Y000922D01*
X015524Y000876D01*
X015501Y000832D01*
X015475Y000790D01*
X015446Y000750D01*
X015413Y000712D01*
X015377Y000678D01*
X015339Y000646D01*
X015299Y000617D01*
X015256Y000592D01*
X015211Y000570D01*
X015165Y000551D01*
X015118Y000537D01*
X015069Y000526D01*
X015020Y000519D01*
X014970Y000516D01*
X014921Y000517D01*
X014871Y000522D01*
X014822Y000531D01*
X014774Y000544D01*
X014727Y000560D01*
X014682Y000580D01*
X014638Y000604D01*
X014597Y000631D01*
X014557Y000661D01*
X014520Y000695D01*
X014486Y000731D01*
X014455Y000770D01*
X014427Y000811D01*
X014403Y000854D01*
X014382Y000899D01*
X014364Y000946D01*
X014351Y000993D01*
X014341Y001042D01*
X014335Y001091D01*
X014333Y001141D01*
D11*
X017145Y000151D02*
X000645Y000151D01*
X000645Y006089D01*
X005520Y006089D01*
X005564Y006091D01*
X005607Y006097D01*
X005649Y006106D01*
X005691Y006119D01*
X005731Y006136D01*
X005770Y006156D01*
X005807Y006179D01*
X005841Y006206D01*
X005874Y006235D01*
X005903Y006268D01*
X005930Y006302D01*
X005953Y006339D01*
X005973Y006378D01*
X005990Y006418D01*
X006003Y006460D01*
X006012Y006502D01*
X006018Y006545D01*
X006020Y006589D01*
X006020Y009964D01*
X006018Y010008D01*
X006012Y010051D01*
X006003Y010093D01*
X005990Y010135D01*
X005973Y010175D01*
X005953Y010214D01*
X005930Y010251D01*
X005903Y010285D01*
X005874Y010318D01*
X005841Y010347D01*
X005807Y010374D01*
X005770Y010397D01*
X005731Y010417D01*
X005691Y010434D01*
X005649Y010447D01*
X005607Y010456D01*
X005564Y010462D01*
X005520Y010464D01*
X000645Y010464D01*
X000645Y016901D01*
X017145Y016901D01*
X017145Y000151D01*
D12*
X014053Y001734D02*
X014053Y002161D01*
X014053Y001947D02*
X013412Y001947D01*
X013626Y001734D01*
X012803Y005109D02*
X012376Y005536D01*
X012269Y005536D01*
X012162Y005429D01*
X012162Y005215D01*
X012269Y005109D01*
X012803Y005109D02*
X012803Y005536D01*
X012758Y006984D02*
X012865Y007090D01*
X012865Y007304D01*
X012758Y007411D01*
X012652Y007411D01*
X012545Y007304D01*
X012545Y007197D01*
X012545Y007304D02*
X012438Y007411D01*
X012331Y007411D01*
X012225Y007304D01*
X012225Y007090D01*
X012331Y006984D01*
X011010Y007805D02*
X011010Y009602D01*
X009030Y009602D01*
X009030Y007805D01*
X011010Y007805D01*
X009200Y008224D02*
X009202Y008250D01*
X009208Y008276D01*
X009217Y008300D01*
X009230Y008323D01*
X009246Y008344D01*
X009265Y008362D01*
X009286Y008378D01*
X009310Y008390D01*
X009334Y008398D01*
X009360Y008403D01*
X009387Y008404D01*
X009413Y008401D01*
X009438Y008394D01*
X009462Y008384D01*
X009485Y008370D01*
X009505Y008354D01*
X009522Y008334D01*
X009537Y008312D01*
X009548Y008288D01*
X009556Y008263D01*
X009560Y008237D01*
X009560Y008211D01*
X009556Y008185D01*
X009548Y008160D01*
X009537Y008136D01*
X009522Y008114D01*
X009505Y008094D01*
X009485Y008078D01*
X009462Y008064D01*
X009438Y008054D01*
X009413Y008047D01*
X009387Y008044D01*
X009360Y008045D01*
X009334Y008050D01*
X009310Y008058D01*
X009286Y008070D01*
X009265Y008086D01*
X009246Y008104D01*
X009230Y008125D01*
X009217Y008148D01*
X009208Y008172D01*
X009202Y008198D01*
X009200Y008224D01*
X012225Y009304D02*
X012545Y008984D01*
X012545Y009411D01*
X012865Y009304D02*
X012225Y009304D01*
X012225Y010921D02*
X012545Y010921D01*
X012438Y011135D01*
X012438Y011241D01*
X012545Y011348D01*
X012758Y011348D01*
X012865Y011241D01*
X012865Y011028D01*
X012758Y010921D01*
X012225Y010921D02*
X012225Y011348D01*
X012607Y013109D02*
X012607Y013429D01*
X012714Y013536D01*
X012821Y013536D01*
X012928Y013429D01*
X012928Y013215D01*
X012821Y013109D01*
X012607Y013109D01*
X012394Y013322D01*
X012287Y013536D01*
X005145Y013641D02*
X004895Y013391D01*
X005145Y013141D01*
X005145Y012641D01*
X004895Y012391D01*
X003395Y012391D01*
X003145Y012641D01*
X003145Y013141D01*
X003395Y013391D01*
X003145Y013641D01*
X003145Y014141D01*
X003395Y014391D01*
X003145Y014641D01*
X003145Y015141D01*
X003395Y015391D01*
X003145Y015641D01*
X003145Y016141D01*
X003395Y016391D01*
X004895Y016391D01*
X005145Y016141D01*
X005145Y015641D01*
X004895Y015391D01*
X005145Y015141D01*
X005145Y014641D01*
X004895Y014391D01*
X005145Y014141D01*
X005145Y013641D01*
X003020Y013641D02*
X002770Y013391D01*
X003020Y013141D01*
X003020Y012641D01*
X002770Y012391D01*
X001270Y012391D01*
X001020Y012641D01*
X001020Y013141D01*
X001270Y013391D01*
X001020Y013641D01*
X001020Y014141D01*
X001270Y014391D01*
X001020Y014641D01*
X001020Y015141D01*
X001270Y015391D01*
X001020Y015641D01*
X001020Y016141D01*
X001270Y016391D01*
X002770Y016391D01*
X003020Y016141D01*
X003020Y015641D01*
X002770Y015391D01*
X003020Y015141D01*
X003020Y014641D01*
X002770Y014391D01*
X003020Y014141D01*
X003020Y013641D01*
X003654Y011374D02*
X003868Y011161D01*
X003868Y010734D01*
X004085Y010734D02*
X004405Y010734D01*
X004512Y010840D01*
X004512Y011267D01*
X004405Y011374D01*
X004085Y011374D01*
X004085Y010734D01*
X003868Y011054D02*
X003441Y011054D01*
X003441Y011161D02*
X003654Y011374D01*
X003441Y011161D02*
X003441Y010734D01*
X002579Y010840D02*
X002472Y010734D01*
X002152Y010734D01*
X002152Y011374D01*
X002152Y011161D02*
X002472Y011161D01*
X002579Y011054D01*
X002579Y010840D01*
X001934Y010734D02*
X001507Y010734D01*
X001934Y011161D01*
X001934Y011267D01*
X001827Y011374D01*
X001614Y011374D01*
X001507Y011267D01*
X001076Y011374D02*
X001076Y010734D01*
X000863Y010734D02*
X001290Y010734D01*
X000863Y011161D02*
X001076Y011374D01*
X004730Y011267D02*
X004730Y010840D01*
X004836Y010734D01*
X005050Y010734D01*
X005157Y010840D01*
X005157Y011267D02*
X005050Y011374D01*
X004836Y011374D01*
X004730Y011267D01*
X003761Y005937D02*
X003547Y005937D01*
X003441Y005830D01*
X003441Y005403D01*
X003868Y005830D01*
X003868Y005403D01*
X003761Y005296D01*
X003547Y005296D01*
X003441Y005403D01*
X003225Y005403D02*
X003225Y005296D01*
X003118Y005296D01*
X003118Y005403D01*
X003225Y005403D01*
X002901Y005296D02*
X002474Y005296D01*
X002901Y005723D01*
X002901Y005830D01*
X002794Y005937D01*
X002581Y005937D01*
X002474Y005830D01*
X002258Y005403D02*
X002152Y005403D01*
X002152Y005296D01*
X002258Y005296D01*
X002258Y005403D01*
X001934Y005403D02*
X001827Y005296D01*
X001614Y005296D01*
X001507Y005403D01*
X001934Y005830D01*
X001934Y005403D01*
X001934Y005830D02*
X001827Y005937D01*
X001614Y005937D01*
X001507Y005830D01*
X001507Y005403D01*
X001290Y005723D02*
X001076Y005296D01*
X000863Y005723D01*
X001208Y004391D02*
X000958Y004141D01*
X000958Y003641D01*
X001208Y003391D01*
X000958Y003141D01*
X000958Y002641D01*
X001208Y002391D01*
X000958Y002141D01*
X000958Y001641D01*
X001208Y001391D01*
X000958Y001141D01*
X000958Y000641D01*
X001208Y000391D01*
X002708Y000391D01*
X002958Y000641D01*
X002958Y001141D01*
X002708Y001391D01*
X002958Y001641D01*
X002958Y002141D01*
X002708Y002391D01*
X002958Y002641D01*
X002958Y003141D01*
X002708Y003391D01*
X002958Y003641D01*
X002958Y004141D01*
X002708Y004391D01*
X001208Y004391D01*
X003208Y004141D02*
X003208Y003641D01*
X003458Y003391D01*
X003208Y003141D01*
X003208Y002641D01*
X003458Y002391D01*
X003208Y002141D01*
X003208Y001641D01*
X003458Y001391D01*
X003208Y001141D01*
X003208Y000641D01*
X003458Y000391D01*
X004958Y000391D01*
X005208Y000641D01*
X005208Y001141D01*
X004958Y001391D01*
X005208Y001641D01*
X005208Y002141D01*
X004958Y002391D01*
X005208Y002641D01*
X005208Y003141D01*
X004958Y003391D01*
X005208Y003641D01*
X005208Y004141D01*
X004958Y004391D01*
X003458Y004391D01*
X003208Y004141D01*
X003868Y005830D02*
X003761Y005937D01*
D13*
X006807Y005925D02*
X006884Y005849D01*
X007037Y005849D01*
X007114Y005925D01*
X007267Y006079D02*
X007574Y006079D01*
X007497Y005849D02*
X007497Y006309D01*
X007267Y006079D01*
X007114Y006232D02*
X007037Y006309D01*
X006884Y006309D01*
X006807Y006232D01*
X006807Y005925D01*
X007994Y005988D02*
X008071Y005911D01*
X008224Y005911D01*
X008301Y005988D01*
X008455Y005988D02*
X008531Y005911D01*
X008685Y005911D01*
X008761Y005988D01*
X008761Y006065D01*
X008685Y006141D01*
X008608Y006141D01*
X008685Y006141D02*
X008761Y006218D01*
X008761Y006295D01*
X008685Y006371D01*
X008531Y006371D01*
X008455Y006295D01*
X008301Y006295D02*
X008224Y006371D01*
X008071Y006371D01*
X007994Y006295D01*
X007994Y005988D01*
X009290Y005618D02*
X009290Y005465D01*
X009366Y005388D01*
X009443Y005388D01*
X009520Y005465D01*
X009520Y005695D01*
X009673Y005695D02*
X009366Y005695D01*
X009290Y005618D01*
X009366Y005235D02*
X009290Y005158D01*
X009290Y005005D01*
X009366Y004928D01*
X009673Y004928D01*
X009750Y005005D01*
X009750Y005158D01*
X009673Y005235D01*
X009673Y005388D02*
X009750Y005465D01*
X009750Y005618D01*
X009673Y005695D01*
X009852Y005618D02*
X009929Y005695D01*
X010006Y005695D01*
X010082Y005618D01*
X010082Y005465D01*
X010006Y005388D01*
X009929Y005388D01*
X009852Y005465D01*
X009852Y005618D01*
X010082Y005618D02*
X010159Y005695D01*
X010236Y005695D01*
X010313Y005618D01*
X010313Y005465D01*
X010236Y005388D01*
X010159Y005388D01*
X010082Y005465D01*
X009929Y005235D02*
X009852Y005158D01*
X009852Y005005D01*
X009929Y004928D01*
X010236Y004928D01*
X010313Y005005D01*
X010313Y005158D01*
X010236Y005235D01*
X010415Y005158D02*
X010415Y005005D01*
X010491Y004928D01*
X010798Y004928D01*
X010875Y005005D01*
X010875Y005158D01*
X010798Y005235D01*
X010798Y005388D02*
X010875Y005388D01*
X010798Y005388D02*
X010491Y005695D01*
X010415Y005695D01*
X010415Y005388D01*
X010491Y005235D02*
X010415Y005158D01*
X010977Y005158D02*
X010977Y005005D01*
X011054Y004928D01*
X011361Y004928D01*
X011438Y005005D01*
X011438Y005158D01*
X011361Y005235D01*
X011361Y005388D02*
X011207Y005388D01*
X011207Y005618D01*
X011284Y005695D01*
X011361Y005695D01*
X011438Y005618D01*
X011438Y005465D01*
X011361Y005388D01*
X011207Y005388D02*
X011054Y005542D01*
X010977Y005695D01*
X011054Y005235D02*
X010977Y005158D01*
X011540Y005158D02*
X011540Y005005D01*
X011616Y004928D01*
X011923Y004928D01*
X012000Y005005D01*
X012000Y005158D01*
X011923Y005235D01*
X011923Y005388D02*
X012000Y005465D01*
X012000Y005618D01*
X011923Y005695D01*
X011770Y005695D01*
X011693Y005618D01*
X011693Y005542D01*
X011770Y005388D01*
X011540Y005388D01*
X011540Y005695D01*
X011616Y005235D02*
X011540Y005158D01*
X012557Y004496D02*
X012787Y004496D01*
X012864Y004420D01*
X012864Y004266D01*
X012787Y004190D01*
X012557Y004190D01*
X012710Y004190D02*
X012864Y004036D01*
X013017Y004036D02*
X013324Y004343D01*
X013324Y004420D01*
X013247Y004496D01*
X013094Y004496D01*
X013017Y004420D01*
X013017Y004036D02*
X013324Y004036D01*
X012813Y003618D02*
X012813Y003465D01*
X012736Y003388D01*
X012813Y003235D02*
X012813Y002928D01*
X012813Y003081D02*
X012352Y003081D01*
X012506Y002928D01*
X012429Y002774D02*
X012352Y002698D01*
X012352Y002544D01*
X012429Y002468D01*
X012736Y002468D01*
X012813Y002544D01*
X012813Y002698D01*
X012736Y002774D01*
X012785Y002258D02*
X012524Y002258D01*
X012524Y001911D01*
X012356Y001998D02*
X012356Y002171D01*
X012269Y002258D01*
X012096Y002258D01*
X012009Y002171D01*
X012009Y001998D01*
X012096Y001911D01*
X012269Y001911D01*
X012356Y001998D01*
X012785Y002258D02*
X012871Y002171D01*
X012871Y001911D01*
X011839Y001911D02*
X011665Y001911D01*
X011752Y001911D02*
X011752Y002258D01*
X011665Y002258D01*
X011495Y002258D02*
X011321Y002258D01*
X011408Y002345D02*
X011408Y001998D01*
X011495Y001911D01*
X011151Y001911D02*
X010978Y001911D01*
X011064Y001911D02*
X011064Y002258D01*
X010978Y002258D01*
X010809Y002258D02*
X010549Y002258D01*
X010462Y002171D01*
X010549Y002085D01*
X010722Y002085D01*
X010809Y001998D01*
X010722Y001911D01*
X010462Y001911D01*
X010293Y001998D02*
X010293Y002171D01*
X010206Y002258D01*
X010033Y002258D01*
X009946Y002171D01*
X009946Y001998D01*
X010033Y001911D01*
X010206Y001911D01*
X010293Y001998D01*
X009778Y001998D02*
X009691Y001911D01*
X009431Y001911D01*
X009431Y001738D02*
X009431Y002258D01*
X009691Y002258D01*
X009778Y002171D01*
X009778Y001998D01*
X009495Y002539D02*
X009408Y002625D01*
X009408Y002972D01*
X009321Y002886D02*
X009495Y002886D01*
X009153Y002799D02*
X009153Y002539D01*
X009153Y002799D02*
X009066Y002886D01*
X008806Y002886D01*
X008806Y002539D01*
X008637Y002539D02*
X008637Y002886D01*
X008290Y002886D02*
X008290Y002625D01*
X008377Y002539D01*
X008637Y002539D01*
X008658Y002345D02*
X008658Y001998D01*
X008745Y001911D01*
X008745Y002258D02*
X008571Y002258D01*
X008403Y002258D02*
X008142Y002258D01*
X008056Y002171D01*
X008142Y002085D01*
X008316Y002085D01*
X008403Y001998D01*
X008316Y001911D01*
X008056Y001911D01*
X007887Y002085D02*
X007540Y002085D01*
X007540Y002171D02*
X007627Y002258D01*
X007800Y002258D01*
X007887Y002171D01*
X007887Y002085D01*
X007800Y001911D02*
X007627Y001911D01*
X007540Y001998D01*
X007540Y002171D01*
X007371Y002258D02*
X007371Y001998D01*
X007285Y001911D01*
X007198Y001998D01*
X007111Y001911D01*
X007024Y001998D01*
X007024Y002258D01*
X006856Y002171D02*
X006769Y002258D01*
X006596Y002258D01*
X006509Y002171D01*
X006509Y001998D01*
X006596Y001911D01*
X006769Y001911D01*
X006856Y001998D01*
X006856Y002171D01*
X007259Y002539D02*
X007259Y003059D01*
X007432Y002886D01*
X007606Y003059D01*
X007606Y002539D01*
X007774Y002625D02*
X007861Y002539D01*
X008035Y002539D01*
X008121Y002625D01*
X008121Y002799D01*
X008035Y002886D01*
X007861Y002886D01*
X007774Y002799D01*
X007774Y002625D01*
X006252Y002432D02*
X006252Y001911D01*
X006165Y001911D02*
X006339Y001911D01*
X006252Y002432D02*
X006165Y002432D01*
X010181Y002539D02*
X010354Y002539D01*
X010267Y002539D02*
X010267Y002886D01*
X010181Y002886D01*
X010267Y003059D02*
X010267Y003146D01*
X010524Y002886D02*
X010785Y002886D01*
X010871Y002799D01*
X010871Y002539D01*
X011064Y002518D02*
X011064Y002432D01*
X010524Y002539D02*
X010524Y002886D01*
X011752Y002518D02*
X011752Y002432D01*
X012429Y003388D02*
X012352Y003465D01*
X012352Y003618D01*
X012429Y003695D01*
X012506Y003695D01*
X012582Y003618D01*
X012659Y003695D01*
X012736Y003695D01*
X012813Y003618D01*
X012582Y003618D02*
X012582Y003542D01*
X012557Y004036D02*
X012557Y004496D01*
X013182Y005036D02*
X013182Y005496D01*
X013412Y005496D01*
X013489Y005420D01*
X013489Y005266D01*
X013412Y005189D01*
X013182Y005189D01*
X013335Y005189D02*
X013489Y005036D01*
X013642Y005113D02*
X013719Y005036D01*
X013872Y005036D01*
X013949Y005113D01*
X013949Y005189D01*
X013872Y005266D01*
X013796Y005266D01*
X013872Y005266D02*
X013949Y005343D01*
X013949Y005420D01*
X013872Y005496D01*
X013719Y005496D01*
X013642Y005420D01*
X013551Y007036D02*
X013398Y007190D01*
X013474Y007190D02*
X013244Y007190D01*
X013244Y007036D02*
X013244Y007496D01*
X013474Y007496D01*
X013551Y007420D01*
X013551Y007266D01*
X013474Y007190D01*
X013705Y007266D02*
X014012Y007266D01*
X013935Y007036D02*
X013935Y007496D01*
X013705Y007266D01*
X013781Y009036D02*
X013705Y009113D01*
X013781Y009036D02*
X013935Y009036D01*
X014012Y009113D01*
X014012Y009266D01*
X013935Y009343D01*
X013858Y009343D01*
X013705Y009266D01*
X013705Y009496D01*
X014012Y009496D01*
X013551Y009420D02*
X013551Y009266D01*
X013474Y009190D01*
X013244Y009190D01*
X013398Y009190D02*
X013551Y009036D01*
X013244Y009036D02*
X013244Y009496D01*
X013474Y009496D01*
X013551Y009420D01*
X013551Y011036D02*
X013398Y011190D01*
X013474Y011190D02*
X013244Y011190D01*
X013244Y011036D02*
X013244Y011496D01*
X013474Y011496D01*
X013551Y011420D01*
X013551Y011266D01*
X013474Y011190D01*
X013705Y011266D02*
X013705Y011113D01*
X013781Y011036D01*
X013935Y011036D01*
X014012Y011113D01*
X014012Y011190D01*
X013935Y011266D01*
X013705Y011266D01*
X013858Y011420D01*
X014012Y011496D01*
X014000Y012849D02*
X014000Y012925D01*
X014307Y013232D01*
X014307Y013309D01*
X014000Y013309D01*
X013847Y013232D02*
X013847Y013079D01*
X013770Y013002D01*
X013540Y013002D01*
X013540Y012849D02*
X013540Y013309D01*
X013770Y013309D01*
X013847Y013232D01*
X013693Y013002D02*
X013847Y012849D01*
X010893Y011607D02*
X010893Y011300D01*
X010816Y011224D01*
X010662Y011224D01*
X010586Y011300D01*
X010893Y011607D01*
X010816Y011684D01*
X010662Y011684D01*
X010586Y011607D01*
X010586Y011300D01*
X010432Y011224D02*
X010125Y011224D01*
X010279Y011224D02*
X010279Y011684D01*
X010125Y011531D01*
X009972Y011607D02*
X009895Y011684D01*
X009742Y011684D01*
X009665Y011607D01*
X009665Y011300D01*
X009742Y011224D01*
X009895Y011224D01*
X009972Y011300D01*
X008682Y011045D02*
X008606Y011121D01*
X008452Y011121D01*
X008375Y011045D01*
X008222Y011045D02*
X008145Y011121D01*
X007992Y011121D01*
X007915Y011045D01*
X007915Y010738D01*
X007992Y010661D01*
X008145Y010661D01*
X008222Y010738D01*
X008375Y010661D02*
X008682Y010968D01*
X008682Y011045D01*
X008682Y010661D02*
X008375Y010661D01*
X007620Y010661D02*
X007313Y010661D01*
X007466Y010661D02*
X007466Y011121D01*
X007313Y010968D01*
X007159Y011045D02*
X007083Y011121D01*
X006929Y011121D01*
X006853Y011045D01*
X006853Y010738D01*
X006929Y010661D01*
X007083Y010661D01*
X007159Y010738D01*
X007938Y008945D02*
X007938Y008638D01*
X007938Y008485D02*
X007784Y008331D01*
X007784Y008408D02*
X007784Y008178D01*
X007938Y008178D02*
X007477Y008178D01*
X007477Y008408D01*
X007554Y008485D01*
X007707Y008485D01*
X007784Y008408D01*
X007631Y008638D02*
X007477Y008792D01*
X007938Y008792D01*
X008440Y008392D02*
X008920Y008392D01*
X008860Y008452D02*
X008800Y008512D01*
X008740Y008512D01*
X008680Y008452D01*
X008680Y008332D01*
X008620Y008272D01*
X008560Y008272D01*
X008500Y008332D01*
X008500Y008452D01*
X008560Y008512D01*
X008620Y008640D02*
X008500Y008760D01*
X008860Y008760D01*
X008860Y008640D02*
X008860Y008880D01*
X008860Y008452D02*
X008860Y008332D01*
X008800Y008272D01*
X008800Y008144D02*
X008500Y008144D01*
X008500Y007904D02*
X008800Y007904D01*
X008860Y007964D01*
X008860Y008084D01*
X008800Y008144D01*
X006307Y012661D02*
X006000Y012661D01*
X006307Y012968D01*
X006307Y013045D01*
X006231Y013121D01*
X006077Y013121D01*
X006000Y013045D01*
X005847Y013121D02*
X005540Y013121D01*
X005540Y012661D01*
X005540Y012891D02*
X005693Y012891D01*
X005540Y013661D02*
X005540Y014121D01*
X005847Y014121D01*
X006000Y013891D02*
X006307Y013891D01*
X006231Y013661D02*
X006231Y014121D01*
X006000Y013891D01*
X005693Y013891D02*
X005540Y013891D01*
X005494Y014661D02*
X005494Y015121D01*
X005801Y015121D01*
X005955Y014968D02*
X006108Y015121D01*
X006108Y014661D01*
X005955Y014661D02*
X006262Y014661D01*
X005648Y014891D02*
X005494Y014891D01*
X005494Y015661D02*
X005494Y016121D01*
X005801Y016121D01*
X005955Y016045D02*
X006031Y016121D01*
X006185Y016121D01*
X006262Y016045D01*
X006262Y015968D01*
X006185Y015891D01*
X006262Y015815D01*
X006262Y015738D01*
X006185Y015661D01*
X006031Y015661D01*
X005955Y015738D01*
X006108Y015891D02*
X006185Y015891D01*
X005648Y015891D02*
X005494Y015891D01*
D14*
X014680Y014591D02*
X015234Y014591D01*
X015930Y014591D02*
X016484Y014591D01*
X016207Y014868D02*
X016207Y014315D01*
X016207Y002118D02*
X016207Y001565D01*
X015930Y001841D02*
X016484Y001841D01*
X015234Y001841D02*
X014680Y001841D01*
D15*
X010920Y007895D02*
X009120Y007895D01*
X009120Y009512D01*
X010920Y009512D01*
X010920Y007895D01*
D16*
X013833Y005766D03*
X013708Y004266D03*
X013895Y007766D03*
X013895Y009766D03*
X013895Y011766D03*
X013895Y013766D03*
D17*
X014330Y014135D02*
X017085Y014135D01*
X017085Y012363D01*
X014330Y012363D01*
X014330Y014135D01*
X014329Y012135D02*
X017085Y012135D01*
X017085Y010363D01*
X014329Y010363D01*
X014329Y012135D01*
X014330Y010135D02*
X017086Y010135D01*
X017086Y008363D01*
X014330Y008363D01*
X014330Y010135D01*
X014330Y008135D02*
X017085Y008135D01*
X017085Y006363D01*
X014330Y006363D01*
X014330Y008135D01*
X014330Y006135D02*
X017086Y006135D01*
X017086Y004363D01*
X014330Y004363D01*
X014330Y006135D01*
X014330Y004135D02*
X017086Y004135D01*
X017086Y002363D01*
X014330Y002363D01*
X014330Y004135D01*
X005833Y004256D02*
X005682Y004106D01*
X005682Y004181D02*
X005682Y003956D01*
X005833Y003956D02*
X005382Y003956D01*
X005382Y004181D01*
X005457Y004256D01*
X005607Y004256D01*
X005682Y004181D01*
X005682Y003796D02*
X005758Y003796D01*
X005833Y003720D01*
X005833Y003495D01*
X005382Y003495D01*
X005382Y003720D01*
X005457Y003796D01*
X005532Y003796D01*
X005607Y003720D01*
X005607Y003495D01*
X005682Y003335D02*
X005758Y003335D01*
X005833Y003260D01*
X005833Y003110D01*
X005758Y003035D01*
X005607Y003110D02*
X005607Y003260D01*
X005682Y003335D01*
X005457Y003335D02*
X005382Y003260D01*
X005382Y003110D01*
X005457Y003035D01*
X005532Y003035D01*
X005607Y003110D01*
X005607Y003720D02*
X005682Y003796D01*
X003583Y003720D02*
X003583Y003495D01*
X003132Y003495D01*
X003132Y003720D01*
X003207Y003796D01*
X003282Y003796D01*
X003357Y003720D01*
X003357Y003495D01*
X003432Y003335D02*
X003508Y003335D01*
X003583Y003260D01*
X003583Y003110D01*
X003508Y003035D01*
X003357Y003110D02*
X003357Y003260D01*
X003432Y003335D01*
X003207Y003335D02*
X003132Y003260D01*
X003132Y003110D01*
X003207Y003035D01*
X003282Y003035D01*
X003357Y003110D01*
X003357Y003720D02*
X003432Y003796D01*
X003508Y003796D01*
X003583Y003720D01*
X003583Y003956D02*
X003132Y003956D01*
X003033Y003956D02*
X003033Y003656D01*
X003033Y003806D02*
X002582Y003806D01*
X002732Y003656D01*
X003583Y003956D02*
X003583Y004256D01*
X000783Y003956D02*
X000783Y003656D01*
X000783Y003806D02*
X000332Y003806D01*
X000482Y003656D01*
X003207Y000756D02*
X003282Y000756D01*
X003357Y000681D01*
X003357Y000531D01*
X003282Y000456D01*
X003207Y000456D01*
X003132Y000531D01*
X003132Y000681D01*
X003207Y000756D01*
X003357Y000681D02*
X003432Y000756D01*
X003508Y000756D01*
X003583Y000681D01*
X003583Y000531D01*
X003508Y000456D01*
X003432Y000456D01*
X003357Y000531D01*
X005382Y000531D02*
X005457Y000456D01*
X005532Y000456D01*
X005607Y000531D01*
X005607Y000681D01*
X005682Y000756D01*
X005758Y000756D01*
X005833Y000681D01*
X005833Y000531D01*
X005758Y000456D01*
X005682Y000456D01*
X005607Y000531D01*
X005607Y000681D02*
X005532Y000756D01*
X005457Y000756D01*
X005382Y000681D01*
X005382Y000531D01*
X005395Y012456D02*
X005320Y012531D01*
X005320Y012681D01*
X005395Y012756D01*
X005470Y012756D01*
X005545Y012681D01*
X005545Y012531D01*
X005470Y012456D01*
X005395Y012456D01*
X005545Y012531D02*
X005620Y012456D01*
X005695Y012456D01*
X005770Y012531D01*
X005770Y012681D01*
X005695Y012756D01*
X005620Y012756D01*
X005545Y012681D01*
X003645Y012681D02*
X003645Y012531D01*
X003570Y012456D01*
X003495Y012456D01*
X003420Y012531D01*
X003420Y012681D01*
X003495Y012756D01*
X003570Y012756D01*
X003645Y012681D01*
X003420Y012681D02*
X003345Y012756D01*
X003270Y012756D01*
X003195Y012681D01*
X003195Y012531D01*
X003270Y012456D01*
X003345Y012456D01*
X003420Y012531D01*
X003345Y015035D02*
X003270Y015035D01*
X003195Y015110D01*
X003195Y015260D01*
X003270Y015335D01*
X003420Y015260D02*
X003420Y015110D01*
X003345Y015035D01*
X003570Y015035D02*
X003645Y015110D01*
X003645Y015260D01*
X003570Y015335D01*
X003495Y015335D01*
X003420Y015260D01*
X003195Y015495D02*
X003195Y015796D01*
X003195Y015645D02*
X003645Y015645D01*
X003645Y015956D02*
X003645Y016256D01*
X003645Y015956D02*
X003195Y015956D01*
X002970Y015956D02*
X002970Y015656D01*
X002970Y015806D02*
X002520Y015806D01*
X002670Y015656D01*
X000845Y015656D02*
X000845Y015956D01*
X000845Y015806D02*
X000395Y015806D01*
X000545Y015656D01*
X005320Y015646D02*
X005770Y015646D01*
X005770Y015956D02*
X005320Y015956D01*
X005320Y016181D01*
X005395Y016256D01*
X005545Y016256D01*
X005620Y016181D01*
X005620Y015956D01*
X005620Y016106D02*
X005770Y016256D01*
X005320Y015796D02*
X005320Y015495D01*
X005395Y015335D02*
X005320Y015260D01*
X005320Y015110D01*
X005395Y015035D01*
X005470Y015035D01*
X005545Y015110D01*
X005545Y015260D01*
X005620Y015335D01*
X005695Y015335D01*
X005770Y015260D01*
X005770Y015110D01*
X005695Y015035D01*
M02*
