%
M48
M72
T01C0.0240
T02C0.0400
T03C0.0710
T04C0.0750
T05C0.1200
T06C0.1250
%
T01
X6085Y4551
X6785Y4201
X7185Y4801
X5185Y12301
X4685Y12301
X5685Y13651
X7285Y12851
T02
X1460Y1101
X2460Y1101
X2460Y2101
X1460Y2101
X1460Y3101
X2460Y3101
X2460Y4101
X1460Y4101
X3585Y4101
X4585Y4101
X4585Y3101
X4585Y2101
X4585Y1101
X3585Y1101
X3585Y2101
X3585Y3101
X3585Y13101
X4585Y13101
X4585Y14101
X4585Y15101
X4585Y16101
X3585Y16101
X3585Y15101
X3585Y14101
X2460Y14101
X1460Y14101
X1460Y15101
X2460Y15101
X2460Y16101
X1460Y16101
X1460Y13101
X2460Y13101
T03
X7960Y11851
T04
X9935Y10351
X9935Y8701
X9935Y7051
X12105Y7051
X12105Y8701
X12105Y10351
T05
X14975Y10351
X14975Y7051
T06
X12585Y1351
X10460Y1351
X10460Y15851
X12585Y15851
M30
