%
M48
M72
T01C0.0240
T02C0.0374
T03C0.0400
T04C0.1250
%
T01
X7845Y7441
X9145Y8191
X9395Y9341
X8795Y10191
X10245Y10341
X10645Y9341
X11045Y8341
X11545Y8341
X11945Y9241
X13795Y10591
X14045Y12391
X10095Y6741
X9145Y6141
X13745Y6291
X7895Y12354
X5995Y11791
X4495Y11991
X3045Y12091
X3095Y12591
X7845Y14891
T02
X14526Y13544
X15117Y12954
X15708Y13741
X16298Y12954
X15707Y11741
X15117Y10954
X14526Y11544
X15708Y9741
X16298Y8954
X15117Y8954
X14526Y9544
X15708Y7741
X16298Y6954
X15117Y6954
X14526Y7544
X15708Y5741
X16298Y4954
X15117Y4954
X14526Y5544
X15708Y3741
X16298Y2954
X15117Y2954
X14526Y3544
X16298Y10954
T03
X1458Y891
X2458Y891
X2458Y1891
X2458Y2891
X2458Y3891
X1458Y3891
X1458Y2891
X1458Y1891
X3708Y1891
X3708Y2891
X4708Y2891
X4708Y1891
X4708Y891
X3708Y891
X3708Y3891
X4708Y3891
X4645Y12891
X3645Y12891
X3645Y13891
X4645Y13891
X4645Y14891
X3645Y14891
X3645Y15891
X4645Y15891
X2520Y15891
X2520Y14891
X2520Y13891
X2520Y12891
X1520Y12891
X1520Y13891
X1520Y14891
X1520Y15891
T04
X12770Y15641
X14895Y15641
X14958Y1141
X12770Y1141
M30
