G75*
G70*
%OFA0B0*%
%FSLAX24Y24*%
%IPPOS*%
%LPD*%
%AMOC8*
5,1,8,0,0,1.08239X$1,22.5*
%
%ADD10OC8,0.0600*%
%ADD11C,0.0574*%
%ADD12C,0.0100*%
%ADD13C,0.0400*%
%ADD14C,0.0240*%
%ADD15C,0.0320*%
%ADD16C,0.0160*%
D10*
X001458Y000891D03*
X002458Y000891D03*
X002458Y001891D03*
X002458Y002891D03*
X002458Y003891D03*
X001458Y003891D03*
X001458Y002891D03*
X001458Y001891D03*
X003708Y001891D03*
X003708Y002891D03*
X004708Y002891D03*
X004708Y001891D03*
X004708Y000891D03*
X003708Y000891D03*
X003708Y003891D03*
X004708Y003891D03*
X004645Y012891D03*
X003645Y012891D03*
X003645Y013891D03*
X004645Y013891D03*
X004645Y014891D03*
X003645Y014891D03*
X003645Y015891D03*
X004645Y015891D03*
X002520Y015891D03*
X002520Y014891D03*
X002520Y013891D03*
X002520Y012891D03*
X001520Y012891D03*
X001520Y013891D03*
X001520Y014891D03*
X001520Y015891D03*
D11*
X015117Y012954D03*
X015708Y013741D03*
X016298Y012954D03*
X015707Y011741D03*
X015117Y010954D03*
X016298Y010954D03*
X015708Y009741D03*
X016298Y008954D03*
X015117Y008954D03*
X015708Y007741D03*
X016298Y006954D03*
X015117Y006954D03*
X015708Y005741D03*
X016298Y004954D03*
X015117Y004954D03*
X015708Y003741D03*
X016298Y002954D03*
X015117Y002954D03*
D12*
X013745Y006291D02*
X013295Y006741D01*
X010095Y006741D01*
X009145Y006141D02*
X008670Y006616D01*
X010995Y008941D01*
X010995Y009591D01*
X010245Y010341D01*
X010245Y009341D02*
X007545Y012041D01*
X007545Y014091D01*
X007145Y014491D01*
X007145Y015091D01*
X005095Y015091D01*
X004745Y015441D01*
X004445Y015441D01*
X003995Y015891D01*
X003695Y015891D01*
X003645Y015891D01*
X004645Y015891D02*
X004645Y015941D01*
X002545Y015941D02*
X002520Y015891D01*
X001545Y013891D02*
X001520Y013891D01*
X001545Y013891D02*
X001995Y013441D01*
X001995Y012641D01*
X003395Y011241D01*
X005945Y011241D01*
X006695Y010491D01*
X006695Y005241D01*
X004895Y003441D01*
X004645Y003441D01*
X004095Y002891D01*
X003708Y002891D01*
X003708Y001891D02*
X004095Y001891D01*
X004645Y002441D01*
X004895Y002441D01*
X006895Y004441D01*
X006895Y010591D01*
X006045Y011441D01*
X003695Y011441D01*
X003045Y012091D01*
X003345Y012341D02*
X003095Y012591D01*
X003345Y012341D02*
X006345Y012341D01*
X008395Y010291D01*
X008395Y009841D01*
X008595Y009641D01*
X009095Y009641D01*
X009395Y009341D01*
X009145Y008791D02*
X008195Y009741D01*
X008195Y010191D01*
X006245Y012141D01*
X004645Y012141D01*
X004495Y011991D01*
X003295Y011041D02*
X001545Y012791D01*
X001545Y012891D01*
X001520Y012891D01*
X003295Y011041D02*
X005845Y011041D01*
X006395Y010491D01*
X006395Y006191D01*
X004095Y003891D01*
X003708Y003891D01*
X004645Y001441D02*
X004895Y001441D01*
X007095Y003641D01*
X007095Y010691D01*
X005995Y011791D01*
X005545Y013441D02*
X004395Y013441D01*
X003945Y013891D01*
X003695Y013891D01*
X003645Y013891D01*
X005545Y013441D02*
X008795Y010191D01*
X009145Y008791D02*
X009145Y008191D01*
X007845Y007441D02*
X008670Y006616D01*
X011045Y008341D02*
X011945Y009241D01*
X011545Y008341D02*
X013795Y010591D01*
X015045Y012891D02*
X015117Y012954D01*
X010645Y009341D02*
X010245Y009341D01*
X004645Y001441D02*
X004095Y000891D01*
X003708Y000891D01*
D13*
X009145Y006141D03*
X010095Y006741D03*
X009145Y008191D03*
X009395Y009341D03*
X008795Y010191D03*
X010245Y010341D03*
X010645Y009341D03*
X011045Y008341D03*
X011545Y008341D03*
X011945Y009241D03*
X013795Y010591D03*
X014045Y012391D03*
X013745Y006291D03*
X007845Y007441D03*
X005995Y011791D03*
X004495Y011991D03*
X003045Y012091D03*
X003095Y012591D03*
X007895Y012354D03*
X007845Y014891D03*
D14*
X009783Y012954D01*
X015117Y012954D01*
X015117Y010954D01*
X015117Y008954D01*
X016298Y008954D02*
X016298Y010954D01*
X016298Y012954D01*
X015117Y012954D02*
X015117Y012954D01*
X014045Y012391D02*
X007933Y012391D01*
X007895Y012354D01*
X015117Y010954D02*
X015117Y010954D01*
X016298Y010954D02*
X016298Y010954D01*
X016298Y008954D02*
X016298Y008954D01*
X016298Y006954D01*
X016298Y006954D01*
X016298Y004954D01*
X016298Y004954D01*
X016298Y002954D01*
X015117Y002954D02*
X015117Y004954D01*
X015117Y004954D01*
X015117Y006954D01*
X015117Y006954D01*
X016298Y004954D02*
X016298Y004954D01*
D15*
X015117Y006954D02*
X015117Y006954D01*
X015117Y008954D01*
X004645Y015954D02*
X004645Y016079D01*
X004145Y016579D01*
X003208Y016579D01*
X002520Y015891D01*
X002520Y014891D01*
D16*
X003333Y014391D02*
X004145Y014391D01*
X004645Y013891D01*
X004145Y013391D02*
X004645Y012891D01*
X004145Y013391D02*
X003333Y013391D01*
X002833Y012891D01*
X002520Y012891D01*
X002520Y013891D02*
X002833Y013891D01*
X003333Y014391D01*
X004645Y015941D02*
X004645Y015954D01*
M02*
