G75*
G70*
%OFA0B0*%
%FSLAX24Y24*%
%IPPOS*%
%LPD*%
%AMOC8*
5,1,8,0,0,1.08239X$1,22.5*
%
%ADD10OC8,0.0600*%
%ADD11C,0.0100*%
%ADD12C,0.0400*%
D10*
X011662Y001101D03*
X011662Y002101D03*
X011662Y003101D03*
X011662Y004101D03*
X012662Y004101D03*
X012662Y003101D03*
X012662Y002101D03*
X012662Y001101D03*
X013787Y001101D03*
X013787Y002101D03*
X013787Y003101D03*
X013787Y004101D03*
X014787Y004101D03*
X014787Y003101D03*
X014787Y002101D03*
X014787Y001101D03*
X014787Y013101D03*
X014787Y014101D03*
X013787Y014101D03*
X013787Y013101D03*
X012662Y013101D03*
X012662Y014101D03*
X012662Y015101D03*
X012662Y016101D03*
X011662Y016101D03*
X011662Y015101D03*
X011662Y014101D03*
X011662Y013101D03*
X013787Y015101D03*
X013787Y016101D03*
X014787Y016101D03*
X014787Y015101D03*
D11*
X008662Y011701D02*
X008662Y006751D01*
X008862Y006551D01*
X008862Y006351D01*
X009062Y006051D02*
X009212Y006201D01*
X009212Y006501D01*
X008862Y006851D01*
X008862Y011601D01*
X010312Y013051D01*
X010312Y014401D01*
X011012Y015101D01*
X011662Y015101D01*
X011562Y014651D02*
X011862Y014651D01*
X012212Y015001D01*
X012212Y015301D01*
X012562Y015651D01*
X013312Y015651D01*
X013762Y016101D01*
X013787Y016101D01*
X014312Y015651D02*
X014762Y016101D01*
X014787Y016101D01*
X014312Y015651D02*
X014312Y013001D01*
X013062Y011751D01*
X013312Y012651D02*
X013762Y013101D01*
X013787Y013101D01*
X013312Y012651D02*
X012262Y012651D01*
X010212Y010601D01*
X010212Y010301D01*
X010362Y010151D01*
X010362Y006051D01*
X011112Y005301D01*
X011112Y003201D01*
X011062Y003151D01*
X011062Y002051D01*
X011462Y001651D01*
X011762Y001651D01*
X012312Y001101D01*
X012662Y001101D01*
X012862Y000651D02*
X013112Y000901D01*
X013112Y002301D01*
X012662Y002751D01*
X012662Y003101D01*
X012862Y003551D02*
X012112Y003551D01*
X011662Y003101D01*
X010762Y003351D02*
X010762Y005351D01*
X010162Y005951D01*
X010162Y010051D01*
X010012Y010201D01*
X010012Y010801D01*
X012212Y013001D01*
X012212Y013301D01*
X012562Y013651D01*
X013312Y013651D01*
X013762Y014101D01*
X013787Y014101D01*
X013312Y014651D02*
X013762Y015101D01*
X013787Y015101D01*
X013312Y014651D02*
X012562Y014651D01*
X012212Y014301D01*
X012212Y014001D01*
X011862Y013651D01*
X011562Y013651D01*
X011212Y013301D01*
X011212Y012751D01*
X009812Y011351D01*
X009812Y010101D01*
X009962Y009951D01*
X009962Y005751D01*
X010562Y005151D01*
X010562Y004851D01*
X010412Y004701D01*
X010412Y001701D01*
X011462Y000651D01*
X012862Y000651D01*
X013312Y003101D02*
X013787Y003101D01*
X013312Y003101D02*
X012862Y003551D01*
X013312Y004101D02*
X013787Y004101D01*
X014262Y004001D02*
X014262Y004251D01*
X013312Y005201D01*
X012012Y005201D01*
X012112Y004551D02*
X011662Y004101D01*
X012112Y004551D02*
X012162Y004551D01*
X010562Y006151D01*
X010562Y010451D01*
X009762Y009851D02*
X009612Y010001D01*
X009612Y011451D01*
X011012Y012851D01*
X011012Y013601D01*
X011212Y013801D01*
X011212Y014301D01*
X011562Y014651D01*
X010862Y014451D02*
X010512Y014101D01*
X010512Y012951D01*
X009212Y011651D01*
X009212Y007001D01*
X009062Y006051D02*
X009062Y005351D01*
X009762Y005651D02*
X009762Y009851D01*
X009562Y009751D02*
X009412Y009901D01*
X009412Y011551D01*
X010812Y012951D01*
X010812Y013901D01*
X010862Y013951D01*
X010112Y014551D02*
X011662Y016101D01*
X010112Y014551D02*
X010112Y013151D01*
X008662Y011701D01*
X008712Y013151D02*
X009612Y013151D01*
X009562Y009751D02*
X009562Y002551D01*
X010212Y005001D02*
X010212Y005201D01*
X009762Y005651D01*
X012162Y004551D02*
X012862Y004551D01*
X013312Y004101D01*
X014262Y004001D02*
X014762Y003501D01*
X014762Y003101D01*
X014787Y003101D01*
D12*
X012012Y005201D03*
X010762Y003351D03*
X009562Y002551D03*
X010212Y005001D03*
X009062Y005351D03*
X008862Y006351D03*
X009212Y007001D03*
X010562Y010451D03*
X013062Y011751D03*
X010862Y013951D03*
X010862Y014451D03*
X009612Y013151D03*
X008712Y013151D03*
M02*
