G75*
G70*
%OFA0B0*%
%FSLAX24Y24*%
%IPPOS*%
%LPD*%
%AMOC8*
5,1,8,0,0,1.08239X$1,22.5*
%
%ADD10OC8,0.0600*%
%ADD11R,0.0276X0.0551*%
%ADD12R,0.1969X0.1693*%
%ADD13R,0.0551X0.0394*%
%ADD14C,0.1300*%
%ADD15R,0.0394X0.0433*%
%ADD16C,0.0520*%
%ADD17R,0.0315X0.0315*%
%ADD18C,0.0100*%
%ADD19C,0.0400*%
%ADD20C,0.0160*%
%ADD21C,0.1200*%
%ADD22C,0.1000*%
%ADD23C,0.0240*%
%ADD24C,0.1500*%
%ADD25C,0.1300*%
D10*
X002659Y001905D03*
X003659Y001905D03*
X003659Y002905D03*
X002659Y002905D03*
X002659Y003905D03*
X003659Y003905D03*
X003659Y004905D03*
X002659Y004905D03*
X004784Y004905D03*
X004784Y003905D03*
X004784Y002905D03*
X005784Y002905D03*
X005784Y003905D03*
X005784Y004905D03*
X005784Y001905D03*
X004784Y001905D03*
X004784Y013905D03*
X005784Y013905D03*
X005784Y014905D03*
X004784Y014905D03*
X004784Y015905D03*
X005784Y015905D03*
X005784Y016905D03*
X004784Y016905D03*
X003659Y016905D03*
X003659Y015905D03*
X003659Y014905D03*
X003659Y013905D03*
X002659Y013905D03*
X002659Y014905D03*
X002659Y015905D03*
X002659Y016905D03*
D11*
X008409Y010612D03*
X008909Y010612D03*
X009409Y010612D03*
X009909Y010612D03*
X009659Y008198D03*
X009159Y008198D03*
X008659Y008198D03*
X008159Y008198D03*
D12*
X008909Y006761D03*
X009159Y012049D03*
D13*
X009592Y013656D03*
X009592Y014404D03*
X008726Y014030D03*
X010726Y014156D03*
X010726Y014904D03*
X011592Y014530D03*
D14*
X011009Y011155D03*
X011009Y009505D03*
X011009Y007855D03*
X013179Y007855D03*
X013179Y009505D03*
X013179Y011155D03*
D15*
X013512Y012780D03*
X014181Y012780D03*
X007369Y014030D03*
X006699Y014030D03*
X006699Y015905D03*
X007369Y015905D03*
D16*
X012409Y014415D02*
X012409Y013895D01*
X016409Y013895D02*
X016409Y014415D01*
X016284Y004915D02*
X016284Y004395D01*
X012284Y004395D02*
X012284Y004915D01*
D17*
X012176Y012780D03*
X012767Y012780D03*
D18*
X002234Y001411D02*
X002234Y000793D01*
X017834Y000793D01*
X017834Y001826D01*
X017107Y002304D01*
X017109Y002297D01*
X017109Y002014D01*
X017036Y001740D01*
X016894Y001495D01*
X016694Y001295D01*
X016449Y001153D01*
X016175Y001080D01*
X015892Y001080D01*
X015619Y001153D01*
X015374Y001295D01*
X015174Y001495D01*
X015032Y001740D01*
X014971Y001967D01*
X014911Y001740D01*
X014769Y001495D01*
X014569Y001295D01*
X014324Y001153D01*
X014051Y001080D01*
X013767Y001080D01*
X013494Y001153D01*
X013249Y001295D01*
X013049Y001495D01*
X012907Y001740D01*
X012834Y002014D01*
X012834Y002297D01*
X012907Y002570D01*
X013049Y002815D01*
X013249Y003015D01*
X013494Y003157D01*
X013767Y003230D01*
X014051Y003230D01*
X014324Y003157D01*
X014569Y003015D01*
X014769Y002815D01*
X014911Y002570D01*
X014971Y002343D01*
X015032Y002570D01*
X015174Y002815D01*
X015374Y003015D01*
X015619Y003157D01*
X015755Y003193D01*
X009159Y007530D01*
X008184Y007530D01*
X008184Y006863D01*
X008123Y006716D01*
X008011Y006604D01*
X007461Y006054D01*
X007314Y005993D01*
X007154Y005993D01*
X006000Y005993D01*
X005562Y005555D01*
X006053Y005555D01*
X006434Y005174D01*
X006434Y004636D01*
X006203Y004405D01*
X006434Y004174D01*
X006434Y003893D01*
X006443Y003893D01*
X006645Y003809D01*
X006800Y003654D01*
X006884Y003452D01*
X006884Y003233D01*
X006800Y003031D01*
X006645Y002876D01*
X006443Y002793D01*
X006434Y002793D01*
X006434Y002636D01*
X006203Y002405D01*
X006434Y002174D01*
X006434Y001636D01*
X006053Y001255D01*
X005515Y001255D01*
X005284Y001486D01*
X005053Y001255D01*
X004515Y001255D01*
X004221Y001548D01*
X003928Y001255D01*
X003390Y001255D01*
X003159Y001486D01*
X002928Y001255D01*
X002390Y001255D01*
X002234Y001411D01*
X002234Y001328D02*
X002317Y001328D01*
X002234Y001230D02*
X013362Y001230D01*
X013216Y001328D02*
X006126Y001328D01*
X006225Y001427D02*
X013117Y001427D01*
X013031Y001525D02*
X006323Y001525D01*
X006422Y001624D02*
X012974Y001624D01*
X012918Y001722D02*
X006434Y001722D01*
X006434Y001821D02*
X012886Y001821D01*
X012859Y001919D02*
X006434Y001919D01*
X006434Y002018D02*
X012834Y002018D01*
X012834Y002116D02*
X006434Y002116D01*
X006393Y002215D02*
X012834Y002215D01*
X012839Y002314D02*
X006295Y002314D01*
X006210Y002412D02*
X012865Y002412D01*
X012891Y002511D02*
X006309Y002511D01*
X006407Y002609D02*
X012930Y002609D01*
X012987Y002708D02*
X006434Y002708D01*
X006476Y002806D02*
X013044Y002806D01*
X013138Y002905D02*
X006674Y002905D01*
X006772Y003003D02*
X013237Y003003D01*
X013399Y003102D02*
X006829Y003102D01*
X006870Y003200D02*
X013657Y003200D01*
X014161Y003200D02*
X015744Y003200D01*
X015594Y003299D02*
X006884Y003299D01*
X006884Y003398D02*
X015444Y003398D01*
X015294Y003496D02*
X006866Y003496D01*
X006825Y003595D02*
X015144Y003595D01*
X014994Y003693D02*
X006761Y003693D01*
X006663Y003792D02*
X014844Y003792D01*
X014695Y003890D02*
X006449Y003890D01*
X006434Y003989D02*
X014545Y003989D01*
X014395Y004087D02*
X006434Y004087D01*
X006422Y004186D02*
X014245Y004186D01*
X014095Y004284D02*
X006324Y004284D01*
X006225Y004383D02*
X013945Y004383D01*
X013795Y004481D02*
X006279Y004481D01*
X006378Y004580D02*
X013646Y004580D01*
X013496Y004679D02*
X006434Y004679D01*
X006434Y004777D02*
X013346Y004777D01*
X013196Y004876D02*
X006434Y004876D01*
X006434Y004974D02*
X013046Y004974D01*
X012896Y005073D02*
X006434Y005073D01*
X006434Y005171D02*
X012746Y005171D01*
X012596Y005270D02*
X006338Y005270D01*
X006240Y005368D02*
X012447Y005368D01*
X012297Y005467D02*
X006141Y005467D01*
X005769Y005763D02*
X011847Y005763D01*
X011697Y005861D02*
X005868Y005861D01*
X005967Y005960D02*
X011547Y005960D01*
X011398Y006058D02*
X007465Y006058D01*
X007564Y006157D02*
X011248Y006157D01*
X011098Y006255D02*
X007662Y006255D01*
X007761Y006354D02*
X010948Y006354D01*
X010798Y006452D02*
X007859Y006452D01*
X007958Y006551D02*
X010648Y006551D01*
X010498Y006649D02*
X008056Y006649D01*
X008136Y006748D02*
X010348Y006748D01*
X010199Y006847D02*
X008177Y006847D01*
X008184Y006945D02*
X010049Y006945D01*
X009899Y007044D02*
X008184Y007044D01*
X008184Y007142D02*
X009749Y007142D01*
X009599Y007241D02*
X008184Y007241D01*
X008184Y007339D02*
X009449Y007339D01*
X009299Y007438D02*
X008184Y007438D01*
X007784Y006943D02*
X007784Y010993D01*
X007634Y011143D01*
X007634Y011343D01*
X006184Y012793D01*
X003784Y012793D01*
X002684Y013893D01*
X002659Y013905D01*
X003134Y013793D02*
X003134Y014443D01*
X002684Y014893D01*
X002659Y014905D01*
X003134Y013793D02*
X003934Y012993D01*
X006284Y012993D01*
X007384Y011893D01*
X007584Y011893D01*
X007919Y011145D02*
X007919Y013100D01*
X008599Y013780D01*
X008724Y014025D01*
X008726Y014030D01*
X009544Y014395D02*
X009592Y014404D01*
X009592Y013656D02*
X009584Y013655D01*
X010724Y014905D02*
X010726Y014904D01*
X011154Y015315D02*
X011154Y014200D01*
X012039Y012815D01*
X012039Y012843D01*
X012039Y012815D02*
X012039Y010260D01*
X011314Y009785D01*
X011009Y009505D01*
X011109Y009530D01*
X010659Y009530D01*
X009659Y008530D01*
X009659Y008198D01*
X010499Y008128D02*
X012179Y008128D01*
X012179Y008226D02*
X010512Y008226D01*
X010524Y008325D02*
X012179Y008325D01*
X012179Y008419D02*
X012179Y007656D01*
X012331Y007289D01*
X012612Y007007D01*
X012980Y006855D01*
X013378Y006855D01*
X013745Y007007D01*
X014027Y007289D01*
X014179Y007656D01*
X014179Y008435D01*
X015176Y008444D01*
X015070Y008260D01*
X014999Y007993D01*
X014999Y007717D01*
X015070Y007450D01*
X015209Y007210D01*
X015404Y007015D01*
X015644Y006877D01*
X015911Y006805D01*
X016187Y006805D01*
X016454Y006877D01*
X016694Y007015D01*
X016889Y007210D01*
X017027Y007450D01*
X017099Y007717D01*
X017099Y007993D01*
X017027Y008260D01*
X016913Y008458D01*
X017834Y008465D01*
X017834Y002475D01*
X010409Y007405D01*
X010527Y008350D01*
X011307Y008350D01*
X011432Y008402D01*
X011472Y008413D01*
X012179Y008419D01*
X012179Y008029D02*
X010487Y008029D01*
X010475Y007931D02*
X012179Y007931D01*
X012179Y007832D02*
X010462Y007832D01*
X010450Y007733D02*
X012179Y007733D01*
X012188Y007635D02*
X010438Y007635D01*
X010425Y007536D02*
X012229Y007536D01*
X012269Y007438D02*
X010413Y007438D01*
X010508Y007339D02*
X012310Y007339D01*
X012379Y007241D02*
X010657Y007241D01*
X010805Y007142D02*
X012478Y007142D01*
X012576Y007044D02*
X010954Y007044D01*
X011102Y006945D02*
X012763Y006945D01*
X013595Y006945D02*
X015525Y006945D01*
X015376Y007044D02*
X013782Y007044D01*
X013880Y007142D02*
X015277Y007142D01*
X015191Y007241D02*
X013979Y007241D01*
X014048Y007339D02*
X015134Y007339D01*
X015077Y007438D02*
X014088Y007438D01*
X014129Y007536D02*
X015047Y007536D01*
X015021Y007635D02*
X014170Y007635D01*
X014179Y007733D02*
X014999Y007733D01*
X014999Y007832D02*
X014179Y007832D01*
X014179Y007931D02*
X014999Y007931D01*
X015009Y008029D02*
X014179Y008029D01*
X014179Y008128D02*
X015035Y008128D01*
X015061Y008226D02*
X014179Y008226D01*
X014179Y008325D02*
X015108Y008325D01*
X015165Y008423D02*
X014179Y008423D01*
X015756Y006847D02*
X011250Y006847D01*
X011399Y006748D02*
X017834Y006748D01*
X017834Y006847D02*
X016342Y006847D01*
X016573Y006945D02*
X017834Y006945D01*
X017834Y007044D02*
X016722Y007044D01*
X016821Y007142D02*
X017834Y007142D01*
X017834Y007241D02*
X016907Y007241D01*
X016964Y007339D02*
X017834Y007339D01*
X017834Y007438D02*
X017020Y007438D01*
X017051Y007536D02*
X017834Y007536D01*
X017834Y007635D02*
X017077Y007635D01*
X017099Y007733D02*
X017834Y007733D01*
X017834Y007832D02*
X017099Y007832D01*
X017099Y007931D02*
X017834Y007931D01*
X017834Y008029D02*
X017089Y008029D01*
X017063Y008128D02*
X017834Y008128D01*
X017834Y008226D02*
X017037Y008226D01*
X016990Y008325D02*
X017834Y008325D01*
X017834Y008423D02*
X016933Y008423D01*
X017834Y006649D02*
X011547Y006649D01*
X011696Y006551D02*
X017834Y006551D01*
X017834Y006452D02*
X011844Y006452D01*
X011992Y006354D02*
X017834Y006354D01*
X017834Y006255D02*
X012141Y006255D01*
X012289Y006157D02*
X017834Y006157D01*
X017834Y006058D02*
X012438Y006058D01*
X012586Y005960D02*
X017834Y005960D01*
X017834Y005861D02*
X012735Y005861D01*
X012883Y005763D02*
X017834Y005763D01*
X017834Y005664D02*
X013031Y005664D01*
X013180Y005565D02*
X017834Y005565D01*
X017834Y005467D02*
X013328Y005467D01*
X013477Y005368D02*
X017834Y005368D01*
X017834Y005270D02*
X013625Y005270D01*
X013774Y005171D02*
X017834Y005171D01*
X017834Y005073D02*
X013922Y005073D01*
X014070Y004974D02*
X017834Y004974D01*
X017834Y004876D02*
X014219Y004876D01*
X014367Y004777D02*
X017834Y004777D01*
X017834Y004679D02*
X014516Y004679D01*
X014664Y004580D02*
X017834Y004580D01*
X017834Y004481D02*
X014813Y004481D01*
X014961Y004383D02*
X017834Y004383D01*
X017834Y004284D02*
X015109Y004284D01*
X015258Y004186D02*
X017834Y004186D01*
X017834Y004087D02*
X015406Y004087D01*
X015555Y003989D02*
X017834Y003989D01*
X017834Y003890D02*
X015703Y003890D01*
X015851Y003792D02*
X017834Y003792D01*
X017834Y003693D02*
X016000Y003693D01*
X016148Y003595D02*
X017834Y003595D01*
X017834Y003496D02*
X016297Y003496D01*
X016445Y003398D02*
X017834Y003398D01*
X017834Y003299D02*
X016594Y003299D01*
X016742Y003200D02*
X017834Y003200D01*
X017834Y003102D02*
X016890Y003102D01*
X017039Y003003D02*
X017834Y003003D01*
X017834Y002905D02*
X017187Y002905D01*
X017336Y002806D02*
X017834Y002806D01*
X017834Y002708D02*
X017484Y002708D01*
X017633Y002609D02*
X017834Y002609D01*
X017834Y002511D02*
X017781Y002511D01*
X017542Y002018D02*
X017109Y002018D01*
X017109Y002116D02*
X017392Y002116D01*
X017242Y002215D02*
X017109Y002215D01*
X017084Y001919D02*
X017692Y001919D01*
X017834Y001821D02*
X017057Y001821D01*
X017025Y001722D02*
X017834Y001722D01*
X017834Y001624D02*
X016968Y001624D01*
X016911Y001525D02*
X017834Y001525D01*
X017834Y001427D02*
X016826Y001427D01*
X016727Y001328D02*
X017834Y001328D01*
X017834Y001230D02*
X016581Y001230D01*
X016365Y001131D02*
X017834Y001131D01*
X017834Y001032D02*
X002234Y001032D01*
X002234Y000934D02*
X017834Y000934D01*
X017834Y000835D02*
X002234Y000835D01*
X002234Y001131D02*
X013578Y001131D01*
X014240Y001131D02*
X015703Y001131D01*
X015487Y001230D02*
X014456Y001230D01*
X014602Y001328D02*
X015341Y001328D01*
X015242Y001427D02*
X014701Y001427D01*
X014787Y001525D02*
X015156Y001525D01*
X015099Y001624D02*
X014843Y001624D01*
X014900Y001722D02*
X015043Y001722D01*
X015011Y001821D02*
X014932Y001821D01*
X014959Y001919D02*
X014984Y001919D01*
X014953Y002412D02*
X014990Y002412D01*
X015016Y002511D02*
X014927Y002511D01*
X014888Y002609D02*
X015055Y002609D01*
X015112Y002708D02*
X014831Y002708D01*
X014774Y002806D02*
X015169Y002806D01*
X015263Y002905D02*
X014680Y002905D01*
X014581Y003003D02*
X015362Y003003D01*
X015524Y003102D02*
X014419Y003102D01*
X012147Y005565D02*
X005572Y005565D01*
X005671Y005664D02*
X011997Y005664D01*
X011009Y009505D02*
X011134Y010030D01*
X009409Y010030D01*
X009409Y010612D01*
X008409Y010612D01*
X007999Y011065D02*
X007919Y011145D01*
X007999Y011065D02*
X009554Y011065D01*
X009904Y010715D01*
X009904Y010615D01*
X009909Y010612D01*
X008144Y008385D02*
X008159Y008198D01*
X007784Y006943D02*
X007234Y006393D01*
X005834Y006393D01*
X004934Y005493D01*
X004934Y005093D01*
X004784Y004943D01*
X004784Y004905D01*
X004934Y003293D02*
X005284Y003293D01*
X005334Y003343D01*
X006334Y003343D01*
X004934Y003293D02*
X004934Y003093D01*
X004784Y002943D01*
X004784Y002905D01*
X004245Y001525D02*
X004198Y001525D01*
X004100Y001427D02*
X004343Y001427D01*
X004442Y001328D02*
X004001Y001328D01*
X003317Y001328D02*
X003001Y001328D01*
X003100Y001427D02*
X003218Y001427D01*
X005126Y001328D02*
X005442Y001328D01*
X005343Y001427D02*
X005225Y001427D01*
X006694Y014025D02*
X006699Y014030D01*
X007034Y014493D02*
X007034Y016293D01*
X005984Y017343D01*
X003084Y017343D01*
X002684Y016943D01*
X002659Y016905D01*
X007369Y015905D02*
X010564Y015905D01*
X011154Y015315D01*
X011384Y014505D02*
X011592Y014530D01*
X011634Y014535D01*
X011764Y014535D01*
X007374Y014035D02*
X007369Y014030D01*
D19*
X007664Y013475D03*
X007034Y014493D03*
X007644Y015093D03*
X008724Y013310D03*
X007584Y011893D03*
X008831Y009405D03*
X011734Y015065D03*
X006334Y003343D03*
D20*
X008159Y008198D02*
X008159Y009405D01*
X008831Y009405D01*
X009096Y008968D02*
X009284Y009155D01*
X009284Y009030D01*
X009284Y009155D02*
X009284Y009655D01*
X009284Y009655D01*
X009284Y009718D01*
X009284Y009655D02*
X009096Y009843D01*
X008409Y009843D01*
X008346Y009905D01*
X008346Y010343D01*
X008971Y009968D02*
X009096Y009843D01*
X009159Y009843D01*
X009471Y010280D02*
X009471Y010718D01*
X009471Y010280D02*
X009659Y010093D01*
X010346Y010093D01*
X010409Y010093D01*
X010409Y010030D02*
X010534Y010093D01*
X011284Y010093D01*
X011159Y010030D01*
X011284Y010093D02*
X011471Y009780D01*
X011534Y009718D01*
X011346Y010093D01*
X011284Y010093D01*
X011534Y009030D02*
X011284Y008843D01*
X010534Y008843D01*
X010596Y008843D01*
X010659Y008905D01*
X010534Y008905D01*
X010534Y008843D02*
X010409Y008843D01*
X010284Y008905D01*
X010221Y008780D02*
X011221Y008780D01*
X010534Y008905D02*
X010518Y008909D01*
X010500Y008910D01*
X010483Y008908D01*
X010467Y008903D01*
X010451Y008895D01*
X010437Y008885D01*
X010425Y008873D01*
X010416Y008858D01*
X010409Y008842D01*
X010409Y008843D02*
X010221Y008780D01*
X013179Y011155D02*
X014181Y012157D01*
X014181Y012780D01*
X013512Y012780D02*
X013512Y012780D01*
X012767Y012780D01*
X012176Y012780D02*
X012176Y012843D01*
X012039Y012843D01*
X010726Y014156D02*
X009840Y014156D01*
X009592Y014404D01*
X009544Y014395D02*
X009409Y014530D01*
X008159Y014530D01*
X007659Y014030D01*
X007369Y014030D01*
X007541Y013475D02*
X007664Y013475D01*
X007541Y013475D02*
X007284Y013218D01*
X005471Y013218D01*
X004784Y013905D01*
X004534Y014405D02*
X005284Y014405D01*
X005784Y013905D01*
X005784Y014030D01*
X006699Y014030D01*
X005784Y014905D02*
X005284Y015405D01*
X004534Y015405D01*
X004034Y014905D01*
X003659Y014905D01*
X003659Y013905D02*
X004034Y013905D01*
X004534Y014405D01*
X003659Y015905D02*
X003659Y016905D01*
X003659Y016405D01*
X005784Y016405D01*
X005784Y016905D01*
X005784Y016405D02*
X005784Y015905D01*
X006699Y015905D01*
X007644Y015093D02*
X007659Y015093D01*
X007659Y015093D01*
X010536Y015093D01*
X010724Y014905D01*
X011734Y015065D02*
X011734Y014565D01*
X011764Y014535D01*
X009584Y013655D02*
X009239Y013310D01*
X008724Y013310D01*
D21*
X010784Y013030D03*
D22*
X009534Y012030D01*
X009159Y012049D01*
D23*
X009284Y010780D02*
X008409Y010780D01*
X008409Y010030D01*
X008784Y010030D01*
X009159Y009905D01*
X009409Y009655D01*
X009409Y009155D01*
X009284Y009030D01*
X009159Y008905D01*
X008659Y008905D01*
X008659Y008030D01*
X009659Y008030D01*
X009659Y008155D02*
X009659Y008280D01*
X009659Y008905D01*
X009284Y008905D01*
X009659Y009280D01*
X009659Y009530D01*
X009659Y009280D02*
X009909Y009530D01*
X009909Y009655D01*
X009534Y010030D01*
X009409Y010405D01*
X009409Y010280D01*
X009659Y010030D01*
X009909Y010030D01*
X009909Y009905D01*
X010034Y009780D01*
X010034Y010030D01*
X010159Y010030D01*
X010159Y009405D01*
X010159Y009030D01*
X010159Y008780D01*
X009659Y008280D01*
X009659Y008530D01*
X009784Y008655D01*
X010034Y008655D01*
X010284Y008905D01*
X010284Y009030D02*
X010409Y008905D01*
X011409Y008905D01*
X011534Y009030D01*
X011659Y009343D01*
X011659Y009655D01*
X011534Y009905D01*
X010409Y009905D01*
X010784Y009905D01*
X010909Y009905D01*
X010784Y009905D02*
X010784Y009780D01*
X010409Y009780D01*
X010159Y009780D01*
X010159Y010030D01*
X010284Y010030D02*
X010284Y009905D01*
X010409Y009905D01*
X010409Y009780D02*
X010284Y009655D01*
X010284Y009280D01*
X010034Y009030D01*
X010159Y009030D01*
X010284Y009030D02*
X010284Y009280D01*
X010409Y009155D02*
X010409Y009405D01*
X010534Y009530D01*
X011534Y009530D01*
X011284Y009405D01*
X011159Y009280D01*
X010659Y009280D01*
X010534Y009405D01*
X011159Y009405D01*
X011159Y009155D02*
X010659Y009155D01*
X010409Y009405D01*
X010409Y009530D01*
X010534Y009655D01*
X011284Y009655D01*
X011534Y009405D01*
X011409Y009405D01*
X011159Y009155D01*
X011284Y009030D02*
X011659Y009405D01*
X011596Y009530D01*
X011409Y009780D01*
X010409Y009780D01*
X010409Y010030D02*
X010284Y010030D01*
X010409Y010030D02*
X010784Y010030D01*
X010784Y009905D01*
X010159Y009405D02*
X009909Y009405D01*
X009534Y009780D01*
X008909Y010030D01*
X009034Y010030D01*
X009159Y009905D01*
X009284Y010030D02*
X009034Y010030D01*
X008909Y010030D02*
X008784Y010030D01*
X008659Y010280D02*
X009284Y010280D01*
X009034Y010280D01*
X009034Y010655D01*
X009159Y010655D01*
X009159Y010405D01*
X008909Y010405D01*
X008909Y010655D01*
X008659Y010655D02*
X008659Y010280D01*
X008534Y010280D02*
X008534Y010530D01*
X008534Y010655D02*
X008659Y010655D01*
X008534Y010655D02*
X008534Y010780D01*
X009284Y010780D01*
X009284Y010280D01*
X009284Y010030D01*
X009534Y009780D01*
X009534Y009905D02*
X009534Y009030D01*
X009409Y009030D01*
X009409Y009155D01*
X009284Y008905D02*
X009159Y008905D01*
X008909Y008655D02*
X009409Y008655D01*
X009409Y008530D01*
X009034Y008530D01*
X008909Y008655D02*
X008909Y008280D01*
X009534Y008280D01*
X009534Y008780D01*
X008784Y008780D01*
X008784Y008155D01*
X009659Y008155D01*
X009409Y008405D02*
X009409Y008530D01*
X009784Y008780D02*
X010034Y009030D01*
X009659Y009030D01*
X009784Y009030D02*
X009909Y009155D01*
X009909Y009405D01*
X009711Y009207D01*
X009710Y009208D02*
X009698Y009193D01*
X009689Y009177D01*
X009683Y009159D01*
X009680Y009140D01*
X009681Y009121D01*
X009685Y009103D01*
X009692Y009086D01*
X009702Y009070D01*
X009715Y009056D01*
X009730Y009045D01*
X009747Y009037D01*
X009765Y009032D01*
X009784Y009030D01*
X009909Y009155D02*
X010034Y009280D01*
X010159Y009405D02*
X009909Y009655D01*
X009909Y009530D02*
X009534Y009905D01*
X009284Y010155D01*
X009409Y010155D01*
X009409Y010280D01*
X009409Y010155D02*
X009534Y010030D01*
X009659Y010030D01*
X009784Y009905D01*
X009284Y010155D02*
X008409Y010155D01*
X008409Y010655D01*
X009284Y010780D02*
X009409Y010780D01*
X009409Y010405D01*
X009284Y010030D02*
X009331Y010028D01*
X009377Y010022D01*
X009423Y010013D01*
X009467Y010000D01*
X009511Y009983D01*
X009553Y009962D01*
X009593Y009939D01*
X009631Y009912D01*
X009667Y009882D01*
X009700Y009849D01*
X009731Y009814D01*
X009758Y009776D01*
X009782Y009736D01*
X009803Y009694D01*
X009820Y009651D01*
X009834Y009606D01*
X009844Y009561D01*
X009850Y009515D01*
X009853Y009468D01*
X009852Y009421D01*
X009846Y009375D01*
X009838Y009329D01*
X009825Y009284D01*
X009809Y009241D01*
X009789Y009198D01*
X009766Y009158D01*
X009739Y009119D01*
X009710Y009083D01*
X009677Y009050D01*
X009642Y009019D01*
X009605Y008991D01*
X009565Y008966D01*
X009524Y008945D01*
X009481Y008927D01*
X009436Y008913D01*
X009391Y008902D01*
X009345Y008895D01*
X009298Y008892D01*
X009251Y008893D01*
X009205Y008898D01*
X009159Y008906D01*
X009909Y008780D02*
X010034Y008905D01*
X010409Y009155D02*
X010534Y009030D01*
X011284Y009030D01*
D24*
X011159Y009468D02*
X010909Y009468D01*
X010659Y009468D01*
X010784Y009468D02*
X010909Y009468D01*
D25*
X013179Y009505D02*
X013179Y007855D01*
X013179Y009505D02*
X013179Y011155D01*
M02*
