G75*
G70*
%OFA0B0*%
%FSLAX24Y24*%
%IPPOS*%
%LPD*%
%AMOC8*
5,1,8,0,0,1.08239X$1,22.5*
%
%ADD10C,0.1330*%
%ADD11OC8,0.0680*%
%ADD12C,0.1380*%
%ADD13C,0.1280*%
%ADD14C,0.0600*%
%ADD15C,0.0480*%
D10*
X013909Y002155D03*
X016034Y002155D03*
X016034Y016655D03*
X013909Y016655D03*
D11*
X002659Y001905D03*
X003659Y001905D03*
X003659Y002905D03*
X002659Y002905D03*
X002659Y003905D03*
X003659Y003905D03*
X003659Y004905D03*
X002659Y004905D03*
X004784Y004905D03*
X004784Y003905D03*
X004784Y002905D03*
X005784Y002905D03*
X005784Y003905D03*
X005784Y004905D03*
X005784Y001905D03*
X004784Y001905D03*
X004784Y013905D03*
X005784Y013905D03*
X005784Y014905D03*
X004784Y014905D03*
X004784Y015905D03*
X005784Y015905D03*
X005784Y016905D03*
X004784Y016905D03*
X003659Y016905D03*
X003659Y015905D03*
X003659Y014905D03*
X003659Y013905D03*
X002659Y013905D03*
X002659Y014905D03*
X002659Y015905D03*
X002659Y016905D03*
D12*
X011009Y011155D03*
X011009Y009505D03*
X011009Y007855D03*
X013179Y007855D03*
X013179Y009505D03*
X013179Y011155D03*
D13*
X010784Y013030D03*
X016049Y011155D03*
X016049Y007855D03*
D14*
X016284Y004915D02*
X016284Y004395D01*
X012284Y004395D02*
X012284Y004915D01*
X012409Y013895D02*
X012409Y014415D01*
X016409Y014415D02*
X016409Y013895D01*
D15*
X011734Y015065D03*
X008724Y013310D03*
X007664Y013475D03*
X007034Y014493D03*
X007644Y015093D03*
X007584Y011893D03*
X008831Y009405D03*
X006334Y003343D03*
M02*
