%
M48
M72
T01C0.0240
T02C0.0320
T03C0.0400
T04C0.0750
T05C0.1200
T06C0.1250
%
T01
X5460Y2276
X4960Y5776
X4647Y6276
X7372Y7164
X10885Y4751
X11785Y12551
X15085Y13551
T02
X14897Y14714
X13897Y14714
X12897Y14714
X11460Y14651
X10460Y14651
X9460Y14651
X8460Y14651
X8460Y11651
X9460Y11651
X10460Y11651
X11460Y11651
X12897Y11714
X13897Y11714
X14897Y11714
X15897Y11714
X15897Y14714
T03
X1460Y1714
X2460Y1714
X2460Y2714
X1460Y2714
X1460Y3714
X2460Y3714
X2460Y4714
X1460Y4714
X3585Y4714
X3585Y3714
X4585Y3714
X4585Y4714
X4585Y2714
X4585Y1714
X3585Y1714
X3585Y2714
X3585Y13714
X4585Y13714
X4585Y14714
X4585Y15714
X4585Y16714
X3585Y16714
X3585Y15714
X3585Y14714
X2460Y14714
X2460Y15714
X1460Y15714
X1460Y14714
X1460Y13714
X2460Y13714
X2460Y16714
X1460Y16714
T04
X9685Y8901
X9685Y7251
X9685Y5601
X11855Y5601
X11855Y7251
X11855Y8901
T05
X14725Y8901
X14725Y5601
T06
X14835Y1964
X12710Y1964
X12710Y16464
X14835Y16464
M30
