G75*
G70*
%OFA0B0*%
%FSLAX24Y24*%
%IPPOS*%
%LPD*%
%AMOC8*
5,1,8,0,0,1.08239X$1,22.5*
%
%ADD10OC8,0.0600*%
%ADD11R,0.0276X0.0551*%
%ADD12R,0.1969X0.1693*%
%ADD13C,0.1300*%
%ADD14R,0.0394X0.0433*%
%ADD15R,0.0315X0.0315*%
%ADD16C,0.0520*%
%ADD17R,0.0433X0.0394*%
%ADD18C,0.0100*%
%ADD19C,0.0160*%
%ADD20C,0.1300*%
%ADD21C,0.0400*%
%ADD22C,0.0020*%
%ADD23C,0.0320*%
D10*
X001460Y001714D03*
X002460Y001714D03*
X002460Y002714D03*
X001460Y002714D03*
X001460Y003714D03*
X002460Y003714D03*
X002460Y004714D03*
X001460Y004714D03*
X003585Y004714D03*
X003585Y003714D03*
X004585Y003714D03*
X004585Y004714D03*
X004585Y002714D03*
X004585Y001714D03*
X003585Y001714D03*
X003585Y002714D03*
X003585Y013714D03*
X004585Y013714D03*
X004585Y014714D03*
X004585Y015714D03*
X004585Y016714D03*
X003585Y016714D03*
X003585Y015714D03*
X003585Y014714D03*
X002460Y014714D03*
X002460Y015714D03*
X001460Y015714D03*
X001460Y014714D03*
X001460Y013714D03*
X002460Y013714D03*
X002460Y016714D03*
X001460Y016714D03*
D11*
X007085Y008358D03*
X007585Y008358D03*
X008085Y008358D03*
X008585Y008358D03*
X008335Y005944D03*
X007835Y005944D03*
X007335Y005944D03*
X006835Y005944D03*
D12*
X007585Y004507D03*
X007835Y009795D03*
D13*
X009685Y008901D03*
X009685Y007251D03*
X009685Y005601D03*
X011855Y005601D03*
X011855Y007251D03*
X011855Y008901D03*
D14*
X014085Y012879D03*
X014085Y013548D03*
X015125Y012964D03*
X015794Y012964D03*
X009272Y012879D03*
X009272Y013548D03*
X006982Y015214D03*
X006312Y015214D03*
X006312Y016151D03*
X006982Y016151D03*
X012250Y003589D03*
X012919Y003589D03*
D15*
X011505Y003589D03*
X010914Y003589D03*
D16*
X010460Y011391D02*
X010460Y011911D01*
X011460Y011911D02*
X011460Y011391D01*
X012897Y011454D02*
X012897Y011974D01*
X013897Y011974D02*
X013897Y011454D01*
X014897Y011454D02*
X014897Y011974D01*
X015897Y011974D02*
X015897Y011454D01*
X015897Y014454D02*
X015897Y014974D01*
X014897Y014974D02*
X014897Y014454D01*
X013897Y014454D02*
X013897Y014974D01*
X012897Y014974D02*
X012897Y014454D01*
X011460Y014391D02*
X011460Y014911D01*
X010460Y014911D02*
X010460Y014391D01*
X009460Y014391D02*
X009460Y014911D01*
X008460Y014911D02*
X008460Y014391D01*
X008460Y011911D02*
X008460Y011391D01*
X009460Y011391D02*
X009460Y011911D01*
D17*
X010772Y012879D03*
X010772Y013548D03*
D18*
X010785Y013501D01*
X011285Y013501D01*
X011435Y013351D01*
X011435Y011701D01*
X011460Y011651D01*
X010635Y011851D02*
X010485Y011701D01*
X010460Y011651D01*
X010585Y011751D01*
X010585Y008501D01*
X010185Y008101D01*
X009035Y008101D01*
X008785Y008351D01*
X008585Y008351D01*
X008585Y008358D01*
X009072Y008629D02*
X009072Y008703D01*
X009019Y008832D01*
X008921Y008930D01*
X008792Y008983D01*
X008377Y008983D01*
X008366Y008979D01*
X008298Y008981D01*
X008292Y008983D01*
X008223Y008983D01*
X006897Y009026D01*
X006936Y014647D01*
X007248Y014647D01*
X007377Y014700D01*
X007475Y014799D01*
X007497Y014851D01*
X007850Y014851D01*
X007850Y014270D01*
X007942Y014046D01*
X006932Y014046D01*
X006933Y014144D02*
X007902Y014144D01*
X007942Y014046D02*
X008114Y013874D01*
X008338Y013781D01*
X008581Y013781D01*
X008729Y013842D01*
X008725Y013834D01*
X008725Y013262D01*
X008730Y013251D01*
X008705Y013251D01*
X008558Y013190D01*
X008258Y012890D01*
X008145Y012778D01*
X008085Y012631D01*
X008085Y012399D01*
X007942Y012257D01*
X007850Y012033D01*
X007850Y011270D01*
X007942Y011046D01*
X008114Y010874D01*
X008338Y010781D01*
X008581Y010781D01*
X008805Y010874D01*
X008960Y011029D01*
X009114Y010874D01*
X009338Y010781D01*
X009581Y010781D01*
X009805Y010874D01*
X009960Y011029D01*
X010114Y010874D01*
X010185Y010845D01*
X010185Y008667D01*
X010019Y008501D01*
X009200Y008501D01*
X009072Y008629D01*
X009075Y008626D02*
X010144Y008626D01*
X010185Y008724D02*
X009064Y008724D01*
X009023Y008823D02*
X010185Y008823D01*
X010185Y008922D02*
X008929Y008922D01*
X009174Y008527D02*
X010045Y008527D01*
X010185Y009020D02*
X007086Y009020D01*
X006898Y009119D02*
X010185Y009119D01*
X010185Y009217D02*
X006898Y009217D01*
X006899Y009316D02*
X010185Y009316D01*
X010185Y009414D02*
X006900Y009414D01*
X006900Y009513D02*
X010185Y009513D01*
X010185Y009611D02*
X006901Y009611D01*
X006902Y009710D02*
X010185Y009710D01*
X010185Y009808D02*
X006902Y009808D01*
X006903Y009907D02*
X010185Y009907D01*
X010185Y010006D02*
X006904Y010006D01*
X006905Y010104D02*
X010185Y010104D01*
X010185Y010203D02*
X006905Y010203D01*
X006906Y010301D02*
X010185Y010301D01*
X010185Y010400D02*
X006907Y010400D01*
X006907Y010498D02*
X010185Y010498D01*
X010185Y010597D02*
X006908Y010597D01*
X006909Y010695D02*
X010185Y010695D01*
X010185Y010794D02*
X009611Y010794D01*
X009823Y010892D02*
X010096Y010892D01*
X009997Y010991D02*
X009922Y010991D01*
X009308Y010794D02*
X008611Y010794D01*
X008308Y010794D02*
X006909Y010794D01*
X006910Y010892D02*
X008096Y010892D01*
X007997Y010991D02*
X006911Y010991D01*
X006911Y011089D02*
X007924Y011089D01*
X007883Y011188D02*
X006912Y011188D01*
X006913Y011287D02*
X007850Y011287D01*
X007850Y011385D02*
X006913Y011385D01*
X006914Y011484D02*
X007850Y011484D01*
X007850Y011582D02*
X006915Y011582D01*
X006916Y011681D02*
X007850Y011681D01*
X007850Y011779D02*
X006916Y011779D01*
X006917Y011878D02*
X007850Y011878D01*
X007850Y011976D02*
X006918Y011976D01*
X006918Y012075D02*
X007867Y012075D01*
X007908Y012173D02*
X006919Y012173D01*
X006920Y012272D02*
X007958Y012272D01*
X008056Y012371D02*
X006920Y012371D01*
X006921Y012469D02*
X008085Y012469D01*
X008085Y012568D02*
X006922Y012568D01*
X006922Y012666D02*
X008099Y012666D01*
X008140Y012765D02*
X006923Y012765D01*
X006924Y012863D02*
X008231Y012863D01*
X008330Y012962D02*
X006924Y012962D01*
X006925Y013060D02*
X008428Y013060D01*
X008527Y013159D02*
X006926Y013159D01*
X006926Y013257D02*
X008727Y013257D01*
X008725Y013356D02*
X006927Y013356D01*
X006928Y013455D02*
X008725Y013455D01*
X008725Y013553D02*
X006929Y013553D01*
X006929Y013652D02*
X008725Y013652D01*
X008725Y013750D02*
X006930Y013750D01*
X006931Y013849D02*
X008175Y013849D01*
X008041Y013947D02*
X006931Y013947D01*
X006933Y014243D02*
X007861Y014243D01*
X007850Y014341D02*
X006934Y014341D01*
X006935Y014440D02*
X007850Y014440D01*
X007850Y014539D02*
X006935Y014539D01*
X006936Y014637D02*
X007850Y014637D01*
X007850Y014736D02*
X007412Y014736D01*
X007490Y014834D02*
X007850Y014834D01*
X007935Y015251D02*
X008185Y015501D01*
X009435Y015501D01*
X009435Y014701D01*
X009460Y014651D01*
X009285Y013551D02*
X009272Y013548D01*
X009285Y013551D02*
X010735Y013551D01*
X010772Y013548D01*
X010772Y012879D02*
X010735Y012851D01*
X010635Y012751D01*
X010635Y011851D01*
X011785Y012551D02*
X012935Y012551D01*
X012935Y012151D01*
X012897Y011714D01*
X012935Y011751D01*
X012935Y012151D01*
X012935Y012551D02*
X013235Y012851D01*
X014085Y012851D01*
X014085Y012879D01*
X014085Y013548D02*
X015085Y013548D01*
X015085Y013551D01*
X015085Y013548D02*
X015210Y013548D01*
X015794Y012964D01*
X015897Y012861D01*
X015897Y011714D01*
X015085Y011901D02*
X014935Y011751D01*
X014897Y011714D01*
X015085Y011901D02*
X015085Y012951D01*
X015125Y012964D01*
X014585Y013551D02*
X014885Y013851D01*
X014885Y014701D01*
X014897Y014714D01*
X013897Y014714D02*
X013885Y014701D01*
X013785Y014601D01*
X013785Y014151D01*
X013435Y014151D01*
X013135Y013851D01*
X012685Y013851D01*
X012285Y014251D01*
X012285Y014951D01*
X011085Y016151D01*
X006982Y016151D01*
X006312Y016151D02*
X005785Y016151D01*
X004785Y017151D01*
X003985Y017151D01*
X003585Y016751D01*
X003585Y016714D01*
X006285Y015201D02*
X006285Y014801D01*
X004735Y013251D01*
X004035Y013251D01*
X003585Y013701D01*
X003585Y013714D01*
X006285Y015201D02*
X006312Y015214D01*
X006982Y015214D02*
X006985Y015251D01*
X007935Y015251D01*
X008785Y012851D02*
X008485Y012551D01*
X008485Y011701D01*
X008460Y011651D01*
X008922Y010991D02*
X008997Y010991D01*
X009096Y010892D02*
X008823Y010892D01*
X008785Y012851D02*
X009235Y012851D01*
X009272Y012879D01*
X011544Y009212D02*
X011855Y008901D01*
X012855Y005964D02*
X013735Y005964D01*
X013675Y005739D01*
X013675Y005463D01*
X013746Y005196D01*
X013884Y004956D01*
X014080Y004761D01*
X014319Y004623D01*
X014586Y004551D01*
X014863Y004551D01*
X015130Y004623D01*
X015369Y004761D01*
X015565Y004956D01*
X015703Y005196D01*
X015775Y005463D01*
X015775Y005739D01*
X015714Y005964D01*
X016522Y005964D01*
X016522Y004901D01*
X016635Y005145D01*
X016635Y000601D01*
X006643Y000601D01*
X006585Y005214D01*
X008522Y005276D01*
X008591Y005339D01*
X008671Y005372D01*
X008769Y005471D01*
X008790Y005522D01*
X009272Y005964D01*
X010855Y005964D01*
X010855Y005800D01*
X010855Y005402D01*
X010896Y005301D01*
X010775Y005301D01*
X010573Y005217D01*
X010418Y005063D01*
X010335Y004861D01*
X010335Y004642D01*
X010418Y004440D01*
X010485Y004373D01*
X010485Y003969D01*
X010460Y003944D01*
X010407Y003816D01*
X010407Y003361D01*
X010460Y003233D01*
X010559Y003134D01*
X010687Y003081D01*
X011141Y003081D01*
X011209Y003109D01*
X011278Y003081D01*
X011732Y003081D01*
X011815Y003115D01*
X011855Y003075D01*
X011983Y003022D01*
X012506Y003022D01*
X012295Y002965D01*
X012050Y002824D01*
X011849Y002624D01*
X011708Y002379D01*
X011635Y002105D01*
X011635Y001822D01*
X011708Y001549D01*
X011849Y001304D01*
X012050Y001103D01*
X012295Y000962D01*
X012568Y000889D01*
X012851Y000889D01*
X013125Y000962D01*
X013370Y001103D01*
X013570Y001304D01*
X013711Y001549D01*
X013772Y001776D01*
X013833Y001549D01*
X013974Y001304D01*
X014174Y001103D01*
X014420Y000962D01*
X014693Y000889D01*
X014976Y000889D01*
X015249Y000962D01*
X015495Y001103D01*
X015695Y001304D01*
X015836Y001549D01*
X015910Y001822D01*
X015910Y002105D01*
X015836Y002379D01*
X015695Y002624D01*
X015495Y002824D01*
X015249Y002965D01*
X014976Y003039D01*
X014693Y003039D01*
X014420Y002965D01*
X014174Y002824D01*
X013974Y002624D01*
X013833Y002379D01*
X013772Y002152D01*
X013711Y002379D01*
X013570Y002624D01*
X013370Y002824D01*
X013125Y002965D01*
X012913Y003022D01*
X013186Y003022D01*
X013314Y003075D01*
X013413Y003174D01*
X013466Y003302D01*
X013466Y003875D01*
X013413Y004003D01*
X013319Y004097D01*
X013319Y004616D01*
X013258Y004763D01*
X013146Y004876D01*
X012786Y005236D01*
X012855Y005402D01*
X012855Y005800D01*
X012855Y005964D01*
X012855Y005867D02*
X013709Y005867D01*
X013682Y005768D02*
X012855Y005768D01*
X012855Y005670D02*
X013675Y005670D01*
X013675Y005571D02*
X012855Y005571D01*
X012855Y005473D02*
X013675Y005473D01*
X013698Y005374D02*
X012843Y005374D01*
X012802Y005275D02*
X013725Y005275D01*
X013757Y005177D02*
X012844Y005177D01*
X012943Y005078D02*
X013814Y005078D01*
X013871Y004980D02*
X013042Y004980D01*
X013140Y004881D02*
X013960Y004881D01*
X014058Y004783D02*
X013239Y004783D01*
X013291Y004684D02*
X014213Y004684D01*
X014458Y004586D02*
X013319Y004586D01*
X013319Y004487D02*
X016635Y004487D01*
X016635Y004389D02*
X013319Y004389D01*
X013319Y004290D02*
X016635Y004290D01*
X016635Y004191D02*
X013319Y004191D01*
X013323Y004093D02*
X016635Y004093D01*
X016635Y003994D02*
X013416Y003994D01*
X013457Y003896D02*
X016635Y003896D01*
X016635Y003797D02*
X013466Y003797D01*
X013466Y003699D02*
X016635Y003699D01*
X016635Y003600D02*
X013466Y003600D01*
X013466Y003502D02*
X016635Y003502D01*
X016635Y003403D02*
X013466Y003403D01*
X013466Y003305D02*
X016635Y003305D01*
X016635Y003206D02*
X013426Y003206D01*
X013346Y003107D02*
X016635Y003107D01*
X016635Y003009D02*
X015087Y003009D01*
X015345Y002910D02*
X016635Y002910D01*
X016635Y002812D02*
X015507Y002812D01*
X015605Y002713D02*
X016635Y002713D01*
X016635Y002615D02*
X015700Y002615D01*
X015757Y002516D02*
X016635Y002516D01*
X016635Y002418D02*
X015814Y002418D01*
X015852Y002319D02*
X016635Y002319D01*
X016635Y002221D02*
X015879Y002221D01*
X015905Y002122D02*
X016635Y002122D01*
X016635Y002024D02*
X015910Y002024D01*
X015910Y001925D02*
X016635Y001925D01*
X016635Y001826D02*
X015910Y001826D01*
X015884Y001728D02*
X016635Y001728D01*
X016635Y001629D02*
X015858Y001629D01*
X015826Y001531D02*
X016635Y001531D01*
X016635Y001432D02*
X015769Y001432D01*
X015712Y001334D02*
X016635Y001334D01*
X016635Y001235D02*
X015626Y001235D01*
X015528Y001137D02*
X016635Y001137D01*
X016635Y001038D02*
X015381Y001038D01*
X015166Y000940D02*
X016635Y000940D01*
X016635Y000841D02*
X006640Y000841D01*
X006641Y000742D02*
X016635Y000742D01*
X016635Y000644D02*
X006642Y000644D01*
X006639Y000940D02*
X012378Y000940D01*
X012163Y001038D02*
X006637Y001038D01*
X006636Y001137D02*
X012016Y001137D01*
X011918Y001235D02*
X006635Y001235D01*
X006634Y001334D02*
X011832Y001334D01*
X011775Y001432D02*
X006632Y001432D01*
X006631Y001531D02*
X011718Y001531D01*
X011686Y001629D02*
X006630Y001629D01*
X006629Y001728D02*
X011660Y001728D01*
X011635Y001826D02*
X006627Y001826D01*
X006626Y001925D02*
X011635Y001925D01*
X011635Y002024D02*
X006625Y002024D01*
X006624Y002122D02*
X011639Y002122D01*
X011666Y002221D02*
X006622Y002221D01*
X006621Y002319D02*
X011692Y002319D01*
X011730Y002418D02*
X006620Y002418D01*
X006619Y002516D02*
X011787Y002516D01*
X011844Y002615D02*
X006618Y002615D01*
X006616Y002713D02*
X011939Y002713D01*
X012038Y002812D02*
X006615Y002812D01*
X006614Y002910D02*
X012199Y002910D01*
X012457Y003009D02*
X006613Y003009D01*
X006611Y003107D02*
X010623Y003107D01*
X010487Y003206D02*
X006610Y003206D01*
X006609Y003305D02*
X010430Y003305D01*
X010407Y003403D02*
X006608Y003403D01*
X006606Y003502D02*
X010407Y003502D01*
X010407Y003600D02*
X006605Y003600D01*
X006604Y003699D02*
X010407Y003699D01*
X010407Y003797D02*
X006603Y003797D01*
X006601Y003896D02*
X010440Y003896D01*
X010485Y003994D02*
X006600Y003994D01*
X006599Y004093D02*
X010485Y004093D01*
X010485Y004191D02*
X006598Y004191D01*
X006596Y004290D02*
X010485Y004290D01*
X010469Y004389D02*
X006595Y004389D01*
X006594Y004487D02*
X010399Y004487D01*
X010358Y004586D02*
X006593Y004586D01*
X006591Y004684D02*
X010335Y004684D01*
X010335Y004783D02*
X006590Y004783D01*
X006589Y004881D02*
X010343Y004881D01*
X010384Y004980D02*
X006588Y004980D01*
X006586Y005078D02*
X010434Y005078D01*
X010532Y005177D02*
X006585Y005177D01*
X006835Y005944D02*
X006872Y005989D01*
X006872Y006664D01*
X007372Y007164D01*
X008844Y005571D02*
X010855Y005571D01*
X010855Y005473D02*
X008770Y005473D01*
X008672Y005374D02*
X010866Y005374D01*
X010713Y005275D02*
X008499Y005275D01*
X008951Y005670D02*
X010855Y005670D01*
X010855Y005768D02*
X009059Y005768D01*
X009166Y005867D02*
X010855Y005867D01*
X011855Y005601D02*
X012919Y004537D01*
X012919Y003589D01*
X012962Y003009D02*
X014582Y003009D01*
X014324Y002910D02*
X013220Y002910D01*
X013382Y002812D02*
X014162Y002812D01*
X014064Y002713D02*
X013480Y002713D01*
X013575Y002615D02*
X013969Y002615D01*
X013912Y002516D02*
X013632Y002516D01*
X013689Y002418D02*
X013855Y002418D01*
X013817Y002319D02*
X013727Y002319D01*
X013754Y002221D02*
X013791Y002221D01*
X013785Y001728D02*
X013759Y001728D01*
X013733Y001629D02*
X013811Y001629D01*
X013843Y001531D02*
X013701Y001531D01*
X013644Y001432D02*
X013900Y001432D01*
X013957Y001334D02*
X013587Y001334D01*
X013501Y001235D02*
X014043Y001235D01*
X014141Y001137D02*
X013403Y001137D01*
X013256Y001038D02*
X014288Y001038D01*
X014503Y000940D02*
X013041Y000940D01*
X011823Y003107D02*
X011796Y003107D01*
X011535Y003601D02*
X011505Y003589D01*
X011535Y003601D02*
X012235Y003601D01*
X012250Y003589D01*
X011214Y003107D02*
X011205Y003107D01*
X010914Y003589D02*
X010885Y003601D01*
X010885Y004751D01*
X014991Y004586D02*
X016635Y004586D01*
X016635Y004684D02*
X015236Y004684D01*
X015391Y004783D02*
X016635Y004783D01*
X016635Y004881D02*
X015490Y004881D01*
X015578Y004980D02*
X016522Y004980D01*
X016558Y004980D02*
X016635Y004980D01*
X016635Y005078D02*
X016604Y005078D01*
X016522Y005078D02*
X015635Y005078D01*
X015692Y005177D02*
X016522Y005177D01*
X016522Y005275D02*
X015724Y005275D01*
X015751Y005374D02*
X016522Y005374D01*
X016522Y005473D02*
X015775Y005473D01*
X015775Y005571D02*
X016522Y005571D01*
X016522Y005670D02*
X015775Y005670D01*
X015767Y005768D02*
X016522Y005768D01*
X016522Y005867D02*
X015740Y005867D01*
X014585Y013551D02*
X014135Y013551D01*
X004960Y005776D02*
X004085Y004901D01*
X004085Y004214D01*
X003585Y003714D01*
X003585Y003714D01*
X003585Y004714D02*
X003585Y005214D01*
X004647Y006276D01*
X005460Y002276D02*
X005397Y002214D01*
X004085Y002214D01*
X003585Y001714D01*
X003585Y001714D01*
D19*
X007548Y006600D02*
X007585Y006585D01*
X007621Y006600D01*
X008048Y006600D01*
X008188Y006542D01*
X008294Y006435D01*
X008352Y006296D01*
X008352Y006063D01*
X008820Y006163D01*
X008860Y006234D01*
X009052Y006425D01*
X009287Y006561D01*
X009549Y006631D01*
X009820Y006631D01*
X010082Y006561D01*
X010241Y006469D01*
X010825Y006595D01*
X010825Y007116D01*
X010825Y007116D01*
X010825Y007387D01*
X010825Y007387D01*
X010825Y007935D01*
X010655Y007963D01*
X010428Y007737D01*
X010270Y007671D01*
X010099Y007671D01*
X008949Y007671D01*
X008836Y007718D01*
X008798Y007702D01*
X008371Y007702D01*
X008335Y007717D01*
X008298Y007702D01*
X007871Y007702D01*
X007835Y007717D01*
X007798Y007702D01*
X007587Y007702D01*
X007701Y007655D01*
X007864Y007492D01*
X007952Y007279D01*
X007952Y007048D01*
X007864Y006835D01*
X007701Y006672D01*
X007527Y006600D01*
X007548Y006600D01*
X007651Y006651D02*
X010825Y006651D01*
X010825Y006810D02*
X007839Y006810D01*
X007919Y006969D02*
X010825Y006969D01*
X010825Y007127D02*
X007952Y007127D01*
X007949Y007286D02*
X010825Y007286D01*
X010825Y007444D02*
X007884Y007444D01*
X007753Y007603D02*
X010825Y007603D01*
X010825Y007761D02*
X010453Y007761D01*
X010611Y007920D02*
X010825Y007920D01*
X010350Y006493D02*
X010200Y006493D01*
X009169Y006493D02*
X008237Y006493D01*
X008336Y006334D02*
X008961Y006334D01*
X008827Y006176D02*
X008352Y006176D01*
X007257Y007744D02*
X007044Y007655D01*
X006982Y007593D01*
X006960Y008568D01*
X007067Y008568D01*
X007067Y008007D01*
X007125Y007867D01*
X007231Y007760D01*
X007271Y007744D01*
X007257Y007744D01*
X007230Y007761D02*
X006978Y007761D01*
X006981Y007603D02*
X006991Y007603D01*
X006974Y007920D02*
X007103Y007920D01*
X007067Y008078D02*
X006971Y008078D01*
X006967Y008237D02*
X007067Y008237D01*
X007067Y008395D02*
X006964Y008395D01*
X006960Y008554D02*
X007067Y008554D01*
X008210Y008026D02*
X008212Y007993D01*
X008217Y007961D01*
X008225Y007930D01*
X008237Y007899D01*
X008252Y007870D01*
X008270Y007843D01*
X008290Y007817D01*
X008313Y007794D01*
X008339Y007774D01*
X008366Y007756D01*
X008395Y007741D01*
X008426Y007729D01*
X008457Y007721D01*
X008489Y007716D01*
X008522Y007714D01*
X008835Y007714D01*
X004585Y013714D02*
X004585Y013839D01*
X004585Y013714D02*
X004085Y014214D01*
X003335Y014214D01*
X002835Y013714D01*
X002460Y013714D01*
X002460Y014714D02*
X002835Y014714D01*
X003335Y015214D01*
X004085Y015214D01*
X004585Y014714D01*
X004585Y015714D02*
X004585Y016214D01*
X002460Y016214D01*
X002460Y016714D01*
X002460Y015714D01*
X004585Y016214D02*
X004585Y016714D01*
D20*
X011855Y008901D02*
X011855Y007251D01*
X011855Y005601D01*
D21*
X010885Y004751D03*
X007372Y007164D03*
X004960Y005776D03*
X004647Y006276D03*
X005460Y002276D03*
X011785Y012551D03*
X015085Y013551D03*
D22*
X009685Y007251D02*
X009641Y007251D01*
X008335Y005944D01*
D23*
X007335Y005944D01*
X007335Y006464D01*
X008210Y006464D01*
X008210Y006151D01*
X007522Y006151D01*
X007522Y006276D01*
X008335Y006276D01*
X008335Y007151D01*
X008335Y007108D02*
X007835Y007608D01*
X007835Y008026D01*
X007835Y008089D01*
X007835Y008026D02*
X007460Y008026D01*
X007460Y008276D01*
X008022Y008276D01*
X008022Y007839D01*
X007272Y007839D01*
X007272Y008464D01*
X008147Y008464D01*
X008147Y007714D01*
X007085Y007714D01*
X007085Y008358D01*
M02*
