G75*
G70*
%OFA0B0*%
%FSLAX24Y24*%
%IPPOS*%
%LPD*%
%AMOC8*
5,1,8,0,0,1.08239X$1,22.5*
%
%ADD10C,0.0630*%
%ADD11C,0.0594*%
%ADD12C,0.0560*%
%ADD13C,0.0600*%
%ADD14C,0.0780*%
%ADD15C,0.0400*%
%ADD16C,0.0160*%
%ADD17C,0.0100*%
D10*
X004936Y007101D03*
X006116Y007101D03*
X006116Y008281D03*
X004936Y008281D03*
X004949Y011251D03*
X006129Y011251D03*
X006129Y012431D03*
X004949Y012431D03*
D11*
X007681Y008419D03*
X008681Y008419D03*
X009681Y008419D03*
X011681Y008419D03*
X012681Y008419D03*
X013681Y008419D03*
X014681Y008419D03*
D12*
X007744Y004356D03*
X006744Y004356D03*
X009494Y002369D03*
X009494Y001369D03*
X011681Y001369D03*
X011681Y002369D03*
X008381Y014969D03*
X007381Y014969D03*
X006381Y014969D03*
D13*
X012869Y015356D03*
X013869Y015356D03*
X013869Y016356D03*
X012869Y016356D03*
X012869Y017356D03*
X013869Y017356D03*
X013869Y014356D03*
X012869Y014356D03*
X012869Y005356D03*
X013869Y005356D03*
X013869Y004356D03*
X012869Y004356D03*
X012869Y003356D03*
X013869Y003356D03*
X013869Y002356D03*
X012869Y002356D03*
D14*
X022869Y006856D03*
X022869Y007856D03*
X022869Y008856D03*
X022869Y009856D03*
D15*
X024031Y010419D03*
X024056Y011744D03*
X021881Y011044D03*
X021281Y011644D03*
X021631Y012344D03*
X020631Y012344D03*
X019331Y011944D03*
X018681Y011844D03*
X018181Y011644D03*
X016981Y011769D03*
X016331Y012794D03*
X015269Y011956D03*
X014281Y012044D03*
X013869Y011756D03*
X013231Y012394D03*
X013231Y013194D03*
X016431Y014819D03*
X017081Y014744D03*
X019631Y013294D03*
X021856Y015069D03*
X020531Y016994D03*
X019131Y010844D03*
X019431Y010394D03*
X019031Y009944D03*
X018431Y009994D03*
X016781Y009744D03*
X016781Y010294D03*
X015281Y009044D03*
X014181Y008794D03*
X013731Y009044D03*
X015181Y008044D03*
X019081Y008794D03*
X021281Y010394D03*
X024531Y007444D03*
X025631Y007394D03*
X024619Y006106D03*
X023531Y006444D03*
X021731Y006344D03*
X020469Y006556D03*
X018306Y005494D03*
X018181Y003294D03*
X019081Y002494D03*
X009056Y009681D03*
X009056Y010244D03*
X008031Y009844D03*
X009931Y011244D03*
X009806Y013744D03*
X008431Y013994D03*
D16*
X003161Y002089D02*
X003161Y000994D01*
X010056Y000994D01*
X010056Y008148D01*
X009940Y008032D01*
X009772Y007962D01*
X009591Y007962D01*
X009423Y008032D01*
X009294Y008160D01*
X009225Y008328D01*
X009225Y008510D01*
X009294Y008678D01*
X009423Y008806D01*
X009591Y008876D01*
X009772Y008876D01*
X009940Y008806D01*
X010056Y008690D01*
X010056Y010906D01*
X010003Y010884D01*
X009860Y010884D01*
X009727Y010939D01*
X009626Y011040D01*
X009571Y011172D01*
X009571Y011315D01*
X009626Y011448D01*
X009727Y011549D01*
X009860Y011604D01*
X010003Y011604D01*
X010056Y011582D01*
X010056Y013485D01*
X010010Y013439D01*
X009878Y013384D01*
X009735Y013384D01*
X009602Y013439D01*
X009501Y013540D01*
X009446Y013672D01*
X009446Y013815D01*
X009501Y013948D01*
X009602Y014049D01*
X009735Y014104D01*
X009878Y014104D01*
X010010Y014049D01*
X010056Y014003D01*
X010056Y017994D01*
X003161Y017994D01*
X003161Y017589D01*
X003161Y017494D01*
X003161Y017299D01*
X003161Y017299D01*
X003061Y016923D01*
X003061Y016923D01*
X002866Y016585D01*
X002866Y016585D01*
X002590Y016310D01*
X002590Y016310D01*
X002253Y016115D01*
X002253Y016115D01*
X001876Y016014D01*
X001876Y016014D01*
X001777Y016014D01*
X000681Y016014D01*
X000681Y003474D01*
X001586Y003474D01*
X001681Y003474D01*
X001777Y003474D01*
X001876Y003474D01*
X001876Y003474D01*
X002253Y003373D01*
X002253Y003373D01*
X002590Y003178D01*
X002590Y003178D01*
X002866Y002903D01*
X002866Y002903D01*
X003061Y002565D01*
X003061Y002565D01*
X003161Y002189D01*
X003161Y002189D01*
X003161Y002089D01*
X003161Y002079D02*
X009161Y002079D01*
X009121Y002120D02*
X009245Y001996D01*
X009406Y001929D01*
X009581Y001929D01*
X009743Y001996D01*
X009867Y002120D01*
X009934Y002281D01*
X009934Y002456D01*
X009867Y002618D01*
X009743Y002742D01*
X009581Y002809D01*
X009406Y002809D01*
X009245Y002742D01*
X009121Y002618D01*
X009054Y002456D01*
X009054Y002281D01*
X009121Y002120D01*
X009072Y002238D02*
X003148Y002238D01*
X003106Y002396D02*
X009054Y002396D01*
X009095Y002555D02*
X003063Y002555D01*
X002975Y002713D02*
X009216Y002713D01*
X009772Y002713D02*
X010056Y002713D01*
X010056Y002555D02*
X009893Y002555D01*
X009934Y002396D02*
X010056Y002396D01*
X010056Y002238D02*
X009916Y002238D01*
X009827Y002079D02*
X010056Y002079D01*
X010056Y001921D02*
X003161Y001921D01*
X003161Y001762D02*
X010056Y001762D01*
X010056Y001604D02*
X003161Y001604D01*
X003161Y001445D02*
X010056Y001445D01*
X010056Y001287D02*
X003161Y001287D01*
X003161Y001128D02*
X010056Y001128D01*
X011240Y001128D02*
X025701Y001128D01*
X025701Y000974D02*
X011242Y000974D01*
X011219Y003756D01*
X011181Y006306D01*
X011244Y013306D01*
X012901Y013336D01*
X012868Y013336D01*
X011244Y013336D01*
X011244Y013306D02*
X011181Y018514D01*
X014681Y018514D01*
X014681Y013369D01*
X013557Y013348D01*
X013537Y013398D01*
X013435Y013499D01*
X013303Y013554D01*
X013160Y013554D01*
X013027Y013499D01*
X012926Y013398D01*
X012901Y013336D01*
X011244Y013306D01*
X011243Y013177D02*
X012871Y013177D01*
X012871Y013122D02*
X012926Y012990D01*
X013027Y012889D01*
X013160Y012834D01*
X013303Y012834D01*
X013435Y012889D01*
X013537Y012990D01*
X013591Y013122D01*
X013591Y013265D01*
X013557Y013348D01*
X014681Y013369D01*
X014706Y018514D01*
X017383Y018514D01*
X025701Y018498D01*
X025701Y017407D01*
X025701Y017270D01*
X025701Y017270D01*
X025845Y016826D01*
X026117Y016448D01*
X026493Y016172D01*
X026935Y016025D01*
X026935Y016025D01*
X027168Y016023D01*
X027264Y016022D01*
X028084Y016015D01*
X028086Y016014D01*
X028173Y016014D01*
X028200Y003474D01*
X027086Y003474D01*
X026987Y003474D01*
X026610Y003373D01*
X026273Y003178D01*
X026273Y003178D01*
X025997Y002903D01*
X025997Y002903D01*
X025997Y002903D01*
X025802Y002565D01*
X025701Y002189D01*
X025701Y002189D01*
X025701Y001994D01*
X025701Y001898D01*
X025701Y000974D01*
X025701Y001287D02*
X011239Y001287D01*
X011238Y001445D02*
X025701Y001445D01*
X025701Y001604D02*
X024576Y001604D01*
X024508Y001564D02*
X024760Y001710D01*
X024966Y001915D01*
X025111Y002167D01*
X025186Y002448D01*
X025186Y002739D01*
X025111Y003020D01*
X024984Y003241D01*
X025258Y003314D01*
X025510Y003460D01*
X025716Y003665D01*
X025861Y003917D01*
X025936Y004198D01*
X025936Y004489D01*
X025861Y004770D01*
X025716Y005022D01*
X025510Y005228D01*
X025258Y005374D01*
X024977Y005449D01*
X024686Y005449D01*
X024405Y005374D01*
X024153Y005228D01*
X023947Y005022D01*
X023802Y004770D01*
X023726Y004489D01*
X023726Y004198D01*
X023802Y003917D01*
X023929Y003697D01*
X023655Y003624D01*
X023403Y003478D01*
X023197Y003272D01*
X023052Y003020D01*
X022976Y002739D01*
X022976Y002448D01*
X023052Y002167D01*
X023197Y001915D01*
X023403Y001710D01*
X023655Y001564D01*
X023936Y001489D01*
X024227Y001489D01*
X024508Y001564D01*
X024812Y001762D02*
X025701Y001762D01*
X025701Y001921D02*
X024969Y001921D01*
X025060Y002079D02*
X025701Y002079D01*
X025715Y002238D02*
X025130Y002238D01*
X025172Y002396D02*
X025757Y002396D01*
X025800Y002555D02*
X025186Y002555D01*
X025186Y002713D02*
X025888Y002713D01*
X025802Y002565D02*
X025802Y002565D01*
X025980Y002872D02*
X025151Y002872D01*
X025105Y003031D02*
X026125Y003031D01*
X026292Y003189D02*
X025014Y003189D01*
X025316Y003348D02*
X026566Y003348D01*
X026610Y003373D02*
X026610Y003373D01*
X025807Y003823D02*
X028200Y003823D01*
X028200Y003665D02*
X025715Y003665D01*
X025556Y003506D02*
X028200Y003506D01*
X028199Y003982D02*
X025878Y003982D01*
X025921Y004140D02*
X028199Y004140D01*
X028199Y004299D02*
X025936Y004299D01*
X025936Y004457D02*
X028198Y004457D01*
X028198Y004616D02*
X025902Y004616D01*
X025859Y004775D02*
X028197Y004775D01*
X028197Y004933D02*
X025767Y004933D01*
X025646Y005092D02*
X028197Y005092D01*
X028196Y005250D02*
X025472Y005250D01*
X025127Y005409D02*
X028196Y005409D01*
X028196Y005567D02*
X018666Y005567D01*
X018666Y005565D02*
X018612Y005698D01*
X018510Y005799D01*
X018378Y005854D01*
X018235Y005854D01*
X018102Y005799D01*
X018001Y005698D01*
X017946Y005565D01*
X017946Y005422D01*
X018001Y005290D01*
X018102Y005189D01*
X018235Y005134D01*
X018378Y005134D01*
X018510Y005189D01*
X018612Y005290D01*
X018666Y005422D01*
X018666Y005565D01*
X018661Y005409D02*
X024536Y005409D01*
X024547Y005746D02*
X024691Y005746D01*
X024823Y005801D01*
X024924Y005902D01*
X024979Y006035D01*
X024979Y006178D01*
X024924Y006310D01*
X024823Y006412D01*
X024691Y006466D01*
X024547Y006466D01*
X024415Y006412D01*
X024314Y006310D01*
X024259Y006178D01*
X024259Y006035D01*
X024314Y005902D01*
X024415Y005801D01*
X024547Y005746D01*
X024332Y005884D02*
X011188Y005884D01*
X011190Y005726D02*
X012588Y005726D01*
X012608Y005746D02*
X012479Y005617D01*
X012409Y005448D01*
X012409Y005265D01*
X012479Y005096D01*
X012608Y004966D01*
X012777Y004896D01*
X012960Y004896D01*
X013129Y004966D01*
X013259Y005096D01*
X013329Y005265D01*
X013329Y005448D01*
X013259Y005617D01*
X013129Y005746D01*
X012960Y005816D01*
X012777Y005816D01*
X012608Y005746D01*
X012458Y005567D02*
X011192Y005567D01*
X011195Y005409D02*
X012409Y005409D01*
X012415Y005250D02*
X011197Y005250D01*
X011199Y005092D02*
X012483Y005092D01*
X012689Y004933D02*
X011202Y004933D01*
X011204Y004775D02*
X012676Y004775D01*
X012608Y004746D02*
X012479Y004617D01*
X012409Y004448D01*
X012409Y004265D01*
X012479Y004096D01*
X012608Y003966D01*
X012777Y003896D01*
X012960Y003896D01*
X013129Y003966D01*
X013259Y004096D01*
X013329Y004265D01*
X013329Y004448D01*
X013259Y004617D01*
X013129Y004746D01*
X012960Y004816D01*
X012777Y004816D01*
X012608Y004746D01*
X012479Y004616D02*
X011206Y004616D01*
X011209Y004457D02*
X012413Y004457D01*
X012409Y004299D02*
X011211Y004299D01*
X011213Y004140D02*
X012461Y004140D01*
X012593Y003982D02*
X011216Y003982D01*
X011218Y003823D02*
X023856Y003823D01*
X023809Y003665D02*
X014211Y003665D01*
X014259Y003617D02*
X014129Y003746D01*
X013960Y003816D01*
X013777Y003816D01*
X013608Y003746D01*
X013479Y003617D01*
X013409Y003448D01*
X013409Y003265D01*
X013479Y003096D01*
X013608Y002966D01*
X013777Y002896D01*
X013960Y002896D01*
X014129Y002966D01*
X014259Y003096D01*
X014329Y003265D01*
X014329Y003448D01*
X014259Y003617D01*
X014305Y003506D02*
X023452Y003506D01*
X023273Y003348D02*
X014329Y003348D01*
X014297Y003189D02*
X023149Y003189D01*
X023058Y003031D02*
X014194Y003031D01*
X014129Y002746D02*
X013960Y002816D01*
X013777Y002816D01*
X013608Y002746D01*
X013479Y002617D01*
X013409Y002448D01*
X013409Y002265D01*
X013479Y002096D01*
X013608Y001966D01*
X013777Y001896D01*
X013960Y001896D01*
X014129Y001966D01*
X014259Y002096D01*
X014329Y002265D01*
X014329Y002448D01*
X014259Y002617D01*
X014129Y002746D01*
X014162Y002713D02*
X018792Y002713D01*
X018776Y002698D02*
X018721Y002565D01*
X018721Y002422D01*
X018776Y002290D01*
X018877Y002189D01*
X019010Y002134D01*
X019153Y002134D01*
X019285Y002189D01*
X019387Y002290D01*
X019441Y002422D01*
X019441Y002565D01*
X019387Y002698D01*
X019285Y002799D01*
X019153Y002854D01*
X019010Y002854D01*
X018877Y002799D01*
X018776Y002698D01*
X018721Y002555D02*
X014285Y002555D01*
X014329Y002396D02*
X018732Y002396D01*
X018828Y002238D02*
X014318Y002238D01*
X014242Y002079D02*
X023103Y002079D01*
X023033Y002238D02*
X019334Y002238D01*
X019431Y002396D02*
X022990Y002396D01*
X022976Y002555D02*
X019441Y002555D01*
X019371Y002713D02*
X022976Y002713D01*
X023012Y002872D02*
X011226Y002872D01*
X011227Y002713D02*
X011404Y002713D01*
X011432Y002742D02*
X011308Y002618D01*
X011241Y002456D01*
X011241Y002281D01*
X011308Y002120D01*
X011432Y001996D01*
X011594Y001929D01*
X011769Y001929D01*
X011931Y001996D01*
X012054Y002120D01*
X012121Y002281D01*
X012121Y002456D01*
X012054Y002618D01*
X011931Y002742D01*
X011769Y002809D01*
X011594Y002809D01*
X011432Y002742D01*
X011282Y002555D02*
X011229Y002555D01*
X011230Y002396D02*
X011241Y002396D01*
X011231Y002238D02*
X011259Y002238D01*
X011233Y002079D02*
X011349Y002079D01*
X011234Y001921D02*
X012719Y001921D01*
X012777Y001896D02*
X012608Y001966D01*
X012479Y002096D01*
X012409Y002265D01*
X012409Y002448D01*
X012479Y002617D01*
X012608Y002746D01*
X012777Y002816D01*
X012960Y002816D01*
X013129Y002746D01*
X013259Y002617D01*
X013329Y002448D01*
X013329Y002265D01*
X013259Y002096D01*
X013129Y001966D01*
X012960Y001896D01*
X012777Y001896D01*
X013019Y001921D02*
X013719Y001921D01*
X013495Y002079D02*
X013242Y002079D01*
X013318Y002238D02*
X013420Y002238D01*
X013409Y002396D02*
X013329Y002396D01*
X013285Y002555D02*
X013453Y002555D01*
X013576Y002713D02*
X013162Y002713D01*
X013129Y002966D02*
X012960Y002896D01*
X012777Y002896D01*
X012608Y002966D01*
X012479Y003096D01*
X012409Y003265D01*
X012409Y003448D01*
X012479Y003617D01*
X012608Y003746D01*
X012777Y003816D01*
X012960Y003816D01*
X013129Y003746D01*
X013259Y003617D01*
X013329Y003448D01*
X013329Y003265D01*
X013259Y003096D01*
X013129Y002966D01*
X013194Y003031D02*
X013544Y003031D01*
X013440Y003189D02*
X013297Y003189D01*
X013329Y003348D02*
X013409Y003348D01*
X013433Y003506D02*
X013305Y003506D01*
X013211Y003665D02*
X013527Y003665D01*
X013608Y003966D02*
X013777Y003896D01*
X013960Y003896D01*
X014129Y003966D01*
X014259Y004096D01*
X014329Y004265D01*
X014329Y004448D01*
X014259Y004617D01*
X014129Y004746D01*
X013960Y004816D01*
X013777Y004816D01*
X013608Y004746D01*
X013479Y004617D01*
X013409Y004448D01*
X013409Y004265D01*
X013479Y004096D01*
X013608Y003966D01*
X013593Y003982D02*
X013145Y003982D01*
X013277Y004140D02*
X013461Y004140D01*
X013409Y004299D02*
X013329Y004299D01*
X013325Y004457D02*
X013413Y004457D01*
X013479Y004616D02*
X013259Y004616D01*
X013061Y004775D02*
X013676Y004775D01*
X013777Y004896D02*
X013608Y004966D01*
X013479Y005096D01*
X013409Y005265D01*
X013409Y005448D01*
X013479Y005617D01*
X013608Y005746D01*
X013777Y005816D01*
X013960Y005816D01*
X014129Y005746D01*
X014259Y005617D01*
X014329Y005448D01*
X014329Y005265D01*
X014259Y005096D01*
X014129Y004966D01*
X013960Y004896D01*
X013777Y004896D01*
X013689Y004933D02*
X013049Y004933D01*
X013255Y005092D02*
X013483Y005092D01*
X013415Y005250D02*
X013323Y005250D01*
X013329Y005409D02*
X013409Y005409D01*
X013458Y005567D02*
X013279Y005567D01*
X013150Y005726D02*
X013588Y005726D01*
X014150Y005726D02*
X018029Y005726D01*
X017947Y005567D02*
X014279Y005567D01*
X014329Y005409D02*
X017952Y005409D01*
X018041Y005250D02*
X014323Y005250D01*
X014255Y005092D02*
X024016Y005092D01*
X023896Y004933D02*
X014049Y004933D01*
X014061Y004775D02*
X023804Y004775D01*
X023760Y004616D02*
X014259Y004616D01*
X014325Y004457D02*
X023726Y004457D01*
X023726Y004299D02*
X014329Y004299D01*
X014277Y004140D02*
X023742Y004140D01*
X023784Y003982D02*
X014145Y003982D01*
X012527Y003665D02*
X011220Y003665D01*
X011221Y003506D02*
X012433Y003506D01*
X012409Y003348D02*
X011222Y003348D01*
X011224Y003189D02*
X012440Y003189D01*
X012544Y003031D02*
X011225Y003031D01*
X011959Y002713D02*
X012576Y002713D01*
X012453Y002555D02*
X012081Y002555D01*
X012121Y002396D02*
X012409Y002396D01*
X012420Y002238D02*
X012103Y002238D01*
X012014Y002079D02*
X012495Y002079D01*
X011235Y001762D02*
X023350Y001762D01*
X023194Y001921D02*
X014019Y001921D01*
X011236Y001604D02*
X023586Y001604D01*
X024191Y005250D02*
X018572Y005250D01*
X018584Y005726D02*
X028195Y005726D01*
X028195Y005884D02*
X024906Y005884D01*
X024979Y006043D02*
X028195Y006043D01*
X028194Y006201D02*
X024969Y006201D01*
X024874Y006360D02*
X028194Y006360D01*
X028194Y006519D02*
X023890Y006519D01*
X023891Y006515D02*
X023837Y006648D01*
X023735Y006749D01*
X023603Y006804D01*
X023460Y006804D01*
X023419Y006787D01*
X023419Y006966D01*
X023335Y007168D01*
X023180Y007323D01*
X023099Y007356D01*
X023180Y007390D01*
X023335Y007545D01*
X023419Y007747D01*
X023419Y007966D01*
X023335Y008168D01*
X023180Y008323D01*
X023099Y008356D01*
X023180Y008390D01*
X023335Y008545D01*
X023419Y008747D01*
X023419Y008966D01*
X023335Y009168D01*
X023180Y009323D01*
X023099Y009356D01*
X023180Y009390D01*
X023335Y009545D01*
X023419Y009747D01*
X023419Y009966D01*
X023335Y010168D01*
X023180Y010323D01*
X022978Y010406D01*
X022759Y010406D01*
X022557Y010323D01*
X022403Y010168D01*
X022319Y009966D01*
X022319Y009747D01*
X022403Y009545D01*
X022557Y009390D01*
X022639Y009356D01*
X022557Y009323D01*
X022403Y009168D01*
X022319Y008966D01*
X022319Y008747D01*
X022403Y008545D01*
X022557Y008390D01*
X022639Y008356D01*
X022557Y008323D01*
X022403Y008168D01*
X022319Y007966D01*
X022319Y007747D01*
X022403Y007545D01*
X022557Y007390D01*
X022639Y007356D01*
X022557Y007323D01*
X022403Y007168D01*
X022319Y006966D01*
X022319Y006747D01*
X022403Y006545D01*
X022557Y006390D01*
X022759Y006306D01*
X022978Y006306D01*
X023171Y006386D01*
X023171Y006372D01*
X023226Y006240D01*
X023327Y006139D01*
X023460Y006084D01*
X023603Y006084D01*
X023735Y006139D01*
X023837Y006240D01*
X023891Y006372D01*
X023891Y006515D01*
X023886Y006360D02*
X024363Y006360D01*
X024269Y006201D02*
X023798Y006201D01*
X023265Y006201D02*
X022062Y006201D01*
X022037Y006140D02*
X022091Y006272D01*
X022091Y006415D01*
X022037Y006548D01*
X021935Y006649D01*
X021803Y006704D01*
X021660Y006704D01*
X021527Y006649D01*
X021426Y006548D01*
X021371Y006415D01*
X021371Y006272D01*
X021426Y006140D01*
X021527Y006039D01*
X021660Y005984D01*
X021803Y005984D01*
X021935Y006039D01*
X022037Y006140D01*
X021940Y006043D02*
X024259Y006043D01*
X023807Y006677D02*
X028193Y006677D01*
X028193Y006836D02*
X023419Y006836D01*
X023407Y006994D02*
X028193Y006994D01*
X028192Y007153D02*
X025899Y007153D01*
X025937Y007190D02*
X025991Y007322D01*
X025991Y007465D01*
X025937Y007598D01*
X025835Y007699D01*
X025703Y007754D01*
X025560Y007754D01*
X025427Y007699D01*
X025326Y007598D01*
X025271Y007465D01*
X025271Y007322D01*
X025326Y007190D01*
X025427Y007089D01*
X025560Y007034D01*
X025703Y007034D01*
X025835Y007089D01*
X025937Y007190D01*
X025987Y007311D02*
X028192Y007311D01*
X028191Y007470D02*
X025990Y007470D01*
X025906Y007628D02*
X028191Y007628D01*
X028191Y007787D02*
X023419Y007787D01*
X023419Y007945D02*
X028190Y007945D01*
X028190Y008104D02*
X023362Y008104D01*
X023241Y008262D02*
X028190Y008262D01*
X028189Y008421D02*
X023211Y008421D01*
X023350Y008580D02*
X028189Y008580D01*
X028189Y008738D02*
X023415Y008738D01*
X023419Y008897D02*
X028188Y008897D01*
X028188Y009055D02*
X023382Y009055D01*
X023289Y009214D02*
X028188Y009214D01*
X028187Y009372D02*
X023137Y009372D01*
X023321Y009531D02*
X028187Y009531D01*
X028187Y009689D02*
X023395Y009689D01*
X023419Y009848D02*
X028186Y009848D01*
X028186Y010006D02*
X023402Y010006D01*
X023336Y010165D02*
X023776Y010165D01*
X023726Y010215D02*
X023827Y010114D01*
X023960Y010059D01*
X024103Y010059D01*
X024235Y010114D01*
X024337Y010215D01*
X024391Y010347D01*
X024391Y010490D01*
X024337Y010623D01*
X024235Y010724D01*
X024103Y010779D01*
X023960Y010779D01*
X023827Y010724D01*
X023726Y010623D01*
X023671Y010490D01*
X023671Y010347D01*
X023726Y010215D01*
X023681Y010324D02*
X023178Y010324D01*
X023671Y010482D02*
X021635Y010482D01*
X021641Y010465D02*
X021587Y010598D01*
X021485Y010699D01*
X021353Y010754D01*
X021210Y010754D01*
X021077Y010699D01*
X020976Y010598D01*
X020921Y010465D01*
X020921Y010322D01*
X020976Y010190D01*
X021077Y010089D01*
X021210Y010034D01*
X021353Y010034D01*
X021485Y010089D01*
X021587Y010190D01*
X021641Y010322D01*
X021641Y010465D01*
X021641Y010324D02*
X022560Y010324D01*
X022401Y010165D02*
X021562Y010165D01*
X021544Y010641D02*
X023744Y010641D01*
X024319Y010641D02*
X028184Y010641D01*
X028184Y010799D02*
X022146Y010799D01*
X022187Y010840D02*
X022241Y010972D01*
X022241Y011115D01*
X022187Y011248D01*
X022085Y011349D01*
X021953Y011404D01*
X021810Y011404D01*
X021677Y011349D01*
X021576Y011248D01*
X021521Y011115D01*
X021521Y010972D01*
X021576Y010840D01*
X021677Y010739D01*
X021810Y010684D01*
X021953Y010684D01*
X022085Y010739D01*
X022187Y010840D01*
X022235Y010958D02*
X028184Y010958D01*
X028183Y011116D02*
X022241Y011116D01*
X022160Y011275D02*
X028183Y011275D01*
X028183Y011433D02*
X024247Y011433D01*
X024260Y011439D02*
X024362Y011540D01*
X024416Y011672D01*
X024416Y011815D01*
X024362Y011948D01*
X024260Y012049D01*
X024128Y012104D01*
X023985Y012104D01*
X023852Y012049D01*
X023751Y011948D01*
X023696Y011815D01*
X023696Y011672D01*
X023751Y011540D01*
X023852Y011439D01*
X023985Y011384D01*
X024128Y011384D01*
X024260Y011439D01*
X024383Y011592D02*
X028182Y011592D01*
X028182Y011750D02*
X024416Y011750D01*
X024378Y011909D02*
X028182Y011909D01*
X028181Y012068D02*
X024216Y012068D01*
X023897Y012068D02*
X021864Y012068D01*
X021835Y012039D02*
X021937Y012140D01*
X021991Y012272D01*
X021991Y012415D01*
X021937Y012548D01*
X021835Y012649D01*
X021703Y012704D01*
X021560Y012704D01*
X021427Y012649D01*
X021326Y012548D01*
X021271Y012415D01*
X021271Y012272D01*
X021326Y012140D01*
X021427Y012039D01*
X021560Y011984D01*
X021703Y011984D01*
X021835Y012039D01*
X021972Y012226D02*
X028181Y012226D01*
X028181Y012385D02*
X021991Y012385D01*
X021939Y012543D02*
X028180Y012543D01*
X028180Y012702D02*
X021708Y012702D01*
X021555Y012702D02*
X020708Y012702D01*
X020703Y012704D02*
X020560Y012704D01*
X020427Y012649D01*
X020326Y012548D01*
X020271Y012415D01*
X020271Y012281D01*
X019194Y011204D01*
X019060Y011204D01*
X018927Y011149D01*
X018826Y011048D01*
X018771Y010915D01*
X018771Y010772D01*
X018826Y010640D01*
X018927Y010539D01*
X019060Y010484D01*
X019079Y010484D01*
X019071Y010465D01*
X019071Y010322D01*
X019079Y010304D01*
X018960Y010304D01*
X018827Y010249D01*
X018726Y010148D01*
X018671Y010015D01*
X018671Y009872D01*
X018726Y009740D01*
X018827Y009639D01*
X018960Y009584D01*
X019103Y009584D01*
X019235Y009639D01*
X019337Y009740D01*
X019391Y009872D01*
X019391Y010015D01*
X019384Y010034D01*
X019503Y010034D01*
X019635Y010089D01*
X019737Y010190D01*
X019791Y010322D01*
X019791Y010465D01*
X019737Y010598D01*
X019635Y010699D01*
X019503Y010754D01*
X019484Y010754D01*
X019491Y010772D01*
X019491Y010907D01*
X020568Y011984D01*
X020703Y011984D01*
X020835Y012039D01*
X020937Y012140D01*
X020991Y012272D01*
X020991Y012415D01*
X020937Y012548D01*
X020835Y012649D01*
X020703Y012704D01*
X020555Y012702D02*
X019336Y012702D01*
X019495Y012860D02*
X028179Y012860D01*
X028179Y013019D02*
X019865Y013019D01*
X019835Y012989D02*
X019937Y013090D01*
X019991Y013222D01*
X019991Y013365D01*
X019937Y013498D01*
X019835Y013599D01*
X019703Y013654D01*
X019560Y013654D01*
X019427Y013599D01*
X019326Y013498D01*
X019271Y013365D01*
X019271Y013231D01*
X017998Y011958D01*
X017977Y011949D01*
X017876Y011848D01*
X017821Y011715D01*
X017821Y011572D01*
X017876Y011440D01*
X017977Y011339D01*
X018110Y011284D01*
X018253Y011284D01*
X018385Y011339D01*
X018487Y011440D01*
X018520Y011521D01*
X018610Y011484D01*
X018753Y011484D01*
X018885Y011539D01*
X018987Y011640D01*
X019027Y011739D01*
X019127Y011639D01*
X019260Y011584D01*
X019403Y011584D01*
X019535Y011639D01*
X019637Y011740D01*
X019691Y011872D01*
X019691Y012015D01*
X019637Y012148D01*
X019535Y012249D01*
X019403Y012304D01*
X019260Y012304D01*
X019127Y012249D01*
X019026Y012148D01*
X018985Y012049D01*
X018885Y012149D01*
X018813Y012179D01*
X019568Y012934D01*
X019703Y012934D01*
X019835Y012989D01*
X019973Y013177D02*
X028179Y013177D01*
X028178Y013336D02*
X019991Y013336D01*
X019938Y013494D02*
X028178Y013494D01*
X028178Y013653D02*
X019705Y013653D01*
X019558Y013653D02*
X014683Y013653D01*
X014681Y013653D02*
X011240Y013653D01*
X011238Y013811D02*
X014681Y013811D01*
X014684Y013811D02*
X028177Y013811D01*
X028177Y013970D02*
X014684Y013970D01*
X014681Y013970D02*
X014133Y013970D01*
X014129Y013966D02*
X014259Y014096D01*
X014329Y014265D01*
X014329Y014448D01*
X014259Y014617D01*
X014129Y014746D01*
X013960Y014816D01*
X013777Y014816D01*
X013608Y014746D01*
X013479Y014617D01*
X013409Y014448D01*
X013409Y014265D01*
X013479Y014096D01*
X013608Y013966D01*
X013777Y013896D01*
X013960Y013896D01*
X014129Y013966D01*
X014272Y014129D02*
X014681Y014129D01*
X014685Y014129D02*
X024380Y014129D01*
X024405Y014114D02*
X024686Y014039D01*
X024977Y014039D01*
X025258Y014114D01*
X025510Y014260D01*
X025716Y014465D01*
X025861Y014717D01*
X025936Y014998D01*
X025936Y015289D01*
X025861Y015570D01*
X025716Y015822D01*
X025510Y016028D01*
X025258Y016174D01*
X024977Y016249D01*
X024799Y016249D01*
X024966Y016415D01*
X025111Y016667D01*
X025186Y016948D01*
X025186Y017239D01*
X025111Y017520D01*
X024966Y017772D01*
X024760Y017978D01*
X024508Y018124D01*
X024227Y018199D01*
X023936Y018199D01*
X023655Y018124D01*
X023403Y017978D01*
X023197Y017772D01*
X023052Y017520D01*
X022976Y017239D01*
X022976Y016948D01*
X023052Y016667D01*
X023197Y016415D01*
X023403Y016210D01*
X023655Y016064D01*
X023936Y015989D01*
X024114Y015989D01*
X023947Y015822D01*
X023802Y015570D01*
X023726Y015289D01*
X023726Y014998D01*
X023802Y014717D01*
X023947Y014465D01*
X024153Y014260D01*
X024405Y014114D01*
X024125Y014287D02*
X014686Y014287D01*
X014681Y014287D02*
X014329Y014287D01*
X014329Y014446D02*
X014681Y014446D01*
X014687Y014446D02*
X016870Y014446D01*
X016877Y014439D02*
X017010Y014384D01*
X017153Y014384D01*
X017285Y014439D01*
X017387Y014540D01*
X017441Y014672D01*
X017441Y014815D01*
X017387Y014948D01*
X017285Y015049D01*
X017153Y015104D01*
X017010Y015104D01*
X016877Y015049D01*
X016776Y014948D01*
X016721Y014815D01*
X016721Y014672D01*
X016776Y014540D01*
X016877Y014439D01*
X016750Y014604D02*
X014687Y014604D01*
X014681Y014604D02*
X014264Y014604D01*
X014090Y014763D02*
X014681Y014763D01*
X014688Y014763D02*
X016721Y014763D01*
X016765Y014921D02*
X014689Y014921D01*
X014681Y014921D02*
X014021Y014921D01*
X013960Y014896D02*
X014129Y014966D01*
X014259Y015096D01*
X014329Y015265D01*
X014329Y015448D01*
X014259Y015617D01*
X014129Y015746D01*
X013960Y015816D01*
X013777Y015816D01*
X013608Y015746D01*
X013479Y015617D01*
X013409Y015448D01*
X013409Y015265D01*
X013479Y015096D01*
X013608Y014966D01*
X013777Y014896D01*
X013960Y014896D01*
X013717Y014921D02*
X013021Y014921D01*
X012960Y014896D02*
X013129Y014966D01*
X013259Y015096D01*
X013329Y015265D01*
X013329Y015448D01*
X013259Y015617D01*
X013129Y015746D01*
X012960Y015816D01*
X012777Y015816D01*
X012608Y015746D01*
X012479Y015617D01*
X012409Y015448D01*
X012409Y015265D01*
X012479Y015096D01*
X012608Y014966D01*
X012777Y014896D01*
X012960Y014896D01*
X012960Y014816D02*
X012777Y014816D01*
X012608Y014746D01*
X012479Y014617D01*
X012409Y014448D01*
X012409Y014265D01*
X012479Y014096D01*
X012608Y013966D01*
X012777Y013896D01*
X012960Y013896D01*
X013129Y013966D01*
X013259Y014096D01*
X013329Y014265D01*
X013329Y014448D01*
X013259Y014617D01*
X013129Y014746D01*
X012960Y014816D01*
X013090Y014763D02*
X013648Y014763D01*
X013474Y014604D02*
X013264Y014604D01*
X013329Y014446D02*
X013409Y014446D01*
X013409Y014287D02*
X013329Y014287D01*
X013272Y014129D02*
X013465Y014129D01*
X013605Y013970D02*
X013133Y013970D01*
X013023Y013494D02*
X011242Y013494D01*
X011236Y013970D02*
X012605Y013970D01*
X012465Y014129D02*
X011234Y014129D01*
X011232Y014287D02*
X012409Y014287D01*
X012409Y014446D02*
X011230Y014446D01*
X011228Y014604D02*
X012474Y014604D01*
X012648Y014763D02*
X011226Y014763D01*
X011225Y014921D02*
X012717Y014921D01*
X012495Y015080D02*
X011223Y015080D01*
X011221Y015238D02*
X012420Y015238D01*
X012409Y015397D02*
X011219Y015397D01*
X011217Y015555D02*
X012454Y015555D01*
X012576Y015714D02*
X011215Y015714D01*
X011213Y015873D02*
X014681Y015873D01*
X014694Y015873D02*
X023997Y015873D01*
X023885Y015714D02*
X014693Y015714D01*
X014681Y015714D02*
X014162Y015714D01*
X014284Y015555D02*
X014681Y015555D01*
X014692Y015555D02*
X023798Y015555D01*
X023755Y015397D02*
X014691Y015397D01*
X014681Y015397D02*
X014329Y015397D01*
X014318Y015238D02*
X014681Y015238D01*
X014690Y015238D02*
X023726Y015238D01*
X023726Y015080D02*
X017211Y015080D01*
X017398Y014921D02*
X023747Y014921D01*
X023790Y014763D02*
X017441Y014763D01*
X017413Y014604D02*
X023867Y014604D01*
X023967Y014446D02*
X017292Y014446D01*
X016952Y015080D02*
X014690Y015080D01*
X014681Y015080D02*
X014243Y015080D01*
X013495Y015080D02*
X013243Y015080D01*
X013318Y015238D02*
X013420Y015238D01*
X013409Y015397D02*
X013329Y015397D01*
X013284Y015555D02*
X013454Y015555D01*
X013576Y015714D02*
X013162Y015714D01*
X013129Y015966D02*
X012960Y015896D01*
X012777Y015896D01*
X012608Y015966D01*
X012479Y016096D01*
X012409Y016265D01*
X012409Y016448D01*
X012479Y016617D01*
X012608Y016746D01*
X012777Y016816D01*
X012960Y016816D01*
X013129Y016746D01*
X013259Y016617D01*
X013329Y016448D01*
X013329Y016265D01*
X013259Y016096D01*
X013129Y015966D01*
X013194Y016031D02*
X013515Y016031D01*
X013462Y016084D02*
X013597Y015949D01*
X013773Y015876D01*
X013849Y015876D01*
X013849Y016336D01*
X013889Y016336D01*
X013889Y015876D01*
X013964Y015876D01*
X014141Y015949D01*
X014276Y016084D01*
X014349Y016261D01*
X014349Y016336D01*
X013889Y016336D01*
X013889Y016376D01*
X014349Y016376D01*
X014349Y016452D01*
X014276Y016628D01*
X014141Y016763D01*
X013964Y016836D01*
X013889Y016836D01*
X013889Y016377D01*
X013849Y016377D01*
X013849Y016836D01*
X013773Y016836D01*
X013597Y016763D01*
X013462Y016628D01*
X013389Y016452D01*
X013389Y016376D01*
X013849Y016376D01*
X013849Y016336D01*
X013389Y016336D01*
X013389Y016261D01*
X013462Y016084D01*
X013418Y016190D02*
X013298Y016190D01*
X013329Y016348D02*
X013849Y016348D01*
X013889Y016348D02*
X014681Y016348D01*
X014696Y016348D02*
X015838Y016348D01*
X015796Y016451D02*
X015896Y016209D01*
X016081Y016024D01*
X016322Y015924D01*
X016584Y015924D01*
X016825Y016024D01*
X017010Y016209D01*
X017110Y016451D01*
X017110Y016712D01*
X017010Y016954D01*
X016825Y017138D01*
X016584Y017239D01*
X016322Y017239D01*
X016081Y017138D01*
X015896Y016954D01*
X015796Y016712D01*
X015796Y016451D01*
X015796Y016507D02*
X014697Y016507D01*
X014681Y016507D02*
X014326Y016507D01*
X014239Y016665D02*
X014681Y016665D01*
X014697Y016665D02*
X015796Y016665D01*
X015842Y016824D02*
X014698Y016824D01*
X014681Y016824D02*
X013995Y016824D01*
X013964Y016876D02*
X013889Y016876D01*
X013889Y017336D01*
X013849Y017336D01*
X013849Y016876D01*
X013773Y016876D01*
X013597Y016949D01*
X013462Y017084D01*
X013389Y017261D01*
X013389Y017336D01*
X013849Y017336D01*
X013849Y017376D01*
X013389Y017376D01*
X013389Y017452D01*
X013462Y017628D01*
X013597Y017763D01*
X013773Y017836D01*
X013849Y017836D01*
X013849Y017377D01*
X013889Y017377D01*
X013889Y017836D01*
X013964Y017836D01*
X014141Y017763D01*
X014276Y017628D01*
X014349Y017452D01*
X014349Y017376D01*
X013889Y017376D01*
X013889Y017336D01*
X014349Y017336D01*
X014349Y017261D01*
X014276Y017084D01*
X014141Y016949D01*
X013964Y016876D01*
X013889Y016824D02*
X013849Y016824D01*
X013743Y016824D02*
X011202Y016824D01*
X011200Y016982D02*
X012592Y016982D01*
X012608Y016966D02*
X012777Y016896D01*
X012960Y016896D01*
X013129Y016966D01*
X013259Y017096D01*
X013329Y017265D01*
X013329Y017448D01*
X013259Y017617D01*
X013129Y017746D01*
X012960Y017816D01*
X012777Y017816D01*
X012608Y017746D01*
X012479Y017617D01*
X012409Y017448D01*
X012409Y017265D01*
X012479Y017096D01*
X012608Y016966D01*
X012460Y017141D02*
X011198Y017141D01*
X011196Y017299D02*
X012409Y017299D01*
X012413Y017458D02*
X011194Y017458D01*
X011192Y017617D02*
X012479Y017617D01*
X012678Y017775D02*
X011190Y017775D01*
X011188Y017934D02*
X014681Y017934D01*
X014704Y017934D02*
X023359Y017934D01*
X023200Y017775D02*
X014703Y017775D01*
X014681Y017775D02*
X014112Y017775D01*
X013889Y017775D02*
X013849Y017775D01*
X013849Y017617D02*
X013889Y017617D01*
X013889Y017458D02*
X013849Y017458D01*
X013849Y017299D02*
X013889Y017299D01*
X013889Y017141D02*
X013849Y017141D01*
X013849Y016982D02*
X013889Y016982D01*
X014174Y016982D02*
X014681Y016982D01*
X014699Y016982D02*
X015924Y016982D01*
X016086Y017141D02*
X014700Y017141D01*
X014681Y017141D02*
X014299Y017141D01*
X014349Y017299D02*
X014681Y017299D01*
X014700Y017299D02*
X020329Y017299D01*
X020327Y017299D02*
X020226Y017198D01*
X020171Y017065D01*
X020171Y016922D01*
X020226Y016790D01*
X020327Y016689D01*
X020460Y016634D01*
X020603Y016634D01*
X020735Y016689D01*
X020837Y016790D01*
X020891Y016922D01*
X020891Y017065D01*
X020837Y017198D01*
X020735Y017299D01*
X020603Y017354D01*
X020460Y017354D01*
X020327Y017299D01*
X020203Y017141D02*
X018551Y017141D01*
X018557Y017138D02*
X018316Y017239D01*
X018054Y017239D01*
X017813Y017138D01*
X017628Y016954D01*
X017528Y016712D01*
X017528Y016451D01*
X017628Y016209D01*
X017813Y016024D01*
X018054Y015924D01*
X018316Y015924D01*
X018557Y016024D01*
X018742Y016209D01*
X018842Y016451D01*
X018842Y016712D01*
X018742Y016954D01*
X018557Y017138D01*
X018713Y016982D02*
X020171Y016982D01*
X020212Y016824D02*
X018796Y016824D01*
X018842Y016665D02*
X020384Y016665D01*
X020679Y016665D02*
X023053Y016665D01*
X023010Y016824D02*
X020851Y016824D01*
X020891Y016982D02*
X022976Y016982D01*
X022976Y017141D02*
X020860Y017141D01*
X020734Y017299D02*
X022993Y017299D01*
X023035Y017458D02*
X014701Y017458D01*
X014681Y017458D02*
X014346Y017458D01*
X014281Y017617D02*
X014681Y017617D01*
X014702Y017617D02*
X023107Y017617D01*
X023601Y018092D02*
X014704Y018092D01*
X014681Y018092D02*
X011187Y018092D01*
X011185Y018251D02*
X014681Y018251D01*
X014705Y018251D02*
X025701Y018251D01*
X025701Y018409D02*
X014706Y018409D01*
X014681Y018409D02*
X011183Y018409D01*
X010056Y017934D02*
X003161Y017934D01*
X003161Y017775D02*
X010056Y017775D01*
X010056Y017617D02*
X003161Y017617D01*
X003161Y017458D02*
X010056Y017458D01*
X010056Y017299D02*
X003161Y017299D01*
X003119Y017141D02*
X010056Y017141D01*
X010056Y016982D02*
X003076Y016982D01*
X003003Y016824D02*
X010056Y016824D01*
X010056Y016665D02*
X002912Y016665D01*
X002787Y016507D02*
X010056Y016507D01*
X010056Y016348D02*
X002629Y016348D01*
X002382Y016190D02*
X003665Y016190D01*
X003605Y016174D02*
X003353Y016028D01*
X003147Y015822D01*
X003002Y015570D01*
X002926Y015289D01*
X002926Y014998D01*
X003002Y014717D01*
X003147Y014465D01*
X003353Y014260D01*
X003605Y014114D01*
X003886Y014039D01*
X004177Y014039D01*
X004458Y014114D01*
X004710Y014260D01*
X004916Y014465D01*
X005061Y014717D01*
X005136Y014998D01*
X005136Y015289D01*
X005061Y015570D01*
X004916Y015822D01*
X004710Y016028D01*
X004458Y016174D01*
X004177Y016249D01*
X003886Y016249D01*
X003605Y016174D01*
X003358Y016031D02*
X001941Y016031D01*
X002998Y015555D02*
X000681Y015555D01*
X000681Y015397D02*
X002955Y015397D01*
X002926Y015238D02*
X000681Y015238D01*
X000681Y015080D02*
X002926Y015080D01*
X002947Y014921D02*
X000681Y014921D01*
X000681Y014763D02*
X002990Y014763D01*
X003067Y014604D02*
X000681Y014604D01*
X000681Y014446D02*
X003167Y014446D01*
X003325Y014287D02*
X000681Y014287D01*
X000681Y014129D02*
X003580Y014129D01*
X004483Y014129D02*
X010056Y014129D01*
X010056Y014287D02*
X004737Y014287D01*
X004896Y014446D02*
X010056Y014446D01*
X010056Y014604D02*
X008639Y014604D01*
X008631Y014596D02*
X008754Y014720D01*
X008821Y014881D01*
X008821Y015056D01*
X008754Y015218D01*
X008631Y015342D01*
X008469Y015409D01*
X008294Y015409D01*
X008132Y015342D01*
X008008Y015218D01*
X007941Y015056D01*
X007941Y014881D01*
X008008Y014720D01*
X008132Y014596D01*
X008294Y014529D01*
X008469Y014529D01*
X008631Y014596D01*
X008772Y014763D02*
X010056Y014763D01*
X010056Y014921D02*
X008821Y014921D01*
X008812Y015080D02*
X010056Y015080D01*
X010056Y015238D02*
X008734Y015238D01*
X008498Y015397D02*
X010056Y015397D01*
X010056Y015555D02*
X005065Y015555D01*
X005108Y015397D02*
X006265Y015397D01*
X006294Y015409D02*
X006132Y015342D01*
X006008Y015218D01*
X005941Y015056D01*
X005941Y014881D01*
X006008Y014720D01*
X006132Y014596D01*
X006294Y014529D01*
X006469Y014529D01*
X006631Y014596D01*
X006754Y014720D01*
X006821Y014881D01*
X006821Y015056D01*
X006754Y015218D01*
X006631Y015342D01*
X006469Y015409D01*
X006294Y015409D01*
X006498Y015397D02*
X007265Y015397D01*
X007294Y015409D02*
X007132Y015342D01*
X007008Y015218D01*
X006941Y015056D01*
X006941Y014881D01*
X007008Y014720D01*
X007132Y014596D01*
X007294Y014529D01*
X007469Y014529D01*
X007631Y014596D01*
X007754Y014720D01*
X007821Y014881D01*
X007821Y015056D01*
X007754Y015218D01*
X007631Y015342D01*
X007469Y015409D01*
X007294Y015409D01*
X007498Y015397D02*
X008265Y015397D01*
X008029Y015238D02*
X007734Y015238D01*
X007812Y015080D02*
X007951Y015080D01*
X007941Y014921D02*
X007821Y014921D01*
X007772Y014763D02*
X007991Y014763D01*
X008124Y014604D02*
X007639Y014604D01*
X007124Y014604D02*
X006639Y014604D01*
X006772Y014763D02*
X006991Y014763D01*
X006941Y014921D02*
X006821Y014921D01*
X006812Y015080D02*
X006951Y015080D01*
X007029Y015238D02*
X006734Y015238D01*
X006029Y015238D02*
X005136Y015238D01*
X005136Y015080D02*
X005951Y015080D01*
X005941Y014921D02*
X005116Y014921D01*
X005073Y014763D02*
X005991Y014763D01*
X006124Y014604D02*
X004996Y014604D01*
X004978Y015714D02*
X010056Y015714D01*
X010056Y015873D02*
X004865Y015873D01*
X004705Y016031D02*
X010056Y016031D01*
X010056Y016190D02*
X004398Y016190D01*
X003197Y015873D02*
X000681Y015873D01*
X000681Y015714D02*
X003085Y015714D01*
X000681Y013970D02*
X009524Y013970D01*
X009446Y013811D02*
X000681Y013811D01*
X000681Y013653D02*
X009454Y013653D01*
X009547Y013494D02*
X000681Y013494D01*
X000681Y013336D02*
X010056Y013336D01*
X010056Y013177D02*
X000681Y013177D01*
X000681Y013019D02*
X010056Y013019D01*
X010056Y012860D02*
X006335Y012860D01*
X006398Y012834D02*
X006223Y012906D01*
X006034Y012906D01*
X005860Y012834D01*
X005726Y012700D01*
X005654Y012526D01*
X005654Y012337D01*
X005726Y012162D01*
X005860Y012029D01*
X006034Y011956D01*
X006223Y011956D01*
X006398Y012029D01*
X006532Y012162D01*
X006604Y012337D01*
X006604Y012526D01*
X006532Y012700D01*
X006398Y012834D01*
X006530Y012702D02*
X010056Y012702D01*
X010056Y012543D02*
X006597Y012543D01*
X006604Y012385D02*
X010056Y012385D01*
X010056Y012226D02*
X006558Y012226D01*
X006437Y012068D02*
X010056Y012068D01*
X010056Y011909D02*
X004319Y011909D01*
X004319Y011982D02*
X004246Y012254D01*
X004105Y012498D01*
X003906Y012698D01*
X003662Y012838D01*
X003390Y012911D01*
X003108Y012911D01*
X002836Y012838D01*
X002592Y012698D01*
X002393Y012498D01*
X002252Y012254D01*
X002179Y011982D01*
X002179Y011701D01*
X002252Y011428D01*
X002393Y011184D01*
X002592Y010985D01*
X002836Y010844D01*
X003108Y010771D01*
X003390Y010771D01*
X003662Y010844D01*
X003906Y010985D01*
X004105Y011184D01*
X004246Y011428D01*
X004319Y011701D01*
X004319Y011982D01*
X004296Y012068D02*
X004613Y012068D01*
X004669Y012012D02*
X004529Y012151D01*
X004454Y012333D01*
X004454Y012406D01*
X004924Y012406D01*
X004974Y012406D01*
X004974Y011936D01*
X005047Y011936D01*
X005229Y012012D01*
X005369Y012151D01*
X005444Y012333D01*
X005444Y012406D01*
X004974Y012406D01*
X004974Y012456D01*
X005444Y012456D01*
X005444Y012530D01*
X005369Y012712D01*
X005229Y012851D01*
X005047Y012926D01*
X004974Y012926D01*
X004974Y012457D01*
X004924Y012457D01*
X004924Y012926D01*
X004850Y012926D01*
X004669Y012851D01*
X004529Y012712D01*
X004454Y012530D01*
X004454Y012456D01*
X004924Y012456D01*
X004924Y012406D01*
X004924Y011936D01*
X004850Y011936D01*
X004669Y012012D01*
X004924Y012068D02*
X004974Y012068D01*
X004974Y012226D02*
X004924Y012226D01*
X004924Y012385D02*
X004974Y012385D01*
X004974Y012543D02*
X004924Y012543D01*
X004924Y012702D02*
X004974Y012702D01*
X004974Y012860D02*
X004924Y012860D01*
X004691Y012860D02*
X003581Y012860D01*
X003899Y012702D02*
X004525Y012702D01*
X004459Y012543D02*
X004060Y012543D01*
X004171Y012385D02*
X004454Y012385D01*
X004498Y012226D02*
X004254Y012226D01*
X004319Y011750D02*
X010056Y011750D01*
X010056Y011592D02*
X010032Y011592D01*
X009831Y011592D02*
X006460Y011592D01*
X006398Y011654D02*
X006223Y011726D01*
X006034Y011726D01*
X005860Y011654D01*
X005726Y011520D01*
X005654Y011346D01*
X005654Y011157D01*
X005726Y010982D01*
X005860Y010849D01*
X006034Y010776D01*
X006223Y010776D01*
X006398Y010849D01*
X006532Y010982D01*
X006604Y011157D01*
X006604Y011346D01*
X006532Y011520D01*
X006398Y011654D01*
X006568Y011433D02*
X009620Y011433D01*
X009571Y011275D02*
X006604Y011275D01*
X006587Y011116D02*
X009595Y011116D01*
X009708Y010958D02*
X006507Y010958D01*
X006278Y010799D02*
X010056Y010799D01*
X010056Y010641D02*
X000681Y010641D01*
X000681Y010799D02*
X003004Y010799D01*
X002639Y010958D02*
X000681Y010958D01*
X000681Y011116D02*
X002461Y011116D01*
X002341Y011275D02*
X000681Y011275D01*
X000681Y011433D02*
X002251Y011433D01*
X002208Y011592D02*
X000681Y011592D01*
X000681Y011750D02*
X002179Y011750D01*
X002179Y011909D02*
X000681Y011909D01*
X000681Y012068D02*
X002202Y012068D01*
X002244Y012226D02*
X000681Y012226D01*
X000681Y012385D02*
X002327Y012385D01*
X002437Y012543D02*
X000681Y012543D01*
X000681Y012702D02*
X002599Y012702D01*
X002917Y012860D02*
X000681Y012860D01*
X003493Y010799D02*
X004799Y010799D01*
X004854Y010776D02*
X005043Y010776D01*
X005218Y010849D01*
X005352Y010982D01*
X005424Y011157D01*
X005424Y011346D01*
X005352Y011520D01*
X005218Y011654D01*
X005043Y011726D01*
X004854Y011726D01*
X004680Y011654D01*
X004546Y011520D01*
X004474Y011346D01*
X004474Y011157D01*
X004546Y010982D01*
X004680Y010849D01*
X004854Y010776D01*
X005098Y010799D02*
X005979Y010799D01*
X005751Y010958D02*
X005327Y010958D01*
X005407Y011116D02*
X005671Y011116D01*
X005654Y011275D02*
X005424Y011275D01*
X005388Y011433D02*
X005690Y011433D01*
X005798Y011592D02*
X005280Y011592D01*
X005285Y012068D02*
X005821Y012068D01*
X005700Y012226D02*
X005400Y012226D01*
X005444Y012385D02*
X005654Y012385D01*
X005661Y012543D02*
X005438Y012543D01*
X005373Y012702D02*
X005727Y012702D01*
X005923Y012860D02*
X005207Y012860D01*
X004618Y011592D02*
X004290Y011592D01*
X004247Y011433D02*
X004510Y011433D01*
X004474Y011275D02*
X004157Y011275D01*
X004037Y011116D02*
X004491Y011116D01*
X004571Y010958D02*
X003858Y010958D01*
X000681Y010482D02*
X008786Y010482D01*
X008751Y010448D02*
X008696Y010316D01*
X008696Y010172D01*
X008751Y010040D01*
X008829Y009963D01*
X008751Y009885D01*
X008696Y009753D01*
X008696Y009610D01*
X008751Y009477D01*
X008852Y009376D01*
X008985Y009321D01*
X009128Y009321D01*
X009260Y009376D01*
X009362Y009477D01*
X009416Y009610D01*
X009416Y009753D01*
X009362Y009885D01*
X009284Y009963D01*
X009362Y010040D01*
X009416Y010172D01*
X009416Y010316D01*
X009362Y010448D01*
X009260Y010549D01*
X009128Y010604D01*
X008985Y010604D01*
X008852Y010549D01*
X008751Y010448D01*
X008700Y010324D02*
X000681Y010324D01*
X000681Y010165D02*
X007866Y010165D01*
X007827Y010149D02*
X007960Y010204D01*
X008103Y010204D01*
X008235Y010149D01*
X008337Y010048D01*
X008391Y009915D01*
X008391Y009772D01*
X008337Y009640D01*
X008235Y009539D01*
X008103Y009484D01*
X007960Y009484D01*
X007827Y009539D01*
X007726Y009640D01*
X007671Y009772D01*
X007671Y009915D01*
X007726Y010048D01*
X007827Y010149D01*
X007709Y010006D02*
X000681Y010006D01*
X000681Y009848D02*
X007671Y009848D01*
X007706Y009689D02*
X000681Y009689D01*
X000681Y009531D02*
X007846Y009531D01*
X008216Y009531D02*
X008729Y009531D01*
X008696Y009689D02*
X008357Y009689D01*
X008391Y009848D02*
X008736Y009848D01*
X008785Y010006D02*
X008354Y010006D01*
X008197Y010165D02*
X008699Y010165D01*
X009328Y010006D02*
X010056Y010006D01*
X010056Y009848D02*
X009377Y009848D01*
X009416Y009689D02*
X010056Y009689D01*
X010056Y009531D02*
X009384Y009531D01*
X009251Y009372D02*
X010056Y009372D01*
X010056Y009214D02*
X000681Y009214D01*
X000681Y009372D02*
X008862Y009372D01*
X008772Y008876D02*
X008591Y008876D01*
X008423Y008806D01*
X008294Y008678D01*
X008225Y008510D01*
X008225Y008328D01*
X008294Y008160D01*
X008423Y008032D01*
X008591Y007962D01*
X008772Y007962D01*
X008940Y008032D01*
X009069Y008160D01*
X009138Y008328D01*
X009138Y008510D01*
X009069Y008678D01*
X008940Y008806D01*
X008772Y008876D01*
X009008Y008738D02*
X009355Y008738D01*
X009254Y008580D02*
X009109Y008580D01*
X009138Y008421D02*
X009225Y008421D01*
X009252Y008262D02*
X009111Y008262D01*
X009013Y008104D02*
X009350Y008104D01*
X010013Y008104D02*
X010056Y008104D01*
X010056Y007945D02*
X007784Y007945D01*
X007776Y007942D02*
X007952Y008015D01*
X008086Y008149D01*
X008158Y008324D01*
X008158Y008400D01*
X007700Y008400D01*
X007700Y007942D01*
X007776Y007942D01*
X007700Y007945D02*
X007663Y007945D01*
X007663Y007942D02*
X007663Y008400D01*
X007700Y008400D01*
X007700Y008437D01*
X008158Y008437D01*
X008158Y008514D01*
X008086Y008689D01*
X007952Y008823D01*
X007776Y008896D01*
X007700Y008896D01*
X007700Y008438D01*
X007663Y008438D01*
X007663Y008896D01*
X007587Y008896D01*
X007411Y008823D01*
X007277Y008689D01*
X007205Y008514D01*
X007205Y008437D01*
X007663Y008437D01*
X007663Y008400D01*
X007205Y008400D01*
X007205Y008324D01*
X007277Y008149D01*
X007411Y008015D01*
X007587Y007942D01*
X007663Y007942D01*
X007578Y007945D02*
X006452Y007945D01*
X006386Y007879D02*
X006519Y008012D01*
X006591Y008187D01*
X006591Y008376D01*
X006519Y008550D01*
X006386Y008684D01*
X006211Y008756D01*
X006022Y008756D01*
X005847Y008684D01*
X005714Y008550D01*
X005641Y008376D01*
X005641Y008187D01*
X005714Y008012D01*
X005847Y007879D01*
X006022Y007806D01*
X006211Y007806D01*
X006386Y007879D01*
X006557Y008104D02*
X007322Y008104D01*
X007230Y008262D02*
X006591Y008262D01*
X006573Y008421D02*
X007663Y008421D01*
X007700Y008421D02*
X008225Y008421D01*
X008252Y008262D02*
X008133Y008262D01*
X008041Y008104D02*
X008350Y008104D01*
X008254Y008580D02*
X008131Y008580D01*
X008037Y008738D02*
X008355Y008738D01*
X007700Y008738D02*
X007663Y008738D01*
X007663Y008580D02*
X007700Y008580D01*
X007700Y008262D02*
X007663Y008262D01*
X007663Y008104D02*
X007700Y008104D01*
X007232Y008580D02*
X006490Y008580D01*
X006255Y008738D02*
X007326Y008738D01*
X005978Y008738D02*
X005127Y008738D01*
X005217Y008701D02*
X005035Y008776D01*
X004961Y008776D01*
X004961Y008307D01*
X004911Y008307D01*
X004911Y008776D01*
X004838Y008776D01*
X004656Y008701D01*
X004517Y008562D01*
X004441Y008380D01*
X004441Y008306D01*
X004911Y008306D01*
X004911Y008256D01*
X004441Y008256D01*
X004441Y008183D01*
X004517Y008001D01*
X004656Y007862D01*
X004838Y007786D01*
X004911Y007786D01*
X004911Y008256D01*
X004961Y008256D01*
X004961Y007786D01*
X005035Y007786D01*
X005217Y007862D01*
X005356Y008001D01*
X005431Y008183D01*
X005431Y008256D01*
X004962Y008256D01*
X004962Y008306D01*
X005431Y008306D01*
X005431Y008380D01*
X005356Y008562D01*
X005217Y008701D01*
X005338Y008580D02*
X005743Y008580D01*
X005660Y008421D02*
X005414Y008421D01*
X005641Y008262D02*
X004962Y008262D01*
X004911Y008262D02*
X004142Y008262D01*
X004093Y008348D02*
X003893Y008548D01*
X003649Y008688D01*
X003377Y008761D01*
X003096Y008761D01*
X002823Y008688D01*
X002579Y008548D01*
X002380Y008348D01*
X002239Y008104D01*
X000681Y008104D01*
X000681Y008262D02*
X002331Y008262D01*
X002239Y008104D02*
X002166Y007832D01*
X002166Y007550D01*
X002239Y007278D01*
X002380Y007034D01*
X002579Y006835D01*
X002823Y006694D01*
X003096Y006621D01*
X003377Y006621D01*
X003649Y006694D01*
X003893Y006835D01*
X004093Y007034D01*
X004234Y007278D01*
X004306Y007550D01*
X004306Y007832D01*
X004234Y008104D01*
X004474Y008104D01*
X004572Y007945D02*
X004276Y007945D01*
X004306Y007787D02*
X004837Y007787D01*
X004911Y007787D02*
X004961Y007787D01*
X005036Y007787D02*
X010056Y007787D01*
X010056Y007628D02*
X004306Y007628D01*
X004285Y007470D02*
X004633Y007470D01*
X004667Y007504D02*
X004534Y007370D01*
X004461Y007196D01*
X004461Y007007D01*
X004534Y006832D01*
X004667Y006699D01*
X004842Y006626D01*
X005031Y006626D01*
X005206Y006699D01*
X005339Y006832D01*
X005411Y007007D01*
X005411Y007196D01*
X005339Y007370D01*
X005206Y007504D01*
X005031Y007576D01*
X004842Y007576D01*
X004667Y007504D01*
X004509Y007311D02*
X004242Y007311D01*
X004161Y007153D02*
X004461Y007153D01*
X004467Y006994D02*
X004052Y006994D01*
X003894Y006836D02*
X004532Y006836D01*
X004720Y006677D02*
X003585Y006677D01*
X002888Y006677D02*
X000681Y006677D01*
X000681Y006519D02*
X010056Y006519D01*
X010056Y006677D02*
X006333Y006677D01*
X006386Y006699D02*
X006519Y006832D01*
X006591Y007007D01*
X006591Y007196D01*
X006519Y007370D01*
X006386Y007504D01*
X006211Y007576D01*
X006022Y007576D01*
X005847Y007504D01*
X005714Y007370D01*
X005641Y007196D01*
X005641Y007007D01*
X005714Y006832D01*
X005847Y006699D01*
X006022Y006626D01*
X006211Y006626D01*
X006386Y006699D01*
X006520Y006836D02*
X010056Y006836D01*
X010056Y006994D02*
X006586Y006994D01*
X006591Y007153D02*
X010056Y007153D01*
X010056Y007311D02*
X006544Y007311D01*
X006420Y007470D02*
X010056Y007470D01*
X011192Y007470D02*
X022478Y007470D01*
X022546Y007311D02*
X011190Y007311D01*
X011189Y007153D02*
X022396Y007153D01*
X022331Y006994D02*
X011188Y006994D01*
X011186Y006836D02*
X022319Y006836D01*
X022348Y006677D02*
X021868Y006677D01*
X022049Y006519D02*
X022429Y006519D01*
X022630Y006360D02*
X022091Y006360D01*
X021595Y006677D02*
X011185Y006677D01*
X011183Y006519D02*
X021414Y006519D01*
X021371Y006360D02*
X011182Y006360D01*
X011183Y006201D02*
X021401Y006201D01*
X021523Y006043D02*
X011185Y006043D01*
X010056Y006043D02*
X000681Y006043D01*
X000681Y006201D02*
X010056Y006201D01*
X010056Y006360D02*
X000681Y006360D01*
X000681Y006836D02*
X002579Y006836D01*
X002420Y006994D02*
X000681Y006994D01*
X000681Y007153D02*
X002312Y007153D01*
X002231Y007311D02*
X000681Y007311D01*
X000681Y007470D02*
X002188Y007470D01*
X002166Y007628D02*
X000681Y007628D01*
X000681Y007787D02*
X002166Y007787D01*
X002197Y007945D02*
X000681Y007945D01*
X000681Y008421D02*
X002453Y008421D01*
X002635Y008580D02*
X000681Y008580D01*
X000681Y008738D02*
X003009Y008738D01*
X003464Y008738D02*
X004746Y008738D01*
X004911Y008738D02*
X004961Y008738D01*
X004961Y008580D02*
X004911Y008580D01*
X004911Y008421D02*
X004961Y008421D01*
X004961Y008104D02*
X004911Y008104D01*
X004911Y007945D02*
X004961Y007945D01*
X005300Y007945D02*
X005781Y007945D01*
X005676Y008104D02*
X005399Y008104D01*
X004535Y008580D02*
X003838Y008580D01*
X004020Y008421D02*
X004459Y008421D01*
X004093Y008348D02*
X004234Y008104D01*
X005240Y007470D02*
X005813Y007470D01*
X005689Y007311D02*
X005364Y007311D01*
X005411Y007153D02*
X005641Y007153D01*
X005647Y006994D02*
X005406Y006994D01*
X005340Y006836D02*
X005712Y006836D01*
X005900Y006677D02*
X005153Y006677D01*
X004458Y005374D02*
X004177Y005449D01*
X003886Y005449D01*
X003605Y005374D01*
X003353Y005228D01*
X003147Y005022D01*
X003002Y004770D01*
X002926Y004489D01*
X002926Y004198D01*
X003002Y003917D01*
X003147Y003665D01*
X003353Y003460D01*
X003605Y003314D01*
X003886Y003239D01*
X004177Y003239D01*
X004458Y003314D01*
X004710Y003460D01*
X004916Y003665D01*
X005061Y003917D01*
X005136Y004198D01*
X005136Y004489D01*
X005061Y004770D01*
X004916Y005022D01*
X004710Y005228D01*
X004458Y005374D01*
X004327Y005409D02*
X010056Y005409D01*
X010056Y005567D02*
X000681Y005567D01*
X000681Y005409D02*
X003736Y005409D01*
X003391Y005250D02*
X000681Y005250D01*
X000681Y005092D02*
X003216Y005092D01*
X003096Y004933D02*
X000681Y004933D01*
X000681Y004775D02*
X003004Y004775D01*
X002960Y004616D02*
X000681Y004616D01*
X000681Y004457D02*
X002926Y004457D01*
X002926Y004299D02*
X000681Y004299D01*
X000681Y004140D02*
X002942Y004140D01*
X002984Y003982D02*
X000681Y003982D01*
X000681Y003823D02*
X003056Y003823D01*
X003148Y003665D02*
X000681Y003665D01*
X000681Y003506D02*
X003306Y003506D01*
X003547Y003348D02*
X002296Y003348D01*
X002571Y003189D02*
X010056Y003189D01*
X010056Y003031D02*
X002738Y003031D01*
X002883Y002872D02*
X010056Y002872D01*
X010056Y003348D02*
X004516Y003348D01*
X004756Y003506D02*
X010056Y003506D01*
X010056Y003665D02*
X004915Y003665D01*
X005007Y003823D02*
X010056Y003823D01*
X010056Y003982D02*
X007989Y003982D01*
X007993Y003983D02*
X008117Y004107D01*
X008184Y004269D01*
X008184Y004444D01*
X008117Y004606D01*
X007993Y004729D01*
X007831Y004796D01*
X007656Y004796D01*
X007495Y004729D01*
X007371Y004606D01*
X007304Y004444D01*
X007304Y004269D01*
X007371Y004107D01*
X007495Y003983D01*
X007656Y003916D01*
X007831Y003916D01*
X007993Y003983D01*
X008131Y004140D02*
X010056Y004140D01*
X010056Y004299D02*
X008184Y004299D01*
X008178Y004457D02*
X010056Y004457D01*
X010056Y004616D02*
X008107Y004616D01*
X007884Y004775D02*
X010056Y004775D01*
X010056Y004933D02*
X004967Y004933D01*
X005059Y004775D02*
X006604Y004775D01*
X006656Y004796D02*
X006495Y004729D01*
X006371Y004606D01*
X006304Y004444D01*
X006304Y004269D01*
X006371Y004107D01*
X006495Y003983D01*
X006656Y003916D01*
X006831Y003916D01*
X006993Y003983D01*
X007117Y004107D01*
X007184Y004269D01*
X007184Y004444D01*
X007117Y004606D01*
X006993Y004729D01*
X006831Y004796D01*
X006656Y004796D01*
X006884Y004775D02*
X007604Y004775D01*
X007381Y004616D02*
X007107Y004616D01*
X007178Y004457D02*
X007310Y004457D01*
X007304Y004299D02*
X007184Y004299D01*
X007131Y004140D02*
X007357Y004140D01*
X007498Y003982D02*
X006989Y003982D01*
X006498Y003982D02*
X005078Y003982D01*
X005121Y004140D02*
X006357Y004140D01*
X006304Y004299D02*
X005136Y004299D01*
X005136Y004457D02*
X006310Y004457D01*
X006381Y004616D02*
X005102Y004616D01*
X004846Y005092D02*
X010056Y005092D01*
X010056Y005250D02*
X004672Y005250D01*
X000681Y005726D02*
X010056Y005726D01*
X010056Y005884D02*
X000681Y005884D01*
X000681Y008897D02*
X010056Y008897D01*
X010056Y009055D02*
X000681Y009055D01*
X009327Y010482D02*
X010056Y010482D01*
X010056Y010324D02*
X009413Y010324D01*
X009413Y010165D02*
X010056Y010165D01*
X011216Y010165D02*
X016445Y010165D01*
X016421Y010222D02*
X016476Y010090D01*
X016547Y010019D01*
X016476Y009948D01*
X016421Y009815D01*
X016421Y009672D01*
X016476Y009540D01*
X016577Y009439D01*
X016710Y009384D01*
X016853Y009384D01*
X016985Y009439D01*
X017087Y009540D01*
X017141Y009672D01*
X017141Y009815D01*
X017087Y009948D01*
X017015Y010019D01*
X017087Y010090D01*
X017141Y010222D01*
X017141Y010365D01*
X017087Y010498D01*
X016985Y010599D01*
X016853Y010654D01*
X016710Y010654D01*
X016577Y010599D01*
X016476Y010498D01*
X016421Y010365D01*
X016421Y010222D01*
X016421Y010324D02*
X011217Y010324D01*
X011219Y010482D02*
X016470Y010482D01*
X016678Y010641D02*
X011220Y010641D01*
X011222Y010799D02*
X018771Y010799D01*
X018789Y010958D02*
X011223Y010958D01*
X011224Y011116D02*
X018895Y011116D01*
X019265Y011275D02*
X011226Y011275D01*
X011227Y011433D02*
X017883Y011433D01*
X017821Y011592D02*
X011229Y011592D01*
X011230Y011750D02*
X014066Y011750D01*
X014077Y011739D02*
X014210Y011684D01*
X014353Y011684D01*
X014485Y011739D01*
X014587Y011840D01*
X014641Y011972D01*
X014641Y012115D01*
X014587Y012248D01*
X014485Y012349D01*
X014353Y012404D01*
X014210Y012404D01*
X014077Y012349D01*
X013976Y012248D01*
X013921Y012115D01*
X013921Y011972D01*
X013976Y011840D01*
X014077Y011739D01*
X013948Y011909D02*
X011231Y011909D01*
X011233Y012068D02*
X013079Y012068D01*
X013027Y012089D02*
X013160Y012034D01*
X013303Y012034D01*
X013435Y012089D01*
X013537Y012190D01*
X013591Y012322D01*
X013591Y012465D01*
X013537Y012598D01*
X013435Y012699D01*
X013303Y012754D01*
X013160Y012754D01*
X013027Y012699D01*
X012926Y012598D01*
X012871Y012465D01*
X012871Y012322D01*
X012926Y012190D01*
X013027Y012089D01*
X012911Y012226D02*
X011234Y012226D01*
X011236Y012385D02*
X012871Y012385D01*
X012904Y012543D02*
X011237Y012543D01*
X011239Y012702D02*
X013034Y012702D01*
X013096Y012860D02*
X011240Y012860D01*
X011241Y013019D02*
X012914Y013019D01*
X012871Y013122D02*
X012871Y013265D01*
X012901Y013336D01*
X013440Y013494D02*
X014681Y013494D01*
X014682Y013494D02*
X019325Y013494D01*
X019271Y013336D02*
X013562Y013336D01*
X013591Y013177D02*
X019218Y013177D01*
X019059Y013019D02*
X016616Y013019D01*
X016637Y012998D02*
X016535Y013099D01*
X016403Y013154D01*
X016260Y013154D01*
X016127Y013099D01*
X016026Y012998D01*
X015971Y012865D01*
X015971Y012722D01*
X016026Y012590D01*
X016127Y012489D01*
X016260Y012434D01*
X016403Y012434D01*
X016535Y012489D01*
X016637Y012590D01*
X016691Y012722D01*
X016691Y012865D01*
X016637Y012998D01*
X016691Y012860D02*
X018901Y012860D01*
X018742Y012702D02*
X016683Y012702D01*
X016590Y012543D02*
X018584Y012543D01*
X018425Y012385D02*
X014399Y012385D01*
X014163Y012385D02*
X013591Y012385D01*
X013559Y012543D02*
X016073Y012543D01*
X015980Y012702D02*
X013429Y012702D01*
X013367Y012860D02*
X015971Y012860D01*
X016047Y013019D02*
X013549Y013019D01*
X013552Y012226D02*
X013967Y012226D01*
X013921Y012068D02*
X013384Y012068D01*
X014497Y011750D02*
X017836Y011750D01*
X017937Y011909D02*
X014615Y011909D01*
X014641Y012068D02*
X018108Y012068D01*
X018267Y012226D02*
X014596Y012226D01*
X016885Y010641D02*
X018826Y010641D01*
X019078Y010482D02*
X017093Y010482D01*
X017141Y010324D02*
X019071Y010324D01*
X018743Y010165D02*
X017118Y010165D01*
X017028Y010006D02*
X018671Y010006D01*
X018681Y009848D02*
X017128Y009848D01*
X017141Y009689D02*
X018777Y009689D01*
X019286Y009689D02*
X022343Y009689D01*
X022319Y009848D02*
X019381Y009848D01*
X019391Y010006D02*
X022336Y010006D01*
X022417Y009531D02*
X017077Y009531D01*
X016485Y009531D02*
X011210Y009531D01*
X011212Y009689D02*
X016421Y009689D01*
X016435Y009848D02*
X011213Y009848D01*
X011214Y010006D02*
X016535Y010006D01*
X015587Y009248D02*
X015485Y009349D01*
X015353Y009404D01*
X015210Y009404D01*
X015077Y009349D01*
X014976Y009248D01*
X014921Y009115D01*
X014921Y008972D01*
X014976Y008840D01*
X015077Y008739D01*
X015210Y008684D01*
X015353Y008684D01*
X015485Y008739D01*
X015587Y008840D01*
X015641Y008972D01*
X015641Y009115D01*
X015587Y009248D01*
X015601Y009214D02*
X022449Y009214D01*
X022356Y009055D02*
X019329Y009055D01*
X019285Y009099D02*
X019153Y009154D01*
X019010Y009154D01*
X018877Y009099D01*
X018776Y008998D01*
X018721Y008865D01*
X018721Y008722D01*
X018776Y008590D01*
X018877Y008489D01*
X019010Y008434D01*
X019153Y008434D01*
X019285Y008489D01*
X019387Y008590D01*
X019441Y008722D01*
X019441Y008865D01*
X019387Y008998D01*
X019285Y009099D01*
X019428Y008897D02*
X022319Y008897D01*
X022323Y008738D02*
X019441Y008738D01*
X019376Y008580D02*
X022388Y008580D01*
X022526Y008421D02*
X015138Y008421D01*
X015138Y008404D02*
X015138Y008510D01*
X015069Y008678D01*
X014940Y008806D01*
X014772Y008876D01*
X014591Y008876D01*
X014541Y008855D01*
X014541Y008865D01*
X014487Y008998D01*
X014385Y009099D01*
X014253Y009154D01*
X014110Y009154D01*
X014081Y009142D01*
X014037Y009248D01*
X013935Y009349D01*
X013803Y009404D01*
X013660Y009404D01*
X013527Y009349D01*
X013426Y009248D01*
X013371Y009115D01*
X013371Y008972D01*
X013426Y008840D01*
X013434Y008832D01*
X013411Y008823D01*
X013277Y008689D01*
X013205Y008514D01*
X013205Y008437D01*
X013663Y008437D01*
X013663Y008400D01*
X013700Y008400D01*
X013700Y007942D01*
X013776Y007942D01*
X013952Y008015D01*
X014086Y008149D01*
X014158Y008324D01*
X014158Y008400D01*
X013700Y008400D01*
X013700Y008437D01*
X014101Y008437D01*
X014110Y008434D01*
X014225Y008434D01*
X014225Y008328D01*
X014294Y008160D01*
X014423Y008032D01*
X014591Y007962D01*
X014772Y007962D01*
X014821Y007982D01*
X014821Y007972D01*
X014876Y007840D01*
X014977Y007739D01*
X015110Y007684D01*
X015253Y007684D01*
X015385Y007739D01*
X015487Y007840D01*
X015541Y007972D01*
X015541Y008115D01*
X015487Y008248D01*
X015385Y008349D01*
X015253Y008404D01*
X015138Y008404D01*
X015109Y008580D02*
X018787Y008580D01*
X018721Y008738D02*
X015484Y008738D01*
X015610Y008897D02*
X018734Y008897D01*
X018834Y009055D02*
X015641Y009055D01*
X015429Y009372D02*
X022601Y009372D01*
X022497Y008262D02*
X015472Y008262D01*
X015541Y008104D02*
X022376Y008104D01*
X022319Y007945D02*
X015530Y007945D01*
X015434Y007787D02*
X022319Y007787D01*
X022368Y007628D02*
X011193Y007628D01*
X011195Y007787D02*
X014929Y007787D01*
X014833Y007945D02*
X013784Y007945D01*
X013700Y007945D02*
X013663Y007945D01*
X013663Y007942D02*
X013663Y008400D01*
X013205Y008400D01*
X013205Y008324D01*
X013277Y008149D01*
X013411Y008015D01*
X013587Y007942D01*
X013663Y007942D01*
X013578Y007945D02*
X011196Y007945D01*
X011197Y008104D02*
X011350Y008104D01*
X011294Y008160D02*
X011225Y008328D01*
X011225Y008510D01*
X011294Y008678D01*
X011423Y008806D01*
X011591Y008876D01*
X011772Y008876D01*
X011940Y008806D01*
X012069Y008678D01*
X012138Y008510D01*
X012138Y008328D01*
X012069Y008160D01*
X011940Y008032D01*
X011772Y007962D01*
X011591Y007962D01*
X011423Y008032D01*
X011294Y008160D01*
X011252Y008262D02*
X011199Y008262D01*
X011200Y008421D02*
X011225Y008421D01*
X011202Y008580D02*
X011254Y008580D01*
X011203Y008738D02*
X011355Y008738D01*
X011205Y008897D02*
X013403Y008897D01*
X013371Y009055D02*
X011206Y009055D01*
X011207Y009214D02*
X013412Y009214D01*
X013584Y009372D02*
X011209Y009372D01*
X012008Y008738D02*
X012355Y008738D01*
X012294Y008678D02*
X012225Y008510D01*
X012225Y008328D01*
X012294Y008160D01*
X012423Y008032D01*
X012591Y007962D01*
X012772Y007962D01*
X012940Y008032D01*
X013069Y008160D01*
X013138Y008328D01*
X013138Y008510D01*
X013069Y008678D01*
X012940Y008806D01*
X012772Y008876D01*
X012591Y008876D01*
X012423Y008806D01*
X012294Y008678D01*
X012254Y008580D02*
X012109Y008580D01*
X012138Y008421D02*
X012225Y008421D01*
X012252Y008262D02*
X012111Y008262D01*
X012013Y008104D02*
X012350Y008104D01*
X013013Y008104D02*
X013322Y008104D01*
X013230Y008262D02*
X013111Y008262D01*
X013138Y008421D02*
X013663Y008421D01*
X013700Y008421D02*
X014225Y008421D01*
X014252Y008262D02*
X014133Y008262D01*
X014041Y008104D02*
X014350Y008104D01*
X013700Y008104D02*
X013663Y008104D01*
X013663Y008262D02*
X013700Y008262D01*
X013232Y008580D02*
X013109Y008580D01*
X013008Y008738D02*
X013326Y008738D01*
X013879Y009372D02*
X015134Y009372D01*
X014962Y009214D02*
X014051Y009214D01*
X014429Y009055D02*
X014921Y009055D01*
X014953Y008897D02*
X014528Y008897D01*
X015008Y008738D02*
X015079Y008738D01*
X018480Y011433D02*
X019424Y011433D01*
X019422Y011592D02*
X019582Y011592D01*
X019641Y011750D02*
X019741Y011750D01*
X019691Y011909D02*
X019900Y011909D01*
X020058Y012068D02*
X019670Y012068D01*
X019558Y012226D02*
X020217Y012226D01*
X020271Y012385D02*
X019019Y012385D01*
X019105Y012226D02*
X018861Y012226D01*
X018967Y012068D02*
X018993Y012068D01*
X018939Y011592D02*
X019240Y011592D01*
X019859Y011275D02*
X021603Y011275D01*
X021485Y011339D02*
X021587Y011440D01*
X021641Y011572D01*
X021641Y011715D01*
X021587Y011848D01*
X021485Y011949D01*
X021353Y012004D01*
X021210Y012004D01*
X021077Y011949D01*
X020976Y011848D01*
X020921Y011715D01*
X020921Y011572D01*
X020976Y011440D01*
X021077Y011339D01*
X021210Y011284D01*
X021353Y011284D01*
X021485Y011339D01*
X021580Y011433D02*
X023865Y011433D01*
X023730Y011592D02*
X021641Y011592D01*
X021627Y011750D02*
X023696Y011750D01*
X023735Y011909D02*
X021525Y011909D01*
X021399Y012068D02*
X020864Y012068D01*
X020972Y012226D02*
X021291Y012226D01*
X021271Y012385D02*
X020991Y012385D01*
X020939Y012543D02*
X021324Y012543D01*
X021037Y011909D02*
X020494Y011909D01*
X020335Y011750D02*
X020936Y011750D01*
X020921Y011592D02*
X020176Y011592D01*
X020018Y011433D02*
X020983Y011433D01*
X021522Y011116D02*
X019701Y011116D01*
X019542Y010958D02*
X021527Y010958D01*
X021617Y010799D02*
X019491Y010799D01*
X019694Y010641D02*
X021019Y010641D01*
X020928Y010482D02*
X019785Y010482D01*
X019791Y010324D02*
X020921Y010324D01*
X021001Y010165D02*
X019712Y010165D01*
X019178Y012543D02*
X020324Y012543D01*
X024391Y010482D02*
X028185Y010482D01*
X028185Y010324D02*
X024382Y010324D01*
X024287Y010165D02*
X028185Y010165D01*
X025357Y007628D02*
X023370Y007628D01*
X023260Y007470D02*
X025273Y007470D01*
X025276Y007311D02*
X023192Y007311D01*
X023341Y007153D02*
X025363Y007153D01*
X023176Y006360D02*
X023108Y006360D01*
X025283Y014129D02*
X028177Y014129D01*
X028176Y014287D02*
X025537Y014287D01*
X025696Y014446D02*
X028176Y014446D01*
X028176Y014604D02*
X025796Y014604D01*
X025873Y014763D02*
X028175Y014763D01*
X028175Y014921D02*
X025916Y014921D01*
X025936Y015080D02*
X028175Y015080D01*
X028174Y015238D02*
X025936Y015238D01*
X025908Y015397D02*
X028174Y015397D01*
X028174Y015555D02*
X025865Y015555D01*
X025778Y015714D02*
X028173Y015714D01*
X028173Y015873D02*
X025665Y015873D01*
X025505Y016031D02*
X026916Y016031D01*
X027264Y016022D02*
X027264Y016022D01*
X026493Y016172D02*
X026493Y016172D01*
X026469Y016190D02*
X025198Y016190D01*
X024898Y016348D02*
X026253Y016348D01*
X026117Y016448D02*
X026117Y016448D01*
X026075Y016507D02*
X025018Y016507D01*
X025110Y016665D02*
X025961Y016665D01*
X025846Y016824D02*
X025153Y016824D01*
X025186Y016982D02*
X025794Y016982D01*
X025845Y016826D02*
X025845Y016826D01*
X025743Y017141D02*
X025186Y017141D01*
X025170Y017299D02*
X025701Y017299D01*
X025701Y017458D02*
X025128Y017458D01*
X025056Y017617D02*
X025701Y017617D01*
X025701Y017775D02*
X024963Y017775D01*
X024804Y017934D02*
X025701Y017934D01*
X025701Y018092D02*
X024562Y018092D01*
X023144Y016507D02*
X018842Y016507D01*
X018800Y016348D02*
X023264Y016348D01*
X023438Y016190D02*
X018723Y016190D01*
X018564Y016031D02*
X023778Y016031D01*
X017806Y016031D02*
X016832Y016031D01*
X016990Y016190D02*
X017647Y016190D01*
X017570Y016348D02*
X017067Y016348D01*
X017110Y016507D02*
X017528Y016507D01*
X017528Y016665D02*
X017110Y016665D01*
X017064Y016824D02*
X017574Y016824D01*
X017657Y016982D02*
X016981Y016982D01*
X016819Y017141D02*
X017819Y017141D01*
X016074Y016031D02*
X014694Y016031D01*
X014681Y016031D02*
X014222Y016031D01*
X014319Y016190D02*
X014681Y016190D01*
X014695Y016190D02*
X015915Y016190D01*
X013889Y016190D02*
X013849Y016190D01*
X013849Y016031D02*
X013889Y016031D01*
X013889Y016507D02*
X013849Y016507D01*
X013849Y016665D02*
X013889Y016665D01*
X013499Y016665D02*
X013211Y016665D01*
X013305Y016507D02*
X013412Y016507D01*
X013564Y016982D02*
X013145Y016982D01*
X013278Y017141D02*
X013439Y017141D01*
X013389Y017299D02*
X013329Y017299D01*
X013325Y017458D02*
X013391Y017458D01*
X013457Y017617D02*
X013259Y017617D01*
X013060Y017775D02*
X013626Y017775D01*
X012527Y016665D02*
X011204Y016665D01*
X011206Y016507D02*
X012433Y016507D01*
X012409Y016348D02*
X011207Y016348D01*
X011209Y016190D02*
X012440Y016190D01*
X012544Y016031D02*
X011211Y016031D01*
X010056Y008738D02*
X010008Y008738D01*
D17*
X018181Y011644D02*
X018181Y011844D01*
X019631Y013294D01*
X020631Y012344D02*
X019131Y010844D01*
M02*
