%
M48
M72
T01C0.0240
T02C0.0354
T03C0.0360
T04C0.0394
T05C0.0400
T06C0.0420
T07C0.0520
T08C0.1180
T09C0.1250
%
T01
X13731Y9044
X14181Y8794
X15281Y9044
X16781Y9744
X16781Y10294
X18431Y9994
X19031Y9944
X19431Y10394
X19131Y10844
X18181Y11644
X18681Y11844
X19331Y11944
X20631Y12344
X21631Y12344
X21281Y11644
X21881Y11044
X21281Y10394
X19081Y8794
X20469Y6556
X21731Y6344
X23531Y6444
X24619Y6106
X24531Y7444
X25631Y7394
X24031Y10419
X24056Y11744
X19631Y13294
X21856Y15069
X20531Y16994
X17081Y14744
X16431Y14819
X16331Y12794
X15269Y11956
X14281Y12044
X13869Y11756
X13231Y12394
X13231Y13194
X9931Y11244
X9056Y10244
X9056Y9681
X8031Y9844
X9806Y13744
X8431Y13994
X16981Y11769
X15181Y8044
X18306Y5494
X18181Y3294
X19081Y2494
T02
X18185Y16581
X16453Y16581
T03
X8381Y14969
X7381Y14969
X6381Y14969
X6744Y4356
X7744Y4356
X9494Y2369
X9494Y1369
X11681Y1369
X11681Y2369
T04
X11681Y8419
X12681Y8419
X13681Y8419
X14681Y8419
X9681Y8419
X8681Y8419
X7681Y8419
T05
X12869Y5356
X13869Y5356
X13869Y4356
X12869Y4356
X12869Y3356
X13869Y3356
X13869Y2356
X12869Y2356
X12869Y14356
X13869Y14356
X13869Y15356
X12869Y15356
X12869Y16356
X13869Y16356
X13869Y17356
X12869Y17356
T06
X6129Y12431
X4949Y12431
X4949Y11251
X6129Y11251
X6116Y8281
X4936Y8281
X4936Y7101
X6116Y7101
T07
X22869Y6856
X22869Y7856
X22869Y8856
X22869Y9856
T08
X3249Y11841
X3236Y7691
T09
X4031Y4344
X4031Y15144
X24081Y17094
X24831Y15144
X24831Y4344
X24081Y2594
M30
