G75*
G70*
%OFA0B0*%
%FSLAX24Y24*%
%IPPOS*%
%LPD*%
%AMOC8*
5,1,8,0,0,1.08239X$1,22.5*
%
%ADD10C,0.0000*%
%ADD11C,0.0160*%
%ADD12C,0.0020*%
%ADD13C,0.0060*%
%ADD14C,0.0050*%
%ADD15C,0.0040*%
%ADD16C,0.0080*%
%ADD17C,0.0256*%
%ADD18C,0.0010*%
%ADD19C,0.0100*%
D10*
X002740Y002681D02*
X002800Y002679D01*
X002861Y002674D01*
X002920Y002665D01*
X002979Y002652D01*
X003038Y002636D01*
X003095Y002616D01*
X003150Y002593D01*
X003205Y002566D01*
X003257Y002537D01*
X003308Y002504D01*
X003357Y002468D01*
X003403Y002430D01*
X003447Y002388D01*
X003489Y002344D01*
X003527Y002298D01*
X003563Y002249D01*
X003596Y002198D01*
X003625Y002146D01*
X003652Y002091D01*
X003675Y002036D01*
X003695Y001979D01*
X003711Y001920D01*
X003724Y001861D01*
X003733Y001802D01*
X003738Y001741D01*
X003740Y001681D01*
X003740Y000181D01*
X027240Y000181D01*
X027240Y001681D01*
X027242Y001741D01*
X027247Y001802D01*
X027256Y001861D01*
X027269Y001920D01*
X027285Y001979D01*
X027305Y002036D01*
X027328Y002091D01*
X027355Y002146D01*
X027384Y002198D01*
X027417Y002249D01*
X027453Y002298D01*
X027491Y002344D01*
X027533Y002388D01*
X027577Y002430D01*
X027623Y002468D01*
X027672Y002504D01*
X027723Y002537D01*
X027775Y002566D01*
X027830Y002593D01*
X027885Y002616D01*
X027942Y002636D01*
X028001Y002652D01*
X028060Y002665D01*
X028119Y002674D01*
X028180Y002679D01*
X028240Y002681D01*
X029740Y002681D01*
X029710Y016181D01*
X029240Y016181D01*
X028231Y016190D01*
X028169Y016193D01*
X028107Y016199D01*
X028045Y016209D01*
X027984Y016223D01*
X027924Y016241D01*
X027866Y016263D01*
X027809Y016288D01*
X027753Y016317D01*
X027699Y016349D01*
X027648Y016384D01*
X027599Y016423D01*
X027552Y016464D01*
X027508Y016509D01*
X027467Y016556D01*
X027429Y016605D01*
X027394Y016657D01*
X027362Y016711D01*
X027334Y016766D01*
X027309Y016824D01*
X027288Y016883D01*
X027271Y016943D01*
X027258Y017004D01*
X027248Y017065D01*
X027242Y017128D01*
X027240Y017190D01*
X027240Y018681D01*
X003740Y018681D01*
X003740Y017181D01*
X003738Y017121D01*
X003733Y017060D01*
X003724Y017001D01*
X003711Y016942D01*
X003695Y016883D01*
X003675Y016826D01*
X003652Y016771D01*
X003625Y016716D01*
X003596Y016664D01*
X003563Y016613D01*
X003527Y016564D01*
X003489Y016518D01*
X003447Y016474D01*
X003403Y016432D01*
X003357Y016394D01*
X003308Y016358D01*
X003257Y016325D01*
X003205Y016296D01*
X003150Y016269D01*
X003095Y016246D01*
X003038Y016226D01*
X002979Y016210D01*
X002920Y016197D01*
X002861Y016188D01*
X002800Y016183D01*
X002740Y016181D01*
X001240Y016181D01*
X001240Y002681D01*
X002740Y002681D01*
X004465Y004031D02*
X004467Y004081D01*
X004473Y004130D01*
X004483Y004179D01*
X004496Y004226D01*
X004514Y004273D01*
X004535Y004318D01*
X004559Y004361D01*
X004587Y004402D01*
X004618Y004441D01*
X004652Y004477D01*
X004689Y004511D01*
X004729Y004541D01*
X004770Y004568D01*
X004814Y004592D01*
X004859Y004612D01*
X004906Y004628D01*
X004954Y004641D01*
X005003Y004650D01*
X005053Y004655D01*
X005102Y004656D01*
X005152Y004653D01*
X005201Y004646D01*
X005250Y004635D01*
X005297Y004621D01*
X005343Y004602D01*
X005388Y004580D01*
X005431Y004555D01*
X005471Y004526D01*
X005509Y004494D01*
X005545Y004460D01*
X005578Y004422D01*
X005607Y004382D01*
X005633Y004340D01*
X005656Y004296D01*
X005675Y004250D01*
X005691Y004203D01*
X005703Y004154D01*
X005711Y004105D01*
X005715Y004056D01*
X005715Y004006D01*
X005711Y003957D01*
X005703Y003908D01*
X005691Y003859D01*
X005675Y003812D01*
X005656Y003766D01*
X005633Y003722D01*
X005607Y003680D01*
X005578Y003640D01*
X005545Y003602D01*
X005509Y003568D01*
X005471Y003536D01*
X005431Y003507D01*
X005388Y003482D01*
X005343Y003460D01*
X005297Y003441D01*
X005250Y003427D01*
X005201Y003416D01*
X005152Y003409D01*
X005102Y003406D01*
X005053Y003407D01*
X005003Y003412D01*
X004954Y003421D01*
X004906Y003434D01*
X004859Y003450D01*
X004814Y003470D01*
X004770Y003494D01*
X004729Y003521D01*
X004689Y003551D01*
X004652Y003585D01*
X004618Y003621D01*
X004587Y003660D01*
X004559Y003701D01*
X004535Y003744D01*
X004514Y003789D01*
X004496Y003836D01*
X004483Y003883D01*
X004473Y003932D01*
X004467Y003981D01*
X004465Y004031D01*
X001536Y006094D02*
X001538Y006142D01*
X001544Y006190D01*
X001554Y006237D01*
X001567Y006283D01*
X001585Y006328D01*
X001605Y006372D01*
X001630Y006414D01*
X001658Y006453D01*
X001688Y006490D01*
X001722Y006524D01*
X001759Y006556D01*
X001797Y006585D01*
X001838Y006610D01*
X001881Y006632D01*
X001926Y006650D01*
X001972Y006664D01*
X002019Y006675D01*
X002067Y006682D01*
X002115Y006685D01*
X002163Y006684D01*
X002211Y006679D01*
X002259Y006670D01*
X002305Y006658D01*
X002350Y006641D01*
X002394Y006621D01*
X002436Y006598D01*
X002476Y006571D01*
X002514Y006541D01*
X002549Y006508D01*
X002581Y006472D01*
X002611Y006434D01*
X002637Y006393D01*
X002659Y006350D01*
X002679Y006306D01*
X002694Y006261D01*
X002706Y006214D01*
X002714Y006166D01*
X002718Y006118D01*
X002718Y006070D01*
X002714Y006022D01*
X002706Y005974D01*
X002694Y005927D01*
X002679Y005882D01*
X002659Y005838D01*
X002637Y005795D01*
X002611Y005754D01*
X002581Y005716D01*
X002549Y005680D01*
X002514Y005647D01*
X002476Y005617D01*
X002436Y005590D01*
X002394Y005567D01*
X002350Y005547D01*
X002305Y005530D01*
X002259Y005518D01*
X002211Y005509D01*
X002163Y005504D01*
X002115Y005503D01*
X002067Y005506D01*
X002019Y005513D01*
X001972Y005524D01*
X001926Y005538D01*
X001881Y005556D01*
X001838Y005578D01*
X001797Y005603D01*
X001759Y005632D01*
X001722Y005664D01*
X001688Y005698D01*
X001658Y005735D01*
X001630Y005774D01*
X001605Y005816D01*
X001585Y005860D01*
X001567Y005905D01*
X001554Y005951D01*
X001544Y005998D01*
X001538Y006046D01*
X001536Y006094D01*
X003427Y008494D02*
X003429Y008545D01*
X003435Y008596D01*
X003445Y008647D01*
X003458Y008696D01*
X003476Y008744D01*
X003497Y008791D01*
X003521Y008836D01*
X003549Y008879D01*
X003580Y008920D01*
X003614Y008959D01*
X003651Y008994D01*
X003691Y009027D01*
X003733Y009056D01*
X003777Y009083D01*
X003823Y009105D01*
X003871Y009125D01*
X003919Y009140D01*
X003969Y009152D01*
X004020Y009160D01*
X004071Y009164D01*
X004123Y009164D01*
X004174Y009160D01*
X004225Y009152D01*
X004275Y009140D01*
X004323Y009125D01*
X004371Y009105D01*
X004417Y009083D01*
X004461Y009056D01*
X004503Y009027D01*
X004543Y008994D01*
X004580Y008959D01*
X004614Y008920D01*
X004645Y008879D01*
X004673Y008836D01*
X004697Y008791D01*
X004718Y008744D01*
X004736Y008696D01*
X004749Y008647D01*
X004759Y008596D01*
X004765Y008545D01*
X004767Y008494D01*
X004765Y008443D01*
X004759Y008392D01*
X004749Y008341D01*
X004736Y008292D01*
X004718Y008244D01*
X004697Y008197D01*
X004673Y008152D01*
X004645Y008109D01*
X004614Y008068D01*
X004580Y008029D01*
X004543Y007994D01*
X004503Y007961D01*
X004461Y007932D01*
X004417Y007905D01*
X004371Y007883D01*
X004323Y007863D01*
X004275Y007848D01*
X004225Y007836D01*
X004174Y007828D01*
X004123Y007824D01*
X004071Y007824D01*
X004020Y007828D01*
X003969Y007836D01*
X003919Y007848D01*
X003871Y007863D01*
X003823Y007883D01*
X003777Y007905D01*
X003733Y007932D01*
X003691Y007961D01*
X003651Y007994D01*
X003614Y008029D01*
X003580Y008068D01*
X003549Y008109D01*
X003521Y008152D01*
X003497Y008197D01*
X003476Y008244D01*
X003458Y008292D01*
X003445Y008341D01*
X003435Y008392D01*
X003429Y008443D01*
X003427Y008494D01*
X003427Y010594D02*
X003429Y010645D01*
X003435Y010696D01*
X003445Y010747D01*
X003458Y010796D01*
X003476Y010844D01*
X003497Y010891D01*
X003521Y010936D01*
X003549Y010979D01*
X003580Y011020D01*
X003614Y011059D01*
X003651Y011094D01*
X003691Y011127D01*
X003733Y011156D01*
X003777Y011183D01*
X003823Y011205D01*
X003871Y011225D01*
X003919Y011240D01*
X003969Y011252D01*
X004020Y011260D01*
X004071Y011264D01*
X004123Y011264D01*
X004174Y011260D01*
X004225Y011252D01*
X004275Y011240D01*
X004323Y011225D01*
X004371Y011205D01*
X004417Y011183D01*
X004461Y011156D01*
X004503Y011127D01*
X004543Y011094D01*
X004580Y011059D01*
X004614Y011020D01*
X004645Y010979D01*
X004673Y010936D01*
X004697Y010891D01*
X004718Y010844D01*
X004736Y010796D01*
X004749Y010747D01*
X004759Y010696D01*
X004765Y010645D01*
X004767Y010594D01*
X004765Y010543D01*
X004759Y010492D01*
X004749Y010441D01*
X004736Y010392D01*
X004718Y010344D01*
X004697Y010297D01*
X004673Y010252D01*
X004645Y010209D01*
X004614Y010168D01*
X004580Y010129D01*
X004543Y010094D01*
X004503Y010061D01*
X004461Y010032D01*
X004417Y010005D01*
X004371Y009983D01*
X004323Y009963D01*
X004275Y009948D01*
X004225Y009936D01*
X004174Y009928D01*
X004123Y009924D01*
X004071Y009924D01*
X004020Y009928D01*
X003969Y009936D01*
X003919Y009948D01*
X003871Y009963D01*
X003823Y009983D01*
X003777Y010005D01*
X003733Y010032D01*
X003691Y010061D01*
X003651Y010094D01*
X003614Y010129D01*
X003580Y010168D01*
X003549Y010209D01*
X003521Y010252D01*
X003497Y010297D01*
X003476Y010344D01*
X003458Y010392D01*
X003445Y010441D01*
X003435Y010492D01*
X003429Y010543D01*
X003427Y010594D01*
X001486Y012994D02*
X001488Y013042D01*
X001494Y013090D01*
X001504Y013137D01*
X001517Y013183D01*
X001535Y013228D01*
X001555Y013272D01*
X001580Y013314D01*
X001608Y013353D01*
X001638Y013390D01*
X001672Y013424D01*
X001709Y013456D01*
X001747Y013485D01*
X001788Y013510D01*
X001831Y013532D01*
X001876Y013550D01*
X001922Y013564D01*
X001969Y013575D01*
X002017Y013582D01*
X002065Y013585D01*
X002113Y013584D01*
X002161Y013579D01*
X002209Y013570D01*
X002255Y013558D01*
X002300Y013541D01*
X002344Y013521D01*
X002386Y013498D01*
X002426Y013471D01*
X002464Y013441D01*
X002499Y013408D01*
X002531Y013372D01*
X002561Y013334D01*
X002587Y013293D01*
X002609Y013250D01*
X002629Y013206D01*
X002644Y013161D01*
X002656Y013114D01*
X002664Y013066D01*
X002668Y013018D01*
X002668Y012970D01*
X002664Y012922D01*
X002656Y012874D01*
X002644Y012827D01*
X002629Y012782D01*
X002609Y012738D01*
X002587Y012695D01*
X002561Y012654D01*
X002531Y012616D01*
X002499Y012580D01*
X002464Y012547D01*
X002426Y012517D01*
X002386Y012490D01*
X002344Y012467D01*
X002300Y012447D01*
X002255Y012430D01*
X002209Y012418D01*
X002161Y012409D01*
X002113Y012404D01*
X002065Y012403D01*
X002017Y012406D01*
X001969Y012413D01*
X001922Y012424D01*
X001876Y012438D01*
X001831Y012456D01*
X001788Y012478D01*
X001747Y012503D01*
X001709Y012532D01*
X001672Y012564D01*
X001638Y012598D01*
X001608Y012635D01*
X001580Y012674D01*
X001555Y012716D01*
X001535Y012760D01*
X001517Y012805D01*
X001504Y012851D01*
X001494Y012898D01*
X001488Y012946D01*
X001486Y012994D01*
X004465Y014831D02*
X004467Y014881D01*
X004473Y014930D01*
X004483Y014979D01*
X004496Y015026D01*
X004514Y015073D01*
X004535Y015118D01*
X004559Y015161D01*
X004587Y015202D01*
X004618Y015241D01*
X004652Y015277D01*
X004689Y015311D01*
X004729Y015341D01*
X004770Y015368D01*
X004814Y015392D01*
X004859Y015412D01*
X004906Y015428D01*
X004954Y015441D01*
X005003Y015450D01*
X005053Y015455D01*
X005102Y015456D01*
X005152Y015453D01*
X005201Y015446D01*
X005250Y015435D01*
X005297Y015421D01*
X005343Y015402D01*
X005388Y015380D01*
X005431Y015355D01*
X005471Y015326D01*
X005509Y015294D01*
X005545Y015260D01*
X005578Y015222D01*
X005607Y015182D01*
X005633Y015140D01*
X005656Y015096D01*
X005675Y015050D01*
X005691Y015003D01*
X005703Y014954D01*
X005711Y014905D01*
X005715Y014856D01*
X005715Y014806D01*
X005711Y014757D01*
X005703Y014708D01*
X005691Y014659D01*
X005675Y014612D01*
X005656Y014566D01*
X005633Y014522D01*
X005607Y014480D01*
X005578Y014440D01*
X005545Y014402D01*
X005509Y014368D01*
X005471Y014336D01*
X005431Y014307D01*
X005388Y014282D01*
X005343Y014260D01*
X005297Y014241D01*
X005250Y014227D01*
X005201Y014216D01*
X005152Y014209D01*
X005102Y014206D01*
X005053Y014207D01*
X005003Y014212D01*
X004954Y014221D01*
X004906Y014234D01*
X004859Y014250D01*
X004814Y014270D01*
X004770Y014294D01*
X004729Y014321D01*
X004689Y014351D01*
X004652Y014385D01*
X004618Y014421D01*
X004587Y014460D01*
X004559Y014501D01*
X004535Y014544D01*
X004514Y014589D01*
X004496Y014636D01*
X004483Y014683D01*
X004473Y014732D01*
X004467Y014781D01*
X004465Y014831D01*
X017384Y016419D02*
X017386Y016445D01*
X017392Y016471D01*
X017402Y016496D01*
X017415Y016519D01*
X017431Y016539D01*
X017451Y016557D01*
X017473Y016572D01*
X017496Y016584D01*
X017522Y016592D01*
X017548Y016596D01*
X017574Y016596D01*
X017600Y016592D01*
X017626Y016584D01*
X017650Y016572D01*
X017671Y016557D01*
X017691Y016539D01*
X017707Y016519D01*
X017720Y016496D01*
X017730Y016471D01*
X017736Y016445D01*
X017738Y016419D01*
X017736Y016393D01*
X017730Y016367D01*
X017720Y016342D01*
X017707Y016319D01*
X017691Y016299D01*
X017671Y016281D01*
X017649Y016266D01*
X017626Y016254D01*
X017600Y016246D01*
X017574Y016242D01*
X017548Y016242D01*
X017522Y016246D01*
X017496Y016254D01*
X017472Y016266D01*
X017451Y016281D01*
X017431Y016299D01*
X017415Y016319D01*
X017402Y016342D01*
X017392Y016367D01*
X017386Y016393D01*
X017384Y016419D01*
X019116Y016419D02*
X019118Y016445D01*
X019124Y016471D01*
X019134Y016496D01*
X019147Y016519D01*
X019163Y016539D01*
X019183Y016557D01*
X019205Y016572D01*
X019228Y016584D01*
X019254Y016592D01*
X019280Y016596D01*
X019306Y016596D01*
X019332Y016592D01*
X019358Y016584D01*
X019382Y016572D01*
X019403Y016557D01*
X019423Y016539D01*
X019439Y016519D01*
X019452Y016496D01*
X019462Y016471D01*
X019468Y016445D01*
X019470Y016419D01*
X019468Y016393D01*
X019462Y016367D01*
X019452Y016342D01*
X019439Y016319D01*
X019423Y016299D01*
X019403Y016281D01*
X019381Y016266D01*
X019358Y016254D01*
X019332Y016246D01*
X019306Y016242D01*
X019280Y016242D01*
X019254Y016246D01*
X019228Y016254D01*
X019204Y016266D01*
X019183Y016281D01*
X019163Y016299D01*
X019147Y016319D01*
X019134Y016342D01*
X019124Y016367D01*
X019118Y016393D01*
X019116Y016419D01*
X024515Y016781D02*
X024517Y016831D01*
X024523Y016880D01*
X024533Y016929D01*
X024546Y016976D01*
X024564Y017023D01*
X024585Y017068D01*
X024609Y017111D01*
X024637Y017152D01*
X024668Y017191D01*
X024702Y017227D01*
X024739Y017261D01*
X024779Y017291D01*
X024820Y017318D01*
X024864Y017342D01*
X024909Y017362D01*
X024956Y017378D01*
X025004Y017391D01*
X025053Y017400D01*
X025103Y017405D01*
X025152Y017406D01*
X025202Y017403D01*
X025251Y017396D01*
X025300Y017385D01*
X025347Y017371D01*
X025393Y017352D01*
X025438Y017330D01*
X025481Y017305D01*
X025521Y017276D01*
X025559Y017244D01*
X025595Y017210D01*
X025628Y017172D01*
X025657Y017132D01*
X025683Y017090D01*
X025706Y017046D01*
X025725Y017000D01*
X025741Y016953D01*
X025753Y016904D01*
X025761Y016855D01*
X025765Y016806D01*
X025765Y016756D01*
X025761Y016707D01*
X025753Y016658D01*
X025741Y016609D01*
X025725Y016562D01*
X025706Y016516D01*
X025683Y016472D01*
X025657Y016430D01*
X025628Y016390D01*
X025595Y016352D01*
X025559Y016318D01*
X025521Y016286D01*
X025481Y016257D01*
X025438Y016232D01*
X025393Y016210D01*
X025347Y016191D01*
X025300Y016177D01*
X025251Y016166D01*
X025202Y016159D01*
X025152Y016156D01*
X025103Y016157D01*
X025053Y016162D01*
X025004Y016171D01*
X024956Y016184D01*
X024909Y016200D01*
X024864Y016220D01*
X024820Y016244D01*
X024779Y016271D01*
X024739Y016301D01*
X024702Y016335D01*
X024668Y016371D01*
X024637Y016410D01*
X024609Y016451D01*
X024585Y016494D01*
X024564Y016539D01*
X024546Y016586D01*
X024533Y016633D01*
X024523Y016682D01*
X024517Y016731D01*
X024515Y016781D01*
X025265Y014831D02*
X025267Y014881D01*
X025273Y014930D01*
X025283Y014979D01*
X025296Y015026D01*
X025314Y015073D01*
X025335Y015118D01*
X025359Y015161D01*
X025387Y015202D01*
X025418Y015241D01*
X025452Y015277D01*
X025489Y015311D01*
X025529Y015341D01*
X025570Y015368D01*
X025614Y015392D01*
X025659Y015412D01*
X025706Y015428D01*
X025754Y015441D01*
X025803Y015450D01*
X025853Y015455D01*
X025902Y015456D01*
X025952Y015453D01*
X026001Y015446D01*
X026050Y015435D01*
X026097Y015421D01*
X026143Y015402D01*
X026188Y015380D01*
X026231Y015355D01*
X026271Y015326D01*
X026309Y015294D01*
X026345Y015260D01*
X026378Y015222D01*
X026407Y015182D01*
X026433Y015140D01*
X026456Y015096D01*
X026475Y015050D01*
X026491Y015003D01*
X026503Y014954D01*
X026511Y014905D01*
X026515Y014856D01*
X026515Y014806D01*
X026511Y014757D01*
X026503Y014708D01*
X026491Y014659D01*
X026475Y014612D01*
X026456Y014566D01*
X026433Y014522D01*
X026407Y014480D01*
X026378Y014440D01*
X026345Y014402D01*
X026309Y014368D01*
X026271Y014336D01*
X026231Y014307D01*
X026188Y014282D01*
X026143Y014260D01*
X026097Y014241D01*
X026050Y014227D01*
X026001Y014216D01*
X025952Y014209D01*
X025902Y014206D01*
X025853Y014207D01*
X025803Y014212D01*
X025754Y014221D01*
X025706Y014234D01*
X025659Y014250D01*
X025614Y014270D01*
X025570Y014294D01*
X025529Y014321D01*
X025489Y014351D01*
X025452Y014385D01*
X025418Y014421D01*
X025387Y014460D01*
X025359Y014501D01*
X025335Y014544D01*
X025314Y014589D01*
X025296Y014636D01*
X025283Y014683D01*
X025273Y014732D01*
X025267Y014781D01*
X025265Y014831D01*
X025265Y004031D02*
X025267Y004081D01*
X025273Y004130D01*
X025283Y004179D01*
X025296Y004226D01*
X025314Y004273D01*
X025335Y004318D01*
X025359Y004361D01*
X025387Y004402D01*
X025418Y004441D01*
X025452Y004477D01*
X025489Y004511D01*
X025529Y004541D01*
X025570Y004568D01*
X025614Y004592D01*
X025659Y004612D01*
X025706Y004628D01*
X025754Y004641D01*
X025803Y004650D01*
X025853Y004655D01*
X025902Y004656D01*
X025952Y004653D01*
X026001Y004646D01*
X026050Y004635D01*
X026097Y004621D01*
X026143Y004602D01*
X026188Y004580D01*
X026231Y004555D01*
X026271Y004526D01*
X026309Y004494D01*
X026345Y004460D01*
X026378Y004422D01*
X026407Y004382D01*
X026433Y004340D01*
X026456Y004296D01*
X026475Y004250D01*
X026491Y004203D01*
X026503Y004154D01*
X026511Y004105D01*
X026515Y004056D01*
X026515Y004006D01*
X026511Y003957D01*
X026503Y003908D01*
X026491Y003859D01*
X026475Y003812D01*
X026456Y003766D01*
X026433Y003722D01*
X026407Y003680D01*
X026378Y003640D01*
X026345Y003602D01*
X026309Y003568D01*
X026271Y003536D01*
X026231Y003507D01*
X026188Y003482D01*
X026143Y003460D01*
X026097Y003441D01*
X026050Y003427D01*
X026001Y003416D01*
X025952Y003409D01*
X025902Y003406D01*
X025853Y003407D01*
X025803Y003412D01*
X025754Y003421D01*
X025706Y003434D01*
X025659Y003450D01*
X025614Y003470D01*
X025570Y003494D01*
X025529Y003521D01*
X025489Y003551D01*
X025452Y003585D01*
X025418Y003621D01*
X025387Y003660D01*
X025359Y003701D01*
X025335Y003744D01*
X025314Y003789D01*
X025296Y003836D01*
X025283Y003883D01*
X025273Y003932D01*
X025267Y003981D01*
X025265Y004031D01*
X024515Y002281D02*
X024517Y002331D01*
X024523Y002380D01*
X024533Y002429D01*
X024546Y002476D01*
X024564Y002523D01*
X024585Y002568D01*
X024609Y002611D01*
X024637Y002652D01*
X024668Y002691D01*
X024702Y002727D01*
X024739Y002761D01*
X024779Y002791D01*
X024820Y002818D01*
X024864Y002842D01*
X024909Y002862D01*
X024956Y002878D01*
X025004Y002891D01*
X025053Y002900D01*
X025103Y002905D01*
X025152Y002906D01*
X025202Y002903D01*
X025251Y002896D01*
X025300Y002885D01*
X025347Y002871D01*
X025393Y002852D01*
X025438Y002830D01*
X025481Y002805D01*
X025521Y002776D01*
X025559Y002744D01*
X025595Y002710D01*
X025628Y002672D01*
X025657Y002632D01*
X025683Y002590D01*
X025706Y002546D01*
X025725Y002500D01*
X025741Y002453D01*
X025753Y002404D01*
X025761Y002355D01*
X025765Y002306D01*
X025765Y002256D01*
X025761Y002207D01*
X025753Y002158D01*
X025741Y002109D01*
X025725Y002062D01*
X025706Y002016D01*
X025683Y001972D01*
X025657Y001930D01*
X025628Y001890D01*
X025595Y001852D01*
X025559Y001818D01*
X025521Y001786D01*
X025481Y001757D01*
X025438Y001732D01*
X025393Y001710D01*
X025347Y001691D01*
X025300Y001677D01*
X025251Y001666D01*
X025202Y001659D01*
X025152Y001656D01*
X025103Y001657D01*
X025053Y001662D01*
X025004Y001671D01*
X024956Y001684D01*
X024909Y001700D01*
X024864Y001720D01*
X024820Y001744D01*
X024779Y001771D01*
X024739Y001801D01*
X024702Y001835D01*
X024668Y001871D01*
X024637Y001910D01*
X024609Y001951D01*
X024585Y001994D01*
X024564Y002039D01*
X024546Y002086D01*
X024533Y002133D01*
X024523Y002182D01*
X024517Y002231D01*
X024515Y002281D01*
D11*
X011802Y002794D02*
X011802Y015544D01*
X011552Y015544D01*
X011552Y002794D01*
X011802Y002794D01*
X011802Y002877D02*
X011552Y002877D01*
X011552Y003035D02*
X011802Y003035D01*
X011802Y003194D02*
X011552Y003194D01*
X011552Y003352D02*
X011802Y003352D01*
X011802Y003511D02*
X011552Y003511D01*
X011552Y003669D02*
X011802Y003669D01*
X011802Y003828D02*
X011552Y003828D01*
X011552Y003986D02*
X011802Y003986D01*
X011802Y004145D02*
X011552Y004145D01*
X011552Y004304D02*
X011802Y004304D01*
X011802Y004462D02*
X011552Y004462D01*
X011552Y004621D02*
X011802Y004621D01*
X011802Y004779D02*
X011552Y004779D01*
X011552Y004938D02*
X011802Y004938D01*
X011802Y005096D02*
X011552Y005096D01*
X011552Y005255D02*
X011802Y005255D01*
X011802Y005413D02*
X011552Y005413D01*
X011552Y005572D02*
X011802Y005572D01*
X011802Y005730D02*
X011552Y005730D01*
X011552Y005889D02*
X011802Y005889D01*
X011802Y006048D02*
X011552Y006048D01*
X011552Y006206D02*
X011802Y006206D01*
X011802Y006365D02*
X011552Y006365D01*
X011552Y006523D02*
X011802Y006523D01*
X011802Y006682D02*
X011552Y006682D01*
X011552Y006840D02*
X011802Y006840D01*
X011802Y006999D02*
X011552Y006999D01*
X011552Y007157D02*
X011802Y007157D01*
X011802Y007316D02*
X011552Y007316D01*
X011552Y007474D02*
X011802Y007474D01*
X011802Y007633D02*
X011552Y007633D01*
X011552Y007791D02*
X011802Y007791D01*
X011802Y007950D02*
X011552Y007950D01*
X011552Y008109D02*
X011802Y008109D01*
X011802Y008267D02*
X011552Y008267D01*
X011552Y008426D02*
X011802Y008426D01*
X011802Y008584D02*
X011552Y008584D01*
X011552Y008743D02*
X011802Y008743D01*
X011802Y008901D02*
X011552Y008901D01*
X011552Y009060D02*
X011802Y009060D01*
X011802Y009218D02*
X011552Y009218D01*
X011552Y009377D02*
X011802Y009377D01*
X011802Y009535D02*
X011552Y009535D01*
X011552Y009694D02*
X011802Y009694D01*
X011802Y009853D02*
X011552Y009853D01*
X011552Y010011D02*
X011802Y010011D01*
X011802Y010170D02*
X011552Y010170D01*
X011552Y010328D02*
X011802Y010328D01*
X011802Y010487D02*
X011552Y010487D01*
X011552Y010645D02*
X011802Y010645D01*
X011802Y010804D02*
X011552Y010804D01*
X011552Y010962D02*
X011802Y010962D01*
X011802Y011121D02*
X011552Y011121D01*
X011552Y011279D02*
X011802Y011279D01*
X011802Y011438D02*
X011552Y011438D01*
X011552Y011597D02*
X011802Y011597D01*
X011802Y011755D02*
X011552Y011755D01*
X011552Y011914D02*
X011802Y011914D01*
X011802Y012072D02*
X011552Y012072D01*
X011552Y012231D02*
X011802Y012231D01*
X011802Y012389D02*
X011552Y012389D01*
X011552Y012548D02*
X011802Y012548D01*
X011802Y012706D02*
X011552Y012706D01*
X011552Y012865D02*
X011802Y012865D01*
X011802Y013023D02*
X011552Y013023D01*
X011552Y013182D02*
X011802Y013182D01*
X011802Y013341D02*
X011552Y013341D01*
X011552Y013499D02*
X011802Y013499D01*
X011802Y013658D02*
X011552Y013658D01*
X011552Y013816D02*
X011802Y013816D01*
X011802Y013975D02*
X011552Y013975D01*
X011552Y014133D02*
X011802Y014133D01*
X011802Y014292D02*
X011552Y014292D01*
X011552Y014450D02*
X011802Y014450D01*
X011802Y014609D02*
X011552Y014609D01*
X011552Y014767D02*
X011802Y014767D01*
X011802Y014926D02*
X011552Y014926D01*
X011552Y015084D02*
X011802Y015084D01*
X011802Y015243D02*
X011552Y015243D01*
X011552Y015402D02*
X011802Y015402D01*
D12*
X027027Y012844D02*
X027027Y010144D01*
X027327Y010144D02*
X027327Y012844D01*
X027027Y012844D02*
X027029Y012900D01*
X027035Y012955D01*
X027044Y013010D01*
X027058Y013064D01*
X027075Y013117D01*
X027096Y013168D01*
X027120Y013218D01*
X027148Y013266D01*
X027179Y013313D01*
X027213Y013357D01*
X027250Y013398D01*
X027290Y013437D01*
X027332Y013473D01*
X027377Y013505D01*
X028277Y013062D02*
X028292Y013028D01*
X028305Y012992D01*
X028314Y012956D01*
X028321Y012919D01*
X028326Y012882D01*
X028327Y012844D01*
X028327Y010144D01*
X028627Y010144D02*
X028627Y012844D01*
X027377Y013062D02*
X027362Y013028D01*
X027349Y012992D01*
X027340Y012956D01*
X027333Y012919D01*
X027328Y012882D01*
X027327Y012844D01*
X028277Y013505D02*
X028322Y013473D01*
X028364Y013437D01*
X028404Y013398D01*
X028441Y013356D01*
X028475Y013313D01*
X028506Y013266D01*
X028534Y013218D01*
X028558Y013168D01*
X028579Y013117D01*
X028596Y013064D01*
X028610Y013010D01*
X028619Y012955D01*
X028625Y012900D01*
X028627Y012844D01*
X027827Y011894D02*
X027827Y011744D01*
X027827Y011244D02*
X027827Y011094D01*
X028627Y010144D02*
X028625Y010088D01*
X028619Y010033D01*
X028610Y009978D01*
X028596Y009924D01*
X028579Y009871D01*
X028558Y009820D01*
X028534Y009770D01*
X028506Y009722D01*
X028475Y009675D01*
X028441Y009631D01*
X028404Y009590D01*
X028364Y009551D01*
X028322Y009515D01*
X028277Y009483D01*
X028277Y009926D02*
X028292Y009960D01*
X028305Y009996D01*
X028314Y010032D01*
X028321Y010069D01*
X028326Y010106D01*
X028327Y010144D01*
X027377Y009926D02*
X027362Y009960D01*
X027349Y009996D01*
X027340Y010032D01*
X027333Y010069D01*
X027328Y010106D01*
X027327Y010144D01*
X027027Y010144D02*
X027029Y010088D01*
X027035Y010033D01*
X027044Y009978D01*
X027058Y009924D01*
X027075Y009871D01*
X027096Y009820D01*
X027120Y009770D01*
X027148Y009722D01*
X027179Y009675D01*
X027213Y009632D01*
X027250Y009590D01*
X027290Y009551D01*
X027332Y009515D01*
X027377Y009483D01*
D13*
X026977Y009244D02*
X026960Y009246D01*
X026943Y009250D01*
X026927Y009257D01*
X026913Y009267D01*
X026900Y009280D01*
X026890Y009294D01*
X026883Y009310D01*
X026879Y009327D01*
X026877Y009344D01*
X026877Y013644D01*
X026879Y013661D01*
X026883Y013678D01*
X026890Y013694D01*
X026900Y013708D01*
X026913Y013721D01*
X026927Y013731D01*
X026943Y013738D01*
X026960Y013742D01*
X026977Y013744D01*
X027377Y013744D01*
X028277Y013744D02*
X028677Y013744D01*
X028694Y013742D01*
X028711Y013738D01*
X028727Y013731D01*
X028741Y013721D01*
X028754Y013708D01*
X028764Y013694D01*
X028771Y013678D01*
X028775Y013661D01*
X028777Y013644D01*
X028777Y009344D01*
X028775Y009327D01*
X028771Y009310D01*
X028764Y009294D01*
X028754Y009280D01*
X028741Y009267D01*
X028727Y009257D01*
X028711Y009250D01*
X028694Y009246D01*
X028677Y009244D01*
X028277Y009244D01*
X027377Y009244D02*
X026977Y009244D01*
X027577Y011244D02*
X027827Y011244D01*
X028077Y011244D01*
X028077Y011394D02*
X027577Y011394D01*
X027577Y011594D01*
X028077Y011594D01*
X028077Y011394D01*
X028077Y011744D02*
X027827Y011744D01*
X027577Y011744D01*
X006147Y011664D02*
X005920Y011324D01*
X005779Y011324D02*
X005552Y011551D01*
X005552Y011607D01*
X005609Y011664D01*
X005722Y011664D01*
X005779Y011607D01*
X005920Y011664D02*
X006147Y011324D01*
X005779Y011324D02*
X005552Y011324D01*
D14*
X007740Y011106D02*
X016740Y011106D01*
X016740Y007606D01*
X007740Y007606D01*
X007740Y011106D01*
X011027Y012844D02*
X011027Y009044D01*
X013827Y009044D01*
X013827Y012844D01*
X011027Y012844D01*
X013427Y012544D02*
X013429Y012564D01*
X013435Y012582D01*
X013444Y012600D01*
X013456Y012615D01*
X013471Y012627D01*
X013489Y012636D01*
X013507Y012642D01*
X013527Y012644D01*
X013547Y012642D01*
X013565Y012636D01*
X013583Y012627D01*
X013598Y012615D01*
X013610Y012600D01*
X013619Y012582D01*
X013625Y012564D01*
X013627Y012544D01*
X013625Y012524D01*
X013619Y012506D01*
X013610Y012488D01*
X013598Y012473D01*
X013583Y012461D01*
X013565Y012452D01*
X013547Y012446D01*
X013527Y012444D01*
X013507Y012446D01*
X013489Y012452D01*
X013471Y012461D01*
X013456Y012473D01*
X013444Y012488D01*
X013435Y012506D01*
X013429Y012524D01*
X013427Y012544D01*
X017677Y010894D02*
X019227Y010894D01*
X019227Y008694D01*
X017677Y008694D01*
X017677Y010894D01*
X018906Y010544D02*
X018908Y010560D01*
X018914Y010576D01*
X018923Y010590D01*
X018935Y010601D01*
X018949Y010609D01*
X018965Y010614D01*
X018981Y010615D01*
X018997Y010612D01*
X019012Y010605D01*
X019026Y010596D01*
X019036Y010583D01*
X019044Y010568D01*
X019048Y010552D01*
X019048Y010536D01*
X019044Y010520D01*
X019036Y010505D01*
X019026Y010492D01*
X019013Y010483D01*
X018997Y010476D01*
X018981Y010473D01*
X018965Y010474D01*
X018949Y010479D01*
X018935Y010487D01*
X018923Y010498D01*
X018914Y010512D01*
X018908Y010528D01*
X018906Y010544D01*
X028952Y010490D02*
X029102Y010340D01*
X029102Y010415D02*
X029102Y010190D01*
X028952Y010190D02*
X029403Y010190D01*
X029403Y010415D01*
X029328Y010490D01*
X029177Y010490D01*
X029102Y010415D01*
X029027Y010650D02*
X028952Y010725D01*
X028952Y010875D01*
X029027Y010950D01*
X029328Y010950D01*
X029403Y010875D01*
X029403Y010725D01*
X029328Y010650D01*
X029027Y010650D01*
X028952Y011110D02*
X029403Y011110D01*
X029403Y011336D01*
X029328Y011411D01*
X029177Y011411D01*
X029102Y011336D01*
X029102Y011110D01*
X029177Y010030D02*
X029102Y009954D01*
X029102Y009729D01*
X028952Y009729D02*
X029403Y009729D01*
X029403Y009954D01*
X029328Y010030D01*
X029177Y010030D01*
X029027Y009569D02*
X028952Y009494D01*
X028952Y009344D01*
X029027Y009269D01*
X029328Y009269D01*
X029403Y009344D01*
X029403Y009494D01*
X029328Y009569D01*
X029027Y009569D01*
X028952Y009569D02*
X029102Y009419D01*
D15*
X025533Y008019D02*
X025533Y007712D01*
X025456Y007558D02*
X025302Y007558D01*
X025226Y007482D01*
X025226Y007251D01*
X025072Y007251D02*
X025533Y007251D01*
X025533Y007482D01*
X025456Y007558D01*
X025226Y007405D02*
X025072Y007558D01*
X025072Y007712D02*
X025149Y007712D01*
X025456Y008019D01*
X025533Y008019D01*
X022908Y007831D02*
X022831Y007678D01*
X022677Y007524D01*
X022677Y007754D01*
X022601Y007831D01*
X022524Y007831D01*
X022447Y007754D01*
X022447Y007601D01*
X022524Y007524D01*
X022677Y007524D01*
X022524Y007371D02*
X022447Y007294D01*
X022447Y007141D01*
X022524Y007064D01*
X022831Y007064D01*
X022908Y007141D01*
X022908Y007294D01*
X022831Y007371D01*
X022047Y008350D02*
X022047Y008503D01*
X022047Y008427D02*
X021587Y008427D01*
X021587Y008503D02*
X021587Y008350D01*
X021664Y008657D02*
X021587Y008733D01*
X021587Y008887D01*
X021664Y008964D01*
X021587Y009117D02*
X021894Y009424D01*
X021971Y009424D01*
X022047Y009347D01*
X022047Y009194D01*
X021971Y009117D01*
X021971Y008964D02*
X022047Y008887D01*
X022047Y008733D01*
X021971Y008657D01*
X021664Y008657D01*
X021587Y009117D02*
X021587Y009424D01*
X018657Y011814D02*
X018657Y012274D01*
X018427Y012274D01*
X018350Y012198D01*
X018350Y012044D01*
X018427Y011967D01*
X018657Y011967D01*
X018504Y011967D02*
X018350Y011814D01*
X018197Y011814D02*
X017890Y011814D01*
X018043Y011814D02*
X018043Y012274D01*
X018197Y012121D01*
X017456Y010456D02*
X017379Y010456D01*
X017302Y010379D01*
X017226Y010456D01*
X017149Y010456D01*
X017072Y010379D01*
X017072Y010226D01*
X017149Y010149D01*
X017149Y009996D02*
X017072Y009919D01*
X017072Y009766D01*
X017149Y009689D01*
X017456Y009689D01*
X017533Y009766D01*
X017533Y009919D01*
X017456Y009996D01*
X017456Y010149D02*
X017533Y010226D01*
X017533Y010379D01*
X017456Y010456D01*
X017302Y010379D02*
X017302Y010303D01*
X024760Y013141D02*
X024760Y013294D01*
X024836Y013371D01*
X024760Y013524D02*
X024760Y013831D01*
X024760Y013678D02*
X025220Y013678D01*
X025067Y013524D01*
X025143Y013371D02*
X025220Y013294D01*
X025220Y013141D01*
X025143Y013064D01*
X024836Y013064D01*
X024760Y013141D01*
D16*
X021478Y010328D02*
X020376Y010328D01*
X020376Y008635D01*
X021478Y008635D01*
X021478Y010328D01*
X019648Y015120D02*
X019293Y015120D01*
X019923Y016104D02*
X019923Y016931D01*
X017561Y015120D02*
X017207Y015120D01*
X016931Y016104D02*
X016931Y016931D01*
X003052Y010856D02*
X002427Y010669D01*
X002427Y011044D01*
X003052Y010856D01*
X003029Y010863D02*
X002427Y010863D01*
X002427Y010785D02*
X002813Y010785D01*
X002767Y010942D02*
X002427Y010942D01*
X002427Y011020D02*
X002506Y011020D01*
X002551Y010706D02*
X002427Y010706D01*
D17*
X021183Y008842D03*
D18*
X017922Y017629D02*
X017772Y017729D01*
X017772Y017777D02*
X017772Y017877D01*
X017772Y017827D02*
X017922Y017827D01*
X017872Y017777D01*
X017922Y017729D02*
X017772Y017629D01*
D19*
X006927Y011106D02*
X006927Y007981D01*
X004677Y007981D01*
X003552Y007981D02*
X002427Y007981D01*
X002427Y011106D01*
X003552Y011106D01*
X004677Y011106D02*
X006927Y011106D01*
M02*
