G75*
G70*
%OFA0B0*%
%FSLAX24Y24*%
%IPPOS*%
%LPD*%
%AMOC8*
5,1,8,0,0,1.08239X$1,22.5*
%
%ADD10C,0.1330*%
%ADD11R,0.0840X0.2180*%
%ADD12R,0.0671X0.0592*%
%ADD13R,0.0218X0.0552*%
%ADD14R,0.0474X0.0513*%
%ADD15R,0.0277X0.1064*%
%ADD16R,0.0867X0.1064*%
%ADD17C,0.0434*%
%ADD18C,0.1261*%
%ADD19C,0.0740*%
%ADD20R,0.0867X0.0474*%
%ADD21R,0.0592X0.0316*%
%ADD22R,0.1143X0.0710*%
%ADD23C,0.0640*%
%ADD24OC8,0.0680*%
%ADD25R,0.2180X0.0730*%
%ADD26C,0.1420*%
%ADD27OC8,0.0930*%
%ADD28R,0.0513X0.0474*%
%ADD29C,0.0480*%
%ADD30C,0.0580*%
%ADD31C,0.0640*%
D10*
X005090Y004031D03*
X005090Y014831D03*
X025140Y016781D03*
X025890Y014831D03*
X025890Y004031D03*
X025140Y002281D03*
D11*
X027827Y009594D03*
X027827Y013394D03*
D12*
X024240Y013170D03*
X024240Y013918D03*
X021927Y007918D03*
X021927Y007170D03*
D13*
X021311Y008330D03*
X021055Y008330D03*
X020799Y008330D03*
X020543Y008330D03*
X020543Y010633D03*
X020799Y010633D03*
X021055Y010633D03*
X021311Y010633D03*
D14*
X018762Y011544D03*
X018093Y011544D03*
D15*
X018112Y015435D03*
X017797Y015435D03*
X018427Y015435D03*
X018742Y015435D03*
X019057Y015435D03*
D16*
X020199Y015435D03*
X020199Y017600D03*
X016656Y017600D03*
X016656Y015435D03*
D17*
X017561Y016419D03*
X019293Y016419D03*
D18*
X002127Y006094D03*
X002077Y012994D03*
D19*
X008740Y008106D03*
X009740Y008106D03*
X010740Y008106D03*
X012740Y008106D03*
X013740Y008106D03*
X014740Y008106D03*
X015740Y008106D03*
D20*
X014227Y009444D03*
X014227Y010444D03*
X014227Y011444D03*
X014227Y012444D03*
X010585Y012444D03*
X010585Y011444D03*
X010585Y010444D03*
X010585Y009444D03*
D21*
X017409Y009544D03*
X017409Y010044D03*
X017409Y010544D03*
X019477Y010544D03*
X019477Y010044D03*
X019477Y009544D03*
X019477Y009044D03*
X017409Y009044D03*
D22*
X016302Y009868D03*
X016302Y010970D03*
D23*
X007927Y004074D02*
X007927Y003514D01*
X006927Y003514D02*
X006927Y004074D01*
D24*
X013927Y004044D03*
X014927Y004044D03*
X014927Y005044D03*
X013927Y005044D03*
X013927Y003044D03*
X014927Y003044D03*
X014927Y002044D03*
X013927Y002044D03*
X013927Y014044D03*
X014927Y014044D03*
X014927Y015044D03*
X013927Y015044D03*
X013927Y016044D03*
X014927Y016044D03*
X014927Y017044D03*
X013927Y017044D03*
D25*
X008677Y010044D03*
X008677Y009044D03*
D26*
X004097Y008494D03*
X004097Y010594D03*
D27*
X023927Y009544D03*
X023927Y008544D03*
X023927Y007544D03*
X023927Y006544D03*
D28*
X024802Y007147D03*
X024802Y007816D03*
D29*
X025627Y008744D03*
X026090Y008131D03*
X023490Y010431D03*
X023490Y010931D03*
X023127Y011544D03*
X020827Y011344D03*
X020327Y011544D03*
X018940Y011031D03*
X018340Y011031D03*
X018327Y010544D03*
X018865Y009794D03*
X020027Y009544D03*
X020365Y009106D03*
X020677Y009619D03*
X020240Y010081D03*
X020027Y010544D03*
X022427Y009744D03*
X019827Y008544D03*
X021527Y006244D03*
X022827Y006044D03*
X019365Y005181D03*
X019240Y002981D03*
X020140Y002181D03*
X016340Y008731D03*
X014827Y008744D03*
X014927Y011444D03*
X015340Y011731D03*
X014740Y011931D03*
X016327Y011644D03*
X016790Y012381D03*
X018115Y013931D03*
X019840Y012981D03*
X020890Y012981D03*
X024840Y013881D03*
X018440Y016881D03*
D30*
X020740Y016681D03*
X022240Y015181D03*
X022240Y013681D03*
X009740Y012556D03*
X009740Y010806D03*
X007240Y010056D03*
X007115Y012431D03*
X007115Y013556D03*
X004115Y012931D03*
X006115Y007431D03*
X006740Y004931D03*
D31*
X025677Y005794D03*
M02*
