G75*
G70*
%OFA0B0*%
%FSLAX24Y24*%
%IPPOS*%
%LPD*%
%AMOC8*
5,1,8,0,0,1.08239X$1,22.5*
%
%ADD10R,0.0748X0.0157*%
%ADD11R,0.0157X0.0748*%
%ADD12R,0.0880X0.0480*%
%ADD13R,0.0866X0.1417*%
%ADD14R,0.1150X0.0512*%
%ADD15C,0.0660*%
%ADD16R,0.0390X0.0120*%
%ADD17R,0.1063X0.0630*%
%ADD18R,0.0760X0.2100*%
%ADD19R,0.0433X0.0394*%
%ADD20C,0.0560*%
%ADD21OC8,0.0600*%
%ADD22OC8,0.0850*%
%ADD23R,0.0256X0.0138*%
%ADD24R,0.0138X0.0256*%
%ADD25R,0.1220X0.1220*%
%ADD26R,0.0591X0.0512*%
%ADD27R,0.0472X0.0472*%
%ADD28R,0.0394X0.0433*%
%ADD29R,0.0512X0.0591*%
%ADD30R,0.0630X0.1063*%
%ADD31C,0.0100*%
%ADD32C,0.0400*%
%ADD33C,0.0500*%
%ADD34C,0.0400*%
%ADD35C,0.0120*%
%ADD36C,0.0240*%
%ADD37C,0.0320*%
%ADD38C,0.0160*%
%ADD39C,0.0560*%
%ADD40C,0.0200*%
D10*
X017178Y008474D03*
X017178Y008789D03*
X017178Y009104D03*
X017178Y009419D03*
X017178Y009734D03*
X017178Y010049D03*
X017178Y010364D03*
X017178Y010679D03*
X017178Y010994D03*
X017178Y011309D03*
X017178Y011624D03*
X021666Y011624D03*
X021666Y011309D03*
X021666Y010994D03*
X021666Y010679D03*
X021666Y010364D03*
X021666Y010049D03*
X021666Y009734D03*
X021666Y009419D03*
X021666Y009104D03*
X021666Y008789D03*
X021666Y008474D03*
D11*
X020997Y007805D03*
X020682Y007805D03*
X020367Y007805D03*
X020052Y007805D03*
X019737Y007805D03*
X019422Y007805D03*
X019107Y007805D03*
X018792Y007805D03*
X018477Y007805D03*
X018162Y007805D03*
X017847Y007805D03*
X017847Y012293D03*
X018162Y012293D03*
X018477Y012293D03*
X018792Y012293D03*
X019107Y012293D03*
X019422Y012293D03*
X019737Y012293D03*
X020052Y012293D03*
X020367Y012293D03*
X020682Y012293D03*
X020997Y012293D03*
D12*
X020957Y013884D03*
X020957Y014794D03*
X020957Y015704D03*
D13*
X023397Y014794D03*
D14*
X006054Y013584D03*
X006054Y012403D03*
X004235Y012403D03*
X004235Y013584D03*
X004285Y006684D03*
X004285Y005503D03*
X006104Y005503D03*
X006104Y006684D03*
D15*
X008740Y008106D03*
X009740Y008106D03*
X010740Y008106D03*
X012740Y008106D03*
X013740Y008106D03*
X014740Y008106D03*
X015740Y008106D03*
D16*
X022778Y008184D03*
X022778Y008440D03*
X022778Y008696D03*
X022778Y007928D03*
X022778Y007672D03*
X022778Y007416D03*
X022778Y007160D03*
X022778Y006904D03*
X022778Y006648D03*
X022778Y006392D03*
X025076Y006392D03*
X025076Y006648D03*
X025076Y006904D03*
X025076Y007160D03*
X025076Y007416D03*
X025076Y007672D03*
X025076Y007928D03*
X025076Y008184D03*
X025076Y008440D03*
X025076Y008696D03*
D17*
X008552Y007033D03*
X008552Y005930D03*
D18*
X027827Y009594D03*
X027827Y013394D03*
D19*
X026427Y006379D03*
X026427Y005709D03*
X023527Y005129D03*
X023527Y004459D03*
X021602Y003391D03*
X021602Y002722D03*
X009427Y003584D03*
X009427Y004254D03*
D20*
X007927Y004074D02*
X007927Y003514D01*
X006927Y003514D02*
X006927Y004074D01*
D21*
X013927Y004044D03*
X014927Y004044D03*
X014927Y005044D03*
X013927Y005044D03*
X013927Y003044D03*
X014927Y003044D03*
X014927Y002044D03*
X013927Y002044D03*
X013927Y014044D03*
X014927Y014044D03*
X014927Y015044D03*
X013927Y015044D03*
X013927Y016044D03*
X014927Y016044D03*
X014927Y017044D03*
X013927Y017044D03*
D22*
X023927Y009544D03*
X023927Y008544D03*
X023927Y007544D03*
X023927Y006544D03*
D23*
X016070Y009520D03*
X016070Y009776D03*
X016070Y010032D03*
X016070Y010288D03*
X016070Y010544D03*
X014357Y010544D03*
X014357Y010288D03*
X014357Y010032D03*
X014357Y009776D03*
X014357Y009520D03*
D24*
X014712Y009176D03*
X014968Y009176D03*
X015223Y009176D03*
X015479Y009176D03*
X015735Y009176D03*
X015735Y010888D03*
X015479Y010888D03*
X015223Y010888D03*
X014968Y010888D03*
X014712Y010888D03*
D25*
X015223Y010032D03*
D26*
X019302Y013445D03*
X019302Y014193D03*
X018677Y003380D03*
X018677Y002632D03*
D27*
X019764Y002694D03*
X020591Y002694D03*
X021201Y005731D03*
X022028Y005731D03*
X027339Y005669D03*
X028166Y005669D03*
X028166Y006494D03*
X027339Y006494D03*
D28*
X020574Y005731D03*
X019905Y005731D03*
D29*
X026053Y007544D03*
X026801Y007544D03*
X024551Y012744D03*
X023803Y012744D03*
D30*
X014991Y006369D03*
X013888Y006369D03*
D31*
X013890Y006381D01*
X013890Y007131D01*
X014740Y007981D01*
X014740Y008081D01*
X014740Y008106D01*
X015240Y007831D02*
X014340Y006931D01*
X014340Y005481D01*
X013940Y005081D01*
X013927Y005044D01*
X013440Y004531D02*
X013890Y004081D01*
X013927Y004044D01*
X013440Y004531D02*
X013440Y006981D01*
X014240Y007781D01*
X014240Y008681D01*
X014690Y009131D01*
X014712Y009176D01*
X014927Y009144D02*
X014968Y009176D01*
X014927Y009144D02*
X014927Y008844D01*
X014827Y008744D01*
X015240Y009131D02*
X015223Y009176D01*
X015240Y009131D02*
X015240Y007831D01*
X015040Y007331D02*
X015790Y008081D01*
X015740Y008106D01*
X016227Y008344D02*
X017027Y008344D01*
X017127Y008444D01*
X017178Y008474D01*
X017178Y008789D02*
X017127Y008844D01*
X016727Y008844D01*
X016427Y009144D01*
X016427Y009244D01*
X016127Y009544D01*
X016070Y009520D01*
X016127Y009744D02*
X016070Y009776D01*
X016127Y009744D02*
X016227Y009744D01*
X016627Y009344D01*
X016627Y009244D01*
X016727Y009144D01*
X017127Y009144D01*
X017178Y009104D01*
X017178Y009419D02*
X017227Y009444D01*
X017527Y009444D01*
X018327Y010244D01*
X018327Y010544D01*
X017940Y010781D02*
X017940Y010131D01*
X017540Y009731D01*
X017190Y009731D01*
X017178Y009734D01*
X017227Y010044D02*
X017178Y010049D01*
X017227Y010044D02*
X017227Y010344D01*
X017178Y010364D01*
X017127Y010344D01*
X017227Y010344D02*
X017527Y010344D01*
X017727Y010544D01*
X017727Y010844D01*
X017927Y011044D01*
X017927Y011144D01*
X018227Y011444D01*
X019427Y011444D01*
X019427Y009794D01*
X018865Y009794D01*
X019427Y009794D02*
X019427Y007844D01*
X019422Y007805D01*
X019127Y007744D02*
X019107Y007805D01*
X019127Y007744D02*
X019127Y007444D01*
X019927Y006644D01*
X022727Y006644D01*
X022778Y006648D01*
X022778Y006904D02*
X022827Y006944D01*
X023527Y006944D01*
X023627Y006844D01*
X023927Y006544D01*
X023627Y006844D02*
X020627Y006844D01*
X020127Y007344D01*
X020127Y007744D01*
X020052Y007805D01*
X020367Y007805D02*
X020427Y007744D01*
X020427Y007344D01*
X020727Y007044D01*
X022427Y007044D01*
X022527Y007144D01*
X022727Y007144D01*
X022778Y007160D01*
X022827Y007144D01*
X023527Y007144D01*
X023927Y007544D01*
X023927Y008344D02*
X023027Y007444D01*
X022827Y007444D01*
X022778Y007416D01*
X022727Y007444D01*
X022527Y007444D01*
X022327Y007244D01*
X020827Y007244D01*
X020727Y007344D01*
X020727Y007744D01*
X020682Y007805D01*
X020997Y007805D02*
X021027Y007844D01*
X021127Y007944D01*
X022727Y007944D01*
X022778Y007928D01*
X022827Y007944D01*
X023027Y007944D01*
X023327Y008244D01*
X023327Y008944D01*
X023927Y009544D01*
X023927Y009544D01*
X023140Y010081D02*
X023490Y010431D01*
X023140Y010081D02*
X021690Y010081D01*
X021666Y010049D01*
X021666Y010364D02*
X021690Y010381D01*
X022940Y010381D01*
X023490Y010931D01*
X023127Y011544D02*
X021827Y011544D01*
X021727Y011644D01*
X021666Y011624D01*
X021666Y011309D02*
X021627Y011244D01*
X021227Y011244D01*
X020527Y010544D01*
X020027Y010544D01*
X020240Y010081D02*
X020390Y010081D01*
X021290Y010981D01*
X021640Y010981D01*
X021666Y010994D01*
X021727Y011044D01*
X021666Y010679D02*
X021640Y010631D01*
X021290Y010631D01*
X021040Y010381D01*
X021040Y009281D01*
X020340Y008581D01*
X019840Y008581D01*
X019827Y008544D01*
X019727Y008444D01*
X019727Y007844D01*
X019737Y007805D01*
X018827Y007744D02*
X018827Y007444D01*
X019827Y006444D01*
X019827Y005744D01*
X019905Y005731D01*
X020574Y005731D02*
X020627Y005744D01*
X021127Y005744D01*
X021201Y005731D01*
X021527Y006244D02*
X022027Y005744D01*
X022028Y005731D01*
X022827Y006044D02*
X022827Y006344D01*
X022778Y006392D01*
X024977Y005879D02*
X024990Y005831D01*
X024990Y005231D01*
X024923Y005132D01*
X024790Y004481D02*
X025690Y005381D01*
X027040Y005381D01*
X027290Y005631D01*
X027339Y005669D01*
X026540Y005731D02*
X027290Y006481D01*
X027339Y006494D01*
X027790Y006881D02*
X026690Y006881D01*
X026390Y007181D01*
X026390Y007231D01*
X026090Y007531D01*
X026053Y007544D01*
X026090Y007581D01*
X026090Y008131D01*
X025640Y008169D02*
X026765Y009356D01*
X026790Y009331D01*
X026790Y007581D01*
X026801Y007544D01*
X027790Y006881D02*
X028140Y006531D01*
X028166Y006494D01*
X028190Y006481D01*
X028190Y005681D01*
X028166Y005669D01*
X026540Y005731D02*
X026440Y005731D01*
X026427Y005709D01*
X024790Y004481D02*
X023540Y004481D01*
X023527Y004459D01*
X021602Y003391D02*
X021565Y003381D01*
X020140Y003381D01*
X020140Y002181D01*
X019764Y002694D02*
X019740Y002681D01*
X019240Y002681D01*
X019240Y002981D01*
X019240Y002681D02*
X018690Y002681D01*
X018677Y002632D01*
X018677Y003380D02*
X018715Y003381D01*
X020140Y003381D01*
X020615Y002731D02*
X020591Y002694D01*
X020615Y002731D02*
X021565Y002731D01*
X021602Y002722D01*
X019390Y005169D02*
X019390Y005181D01*
X019365Y005181D01*
X018827Y007744D02*
X018792Y007805D01*
X016227Y008344D02*
X015927Y008644D01*
X015827Y008644D01*
X015527Y008944D01*
X015527Y009144D01*
X015479Y009176D01*
X015727Y009144D02*
X015735Y009176D01*
X015727Y009144D02*
X015927Y009144D01*
X016327Y008744D01*
X016340Y008731D01*
X016327Y010044D02*
X016127Y010044D01*
X016070Y010032D01*
X016070Y010288D02*
X016127Y010344D01*
X016327Y010344D01*
X016427Y010444D01*
X016427Y010644D01*
X016727Y010944D01*
X017127Y010944D01*
X017178Y010994D01*
X017127Y011244D02*
X017178Y011309D01*
X017127Y011244D02*
X016727Y011244D01*
X016127Y010644D01*
X016127Y010544D01*
X016070Y010544D01*
X016127Y010944D02*
X015727Y010944D01*
X015735Y010888D01*
X015527Y010944D02*
X015479Y010888D01*
X015527Y010944D02*
X015527Y011344D01*
X016227Y012044D01*
X017627Y012044D01*
X017827Y012244D01*
X017847Y012293D01*
X018140Y012331D02*
X018162Y012293D01*
X019090Y012331D02*
X019107Y012293D01*
X019090Y012331D02*
X019090Y012831D01*
X018115Y013931D01*
X019290Y014231D02*
X019302Y014193D01*
X020190Y014631D02*
X018440Y016381D01*
X018440Y016881D01*
X020190Y014631D02*
X020190Y012831D01*
X020040Y012681D01*
X020040Y012331D01*
X020052Y012293D01*
X020327Y012244D02*
X020367Y012293D01*
X020327Y012244D02*
X020327Y011544D01*
X020727Y011844D02*
X020727Y012244D01*
X020682Y012293D01*
X020990Y012331D02*
X020997Y012293D01*
X021027Y012244D01*
X020990Y012331D02*
X020990Y012881D01*
X020890Y012981D01*
X019840Y012981D02*
X019740Y012881D01*
X019740Y012331D01*
X019737Y012293D01*
X019427Y012244D02*
X019422Y012293D01*
X019390Y012331D01*
X019340Y012381D01*
X019340Y013431D01*
X019302Y013445D01*
X019427Y012244D02*
X019427Y011444D01*
X018340Y011031D02*
X018190Y011031D01*
X017940Y010781D01*
X017178Y010679D02*
X017127Y010644D01*
X016727Y010644D01*
X016627Y010544D01*
X016627Y010344D01*
X016327Y010044D01*
X016127Y010944D02*
X016827Y011644D01*
X017127Y011644D01*
X017178Y011624D01*
X015340Y011731D02*
X015340Y011381D01*
X015240Y011281D01*
X015240Y010931D01*
X015223Y010888D01*
X014990Y010881D02*
X014968Y010888D01*
X014927Y010944D01*
X014927Y011444D01*
X014690Y011181D02*
X013940Y011931D01*
X013940Y014031D01*
X013927Y014044D01*
X013490Y014631D02*
X013890Y015031D01*
X013927Y015044D01*
X013490Y014631D02*
X013490Y012081D01*
X014340Y011231D01*
X014340Y010581D01*
X014357Y010544D01*
X014340Y010331D02*
X014357Y010288D01*
X014340Y010331D02*
X014140Y010331D01*
X013290Y011181D01*
X013290Y015431D01*
X013890Y016031D01*
X013927Y016044D01*
X012990Y016131D02*
X013890Y017031D01*
X013927Y017044D01*
X012990Y016131D02*
X012990Y011181D01*
X014090Y010081D01*
X014340Y010081D01*
X014357Y010032D01*
X014357Y009776D02*
X014340Y009731D01*
X013690Y009731D01*
X012240Y008281D01*
X012240Y003731D01*
X013890Y002081D01*
X013927Y002044D01*
X013927Y003044D02*
X013890Y003081D01*
X013240Y003731D01*
X013240Y008281D01*
X014340Y009381D01*
X014340Y009481D01*
X014357Y009520D01*
X015190Y010081D02*
X015223Y010032D01*
X015190Y010081D02*
X015190Y010531D01*
X014990Y010731D01*
X014990Y010881D01*
X014712Y010888D02*
X014690Y010931D01*
X014690Y011181D01*
X020727Y011844D02*
X020827Y011744D01*
X020827Y011344D01*
X021666Y009734D02*
X021727Y009744D01*
X022427Y009744D01*
X021727Y009044D02*
X021666Y009104D01*
X021727Y009044D02*
X022127Y009044D01*
X022427Y008744D01*
X022727Y008744D01*
X022778Y008696D01*
X022778Y008440D02*
X022727Y008444D01*
X022427Y008444D01*
X022127Y008744D01*
X021727Y008744D01*
X021666Y008789D01*
X021666Y008474D02*
X021727Y008444D01*
X022027Y008144D01*
X022727Y008144D01*
X022778Y008184D01*
X023927Y008344D02*
X023927Y008544D01*
X025076Y008696D02*
X025127Y008744D01*
X025627Y008744D01*
X025640Y008169D02*
X025090Y008169D01*
X025076Y008184D01*
X026765Y009356D02*
X026990Y009581D01*
X027790Y009581D01*
X027827Y009594D01*
X024590Y012731D02*
X024551Y012744D01*
X023803Y012744D02*
X023790Y012781D01*
X023290Y014931D01*
X023440Y014781D01*
X023397Y014794D01*
X015040Y007331D02*
X015040Y006381D01*
X014991Y006369D01*
X009427Y004254D02*
X008890Y004281D01*
X008390Y004281D01*
X006390Y006281D01*
X004690Y006281D01*
X004290Y006681D01*
X004285Y006684D01*
X006927Y003844D02*
X006927Y003794D01*
X007927Y003794D02*
X007940Y003781D01*
X008090Y003631D01*
X008890Y003631D01*
X009427Y003584D01*
X003490Y011931D02*
X003390Y012031D01*
X004240Y013431D02*
X004240Y013581D01*
X004235Y013584D01*
D32*
X014740Y011931D03*
X015340Y011731D03*
X014927Y011444D03*
X016327Y011644D03*
X016790Y012381D03*
X018340Y011031D03*
X018940Y011031D03*
X018327Y010544D03*
X018865Y009794D03*
X020027Y009544D03*
X020365Y009106D03*
X020677Y009619D03*
X020240Y010081D03*
X020027Y010544D03*
X020827Y011344D03*
X020327Y011544D03*
X019840Y012981D03*
X020890Y012981D03*
X023127Y011544D03*
X023490Y010931D03*
X023490Y010431D03*
X022427Y009744D03*
X019827Y008544D03*
X021527Y006244D03*
X022827Y006044D03*
X019365Y005181D03*
X019240Y002981D03*
X020140Y002181D03*
X026090Y008131D03*
X025627Y008744D03*
X024840Y013881D03*
X018440Y016881D03*
X018115Y013931D03*
X016340Y008731D03*
X014827Y008744D03*
D33*
X009740Y010806D03*
X007240Y010056D03*
X007115Y012431D03*
X007115Y013556D03*
X009740Y012556D03*
X004115Y012931D03*
X006115Y007431D03*
X006740Y004931D03*
X022240Y013681D03*
X022240Y015181D03*
X020740Y016681D03*
D34*
X020740Y015681D01*
X020957Y015681D01*
X020957Y015704D01*
X022240Y015181D02*
X022990Y014431D01*
X023290Y014931D01*
X022240Y014794D02*
X022240Y015181D01*
X022240Y014794D02*
X020957Y014794D01*
X020957Y013884D02*
X021160Y013681D01*
X022240Y013681D01*
D35*
X019290Y014231D02*
X019240Y014181D01*
X018115Y013931D01*
X022740Y009181D02*
X023843Y010285D01*
X024197Y010431D02*
X024615Y010431D01*
X024197Y010431D02*
X024153Y010429D01*
X024110Y010423D01*
X024068Y010414D01*
X024026Y010401D01*
X023986Y010384D01*
X023947Y010364D01*
X023910Y010341D01*
X023876Y010314D01*
X023843Y010285D01*
X022740Y009181D02*
X022365Y009181D01*
D36*
X026177Y006544D02*
X026262Y006544D01*
X026285Y006542D01*
X026308Y006537D01*
X026331Y006529D01*
X026351Y006518D01*
X026370Y006504D01*
X026387Y006487D01*
X026401Y006468D01*
X026412Y006448D01*
X026420Y006425D01*
X026425Y006402D01*
X026427Y006379D01*
X026427Y006294D01*
X026427Y006379D02*
X026429Y006362D01*
X026433Y006346D01*
X026441Y006332D01*
X026452Y006319D01*
X026465Y006308D01*
X026479Y006300D01*
X026495Y006296D01*
X026512Y006294D01*
X026177Y006544D02*
X026133Y006542D01*
X026090Y006536D01*
X026048Y006527D01*
X026006Y006514D01*
X025966Y006497D01*
X025927Y006477D01*
X025890Y006454D01*
X025856Y006427D01*
X025823Y006398D01*
X025794Y006365D01*
X025767Y006331D01*
X025744Y006294D01*
X025724Y006255D01*
X025707Y006215D01*
X025694Y006173D01*
X025685Y006131D01*
X025679Y006088D01*
X025677Y006044D01*
X025677Y005794D01*
X024923Y005132D02*
X023527Y005129D01*
X024835Y005169D02*
X019390Y005169D01*
X019302Y005169D01*
X024835Y005169D02*
X024855Y005167D01*
X024874Y005163D01*
X024892Y005155D01*
X024908Y005145D01*
X024923Y005132D01*
X005365Y011556D02*
X005115Y011806D01*
X005115Y013056D01*
X004740Y013431D01*
X004240Y013431D01*
D37*
X005865Y004931D02*
X006927Y003869D01*
X006927Y003794D01*
X006740Y004931D02*
X006168Y005503D01*
X006104Y005503D01*
X005865Y004931D02*
X005357Y004931D01*
X004285Y005503D01*
X003240Y006181D01*
X002740Y007181D01*
X002740Y011181D01*
X003490Y011931D01*
X003962Y012403D01*
X004235Y012403D01*
X004235Y012811D01*
X004115Y012931D01*
X005365Y011556D02*
X005365Y010806D01*
X009740Y010806D01*
X007115Y012431D02*
X007087Y012403D01*
X006054Y012403D01*
X006054Y013584D02*
X007115Y013556D01*
X005365Y010806D02*
X005365Y007764D01*
X004285Y006684D01*
X006104Y006684D02*
X006104Y007420D01*
X006115Y007431D01*
X008552Y007033D02*
X008740Y007220D01*
X008740Y008106D01*
X009740Y008106D02*
X009740Y005931D01*
X009740Y005931D01*
X008553Y005931D01*
X008552Y005930D01*
X024551Y012744D02*
X027177Y012744D01*
X027827Y013394D01*
D38*
X024615Y012706D02*
X024615Y010431D01*
X024615Y008431D01*
X024623Y008440D01*
X025076Y008440D01*
X025076Y006648D02*
X026158Y006648D01*
X026158Y006649D02*
X026188Y006647D01*
X026218Y006642D01*
X026247Y006634D01*
X026275Y006622D01*
X026302Y006608D01*
X026326Y006590D01*
X026349Y006570D01*
X026369Y006547D01*
X026387Y006523D01*
X026401Y006496D01*
X026413Y006468D01*
X026421Y006439D01*
X026426Y006409D01*
X026428Y006379D01*
X025076Y006392D02*
X024927Y006392D01*
X024977Y005879D01*
X022365Y009181D02*
X022127Y009419D01*
X021666Y009419D01*
X024615Y012706D02*
X024590Y012731D01*
D39*
X025677Y005794D03*
D40*
X018477Y005801D02*
X018477Y007805D01*
X018162Y007805D02*
X018162Y006486D01*
X018160Y006442D01*
X018154Y006399D01*
X018145Y006357D01*
X018132Y006315D01*
X018115Y006275D01*
X018095Y006236D01*
X018072Y006199D01*
X018045Y006165D01*
X018016Y006132D01*
X018016Y006133D02*
X014927Y003044D01*
X014927Y004044D02*
X017701Y006818D01*
X017847Y007171D02*
X017847Y007805D01*
X017847Y007171D02*
X017845Y007127D01*
X017839Y007084D01*
X017830Y007042D01*
X017817Y007000D01*
X017800Y006960D01*
X017780Y006921D01*
X017757Y006884D01*
X017730Y006850D01*
X017701Y006817D01*
X018477Y005801D02*
X018475Y005757D01*
X018469Y005714D01*
X018460Y005672D01*
X018447Y005630D01*
X018430Y005590D01*
X018410Y005551D01*
X018387Y005514D01*
X018360Y005480D01*
X018331Y005447D01*
X018331Y005448D02*
X014927Y002044D01*
X014740Y011931D02*
X015781Y012972D01*
X016134Y013119D02*
X017948Y013119D01*
X018019Y013090D02*
X018110Y012998D01*
X018162Y012872D02*
X018162Y012293D01*
X018162Y012872D02*
X018160Y012895D01*
X018156Y012918D01*
X018148Y012940D01*
X018138Y012961D01*
X018125Y012980D01*
X018110Y012998D01*
X018019Y013090D02*
X018007Y013100D01*
X017993Y013108D01*
X017979Y013114D01*
X017964Y013118D01*
X017948Y013119D01*
X016134Y013119D02*
X016090Y013117D01*
X016047Y013111D01*
X016005Y013102D01*
X015963Y013089D01*
X015923Y013072D01*
X015884Y013052D01*
X015847Y013029D01*
X015813Y013002D01*
X015780Y012973D01*
M02*
