G75*
G70*
%OFA0B0*%
%FSLAX24Y24*%
%IPPOS*%
%LPD*%
%AMOC8*
5,1,8,0,0,1.08239X$1,22.5*
%
%ADD10C,0.0630*%
%ADD11C,0.0594*%
%ADD12C,0.0560*%
%ADD13C,0.0600*%
%ADD14C,0.0780*%
%ADD15C,0.0400*%
%ADD16C,0.0160*%
%ADD17C,0.0100*%
D10*
X005436Y005789D03*
X006616Y005789D03*
X006616Y006969D03*
X005436Y006969D03*
X005449Y011939D03*
X006629Y011939D03*
X006629Y013119D03*
X005449Y013119D03*
D11*
X007681Y008106D03*
X008681Y008106D03*
X009681Y008106D03*
X011681Y008106D03*
X012681Y008106D03*
X013681Y008106D03*
X014681Y008106D03*
D12*
X007869Y003294D03*
X006869Y003294D03*
X006931Y014681D03*
X007931Y014681D03*
X005931Y014681D03*
D13*
X012869Y015044D03*
X013869Y015044D03*
X013869Y014044D03*
X012869Y014044D03*
X012869Y016044D03*
X013869Y016044D03*
X013869Y017044D03*
X012869Y017044D03*
X012869Y005044D03*
X013869Y005044D03*
X013869Y004044D03*
X012869Y004044D03*
X012869Y003044D03*
X013869Y003044D03*
X013869Y002044D03*
X012869Y002044D03*
D14*
X022869Y006544D03*
X022869Y007544D03*
X022869Y008544D03*
X022869Y009544D03*
D15*
X022431Y010431D03*
X022431Y010931D03*
X021281Y011331D03*
X020631Y012031D03*
X019331Y011631D03*
X018681Y011531D03*
X018181Y011331D03*
X017119Y011369D03*
X016331Y012481D03*
X015269Y011644D03*
X014281Y011731D03*
X013869Y011444D03*
X013231Y012081D03*
X013231Y012881D03*
X009931Y010931D03*
X009056Y009931D03*
X009056Y009369D03*
X006181Y010056D03*
X008556Y013556D03*
X009806Y013431D03*
X013731Y008731D03*
X014181Y008481D03*
X015281Y008731D03*
X015181Y007731D03*
X016781Y009431D03*
X016781Y010031D03*
X018431Y009681D03*
X019031Y009631D03*
X019431Y010081D03*
X019131Y010531D03*
X019081Y008481D03*
X020469Y006244D03*
X021731Y006031D03*
X024619Y005794D03*
X025031Y008131D03*
X024569Y008744D03*
X019631Y012981D03*
X018831Y013481D03*
X018731Y012981D03*
X021181Y013681D03*
X021181Y015181D03*
X019681Y016681D03*
X018306Y005181D03*
X018181Y002981D03*
X019081Y002181D03*
D16*
X003161Y001777D02*
X003161Y000681D01*
X010056Y000681D01*
X010056Y007835D01*
X009940Y007719D01*
X009772Y007650D01*
X009591Y007650D01*
X009423Y007719D01*
X009294Y007848D01*
X009225Y008016D01*
X009225Y008197D01*
X009294Y008365D01*
X009423Y008494D01*
X009591Y008563D01*
X009772Y008563D01*
X009940Y008494D01*
X010056Y008378D01*
X010056Y010594D01*
X010003Y010571D01*
X009860Y010571D01*
X009727Y010626D01*
X009626Y010727D01*
X009571Y010860D01*
X009571Y011003D01*
X009626Y011135D01*
X009727Y011237D01*
X009860Y011291D01*
X010003Y011291D01*
X010056Y011269D01*
X010056Y013172D01*
X010010Y013126D01*
X009878Y013071D01*
X009735Y013071D01*
X009602Y013126D01*
X009501Y013227D01*
X009446Y013360D01*
X009446Y013503D01*
X009501Y013635D01*
X009602Y013737D01*
X009735Y013791D01*
X009878Y013791D01*
X010010Y013737D01*
X010056Y013690D01*
X010056Y017681D01*
X003161Y017681D01*
X003161Y017277D01*
X003161Y017181D01*
X003161Y016987D01*
X010056Y016987D01*
X010056Y017146D02*
X003161Y017146D01*
X003161Y017304D02*
X010056Y017304D01*
X010056Y017463D02*
X003161Y017463D01*
X003161Y017621D02*
X010056Y017621D01*
X010056Y016828D02*
X003119Y016828D01*
X003076Y016670D02*
X010056Y016670D01*
X010056Y016511D02*
X003003Y016511D01*
X003061Y016610D02*
X002866Y016273D01*
X002866Y016273D01*
X002590Y015997D01*
X002590Y015997D01*
X002253Y015802D01*
X002253Y015802D01*
X001876Y015701D01*
X001876Y015701D01*
X001777Y015701D01*
X000681Y015701D01*
X000681Y003161D01*
X001586Y003161D01*
X001681Y003161D01*
X001777Y003161D01*
X001876Y003161D01*
X001876Y003161D01*
X002253Y003061D01*
X002253Y003061D01*
X002590Y002866D01*
X002590Y002866D01*
X002866Y002590D01*
X002866Y002590D01*
X003061Y002253D01*
X003061Y002253D01*
X003161Y001876D01*
X003161Y001777D01*
X003161Y001767D02*
X010056Y001767D01*
X010056Y001925D02*
X003148Y001925D01*
X003161Y001876D02*
X003161Y001876D01*
X003161Y001608D02*
X010056Y001608D01*
X010056Y001450D02*
X003161Y001450D01*
X003161Y001291D02*
X010056Y001291D01*
X010056Y001133D02*
X003161Y001133D01*
X003161Y000974D02*
X010056Y000974D01*
X010056Y000816D02*
X003161Y000816D01*
X003106Y002084D02*
X010056Y002084D01*
X010056Y002242D02*
X003063Y002242D01*
X002975Y002401D02*
X010056Y002401D01*
X010056Y002560D02*
X002883Y002560D01*
X002738Y002718D02*
X010056Y002718D01*
X010056Y002877D02*
X008011Y002877D01*
X007956Y002854D02*
X008118Y002921D01*
X008242Y003045D01*
X008309Y003206D01*
X008309Y003381D01*
X008242Y003543D01*
X008118Y003667D01*
X007956Y003734D01*
X007781Y003734D01*
X007620Y003667D01*
X007496Y003543D01*
X007429Y003381D01*
X007429Y003206D01*
X007496Y003045D01*
X007620Y002921D01*
X007781Y002854D01*
X007956Y002854D01*
X007726Y002877D02*
X007011Y002877D01*
X006956Y002854D02*
X007118Y002921D01*
X007242Y003045D01*
X007309Y003206D01*
X007309Y003381D01*
X007242Y003543D01*
X007118Y003667D01*
X006956Y003734D01*
X006781Y003734D01*
X006620Y003667D01*
X006496Y003543D01*
X006429Y003381D01*
X006429Y003206D01*
X006496Y003045D01*
X006620Y002921D01*
X006781Y002854D01*
X006956Y002854D01*
X006726Y002877D02*
X002571Y002877D01*
X002296Y003035D02*
X003547Y003035D01*
X003605Y003002D02*
X003886Y002926D01*
X004177Y002926D01*
X004458Y003002D01*
X004710Y003147D01*
X004916Y003353D01*
X005061Y003605D01*
X005136Y003886D01*
X005136Y004177D01*
X005061Y004458D01*
X004916Y004710D01*
X004710Y004916D01*
X004458Y005061D01*
X004177Y005136D01*
X003886Y005136D01*
X003605Y005061D01*
X003353Y004916D01*
X003147Y004710D01*
X003002Y004458D01*
X002926Y004177D01*
X002926Y003886D01*
X003002Y003605D01*
X003147Y003353D01*
X003353Y003147D01*
X003605Y003002D01*
X003306Y003194D02*
X000681Y003194D01*
X000681Y003352D02*
X003148Y003352D01*
X003056Y003511D02*
X000681Y003511D01*
X000681Y003669D02*
X002984Y003669D01*
X002942Y003828D02*
X000681Y003828D01*
X000681Y003986D02*
X002926Y003986D01*
X002926Y004145D02*
X000681Y004145D01*
X000681Y004304D02*
X002960Y004304D01*
X003004Y004462D02*
X000681Y004462D01*
X000681Y004621D02*
X003096Y004621D01*
X003216Y004779D02*
X000681Y004779D01*
X000681Y004938D02*
X003391Y004938D01*
X003736Y005096D02*
X000681Y005096D01*
X000681Y005255D02*
X010056Y005255D01*
X010056Y005413D02*
X006913Y005413D01*
X006886Y005386D02*
X007019Y005520D01*
X007091Y005694D01*
X007091Y005883D01*
X007019Y006058D01*
X006886Y006192D01*
X006711Y006264D01*
X006522Y006264D01*
X006347Y006192D01*
X006214Y006058D01*
X006141Y005883D01*
X006141Y005694D01*
X006214Y005520D01*
X006347Y005386D01*
X006522Y005314D01*
X006711Y005314D01*
X006886Y005386D01*
X007041Y005572D02*
X010056Y005572D01*
X010056Y005730D02*
X007091Y005730D01*
X007089Y005889D02*
X010056Y005889D01*
X010056Y006048D02*
X007023Y006048D01*
X006851Y006206D02*
X010056Y006206D01*
X010056Y006365D02*
X004806Y006365D01*
X004806Y006238D02*
X004734Y005966D01*
X004593Y005722D01*
X004393Y005523D01*
X004149Y005382D01*
X003877Y005309D01*
X003596Y005309D01*
X003323Y005382D01*
X003079Y005523D01*
X002880Y005722D01*
X002739Y005966D01*
X002666Y006238D01*
X002666Y006520D01*
X002739Y006792D01*
X002880Y007036D01*
X003079Y007235D01*
X003323Y007376D01*
X003596Y007449D01*
X003877Y007449D01*
X004149Y007376D01*
X004393Y007235D01*
X004593Y007036D01*
X004734Y006792D01*
X004806Y006520D01*
X004806Y006238D01*
X004798Y006206D02*
X005202Y006206D01*
X005167Y006192D02*
X005342Y006264D01*
X005531Y006264D01*
X005706Y006192D01*
X005839Y006058D01*
X005911Y005883D01*
X005911Y005694D01*
X005839Y005520D01*
X005706Y005386D01*
X005531Y005314D01*
X005342Y005314D01*
X005167Y005386D01*
X005034Y005520D01*
X004961Y005694D01*
X004961Y005883D01*
X005034Y006058D01*
X005167Y006192D01*
X005029Y006048D02*
X004755Y006048D01*
X004689Y005889D02*
X004964Y005889D01*
X004961Y005730D02*
X004598Y005730D01*
X004443Y005572D02*
X005012Y005572D01*
X005140Y005413D02*
X004204Y005413D01*
X004327Y005096D02*
X010056Y005096D01*
X010056Y004938D02*
X004672Y004938D01*
X004846Y004779D02*
X010056Y004779D01*
X010056Y004621D02*
X004967Y004621D01*
X005059Y004462D02*
X010056Y004462D01*
X010056Y004304D02*
X005102Y004304D01*
X005136Y004145D02*
X010056Y004145D01*
X010056Y003986D02*
X005136Y003986D01*
X005121Y003828D02*
X010056Y003828D01*
X010056Y003669D02*
X008112Y003669D01*
X008255Y003511D02*
X010056Y003511D01*
X010056Y003352D02*
X008309Y003352D01*
X008304Y003194D02*
X010056Y003194D01*
X010056Y003035D02*
X008232Y003035D01*
X007505Y003035D02*
X007232Y003035D01*
X007304Y003194D02*
X007434Y003194D01*
X007429Y003352D02*
X007309Y003352D01*
X007255Y003511D02*
X007483Y003511D01*
X007626Y003669D02*
X007112Y003669D01*
X006626Y003669D02*
X005078Y003669D01*
X005007Y003511D02*
X006483Y003511D01*
X006429Y003352D02*
X004915Y003352D01*
X004756Y003194D02*
X006434Y003194D01*
X006505Y003035D02*
X004516Y003035D01*
X005733Y005413D02*
X006320Y005413D01*
X006192Y005572D02*
X005861Y005572D01*
X005911Y005730D02*
X006141Y005730D01*
X006144Y005889D02*
X005909Y005889D01*
X005843Y006048D02*
X006209Y006048D01*
X006382Y006206D02*
X005671Y006206D01*
X005535Y006474D02*
X005461Y006474D01*
X005461Y006944D01*
X005411Y006944D01*
X004941Y006944D01*
X004941Y006870D01*
X005017Y006689D01*
X005156Y006549D01*
X005338Y006474D01*
X005411Y006474D01*
X005411Y006944D01*
X005411Y006994D01*
X004941Y006994D01*
X004941Y007067D01*
X005017Y007249D01*
X005156Y007389D01*
X005338Y007464D01*
X005411Y007464D01*
X005411Y006994D01*
X005461Y006994D01*
X005461Y007464D01*
X005535Y007464D01*
X005717Y007389D01*
X005856Y007249D01*
X005931Y007067D01*
X005931Y006994D01*
X005462Y006994D01*
X005462Y006944D01*
X005931Y006944D01*
X005931Y006870D01*
X005856Y006689D01*
X005717Y006549D01*
X005535Y006474D01*
X005461Y006523D02*
X005411Y006523D01*
X005411Y006682D02*
X005461Y006682D01*
X005461Y006840D02*
X005411Y006840D01*
X005411Y006999D02*
X005461Y006999D01*
X005461Y007157D02*
X005411Y007157D01*
X005411Y007316D02*
X005461Y007316D01*
X005083Y007316D02*
X004254Y007316D01*
X004471Y007157D02*
X004979Y007157D01*
X004941Y006999D02*
X004614Y006999D01*
X004706Y006840D02*
X004954Y006840D01*
X005024Y006682D02*
X004763Y006682D01*
X004806Y006523D02*
X005219Y006523D01*
X005654Y006523D02*
X006451Y006523D01*
X006522Y006494D02*
X006711Y006494D01*
X006886Y006566D01*
X007019Y006700D01*
X007091Y006874D01*
X007091Y007063D01*
X007019Y007238D01*
X006886Y007372D01*
X006711Y007444D01*
X006522Y007444D01*
X006347Y007372D01*
X006214Y007238D01*
X006141Y007063D01*
X006141Y006874D01*
X006214Y006700D01*
X006347Y006566D01*
X006522Y006494D01*
X006781Y006523D02*
X010056Y006523D01*
X010056Y006682D02*
X007001Y006682D01*
X007077Y006840D02*
X010056Y006840D01*
X010056Y006999D02*
X007091Y006999D01*
X007053Y007157D02*
X010056Y007157D01*
X010056Y007316D02*
X006941Y007316D01*
X007411Y007702D02*
X007587Y007630D01*
X007663Y007630D01*
X007663Y008088D01*
X007700Y008088D01*
X007700Y008125D01*
X008158Y008125D01*
X008158Y008201D01*
X008086Y008377D01*
X007952Y008511D01*
X007776Y008583D01*
X007700Y008583D01*
X007700Y008125D01*
X007663Y008125D01*
X007663Y008583D01*
X007587Y008583D01*
X007411Y008511D01*
X007277Y008377D01*
X007205Y008201D01*
X007205Y008125D01*
X007663Y008125D01*
X007663Y008088D01*
X007205Y008088D01*
X007205Y008012D01*
X007277Y007836D01*
X007411Y007702D01*
X007322Y007791D02*
X003961Y007791D01*
X003959Y007788D02*
X004111Y008050D01*
X004189Y008343D01*
X004189Y008645D01*
X004111Y008938D01*
X003959Y009200D01*
X003745Y009414D01*
X003520Y009544D01*
X003745Y009674D01*
X003959Y009888D01*
X004111Y010150D01*
X004189Y010443D01*
X004189Y010745D01*
X004111Y011038D01*
X003959Y011300D01*
X003800Y011459D01*
X003890Y011459D01*
X004162Y011532D01*
X004406Y011673D01*
X004605Y011872D01*
X004746Y012116D01*
X004819Y012388D01*
X004819Y012670D01*
X004746Y012942D01*
X004605Y013186D01*
X004406Y013385D01*
X004162Y013526D01*
X003890Y013599D01*
X003608Y013599D01*
X003336Y013526D01*
X003092Y013385D01*
X002893Y013186D01*
X002752Y012942D01*
X002679Y012670D01*
X002679Y012388D01*
X002752Y012116D01*
X002893Y011872D01*
X003021Y011744D01*
X002888Y011744D01*
X002595Y011666D01*
X002333Y011514D01*
X002119Y011300D01*
X001967Y011038D01*
X001889Y010745D01*
X001889Y010443D01*
X001967Y010150D01*
X002119Y009888D01*
X002333Y009674D01*
X002558Y009544D01*
X002333Y009414D01*
X002119Y009200D01*
X001967Y008938D01*
X001889Y008645D01*
X001889Y008343D01*
X001967Y008050D01*
X002119Y007788D01*
X002333Y007574D01*
X002595Y007422D01*
X002888Y007344D01*
X003190Y007344D01*
X003483Y007422D01*
X003745Y007574D01*
X003959Y007788D01*
X004053Y007950D02*
X007230Y007950D01*
X007232Y008267D02*
X004169Y008267D01*
X004189Y008426D02*
X007326Y008426D01*
X007663Y008426D02*
X007700Y008426D01*
X007700Y008267D02*
X007663Y008267D01*
X007663Y008109D02*
X004126Y008109D01*
X003804Y007633D02*
X007578Y007633D01*
X007663Y007633D02*
X007700Y007633D01*
X007700Y007630D02*
X007776Y007630D01*
X007952Y007702D01*
X008086Y007836D01*
X008158Y008012D01*
X008158Y008088D01*
X007700Y008088D01*
X007700Y007630D01*
X007784Y007633D02*
X010056Y007633D01*
X010056Y007791D02*
X010013Y007791D01*
X010056Y007474D02*
X003573Y007474D01*
X003219Y007316D02*
X000681Y007316D01*
X000681Y007474D02*
X002505Y007474D01*
X002274Y007633D02*
X000681Y007633D01*
X000681Y007791D02*
X002117Y007791D01*
X002025Y007950D02*
X000681Y007950D01*
X000681Y008109D02*
X001952Y008109D01*
X001909Y008267D02*
X000681Y008267D01*
X000681Y008426D02*
X001889Y008426D01*
X001889Y008584D02*
X000681Y008584D01*
X000681Y008743D02*
X001915Y008743D01*
X001958Y008901D02*
X000681Y008901D01*
X000681Y009060D02*
X002038Y009060D01*
X002137Y009218D02*
X000681Y009218D01*
X000681Y009377D02*
X002296Y009377D01*
X002543Y009535D02*
X000681Y009535D01*
X000681Y009694D02*
X002312Y009694D01*
X002154Y009853D02*
X000681Y009853D01*
X000681Y010011D02*
X002048Y010011D01*
X001962Y010170D02*
X000681Y010170D01*
X000681Y010328D02*
X001920Y010328D01*
X001889Y010487D02*
X000681Y010487D01*
X000681Y010645D02*
X001889Y010645D01*
X001905Y010804D02*
X000681Y010804D01*
X000681Y010962D02*
X001947Y010962D01*
X002015Y011121D02*
X000681Y011121D01*
X000681Y011279D02*
X002107Y011279D01*
X002257Y011438D02*
X000681Y011438D01*
X000681Y011597D02*
X002476Y011597D01*
X002869Y011914D02*
X000681Y011914D01*
X000681Y012072D02*
X002777Y012072D01*
X002721Y012231D02*
X000681Y012231D01*
X000681Y012389D02*
X002679Y012389D01*
X002679Y012548D02*
X000681Y012548D01*
X000681Y012706D02*
X002689Y012706D01*
X002731Y012865D02*
X000681Y012865D01*
X000681Y013023D02*
X002799Y013023D01*
X002890Y013182D02*
X000681Y013182D01*
X000681Y013341D02*
X003047Y013341D01*
X003289Y013499D02*
X000681Y013499D01*
X000681Y013658D02*
X009524Y013658D01*
X009446Y013499D02*
X006921Y013499D01*
X006898Y013522D02*
X006723Y013594D01*
X006534Y013594D01*
X006360Y013522D01*
X006226Y013388D01*
X006154Y013213D01*
X006154Y013024D01*
X006226Y012850D01*
X006360Y012716D01*
X006534Y012644D01*
X006723Y012644D01*
X006898Y012716D01*
X007032Y012850D01*
X007104Y013024D01*
X007104Y013213D01*
X007032Y013388D01*
X006898Y013522D01*
X007051Y013341D02*
X009454Y013341D01*
X009547Y013182D02*
X007104Y013182D01*
X007103Y013023D02*
X010056Y013023D01*
X010056Y012865D02*
X007038Y012865D01*
X006874Y012706D02*
X010056Y012706D01*
X010056Y012548D02*
X004819Y012548D01*
X004809Y012706D02*
X005162Y012706D01*
X005169Y012699D02*
X005350Y012624D01*
X005424Y012624D01*
X005424Y013094D01*
X005474Y013094D01*
X005474Y013144D01*
X005944Y013144D01*
X005944Y013217D01*
X005869Y013399D01*
X005729Y013539D01*
X005547Y013614D01*
X005474Y013614D01*
X005474Y013144D01*
X005424Y013144D01*
X005424Y013614D01*
X005350Y013614D01*
X005169Y013539D01*
X005029Y013399D01*
X004954Y013217D01*
X004954Y013144D01*
X005424Y013144D01*
X005424Y013094D01*
X004954Y013094D01*
X004954Y013020D01*
X005029Y012839D01*
X005169Y012699D01*
X005018Y012865D02*
X004767Y012865D01*
X004699Y013023D02*
X004954Y013023D01*
X004954Y013182D02*
X004607Y013182D01*
X004451Y013341D02*
X005005Y013341D01*
X005129Y013499D02*
X004209Y013499D01*
X004177Y013726D02*
X003886Y013726D01*
X003605Y013802D01*
X003353Y013947D01*
X003147Y014153D01*
X003002Y014405D01*
X002926Y014686D01*
X002926Y014977D01*
X003002Y015258D01*
X003147Y015510D01*
X003353Y015716D01*
X003605Y015861D01*
X003886Y015936D01*
X004177Y015936D01*
X004458Y015861D01*
X004710Y015716D01*
X004916Y015510D01*
X005061Y015258D01*
X005136Y014977D01*
X005136Y014686D01*
X005061Y014405D01*
X004916Y014153D01*
X004710Y013947D01*
X004458Y013802D01*
X004177Y013726D01*
X004483Y013816D02*
X010056Y013816D01*
X010056Y013975D02*
X004737Y013975D01*
X004896Y014133D02*
X010056Y014133D01*
X010056Y014292D02*
X008141Y014292D01*
X008181Y014308D02*
X008304Y014432D01*
X008371Y014594D01*
X008371Y014769D01*
X008304Y014931D01*
X008181Y015054D01*
X008019Y015121D01*
X007844Y015121D01*
X007682Y015054D01*
X007558Y014931D01*
X007491Y014769D01*
X007491Y014594D01*
X007558Y014432D01*
X007682Y014308D01*
X007844Y014241D01*
X008019Y014241D01*
X008181Y014308D01*
X008312Y014450D02*
X010056Y014450D01*
X010056Y014609D02*
X008371Y014609D01*
X008371Y014767D02*
X010056Y014767D01*
X010056Y014926D02*
X008306Y014926D01*
X008108Y015084D02*
X010056Y015084D01*
X010056Y015243D02*
X005065Y015243D01*
X005108Y015084D02*
X005755Y015084D01*
X005682Y015054D02*
X005558Y014931D01*
X005491Y014769D01*
X005491Y014594D01*
X005558Y014432D01*
X005682Y014308D01*
X005844Y014241D01*
X006019Y014241D01*
X006181Y014308D01*
X006304Y014432D01*
X006371Y014594D01*
X006371Y014769D01*
X006304Y014931D01*
X006181Y015054D01*
X006019Y015121D01*
X005844Y015121D01*
X005682Y015054D01*
X005556Y014926D02*
X005136Y014926D01*
X005136Y014767D02*
X005491Y014767D01*
X005491Y014609D02*
X005116Y014609D01*
X005073Y014450D02*
X005551Y014450D01*
X005722Y014292D02*
X004996Y014292D01*
X005424Y013499D02*
X005474Y013499D01*
X005474Y013341D02*
X005424Y013341D01*
X005424Y013182D02*
X005474Y013182D01*
X005474Y013094D02*
X005944Y013094D01*
X005944Y013020D01*
X005869Y012839D01*
X005729Y012699D01*
X005547Y012624D01*
X005474Y012624D01*
X005474Y013094D01*
X005474Y013023D02*
X005424Y013023D01*
X005424Y012865D02*
X005474Y012865D01*
X005474Y012706D02*
X005424Y012706D01*
X005736Y012706D02*
X006384Y012706D01*
X006220Y012865D02*
X005879Y012865D01*
X005944Y013023D02*
X006154Y013023D01*
X006154Y013182D02*
X005944Y013182D01*
X005893Y013341D02*
X006207Y013341D01*
X006337Y013499D02*
X005769Y013499D01*
X006141Y014292D02*
X006722Y014292D01*
X006682Y014308D02*
X006844Y014241D01*
X007019Y014241D01*
X007181Y014308D01*
X007304Y014432D01*
X007371Y014594D01*
X007371Y014769D01*
X007304Y014931D01*
X007181Y015054D01*
X007019Y015121D01*
X006844Y015121D01*
X006682Y015054D01*
X006558Y014931D01*
X006491Y014769D01*
X006491Y014594D01*
X006558Y014432D01*
X006682Y014308D01*
X006551Y014450D02*
X006312Y014450D01*
X006371Y014609D02*
X006491Y014609D01*
X006491Y014767D02*
X006371Y014767D01*
X006306Y014926D02*
X006556Y014926D01*
X006755Y015084D02*
X006108Y015084D01*
X007108Y015084D02*
X007755Y015084D01*
X007556Y014926D02*
X007306Y014926D01*
X007371Y014767D02*
X007491Y014767D01*
X007491Y014609D02*
X007371Y014609D01*
X007312Y014450D02*
X007551Y014450D01*
X007722Y014292D02*
X007141Y014292D01*
X004978Y015402D02*
X010056Y015402D01*
X010056Y015560D02*
X004865Y015560D01*
X004705Y015719D02*
X010056Y015719D01*
X010056Y015877D02*
X004398Y015877D01*
X003665Y015877D02*
X002382Y015877D01*
X002629Y016036D02*
X010056Y016036D01*
X010056Y016194D02*
X002787Y016194D01*
X002912Y016353D02*
X010056Y016353D01*
X011556Y016353D02*
X012527Y016353D01*
X012479Y016304D02*
X012409Y016135D01*
X012409Y015952D01*
X012479Y015783D01*
X012608Y015654D01*
X012777Y015584D01*
X012960Y015584D01*
X013129Y015654D01*
X013259Y015783D01*
X013329Y015952D01*
X013329Y016135D01*
X013259Y016304D01*
X013129Y016434D01*
X012960Y016504D01*
X012777Y016504D01*
X012608Y016434D01*
X012479Y016304D01*
X012433Y016194D02*
X011556Y016194D01*
X011556Y016036D02*
X012409Y016036D01*
X012440Y015877D02*
X011556Y015877D01*
X011556Y015719D02*
X012544Y015719D01*
X012608Y015434D02*
X012777Y015504D01*
X012960Y015504D01*
X013129Y015434D01*
X013259Y015304D01*
X013329Y015135D01*
X013329Y014952D01*
X013259Y014783D01*
X013129Y014654D01*
X012960Y014584D01*
X012777Y014584D01*
X012608Y014654D01*
X012479Y014783D01*
X012409Y014952D01*
X012409Y015135D01*
X012479Y015304D01*
X012608Y015434D01*
X012576Y015402D02*
X011556Y015402D01*
X011556Y015560D02*
X014681Y015560D01*
X014694Y015560D02*
X023997Y015560D01*
X023947Y015510D02*
X024114Y015676D01*
X023936Y015676D01*
X023655Y015752D01*
X023403Y015897D01*
X023197Y016103D01*
X023052Y016355D01*
X022976Y016636D01*
X022976Y016927D01*
X023052Y017208D01*
X023197Y017460D01*
X023403Y017666D01*
X023655Y017811D01*
X023936Y017886D01*
X024227Y017886D01*
X024508Y017811D01*
X024760Y017666D01*
X024966Y017460D01*
X025111Y017208D01*
X025186Y016927D01*
X025186Y016636D01*
X025111Y016355D01*
X024966Y016103D01*
X024799Y015936D01*
X024977Y015936D01*
X025258Y015861D01*
X025510Y015716D01*
X025716Y015510D01*
X025861Y015258D01*
X025936Y014977D01*
X025936Y014686D01*
X025861Y014405D01*
X025716Y014153D01*
X025510Y013947D01*
X025258Y013802D01*
X024977Y013726D01*
X024686Y013726D01*
X024405Y013802D01*
X024153Y013947D01*
X023947Y014153D01*
X023802Y014405D01*
X023726Y014686D01*
X023726Y014977D01*
X023802Y015258D01*
X023947Y015510D01*
X023885Y015402D02*
X014693Y015402D01*
X014681Y015402D02*
X014162Y015402D01*
X014129Y015434D02*
X014259Y015304D01*
X014329Y015135D01*
X014329Y014952D01*
X014259Y014783D01*
X014129Y014654D01*
X013960Y014584D01*
X013777Y014584D01*
X013608Y014654D01*
X013479Y014783D01*
X013409Y014952D01*
X013409Y015135D01*
X013479Y015304D01*
X013608Y015434D01*
X013777Y015504D01*
X013960Y015504D01*
X014129Y015434D01*
X014141Y015637D02*
X014276Y015772D01*
X014349Y015948D01*
X014349Y016024D01*
X013889Y016024D01*
X013889Y016064D01*
X013849Y016064D01*
X013849Y016524D01*
X013773Y016524D01*
X013597Y016451D01*
X013462Y016316D01*
X013389Y016139D01*
X013389Y016064D01*
X013849Y016064D01*
X013849Y016024D01*
X013389Y016024D01*
X013389Y015948D01*
X013462Y015772D01*
X013597Y015637D01*
X013773Y015564D01*
X013849Y015564D01*
X013849Y016024D01*
X013889Y016024D01*
X013889Y015564D01*
X013964Y015564D01*
X014141Y015637D01*
X014222Y015719D02*
X014681Y015719D01*
X014694Y015719D02*
X016124Y015719D01*
X016131Y015712D02*
X016372Y015612D01*
X016634Y015612D01*
X016875Y015712D01*
X017060Y015897D01*
X017160Y016138D01*
X017160Y016400D01*
X017060Y016641D01*
X016875Y016826D01*
X016634Y016926D01*
X016372Y016926D01*
X016131Y016826D01*
X015946Y016641D01*
X015846Y016400D01*
X015846Y016138D01*
X015946Y015897D01*
X016131Y015712D01*
X015965Y015877D02*
X014695Y015877D01*
X014681Y015877D02*
X014319Y015877D01*
X014349Y016064D02*
X013889Y016064D01*
X013889Y016524D01*
X013964Y016524D01*
X014141Y016451D01*
X014276Y016316D01*
X014349Y016139D01*
X014349Y016064D01*
X014326Y016194D02*
X014681Y016194D01*
X014697Y016194D02*
X015846Y016194D01*
X015846Y016353D02*
X014697Y016353D01*
X014681Y016353D02*
X014239Y016353D01*
X013995Y016511D02*
X014681Y016511D01*
X014698Y016511D02*
X015892Y016511D01*
X015974Y016670D02*
X014699Y016670D01*
X014681Y016670D02*
X014174Y016670D01*
X014141Y016637D02*
X014276Y016772D01*
X014349Y016948D01*
X014349Y017024D01*
X013889Y017024D01*
X013889Y017064D01*
X013849Y017064D01*
X013849Y017524D01*
X013773Y017524D01*
X013597Y017451D01*
X013462Y017316D01*
X013389Y017139D01*
X013389Y017064D01*
X013849Y017064D01*
X013849Y017024D01*
X013389Y017024D01*
X013389Y016948D01*
X013462Y016772D01*
X013597Y016637D01*
X013773Y016564D01*
X013849Y016564D01*
X013849Y017024D01*
X013889Y017024D01*
X013889Y016564D01*
X013964Y016564D01*
X014141Y016637D01*
X014299Y016828D02*
X014681Y016828D01*
X014700Y016828D02*
X016136Y016828D01*
X016869Y016828D02*
X017869Y016828D01*
X017863Y016826D02*
X017678Y016641D01*
X017578Y016400D01*
X017578Y016138D01*
X017678Y015897D01*
X017863Y015712D01*
X018104Y015612D01*
X018366Y015612D01*
X018607Y015712D01*
X018792Y015897D01*
X018892Y016138D01*
X018892Y016400D01*
X018792Y016641D01*
X018607Y016826D01*
X018366Y016926D01*
X018104Y016926D01*
X017863Y016826D01*
X017707Y016670D02*
X017031Y016670D01*
X017114Y016511D02*
X017624Y016511D01*
X017578Y016353D02*
X017160Y016353D01*
X017160Y016194D02*
X017578Y016194D01*
X017620Y016036D02*
X017117Y016036D01*
X017040Y015877D02*
X017697Y015877D01*
X017856Y015719D02*
X016882Y015719D01*
X015888Y016036D02*
X014696Y016036D01*
X014681Y016036D02*
X013889Y016036D01*
X013849Y016036D02*
X013329Y016036D01*
X013305Y016194D02*
X013412Y016194D01*
X013499Y016353D02*
X013211Y016353D01*
X013129Y016654D02*
X012960Y016584D01*
X012777Y016584D01*
X012608Y016654D01*
X012479Y016783D01*
X012409Y016952D01*
X012409Y017135D01*
X012479Y017304D01*
X011556Y017304D01*
X011556Y017146D02*
X012413Y017146D01*
X012409Y016987D02*
X011556Y016987D01*
X011556Y016828D02*
X012460Y016828D01*
X012592Y016670D02*
X011556Y016670D01*
X011556Y016511D02*
X013743Y016511D01*
X013849Y016511D02*
X013889Y016511D01*
X013889Y016353D02*
X013849Y016353D01*
X013849Y016194D02*
X013889Y016194D01*
X013889Y015877D02*
X013849Y015877D01*
X013849Y015719D02*
X013889Y015719D01*
X013515Y015719D02*
X013194Y015719D01*
X013298Y015877D02*
X013418Y015877D01*
X013576Y015402D02*
X013162Y015402D01*
X013284Y015243D02*
X013454Y015243D01*
X013409Y015084D02*
X013329Y015084D01*
X013318Y014926D02*
X013420Y014926D01*
X013495Y014767D02*
X013243Y014767D01*
X013021Y014609D02*
X013717Y014609D01*
X013777Y014504D02*
X013608Y014434D01*
X013479Y014304D01*
X013409Y014135D01*
X013409Y013952D01*
X013479Y013783D01*
X013608Y013654D01*
X013777Y013584D01*
X013960Y013584D01*
X014129Y013654D01*
X014259Y013783D01*
X014329Y013952D01*
X014329Y014135D01*
X014259Y014304D01*
X014129Y014434D01*
X013960Y014504D01*
X013777Y014504D01*
X013648Y014450D02*
X013090Y014450D01*
X013129Y014434D02*
X012960Y014504D01*
X012777Y014504D01*
X012608Y014434D01*
X012479Y014304D01*
X012409Y014135D01*
X012409Y013952D01*
X012479Y013783D01*
X012608Y013654D01*
X012777Y013584D01*
X012960Y013584D01*
X013129Y013654D01*
X013259Y013783D01*
X013329Y013952D01*
X013329Y014135D01*
X013259Y014304D01*
X013129Y014434D01*
X013264Y014292D02*
X013474Y014292D01*
X013409Y014133D02*
X013329Y014133D01*
X013329Y013975D02*
X013409Y013975D01*
X013465Y013816D02*
X013272Y013816D01*
X013133Y013658D02*
X013605Y013658D01*
X014133Y013658D02*
X014681Y013658D01*
X014684Y013658D02*
X018515Y013658D01*
X018526Y013685D02*
X018471Y013553D01*
X018471Y013410D01*
X018524Y013283D01*
X018426Y013185D01*
X018371Y013053D01*
X018371Y012910D01*
X018426Y012777D01*
X018527Y012676D01*
X018660Y012621D01*
X018803Y012621D01*
X018935Y012676D01*
X019037Y012777D01*
X019091Y012910D01*
X019091Y013053D01*
X019039Y013180D01*
X019137Y013277D01*
X019191Y013410D01*
X019191Y013553D01*
X019137Y013685D01*
X019035Y013787D01*
X018903Y013841D01*
X018760Y013841D01*
X018627Y013787D01*
X018526Y013685D01*
X018471Y013499D02*
X014684Y013499D01*
X014681Y013499D02*
X011556Y013499D01*
X011556Y013341D02*
X014681Y013341D01*
X014683Y013341D02*
X018500Y013341D01*
X018425Y013182D02*
X014682Y013182D01*
X014681Y013182D02*
X013440Y013182D01*
X013435Y013187D02*
X013303Y013241D01*
X013160Y013241D01*
X013027Y013187D01*
X012926Y013085D01*
X012914Y013056D01*
X011556Y013056D01*
X011556Y018201D01*
X014681Y018201D01*
X014681Y013056D01*
X013549Y013056D01*
X013537Y013085D01*
X013435Y013187D01*
X013549Y013056D02*
X014681Y013056D01*
X014706Y018201D01*
X017383Y018201D01*
X025701Y018186D01*
X025701Y017095D01*
X025701Y016957D01*
X025845Y016514D01*
X025845Y016514D01*
X026117Y016136D01*
X026117Y016135D02*
X026493Y015859D01*
X026935Y015712D01*
X027168Y015710D01*
X027264Y015709D01*
X027264Y015709D01*
X028084Y015702D01*
X028086Y015701D01*
X028173Y015701D01*
X028181Y011700D01*
X028181Y003161D01*
X027086Y003161D01*
X026987Y003161D01*
X026610Y003061D01*
X026273Y002866D01*
X026273Y002866D01*
X025997Y002590D01*
X025802Y002253D01*
X025802Y002253D01*
X025701Y001876D01*
X025701Y001681D01*
X025701Y001586D01*
X025701Y000681D01*
X015181Y000681D01*
X013720Y000661D01*
X011532Y000661D01*
X011556Y005681D01*
X011556Y007664D01*
X011591Y007650D01*
X011772Y007650D01*
X011940Y007719D01*
X012069Y007848D01*
X012138Y008016D01*
X012138Y008197D01*
X012069Y008365D01*
X011940Y008494D01*
X011772Y008563D01*
X011591Y008563D01*
X011556Y008549D01*
X011556Y013056D01*
X012914Y013056D01*
X012871Y012953D01*
X012871Y012810D01*
X012926Y012677D01*
X013027Y012576D01*
X013160Y012521D01*
X013303Y012521D01*
X013435Y012576D01*
X013537Y012677D01*
X013591Y012810D01*
X013591Y012953D01*
X013549Y013056D01*
X013562Y013023D02*
X018371Y013023D01*
X018390Y012865D02*
X013591Y012865D01*
X013549Y012706D02*
X016047Y012706D01*
X016026Y012685D02*
X015971Y012553D01*
X015971Y012410D01*
X016026Y012277D01*
X016127Y012176D01*
X016260Y012121D01*
X016403Y012121D01*
X016535Y012176D01*
X016637Y012277D01*
X016691Y012410D01*
X016691Y012553D01*
X016637Y012685D01*
X016535Y012787D01*
X016403Y012841D01*
X016260Y012841D01*
X016127Y012787D01*
X016026Y012685D01*
X015971Y012548D02*
X013367Y012548D01*
X013303Y012441D02*
X013160Y012441D01*
X013027Y012387D01*
X012926Y012285D01*
X012871Y012153D01*
X012871Y012010D01*
X012926Y011877D01*
X013027Y011776D01*
X013160Y011721D01*
X013303Y011721D01*
X013435Y011776D01*
X013537Y011877D01*
X013591Y012010D01*
X013591Y012153D01*
X013537Y012285D01*
X013435Y012387D01*
X013303Y012441D01*
X013429Y012389D02*
X015980Y012389D01*
X016073Y012231D02*
X013559Y012231D01*
X013591Y012072D02*
X014163Y012072D01*
X014210Y012091D02*
X014077Y012037D01*
X013976Y011935D01*
X013921Y011803D01*
X013921Y011660D01*
X013976Y011527D01*
X014077Y011426D01*
X014210Y011371D01*
X014353Y011371D01*
X014485Y011426D01*
X014587Y011527D01*
X014641Y011660D01*
X014641Y011803D01*
X014587Y011935D01*
X014485Y012037D01*
X014353Y012091D01*
X014210Y012091D01*
X014399Y012072D02*
X018425Y012072D01*
X018267Y011914D02*
X014596Y011914D01*
X014641Y011755D02*
X018108Y011755D01*
X017998Y011645D02*
X017977Y011637D01*
X017876Y011535D01*
X017821Y011403D01*
X017821Y011260D01*
X017876Y011127D01*
X017977Y011026D01*
X018110Y010971D01*
X018253Y010971D01*
X018385Y011026D01*
X018487Y011127D01*
X018520Y011209D01*
X018610Y011171D01*
X018753Y011171D01*
X018885Y011226D01*
X018987Y011327D01*
X019027Y011426D01*
X019127Y011326D01*
X019260Y011271D01*
X019403Y011271D01*
X019535Y011326D01*
X019637Y011427D01*
X019691Y011560D01*
X019691Y011703D01*
X019637Y011835D01*
X019535Y011937D01*
X019403Y011991D01*
X019260Y011991D01*
X019127Y011937D01*
X019026Y011835D01*
X018985Y011737D01*
X018885Y011837D01*
X018813Y011866D01*
X019568Y012621D01*
X019703Y012621D01*
X019835Y012676D01*
X019937Y012777D01*
X019991Y012910D01*
X019991Y013053D01*
X019937Y013185D01*
X019835Y013287D01*
X019703Y013341D01*
X019560Y013341D01*
X019427Y013287D01*
X019326Y013185D01*
X019271Y013053D01*
X019271Y012918D01*
X017998Y011645D01*
X017937Y011597D02*
X014615Y011597D01*
X014497Y011438D02*
X017836Y011438D01*
X017821Y011279D02*
X011556Y011279D01*
X011556Y011121D02*
X017883Y011121D01*
X018480Y011121D02*
X019424Y011121D01*
X019422Y011279D02*
X019582Y011279D01*
X019641Y011438D02*
X019741Y011438D01*
X019691Y011597D02*
X019900Y011597D01*
X020058Y011755D02*
X019670Y011755D01*
X019558Y011914D02*
X020217Y011914D01*
X020271Y011968D02*
X019194Y010891D01*
X019060Y010891D01*
X018927Y010837D01*
X018826Y010735D01*
X018771Y010603D01*
X018771Y010460D01*
X018826Y010327D01*
X018927Y010226D01*
X019060Y010171D01*
X019079Y010171D01*
X019071Y010153D01*
X019071Y010010D01*
X019079Y009991D01*
X018960Y009991D01*
X018827Y009937D01*
X018726Y009835D01*
X018671Y009703D01*
X018671Y009560D01*
X018726Y009427D01*
X018827Y009326D01*
X018960Y009271D01*
X019103Y009271D01*
X019235Y009326D01*
X019337Y009427D01*
X019391Y009560D01*
X019391Y009703D01*
X019384Y009721D01*
X019503Y009721D01*
X019635Y009776D01*
X019737Y009877D01*
X019791Y010010D01*
X019791Y010153D01*
X019737Y010285D01*
X019635Y010387D01*
X019503Y010441D01*
X019484Y010441D01*
X019491Y010460D01*
X019491Y010594D01*
X020568Y011671D01*
X020703Y011671D01*
X020835Y011726D01*
X020937Y011827D01*
X020991Y011960D01*
X020991Y012103D01*
X020937Y012235D01*
X020835Y012337D01*
X020703Y012391D01*
X020560Y012391D01*
X020427Y012337D01*
X020326Y012235D01*
X020271Y012103D01*
X020271Y011968D01*
X020271Y012072D02*
X019019Y012072D01*
X019105Y011914D02*
X018861Y011914D01*
X018967Y011755D02*
X018993Y011755D01*
X019178Y012231D02*
X020324Y012231D01*
X020555Y012389D02*
X019336Y012389D01*
X019495Y012548D02*
X028180Y012548D01*
X028179Y012706D02*
X019865Y012706D01*
X019973Y012865D02*
X028179Y012865D01*
X028178Y013023D02*
X019991Y013023D01*
X019938Y013182D02*
X028178Y013182D01*
X028178Y013341D02*
X021299Y013341D01*
X021253Y013321D02*
X021385Y013376D01*
X021487Y013477D01*
X021541Y013610D01*
X021541Y013753D01*
X021487Y013885D01*
X021385Y013987D01*
X021253Y014041D01*
X021110Y014041D01*
X020977Y013987D01*
X020876Y013885D01*
X020821Y013753D01*
X020821Y013610D01*
X020876Y013477D01*
X020977Y013376D01*
X021110Y013321D01*
X021253Y013321D01*
X021064Y013341D02*
X019705Y013341D01*
X019558Y013341D02*
X019163Y013341D01*
X019191Y013499D02*
X020867Y013499D01*
X020821Y013658D02*
X019148Y013658D01*
X018964Y013816D02*
X020848Y013816D01*
X020966Y013975D02*
X014686Y013975D01*
X014681Y013975D02*
X014329Y013975D01*
X014329Y014133D02*
X014681Y014133D01*
X014687Y014133D02*
X023967Y014133D01*
X023867Y014292D02*
X014687Y014292D01*
X014681Y014292D02*
X014264Y014292D01*
X014090Y014450D02*
X014681Y014450D01*
X014688Y014450D02*
X023790Y014450D01*
X023747Y014609D02*
X014689Y014609D01*
X014681Y014609D02*
X014021Y014609D01*
X014243Y014767D02*
X014681Y014767D01*
X014690Y014767D02*
X023726Y014767D01*
X023726Y014926D02*
X014690Y014926D01*
X014681Y014926D02*
X014318Y014926D01*
X014329Y015084D02*
X014681Y015084D01*
X014691Y015084D02*
X023755Y015084D01*
X023798Y015243D02*
X014692Y015243D01*
X014681Y015243D02*
X014284Y015243D01*
X012717Y014609D02*
X011556Y014609D01*
X011556Y014767D02*
X012495Y014767D01*
X012420Y014926D02*
X011556Y014926D01*
X011556Y015084D02*
X012409Y015084D01*
X012454Y015243D02*
X011556Y015243D01*
X011556Y014450D02*
X012648Y014450D01*
X012474Y014292D02*
X011556Y014292D01*
X011556Y014133D02*
X012409Y014133D01*
X012409Y013975D02*
X011556Y013975D01*
X011556Y013816D02*
X012465Y013816D01*
X012605Y013658D02*
X011556Y013658D01*
X011556Y013182D02*
X013023Y013182D01*
X012901Y013023D02*
X011556Y013023D01*
X011556Y012865D02*
X012871Y012865D01*
X012914Y012706D02*
X011556Y012706D01*
X011556Y012548D02*
X013096Y012548D01*
X013034Y012389D02*
X011556Y012389D01*
X011556Y012231D02*
X012904Y012231D01*
X012871Y012072D02*
X011556Y012072D01*
X011556Y011914D02*
X012911Y011914D01*
X013079Y011755D02*
X011556Y011755D01*
X011556Y011597D02*
X013948Y011597D01*
X013921Y011755D02*
X013384Y011755D01*
X013552Y011914D02*
X013967Y011914D01*
X014066Y011438D02*
X011556Y011438D01*
X011556Y010962D02*
X019265Y010962D01*
X019240Y011279D02*
X018939Y011279D01*
X018895Y010804D02*
X011556Y010804D01*
X011556Y010645D02*
X018789Y010645D01*
X018771Y010487D02*
X011556Y010487D01*
X011556Y010328D02*
X016569Y010328D01*
X016577Y010337D02*
X016476Y010235D01*
X016421Y010103D01*
X016421Y009960D01*
X016476Y009827D01*
X016572Y009731D01*
X016476Y009635D01*
X016421Y009503D01*
X016421Y009360D01*
X016476Y009227D01*
X016577Y009126D01*
X016710Y009071D01*
X016853Y009071D01*
X016985Y009126D01*
X017087Y009227D01*
X017141Y009360D01*
X017141Y009503D01*
X017087Y009635D01*
X016990Y009731D01*
X017087Y009827D01*
X017141Y009960D01*
X017141Y010103D01*
X017087Y010235D01*
X016985Y010337D01*
X016853Y010391D01*
X016710Y010391D01*
X016577Y010337D01*
X016449Y010170D02*
X011556Y010170D01*
X011556Y010011D02*
X016421Y010011D01*
X016466Y009853D02*
X011556Y009853D01*
X011556Y009694D02*
X016535Y009694D01*
X016435Y009535D02*
X011556Y009535D01*
X011556Y009377D02*
X016421Y009377D01*
X016485Y009218D02*
X011556Y009218D01*
X011556Y009060D02*
X013584Y009060D01*
X013527Y009037D02*
X013660Y009091D01*
X013803Y009091D01*
X013935Y009037D01*
X014037Y008935D01*
X014081Y008829D01*
X014110Y008841D01*
X014253Y008841D01*
X014385Y008787D01*
X014487Y008685D01*
X014541Y008553D01*
X014541Y008543D01*
X014591Y008563D01*
X014772Y008563D01*
X014940Y008494D01*
X015069Y008365D01*
X015138Y008197D01*
X015138Y008091D01*
X015253Y008091D01*
X015385Y008037D01*
X015487Y007935D01*
X015541Y007803D01*
X015541Y007660D01*
X015487Y007527D01*
X015385Y007426D01*
X015253Y007371D01*
X015110Y007371D01*
X014977Y007426D01*
X014876Y007527D01*
X014821Y007660D01*
X014821Y007670D01*
X014772Y007650D01*
X014591Y007650D01*
X014423Y007719D01*
X014294Y007848D01*
X014225Y008016D01*
X014225Y008121D01*
X014110Y008121D01*
X014101Y008125D01*
X013700Y008125D01*
X013700Y008088D01*
X014158Y008088D01*
X014158Y008012D01*
X014086Y007836D01*
X013952Y007702D01*
X013776Y007630D01*
X013700Y007630D01*
X013700Y008088D01*
X013663Y008088D01*
X013663Y007630D01*
X013587Y007630D01*
X013411Y007702D01*
X013277Y007836D01*
X013205Y008012D01*
X013205Y008088D01*
X013663Y008088D01*
X013663Y008125D01*
X013205Y008125D01*
X013205Y008201D01*
X013277Y008377D01*
X013411Y008511D01*
X013434Y008520D01*
X013426Y008527D01*
X013371Y008660D01*
X013371Y008803D01*
X013426Y008935D01*
X013527Y009037D01*
X013412Y008901D02*
X011556Y008901D01*
X011556Y008743D02*
X013371Y008743D01*
X013403Y008584D02*
X011556Y008584D01*
X012008Y008426D02*
X012355Y008426D01*
X012294Y008365D02*
X012225Y008197D01*
X012225Y008016D01*
X012294Y007848D01*
X012423Y007719D01*
X012591Y007650D01*
X012772Y007650D01*
X012940Y007719D01*
X013069Y007848D01*
X013138Y008016D01*
X013138Y008197D01*
X013069Y008365D01*
X012940Y008494D01*
X012772Y008563D01*
X012591Y008563D01*
X012423Y008494D01*
X012294Y008365D01*
X012254Y008267D02*
X012109Y008267D01*
X012138Y008109D02*
X012225Y008109D01*
X012252Y007950D02*
X012111Y007950D01*
X012013Y007791D02*
X012350Y007791D01*
X011556Y007633D02*
X013578Y007633D01*
X013663Y007633D02*
X013700Y007633D01*
X013784Y007633D02*
X014833Y007633D01*
X014929Y007474D02*
X011556Y007474D01*
X011556Y007316D02*
X022368Y007316D01*
X022403Y007232D02*
X022557Y007078D01*
X022639Y007044D01*
X022557Y007010D01*
X022403Y006855D01*
X022319Y006653D01*
X022319Y006434D01*
X022403Y006232D01*
X022557Y006078D01*
X022759Y005994D01*
X022978Y005994D01*
X023180Y006078D01*
X023335Y006232D01*
X023419Y006434D01*
X023419Y006653D01*
X023335Y006855D01*
X023180Y007010D01*
X023099Y007044D01*
X023180Y007078D01*
X023335Y007232D01*
X023419Y007434D01*
X023419Y007653D01*
X023335Y007855D01*
X023180Y008010D01*
X023099Y008044D01*
X023180Y008078D01*
X023335Y008232D01*
X023419Y008434D01*
X023419Y008653D01*
X023335Y008855D01*
X023180Y009010D01*
X023099Y009044D01*
X023180Y009078D01*
X023335Y009232D01*
X023419Y009435D01*
X023419Y009653D01*
X023335Y009856D01*
X023180Y010010D01*
X022978Y010094D01*
X022759Y010094D01*
X022557Y010010D01*
X022403Y009856D01*
X022319Y009653D01*
X022319Y009435D01*
X022403Y009232D01*
X022557Y009078D01*
X022639Y009044D01*
X022557Y009010D01*
X022403Y008855D01*
X022319Y008653D01*
X022319Y008434D01*
X022403Y008232D01*
X022557Y008078D01*
X022639Y008044D01*
X022557Y008010D01*
X022403Y007855D01*
X022319Y007653D01*
X022319Y007434D01*
X022403Y007232D01*
X022478Y007157D02*
X011556Y007157D01*
X011556Y006999D02*
X022546Y006999D01*
X022396Y006840D02*
X011556Y006840D01*
X011556Y006682D02*
X022331Y006682D01*
X022319Y006523D02*
X011556Y006523D01*
X011556Y006365D02*
X021595Y006365D01*
X021660Y006391D02*
X021527Y006337D01*
X021426Y006235D01*
X021371Y006103D01*
X021371Y005960D01*
X021426Y005827D01*
X021527Y005726D01*
X021660Y005671D01*
X021803Y005671D01*
X021935Y005726D01*
X022037Y005827D01*
X022091Y005960D01*
X022091Y006103D01*
X022037Y006235D01*
X021935Y006337D01*
X021803Y006391D01*
X021660Y006391D01*
X021868Y006365D02*
X022348Y006365D01*
X022429Y006206D02*
X022049Y006206D01*
X022091Y006048D02*
X022630Y006048D01*
X023108Y006048D02*
X024363Y006048D01*
X024314Y005998D02*
X024415Y006099D01*
X024547Y006154D01*
X024691Y006154D01*
X024823Y006099D01*
X024924Y005998D01*
X024979Y005866D01*
X024979Y005722D01*
X024924Y005590D01*
X024823Y005489D01*
X024691Y005434D01*
X024547Y005434D01*
X024415Y005489D01*
X024314Y005590D01*
X024259Y005722D01*
X024259Y005866D01*
X024314Y005998D01*
X024269Y005889D02*
X022062Y005889D01*
X021940Y005730D02*
X024259Y005730D01*
X024332Y005572D02*
X011556Y005572D01*
X011556Y005730D02*
X021523Y005730D01*
X021401Y005889D02*
X011556Y005889D01*
X011556Y006048D02*
X021371Y006048D01*
X021414Y006206D02*
X011556Y006206D01*
X011555Y005413D02*
X012588Y005413D01*
X012608Y005434D02*
X012479Y005304D01*
X012409Y005135D01*
X012409Y004952D01*
X012479Y004783D01*
X012608Y004654D01*
X012777Y004584D01*
X012960Y004584D01*
X013129Y004654D01*
X013259Y004783D01*
X013329Y004952D01*
X013329Y005135D01*
X013259Y005304D01*
X013129Y005434D01*
X012960Y005504D01*
X012777Y005504D01*
X012608Y005434D01*
X012458Y005255D02*
X011554Y005255D01*
X011554Y005096D02*
X012409Y005096D01*
X012415Y004938D02*
X011553Y004938D01*
X011552Y004779D02*
X012483Y004779D01*
X012689Y004621D02*
X011551Y004621D01*
X011550Y004462D02*
X012676Y004462D01*
X012608Y004434D02*
X012479Y004304D01*
X012409Y004135D01*
X012409Y003952D01*
X012479Y003783D01*
X012608Y003654D01*
X012777Y003584D01*
X012960Y003584D01*
X013129Y003654D01*
X013259Y003783D01*
X013329Y003952D01*
X013329Y004135D01*
X013259Y004304D01*
X013129Y004434D01*
X012960Y004504D01*
X012777Y004504D01*
X012608Y004434D01*
X012479Y004304D02*
X011550Y004304D01*
X011549Y004145D02*
X012413Y004145D01*
X012409Y003986D02*
X011548Y003986D01*
X011547Y003828D02*
X012461Y003828D01*
X012593Y003669D02*
X011546Y003669D01*
X011546Y003511D02*
X023856Y003511D01*
X023802Y003605D02*
X023929Y003384D01*
X023655Y003311D01*
X023403Y003166D01*
X023197Y002960D01*
X023052Y002708D01*
X022976Y002427D01*
X022976Y002136D01*
X023052Y001855D01*
X023197Y001603D01*
X023403Y001397D01*
X023655Y001252D01*
X023936Y001176D01*
X024227Y001176D01*
X024508Y001252D01*
X024760Y001397D01*
X024966Y001603D01*
X025111Y001855D01*
X025186Y002136D01*
X025186Y002427D01*
X025111Y002708D01*
X024984Y002928D01*
X025258Y003002D01*
X025510Y003147D01*
X025716Y003353D01*
X025861Y003605D01*
X025936Y003886D01*
X025936Y004177D01*
X025861Y004458D01*
X025716Y004710D01*
X025510Y004916D01*
X025258Y005061D01*
X024977Y005136D01*
X024686Y005136D01*
X024405Y005061D01*
X024153Y004916D01*
X023947Y004710D01*
X023802Y004458D01*
X023726Y004177D01*
X023726Y003886D01*
X023802Y003605D01*
X023784Y003669D02*
X014145Y003669D01*
X014129Y003654D02*
X013960Y003584D01*
X013777Y003584D01*
X013608Y003654D01*
X013479Y003783D01*
X013409Y003952D01*
X013409Y004135D01*
X013479Y004304D01*
X013608Y004434D01*
X013777Y004504D01*
X013960Y004504D01*
X014129Y004434D01*
X014259Y004304D01*
X014329Y004135D01*
X014329Y003952D01*
X014259Y003783D01*
X014129Y003654D01*
X014129Y003434D02*
X013960Y003504D01*
X013777Y003504D01*
X013608Y003434D01*
X013479Y003304D01*
X013409Y003135D01*
X013409Y002952D01*
X013479Y002783D01*
X013608Y002654D01*
X013777Y002584D01*
X013960Y002584D01*
X014129Y002654D01*
X014259Y002783D01*
X014329Y002952D01*
X014329Y003135D01*
X014259Y003304D01*
X014129Y003434D01*
X014211Y003352D02*
X023809Y003352D01*
X023452Y003194D02*
X014305Y003194D01*
X014329Y003035D02*
X023273Y003035D01*
X023149Y002877D02*
X014297Y002877D01*
X014194Y002718D02*
X023058Y002718D01*
X023012Y002560D02*
X011541Y002560D01*
X011542Y002718D02*
X012544Y002718D01*
X012608Y002654D02*
X012777Y002584D01*
X012960Y002584D01*
X013129Y002654D01*
X013259Y002783D01*
X013329Y002952D01*
X013329Y003135D01*
X013259Y003304D01*
X013129Y003434D01*
X012960Y003504D01*
X012777Y003504D01*
X012608Y003434D01*
X012479Y003304D01*
X012409Y003135D01*
X012409Y002952D01*
X012479Y002783D01*
X012608Y002654D01*
X012608Y002434D02*
X012777Y002504D01*
X012960Y002504D01*
X013129Y002434D01*
X013259Y002304D01*
X013329Y002135D01*
X013329Y001952D01*
X013259Y001783D01*
X013129Y001654D01*
X012960Y001584D01*
X012777Y001584D01*
X012608Y001654D01*
X012479Y001783D01*
X012409Y001952D01*
X012409Y002135D01*
X012479Y002304D01*
X012608Y002434D01*
X012576Y002401D02*
X011540Y002401D01*
X011539Y002242D02*
X012453Y002242D01*
X012409Y002084D02*
X011539Y002084D01*
X011538Y001925D02*
X012420Y001925D01*
X012495Y001767D02*
X011537Y001767D01*
X011536Y001608D02*
X012719Y001608D01*
X013019Y001608D02*
X013719Y001608D01*
X013777Y001584D02*
X013960Y001584D01*
X014129Y001654D01*
X014259Y001783D01*
X014329Y001952D01*
X014329Y002135D01*
X014259Y002304D01*
X014129Y002434D01*
X013960Y002504D01*
X013777Y002504D01*
X013608Y002434D01*
X013479Y002304D01*
X013409Y002135D01*
X013409Y001952D01*
X013479Y001783D01*
X013608Y001654D01*
X013777Y001584D01*
X014019Y001608D02*
X023194Y001608D01*
X023103Y001767D02*
X014242Y001767D01*
X014318Y001925D02*
X018828Y001925D01*
X018877Y001876D02*
X018776Y001977D01*
X018721Y002110D01*
X018721Y002253D01*
X018776Y002385D01*
X018877Y002487D01*
X019010Y002541D01*
X019153Y002541D01*
X019285Y002487D01*
X019387Y002385D01*
X019441Y002253D01*
X019441Y002110D01*
X019387Y001977D01*
X019285Y001876D01*
X019153Y001821D01*
X019010Y001821D01*
X018877Y001876D01*
X019334Y001925D02*
X023033Y001925D01*
X022990Y002084D02*
X019431Y002084D01*
X019441Y002242D02*
X022976Y002242D01*
X022976Y002401D02*
X019371Y002401D01*
X018792Y002401D02*
X014162Y002401D01*
X014285Y002242D02*
X018721Y002242D01*
X018732Y002084D02*
X014329Y002084D01*
X013576Y002401D02*
X013162Y002401D01*
X013285Y002242D02*
X013453Y002242D01*
X013409Y002084D02*
X013329Y002084D01*
X013318Y001925D02*
X013420Y001925D01*
X013495Y001767D02*
X013242Y001767D01*
X013194Y002718D02*
X013544Y002718D01*
X013440Y002877D02*
X013297Y002877D01*
X013329Y003035D02*
X013409Y003035D01*
X013433Y003194D02*
X013305Y003194D01*
X013211Y003352D02*
X013527Y003352D01*
X013593Y003669D02*
X013145Y003669D01*
X013277Y003828D02*
X013461Y003828D01*
X013409Y003986D02*
X013329Y003986D01*
X013325Y004145D02*
X013413Y004145D01*
X013479Y004304D02*
X013259Y004304D01*
X013061Y004462D02*
X013676Y004462D01*
X013777Y004584D02*
X013960Y004584D01*
X014129Y004654D01*
X014259Y004783D01*
X014329Y004952D01*
X014329Y005135D01*
X014259Y005304D01*
X014129Y005434D01*
X013960Y005504D01*
X013777Y005504D01*
X013608Y005434D01*
X013479Y005304D01*
X013409Y005135D01*
X013409Y004952D01*
X013479Y004783D01*
X013608Y004654D01*
X013777Y004584D01*
X013689Y004621D02*
X013049Y004621D01*
X013255Y004779D02*
X013483Y004779D01*
X013415Y004938D02*
X013323Y004938D01*
X013329Y005096D02*
X013409Y005096D01*
X013458Y005255D02*
X013279Y005255D01*
X013150Y005413D02*
X013588Y005413D01*
X014150Y005413D02*
X018029Y005413D01*
X018001Y005385D02*
X017946Y005253D01*
X017946Y005110D01*
X018001Y004977D01*
X018102Y004876D01*
X018235Y004821D01*
X018378Y004821D01*
X018510Y004876D01*
X018612Y004977D01*
X018666Y005110D01*
X018666Y005253D01*
X018612Y005385D01*
X018510Y005487D01*
X018378Y005541D01*
X018235Y005541D01*
X018102Y005487D01*
X018001Y005385D01*
X017947Y005255D02*
X014279Y005255D01*
X014329Y005096D02*
X017952Y005096D01*
X018041Y004938D02*
X014323Y004938D01*
X014255Y004779D02*
X024016Y004779D01*
X023896Y004621D02*
X014049Y004621D01*
X014061Y004462D02*
X023804Y004462D01*
X023760Y004304D02*
X014259Y004304D01*
X014325Y004145D02*
X023726Y004145D01*
X023726Y003986D02*
X014329Y003986D01*
X014277Y003828D02*
X023742Y003828D01*
X025014Y002877D02*
X026292Y002877D01*
X026125Y002718D02*
X025105Y002718D01*
X025151Y002560D02*
X025980Y002560D01*
X025997Y002590D02*
X025997Y002590D01*
X025997Y002590D01*
X025888Y002401D02*
X025186Y002401D01*
X025186Y002242D02*
X025800Y002242D01*
X025757Y002084D02*
X025172Y002084D01*
X025130Y001925D02*
X025715Y001925D01*
X025701Y001876D02*
X025701Y001876D01*
X025701Y001767D02*
X025060Y001767D01*
X024969Y001608D02*
X025701Y001608D01*
X025701Y001450D02*
X024812Y001450D01*
X024576Y001291D02*
X025701Y001291D01*
X025701Y001133D02*
X011534Y001133D01*
X011535Y001291D02*
X023586Y001291D01*
X023350Y001450D02*
X011535Y001450D01*
X011533Y000974D02*
X025701Y000974D01*
X025701Y000816D02*
X011532Y000816D01*
X011542Y002877D02*
X012440Y002877D01*
X012409Y003035D02*
X011543Y003035D01*
X011544Y003194D02*
X012433Y003194D01*
X012527Y003352D02*
X011545Y003352D01*
X006232Y006682D02*
X005849Y006682D01*
X005919Y006840D02*
X006156Y006840D01*
X006141Y006999D02*
X005931Y006999D01*
X005894Y007157D02*
X006180Y007157D01*
X006292Y007316D02*
X005789Y007316D01*
X007663Y007791D02*
X007700Y007791D01*
X007700Y007950D02*
X007663Y007950D01*
X007700Y008109D02*
X008225Y008109D01*
X008225Y008197D02*
X008225Y008016D01*
X008294Y007848D01*
X008423Y007719D01*
X008591Y007650D01*
X008772Y007650D01*
X008940Y007719D01*
X009069Y007848D01*
X009138Y008016D01*
X009138Y008197D01*
X009069Y008365D01*
X008940Y008494D01*
X008772Y008563D01*
X008591Y008563D01*
X008423Y008494D01*
X008294Y008365D01*
X008225Y008197D01*
X008254Y008267D02*
X008131Y008267D01*
X008037Y008426D02*
X008355Y008426D01*
X008252Y007950D02*
X008133Y007950D01*
X008041Y007791D02*
X008350Y007791D01*
X009013Y007791D02*
X009350Y007791D01*
X009252Y007950D02*
X009111Y007950D01*
X009138Y008109D02*
X009225Y008109D01*
X009254Y008267D02*
X009109Y008267D01*
X009008Y008426D02*
X009355Y008426D01*
X010008Y008426D02*
X010056Y008426D01*
X010056Y008584D02*
X004189Y008584D01*
X004163Y008743D02*
X010056Y008743D01*
X010056Y008901D02*
X004120Y008901D01*
X004040Y009060D02*
X008862Y009060D01*
X008852Y009064D02*
X008985Y009009D01*
X009128Y009009D01*
X009260Y009064D01*
X009362Y009165D01*
X009416Y009297D01*
X009416Y009440D01*
X009362Y009573D01*
X009284Y009650D01*
X009362Y009728D01*
X009416Y009860D01*
X009416Y010003D01*
X009362Y010135D01*
X009260Y010237D01*
X009128Y010291D01*
X008985Y010291D01*
X008852Y010237D01*
X008751Y010135D01*
X008696Y010003D01*
X008696Y009860D01*
X008751Y009728D01*
X008829Y009650D01*
X008751Y009573D01*
X008696Y009440D01*
X008696Y009297D01*
X008751Y009165D01*
X008852Y009064D01*
X008729Y009218D02*
X003941Y009218D01*
X003782Y009377D02*
X008696Y009377D01*
X008736Y009535D02*
X003535Y009535D01*
X003765Y009694D02*
X008785Y009694D01*
X008699Y009853D02*
X006487Y009853D01*
X006487Y009852D02*
X006541Y009985D01*
X006541Y010128D01*
X006487Y010260D01*
X006385Y010362D01*
X006253Y010416D01*
X006110Y010416D01*
X005977Y010362D01*
X005876Y010260D01*
X005821Y010128D01*
X005821Y009985D01*
X005876Y009852D01*
X005977Y009751D01*
X006110Y009696D01*
X006253Y009696D01*
X006385Y009751D01*
X006487Y009852D01*
X006541Y010011D02*
X008700Y010011D01*
X008786Y010170D02*
X006524Y010170D01*
X006419Y010328D02*
X010056Y010328D01*
X010056Y010170D02*
X009327Y010170D01*
X009413Y010011D02*
X010056Y010011D01*
X010056Y009853D02*
X009413Y009853D01*
X009328Y009694D02*
X010056Y009694D01*
X010056Y009535D02*
X009377Y009535D01*
X009416Y009377D02*
X010056Y009377D01*
X010056Y009218D02*
X009384Y009218D01*
X009251Y009060D02*
X010056Y009060D01*
X010056Y010487D02*
X004189Y010487D01*
X004189Y010645D02*
X009708Y010645D01*
X009595Y010804D02*
X004173Y010804D01*
X004131Y010962D02*
X009571Y010962D01*
X009620Y011121D02*
X004063Y011121D01*
X003971Y011279D02*
X009831Y011279D01*
X010032Y011279D02*
X010056Y011279D01*
X010056Y011438D02*
X003821Y011438D01*
X004274Y011597D02*
X005120Y011597D01*
X005180Y011536D02*
X005354Y011464D01*
X005543Y011464D01*
X005718Y011536D01*
X005852Y011670D01*
X005924Y011844D01*
X005924Y012033D01*
X005852Y012208D01*
X005718Y012342D01*
X005543Y012414D01*
X005354Y012414D01*
X005180Y012342D01*
X005046Y012208D01*
X004974Y012033D01*
X004974Y011844D01*
X005046Y011670D01*
X005180Y011536D01*
X005011Y011755D02*
X004488Y011755D01*
X004629Y011914D02*
X004974Y011914D01*
X004990Y012072D02*
X004721Y012072D01*
X004777Y012231D02*
X005069Y012231D01*
X005295Y012389D02*
X004819Y012389D01*
X005603Y012389D02*
X006475Y012389D01*
X006534Y012414D02*
X006360Y012342D01*
X006226Y012208D01*
X006154Y012033D01*
X006154Y011844D01*
X006226Y011670D01*
X006360Y011536D01*
X006534Y011464D01*
X006723Y011464D01*
X006898Y011536D01*
X007032Y011670D01*
X007104Y011844D01*
X007104Y012033D01*
X007032Y012208D01*
X006898Y012342D01*
X006723Y012414D01*
X006534Y012414D01*
X006783Y012389D02*
X010056Y012389D01*
X010056Y012231D02*
X007009Y012231D01*
X007088Y012072D02*
X010056Y012072D01*
X010056Y011914D02*
X007104Y011914D01*
X007067Y011755D02*
X010056Y011755D01*
X010056Y011597D02*
X006958Y011597D01*
X006300Y011597D02*
X005778Y011597D01*
X005887Y011755D02*
X006191Y011755D01*
X006154Y011914D02*
X005924Y011914D01*
X005908Y012072D02*
X006170Y012072D01*
X006249Y012231D02*
X005829Y012231D01*
X003580Y013816D02*
X000681Y013816D01*
X000681Y013975D02*
X003325Y013975D01*
X003167Y014133D02*
X000681Y014133D01*
X000681Y014292D02*
X003067Y014292D01*
X002990Y014450D02*
X000681Y014450D01*
X000681Y014609D02*
X002947Y014609D01*
X002926Y014767D02*
X000681Y014767D01*
X000681Y014926D02*
X002926Y014926D01*
X002955Y015084D02*
X000681Y015084D01*
X000681Y015243D02*
X002998Y015243D01*
X003085Y015402D02*
X000681Y015402D01*
X000681Y015560D02*
X003197Y015560D01*
X003358Y015719D02*
X001941Y015719D01*
X003061Y016610D02*
X003061Y016610D01*
X003161Y016987D01*
X003161Y016987D01*
X003010Y011755D02*
X000681Y011755D01*
X003924Y009853D02*
X005876Y009853D01*
X005821Y010011D02*
X004030Y010011D01*
X004116Y010170D02*
X005839Y010170D01*
X005944Y010328D02*
X004158Y010328D01*
X003002Y007157D02*
X000681Y007157D01*
X000681Y006999D02*
X002859Y006999D01*
X002767Y006840D02*
X000681Y006840D01*
X000681Y006682D02*
X002710Y006682D01*
X002667Y006523D02*
X000681Y006523D01*
X000681Y006365D02*
X002666Y006365D01*
X002675Y006206D02*
X000681Y006206D01*
X000681Y006048D02*
X002717Y006048D01*
X002784Y005889D02*
X000681Y005889D01*
X000681Y005730D02*
X002875Y005730D01*
X003030Y005572D02*
X000681Y005572D01*
X000681Y005413D02*
X003269Y005413D01*
X013013Y007791D02*
X013322Y007791D01*
X013230Y007950D02*
X013111Y007950D01*
X013138Y008109D02*
X013663Y008109D01*
X013700Y008109D02*
X014225Y008109D01*
X014252Y007950D02*
X014133Y007950D01*
X014041Y007791D02*
X014350Y007791D01*
X013700Y007791D02*
X013663Y007791D01*
X013663Y007950D02*
X013700Y007950D01*
X013232Y008267D02*
X013109Y008267D01*
X013008Y008426D02*
X013326Y008426D01*
X014051Y008901D02*
X014962Y008901D01*
X014976Y008935D02*
X014921Y008803D01*
X014921Y008660D01*
X014976Y008527D01*
X015077Y008426D01*
X015210Y008371D01*
X015353Y008371D01*
X015485Y008426D01*
X015587Y008527D01*
X015641Y008660D01*
X015641Y008803D01*
X015587Y008935D01*
X015485Y009037D01*
X015353Y009091D01*
X015210Y009091D01*
X015077Y009037D01*
X014976Y008935D01*
X014921Y008743D02*
X014429Y008743D01*
X014528Y008584D02*
X014953Y008584D01*
X015008Y008426D02*
X015079Y008426D01*
X015109Y008267D02*
X018787Y008267D01*
X018776Y008277D02*
X018877Y008176D01*
X019010Y008121D01*
X019153Y008121D01*
X019285Y008176D01*
X019387Y008277D01*
X019441Y008410D01*
X019441Y008553D01*
X019387Y008685D01*
X019285Y008787D01*
X019153Y008841D01*
X019010Y008841D01*
X018877Y008787D01*
X018776Y008685D01*
X018721Y008553D01*
X018721Y008410D01*
X018776Y008277D01*
X018721Y008426D02*
X015484Y008426D01*
X015610Y008584D02*
X018734Y008584D01*
X018834Y008743D02*
X015641Y008743D01*
X015601Y008901D02*
X022449Y008901D01*
X022356Y008743D02*
X019329Y008743D01*
X019428Y008584D02*
X022319Y008584D01*
X022323Y008426D02*
X019441Y008426D01*
X019376Y008267D02*
X022388Y008267D01*
X022526Y008109D02*
X015138Y008109D01*
X015472Y007950D02*
X022497Y007950D01*
X022376Y007791D02*
X015541Y007791D01*
X015530Y007633D02*
X022319Y007633D01*
X022319Y007474D02*
X015434Y007474D01*
X015429Y009060D02*
X022601Y009060D01*
X022417Y009218D02*
X017077Y009218D01*
X017141Y009377D02*
X018777Y009377D01*
X018681Y009535D02*
X017128Y009535D01*
X017028Y009694D02*
X018671Y009694D01*
X018743Y009853D02*
X017097Y009853D01*
X017141Y010011D02*
X019071Y010011D01*
X019078Y010170D02*
X017114Y010170D01*
X016994Y010328D02*
X018826Y010328D01*
X019491Y010487D02*
X022071Y010487D01*
X022071Y010503D02*
X022071Y010360D01*
X022126Y010227D01*
X022227Y010126D01*
X022360Y010071D01*
X022503Y010071D01*
X022635Y010126D01*
X022737Y010227D01*
X022791Y010360D01*
X022791Y010503D01*
X022737Y010635D01*
X022690Y010681D01*
X022737Y010727D01*
X022791Y010860D01*
X022791Y011003D01*
X022737Y011135D01*
X022635Y011237D01*
X022503Y011291D01*
X022360Y011291D01*
X022227Y011237D01*
X022126Y011135D01*
X022071Y011003D01*
X022071Y010860D01*
X022126Y010727D01*
X022172Y010681D01*
X022126Y010635D01*
X022071Y010503D01*
X022136Y010645D02*
X019542Y010645D01*
X019701Y010804D02*
X022095Y010804D01*
X022071Y010962D02*
X019859Y010962D01*
X020018Y011121D02*
X020983Y011121D01*
X020976Y011127D02*
X021077Y011026D01*
X021210Y010971D01*
X021353Y010971D01*
X021485Y011026D01*
X021587Y011127D01*
X021641Y011260D01*
X021641Y011403D01*
X021587Y011535D01*
X021485Y011637D01*
X021353Y011691D01*
X021210Y011691D01*
X021077Y011637D01*
X020976Y011535D01*
X020921Y011403D01*
X020921Y011260D01*
X020976Y011127D01*
X020921Y011279D02*
X020176Y011279D01*
X020335Y011438D02*
X020936Y011438D01*
X021037Y011597D02*
X020494Y011597D01*
X020864Y011755D02*
X028181Y011755D01*
X028181Y011597D02*
X021525Y011597D01*
X021627Y011438D02*
X028181Y011438D01*
X028181Y011279D02*
X022532Y011279D01*
X022331Y011279D02*
X021641Y011279D01*
X021580Y011121D02*
X022120Y011121D01*
X022743Y011121D02*
X028181Y011121D01*
X028181Y010962D02*
X022791Y010962D01*
X022768Y010804D02*
X028181Y010804D01*
X028181Y010645D02*
X022727Y010645D01*
X022791Y010487D02*
X028181Y010487D01*
X028181Y010328D02*
X022778Y010328D01*
X022679Y010170D02*
X028181Y010170D01*
X028181Y010011D02*
X023178Y010011D01*
X023336Y009853D02*
X028181Y009853D01*
X028181Y009694D02*
X023402Y009694D01*
X023419Y009535D02*
X028181Y009535D01*
X028181Y009377D02*
X023395Y009377D01*
X023321Y009218D02*
X028181Y009218D01*
X028181Y009060D02*
X023137Y009060D01*
X023289Y008901D02*
X028181Y008901D01*
X028181Y008743D02*
X023382Y008743D01*
X023419Y008584D02*
X028181Y008584D01*
X028181Y008426D02*
X023415Y008426D01*
X023350Y008267D02*
X028181Y008267D01*
X028181Y008109D02*
X023211Y008109D01*
X023241Y007950D02*
X028181Y007950D01*
X028181Y007791D02*
X023362Y007791D01*
X023419Y007633D02*
X028181Y007633D01*
X028181Y007474D02*
X023419Y007474D01*
X023370Y007316D02*
X028181Y007316D01*
X028181Y007157D02*
X023260Y007157D01*
X023192Y006999D02*
X028181Y006999D01*
X028181Y006840D02*
X023341Y006840D01*
X023407Y006682D02*
X028181Y006682D01*
X028181Y006523D02*
X023419Y006523D01*
X023390Y006365D02*
X028181Y006365D01*
X028181Y006206D02*
X023309Y006206D01*
X024536Y005096D02*
X018661Y005096D01*
X018666Y005255D02*
X028181Y005255D01*
X028181Y005413D02*
X018584Y005413D01*
X018572Y004938D02*
X024191Y004938D01*
X024906Y005572D02*
X028181Y005572D01*
X028181Y005730D02*
X024979Y005730D01*
X024969Y005889D02*
X028181Y005889D01*
X028181Y006048D02*
X024874Y006048D01*
X025127Y005096D02*
X028181Y005096D01*
X028181Y004938D02*
X025472Y004938D01*
X025646Y004779D02*
X028181Y004779D01*
X028181Y004621D02*
X025767Y004621D01*
X025859Y004462D02*
X028181Y004462D01*
X028181Y004304D02*
X025902Y004304D01*
X025936Y004145D02*
X028181Y004145D01*
X028181Y003986D02*
X025936Y003986D01*
X025921Y003828D02*
X028181Y003828D01*
X028181Y003669D02*
X025878Y003669D01*
X025807Y003511D02*
X028181Y003511D01*
X028181Y003352D02*
X025715Y003352D01*
X025556Y003194D02*
X028181Y003194D01*
X026610Y003061D02*
X026610Y003061D01*
X026566Y003035D02*
X025316Y003035D01*
X022343Y009377D02*
X019286Y009377D01*
X019381Y009535D02*
X022319Y009535D01*
X022336Y009694D02*
X019391Y009694D01*
X019712Y009853D02*
X022401Y009853D01*
X022560Y010011D02*
X019791Y010011D01*
X019785Y010170D02*
X022184Y010170D01*
X022084Y010328D02*
X019694Y010328D01*
X020972Y011914D02*
X028181Y011914D01*
X028181Y012072D02*
X020991Y012072D01*
X020939Y012231D02*
X028180Y012231D01*
X028180Y012389D02*
X020708Y012389D01*
X019218Y012865D02*
X019073Y012865D01*
X019059Y012706D02*
X018965Y012706D01*
X018901Y012548D02*
X016691Y012548D01*
X016683Y012389D02*
X018742Y012389D01*
X018584Y012231D02*
X016590Y012231D01*
X016616Y012706D02*
X018497Y012706D01*
X019091Y013023D02*
X019271Y013023D01*
X019325Y013182D02*
X019041Y013182D01*
X018699Y013816D02*
X014685Y013816D01*
X014681Y013816D02*
X014272Y013816D01*
X013889Y016670D02*
X013849Y016670D01*
X013849Y016828D02*
X013889Y016828D01*
X013889Y016987D02*
X013849Y016987D01*
X013889Y017064D02*
X014349Y017064D01*
X014349Y017139D01*
X014276Y017316D01*
X014141Y017451D01*
X013964Y017524D01*
X013889Y017524D01*
X013889Y017064D01*
X013889Y017146D02*
X013849Y017146D01*
X013849Y017304D02*
X013889Y017304D01*
X013889Y017463D02*
X013849Y017463D01*
X013626Y017463D02*
X013060Y017463D01*
X013129Y017434D02*
X012960Y017504D01*
X012777Y017504D01*
X012608Y017434D01*
X012479Y017304D01*
X012678Y017463D02*
X011556Y017463D01*
X011556Y017621D02*
X014681Y017621D01*
X014704Y017621D02*
X023359Y017621D01*
X023200Y017463D02*
X014703Y017463D01*
X014681Y017463D02*
X014112Y017463D01*
X014281Y017304D02*
X014681Y017304D01*
X014702Y017304D02*
X023107Y017304D01*
X023035Y017146D02*
X014701Y017146D01*
X014681Y017146D02*
X014346Y017146D01*
X014349Y016987D02*
X014681Y016987D01*
X014700Y016987D02*
X019479Y016987D01*
X019477Y016987D02*
X019376Y016885D01*
X019321Y016753D01*
X019321Y016610D01*
X019376Y016477D01*
X019477Y016376D01*
X019610Y016321D01*
X019753Y016321D01*
X019885Y016376D01*
X019987Y016477D01*
X020041Y016610D01*
X020041Y016753D01*
X019987Y016885D01*
X019885Y016987D01*
X019753Y017041D01*
X019610Y017041D01*
X019477Y016987D01*
X019353Y016828D02*
X018601Y016828D01*
X018763Y016670D02*
X019321Y016670D01*
X019362Y016511D02*
X018846Y016511D01*
X018892Y016353D02*
X019534Y016353D01*
X019829Y016353D02*
X023053Y016353D01*
X023010Y016511D02*
X020001Y016511D01*
X020041Y016670D02*
X022976Y016670D01*
X022976Y016828D02*
X020010Y016828D01*
X019884Y016987D02*
X022993Y016987D01*
X023601Y017780D02*
X014704Y017780D01*
X014681Y017780D02*
X011556Y017780D01*
X011556Y017938D02*
X014681Y017938D01*
X014705Y017938D02*
X025701Y017938D01*
X025701Y017780D02*
X024562Y017780D01*
X024804Y017621D02*
X025701Y017621D01*
X025701Y017463D02*
X024963Y017463D01*
X025056Y017304D02*
X025701Y017304D01*
X025701Y017146D02*
X025128Y017146D01*
X025170Y016987D02*
X025701Y016987D01*
X025701Y016957D02*
X025701Y016957D01*
X025743Y016828D02*
X025186Y016828D01*
X025186Y016670D02*
X025794Y016670D01*
X025846Y016511D02*
X025153Y016511D01*
X025110Y016353D02*
X025961Y016353D01*
X026075Y016194D02*
X025018Y016194D01*
X024898Y016036D02*
X026253Y016036D01*
X026117Y016136D02*
X026117Y016135D01*
X026469Y015877D02*
X025198Y015877D01*
X025505Y015719D02*
X026916Y015719D01*
X026935Y015712D02*
X026935Y015712D01*
X026493Y015859D02*
X026493Y015859D01*
X025778Y015402D02*
X028173Y015402D01*
X028173Y015560D02*
X025665Y015560D01*
X025865Y015243D02*
X028174Y015243D01*
X028174Y015084D02*
X025908Y015084D01*
X025936Y014926D02*
X028174Y014926D01*
X028175Y014767D02*
X025936Y014767D01*
X025916Y014609D02*
X028175Y014609D01*
X028175Y014450D02*
X025873Y014450D01*
X025796Y014292D02*
X028176Y014292D01*
X028176Y014133D02*
X025696Y014133D01*
X025537Y013975D02*
X028176Y013975D01*
X028177Y013816D02*
X025283Y013816D01*
X024380Y013816D02*
X021515Y013816D01*
X021541Y013658D02*
X028177Y013658D01*
X028177Y013499D02*
X021496Y013499D01*
X021397Y013975D02*
X024125Y013975D01*
X023778Y015719D02*
X018614Y015719D01*
X018773Y015877D02*
X023438Y015877D01*
X023264Y016036D02*
X018850Y016036D01*
X018892Y016194D02*
X023144Y016194D01*
X025701Y018097D02*
X014706Y018097D01*
X014681Y018097D02*
X011556Y018097D01*
X013129Y017434D02*
X013259Y017304D01*
X013457Y017304D01*
X013391Y017146D02*
X013325Y017146D01*
X013329Y017135D02*
X013259Y017304D01*
X013329Y017135D02*
X013329Y016952D01*
X013259Y016783D01*
X013129Y016654D01*
X013145Y016670D02*
X013564Y016670D01*
X013439Y016828D02*
X013278Y016828D01*
X013329Y016987D02*
X013389Y016987D01*
X013879Y009060D02*
X015134Y009060D01*
D17*
X018181Y011331D02*
X018181Y011531D01*
X019631Y012981D01*
X020631Y012031D02*
X019131Y010531D01*
M02*
