%
M48
M72
T01C0.0240
T02C0.0354
T03C0.0360
T04C0.0394
T05C0.0400
T06C0.0520
T07C0.1181
T08C0.1250
T09C0.1340
%
T01
X6740Y4931
X6115Y7431
X7240Y10056
X9740Y10806
X9740Y12556
X7115Y12431
X7115Y13556
X4115Y12931
X14740Y11931
X15340Y11731
X14927Y11444
X16327Y11644
X16790Y12381
X18340Y11031
X18940Y11031
X18327Y10544
X18865Y9794
X20027Y9544
X20365Y9106
X20677Y9619
X20240Y10081
X20027Y10544
X20827Y11344
X20327Y11544
X19840Y12981
X20890Y12981
X22240Y13681
X22240Y15181
X20740Y16681
X18440Y16881
X18115Y13931
X23127Y11544
X23490Y10931
X23490Y10431
X22427Y9744
X19827Y8544
X21527Y6244
X22827Y6044
X25677Y5794
X26090Y8131
X25627Y8744
X19365Y5181
X19240Y2981
X20140Y2181
X16340Y8731
X14827Y8744
X24840Y13881
T02
X19293Y16419
X17561Y16419
T03
X7927Y3794
X6927Y3794
T04
X8740Y8106
X9740Y8106
X10740Y8106
X12740Y8106
X13740Y8106
X14740Y8106
X15740Y8106
T05
X14927Y5044
X13927Y5044
X13927Y4044
X14927Y4044
X14927Y3044
X13927Y3044
X13927Y2044
X14927Y2044
X14927Y14044
X13927Y14044
X13927Y15044
X14927Y15044
X14927Y16044
X13927Y16044
X13927Y17044
X14927Y17044
T06
X23927Y9544
X23927Y8544
X23927Y7544
X23927Y6544
T07
X2127Y6094
X2077Y12994
T08
X5090Y4031
X5090Y14831
X25140Y16781
X25890Y14831
X25890Y4031
X25140Y2281
T09
X4097Y8494
X4097Y10594
M30
