G75*
G70*
%OFA0B0*%
%FSLAX24Y24*%
%IPPOS*%
%LPD*%
%AMOC8*
5,1,8,0,0,1.08239X$1,22.5*
%
%ADD10C,0.0630*%
%ADD11C,0.0594*%
%ADD12C,0.0560*%
%ADD13C,0.0600*%
%ADD14C,0.0780*%
%ADD15C,0.0160*%
%ADD16C,0.0400*%
%ADD17C,0.0100*%
%ADD18C,0.0320*%
D10*
X004936Y007101D03*
X006116Y007101D03*
X006116Y008281D03*
X004936Y008281D03*
X004949Y011251D03*
X006129Y011251D03*
X006129Y012431D03*
X004949Y012431D03*
D11*
X007681Y008419D03*
X008681Y008419D03*
X009681Y008419D03*
X011681Y008419D03*
X012681Y008419D03*
X013681Y008419D03*
X014681Y008419D03*
D12*
X007744Y004356D03*
X006744Y004356D03*
X009494Y002369D03*
X009494Y001369D03*
X011681Y001369D03*
X011681Y002369D03*
X008381Y014969D03*
X007381Y014969D03*
X006381Y014969D03*
D13*
X012869Y015356D03*
X013869Y015356D03*
X013869Y016356D03*
X012869Y016356D03*
X012869Y017356D03*
X013869Y017356D03*
X013869Y014356D03*
X012869Y014356D03*
X012869Y005356D03*
X013869Y005356D03*
X013869Y004356D03*
X012869Y004356D03*
X012869Y003356D03*
X013869Y003356D03*
X013869Y002356D03*
X012869Y002356D03*
D14*
X022869Y006856D03*
X022869Y007856D03*
X022869Y008856D03*
X022869Y009856D03*
D15*
X003161Y002089D02*
X003161Y000994D01*
X009250Y000994D01*
X009245Y000996D01*
X009121Y001120D01*
X009054Y001281D01*
X009054Y001456D01*
X009121Y001618D01*
X009245Y001742D01*
X009406Y001809D01*
X009581Y001809D01*
X009743Y001742D01*
X009867Y001618D01*
X009934Y001456D01*
X009934Y001281D01*
X009867Y001120D01*
X009743Y000996D01*
X009738Y000994D01*
X010056Y000994D01*
X010056Y008148D01*
X009940Y008032D01*
X009772Y007962D01*
X009591Y007962D01*
X009423Y008032D01*
X009294Y008160D01*
X009225Y008328D01*
X009225Y008510D01*
X009294Y008678D01*
X009423Y008806D01*
X009591Y008876D01*
X009772Y008876D01*
X009940Y008806D01*
X010056Y008690D01*
X010056Y010906D01*
X010003Y010884D01*
X009860Y010884D01*
X009727Y010939D01*
X009626Y011040D01*
X009571Y011172D01*
X009571Y011315D01*
X009626Y011448D01*
X009727Y011549D01*
X009860Y011604D01*
X010003Y011604D01*
X010056Y011582D01*
X010056Y013485D01*
X010010Y013439D01*
X009878Y013384D01*
X009735Y013384D01*
X009602Y013439D01*
X009501Y013540D01*
X009446Y013672D01*
X009446Y013815D01*
X009501Y013948D01*
X009602Y014049D01*
X009735Y014104D01*
X009878Y014104D01*
X010010Y014049D01*
X010056Y014003D01*
X010056Y017994D01*
X003161Y017994D01*
X003161Y017589D01*
X003161Y017494D01*
X003161Y017299D01*
X003161Y017299D01*
X003061Y016923D01*
X003061Y016923D01*
X002866Y016585D01*
X002866Y016585D01*
X002590Y016310D01*
X002590Y016310D01*
X002253Y016115D01*
X002253Y016115D01*
X001876Y016014D01*
X001876Y016014D01*
X001777Y016014D01*
X000681Y016014D01*
X000681Y003474D01*
X001586Y003474D01*
X001681Y003474D01*
X001777Y003474D01*
X001876Y003474D01*
X001876Y003474D01*
X002253Y003373D01*
X002253Y003373D01*
X002590Y003178D01*
X002590Y003178D01*
X002866Y002903D01*
X002866Y002903D01*
X003061Y002565D01*
X003061Y002565D01*
X003161Y002189D01*
X003161Y002189D01*
X003161Y002089D01*
X003161Y002079D02*
X010056Y002079D01*
X010056Y001921D02*
X003161Y001921D01*
X003161Y001762D02*
X009294Y001762D01*
X009115Y001604D02*
X003161Y001604D01*
X003161Y001445D02*
X009054Y001445D01*
X009054Y001287D02*
X003161Y001287D01*
X003161Y001128D02*
X009117Y001128D01*
X009870Y001128D02*
X010056Y001128D01*
X010056Y001287D02*
X009934Y001287D01*
X009934Y001445D02*
X010056Y001445D01*
X010056Y001604D02*
X009873Y001604D01*
X009694Y001762D02*
X010056Y001762D01*
X010056Y002238D02*
X003148Y002238D01*
X003106Y002396D02*
X010056Y002396D01*
X010056Y002555D02*
X003063Y002555D01*
X002975Y002713D02*
X010056Y002713D01*
X010056Y002872D02*
X002883Y002872D01*
X002738Y003031D02*
X010056Y003031D01*
X010056Y003189D02*
X002571Y003189D01*
X002296Y003348D02*
X003547Y003348D01*
X003605Y003314D02*
X003886Y003239D01*
X004177Y003239D01*
X004458Y003314D01*
X004710Y003460D01*
X004916Y003665D01*
X005061Y003917D01*
X005136Y004198D01*
X005136Y004489D01*
X005061Y004770D01*
X004916Y005022D01*
X004710Y005228D01*
X004458Y005374D01*
X004177Y005449D01*
X003886Y005449D01*
X003605Y005374D01*
X003353Y005228D01*
X003147Y005022D01*
X003002Y004770D01*
X002926Y004489D01*
X002926Y004198D01*
X003002Y003917D01*
X003147Y003665D01*
X003353Y003460D01*
X003605Y003314D01*
X003306Y003506D02*
X000681Y003506D01*
X000681Y003665D02*
X003148Y003665D01*
X003056Y003823D02*
X000681Y003823D01*
X000681Y003982D02*
X002984Y003982D01*
X002942Y004140D02*
X000681Y004140D01*
X000681Y004299D02*
X002926Y004299D01*
X002926Y004457D02*
X000681Y004457D01*
X000681Y004616D02*
X002960Y004616D01*
X003004Y004775D02*
X000681Y004775D01*
X000681Y004933D02*
X003096Y004933D01*
X003216Y005092D02*
X000681Y005092D01*
X000681Y005250D02*
X003391Y005250D01*
X003736Y005409D02*
X000681Y005409D01*
X000681Y005567D02*
X010056Y005567D01*
X010056Y005409D02*
X004327Y005409D01*
X004672Y005250D02*
X010056Y005250D01*
X010056Y005092D02*
X004846Y005092D01*
X004967Y004933D02*
X010056Y004933D01*
X010056Y004775D02*
X007884Y004775D01*
X007831Y004796D02*
X007993Y004729D01*
X008117Y004606D01*
X008184Y004444D01*
X008184Y004269D01*
X008117Y004107D01*
X007993Y003983D01*
X007831Y003916D01*
X007656Y003916D01*
X007495Y003983D01*
X007371Y004107D01*
X007304Y004269D01*
X007304Y004444D01*
X007371Y004606D01*
X007495Y004729D01*
X007656Y004796D01*
X007831Y004796D01*
X007604Y004775D02*
X006884Y004775D01*
X006831Y004796D02*
X006656Y004796D01*
X006495Y004729D01*
X006371Y004606D01*
X006304Y004444D01*
X006304Y004269D01*
X006371Y004107D01*
X006495Y003983D01*
X006656Y003916D01*
X006831Y003916D01*
X006993Y003983D01*
X007117Y004107D01*
X007184Y004269D01*
X007184Y004444D01*
X007117Y004606D01*
X006993Y004729D01*
X006831Y004796D01*
X006604Y004775D02*
X005059Y004775D01*
X005102Y004616D02*
X006381Y004616D01*
X006310Y004457D02*
X005136Y004457D01*
X005136Y004299D02*
X006304Y004299D01*
X006357Y004140D02*
X005121Y004140D01*
X005078Y003982D02*
X006498Y003982D01*
X006989Y003982D02*
X007498Y003982D01*
X007357Y004140D02*
X007131Y004140D01*
X007184Y004299D02*
X007304Y004299D01*
X007310Y004457D02*
X007178Y004457D01*
X007107Y004616D02*
X007381Y004616D01*
X008107Y004616D02*
X010056Y004616D01*
X010056Y004457D02*
X008178Y004457D01*
X008184Y004299D02*
X010056Y004299D01*
X010056Y004140D02*
X008131Y004140D01*
X007989Y003982D02*
X010056Y003982D01*
X010056Y003823D02*
X005007Y003823D01*
X004915Y003665D02*
X010056Y003665D01*
X010056Y003506D02*
X004756Y003506D01*
X004516Y003348D02*
X010056Y003348D01*
X011244Y003348D02*
X012409Y003348D01*
X012409Y003265D02*
X012479Y003096D01*
X012608Y002966D01*
X012777Y002896D01*
X012960Y002896D01*
X013129Y002966D01*
X013181Y003018D01*
X013181Y002694D01*
X013129Y002746D01*
X012960Y002816D01*
X012777Y002816D01*
X012608Y002746D01*
X012479Y002617D01*
X012418Y002469D01*
X011244Y002431D01*
X011244Y008281D01*
X011294Y008160D01*
X011423Y008032D01*
X011591Y007962D01*
X011772Y007962D01*
X011940Y008032D01*
X012069Y008160D01*
X012138Y008328D01*
X012138Y008510D01*
X012069Y008678D01*
X011940Y008806D01*
X011772Y008876D01*
X011591Y008876D01*
X011423Y008806D01*
X011294Y008678D01*
X011244Y008556D01*
X011244Y017994D01*
X013181Y017994D01*
X023430Y017994D01*
X023403Y017978D01*
X023197Y017772D01*
X023052Y017520D01*
X022976Y017239D01*
X022976Y016948D01*
X023052Y016667D01*
X023197Y016415D01*
X023403Y016210D01*
X023655Y016064D01*
X023936Y015989D01*
X024114Y015989D01*
X023947Y015822D01*
X023802Y015570D01*
X023726Y015289D01*
X023726Y014998D01*
X023728Y014994D01*
X022215Y014994D01*
X022216Y014997D01*
X022216Y015140D01*
X022162Y015273D01*
X022060Y015374D01*
X021928Y015429D01*
X021785Y015429D01*
X021652Y015374D01*
X021551Y015273D01*
X021496Y015140D01*
X021496Y014997D01*
X021498Y014994D01*
X017340Y014994D01*
X017285Y015049D01*
X017153Y015104D01*
X017010Y015104D01*
X016877Y015049D01*
X016822Y014994D01*
X016749Y014994D01*
X016737Y015023D01*
X016635Y015124D01*
X016503Y015179D01*
X016360Y015179D01*
X016227Y015124D01*
X016126Y015023D01*
X016114Y014994D01*
X014185Y014994D01*
X014276Y015084D01*
X014349Y015261D01*
X014349Y015336D01*
X013889Y015336D01*
X013889Y015376D01*
X014349Y015376D01*
X014349Y015452D01*
X014276Y015628D01*
X014141Y015763D01*
X013964Y015836D01*
X013889Y015836D01*
X013889Y015377D01*
X013849Y015377D01*
X013849Y015836D01*
X013773Y015836D01*
X013597Y015763D01*
X013462Y015628D01*
X013389Y015452D01*
X013389Y015376D01*
X013849Y015376D01*
X013849Y015336D01*
X013389Y015336D01*
X013389Y015261D01*
X013462Y015084D01*
X013553Y014994D01*
X013181Y014994D01*
X013181Y015018D01*
X013259Y015096D01*
X013329Y015265D01*
X013329Y015448D01*
X013259Y015617D01*
X013181Y015694D01*
X013181Y016018D01*
X013259Y016096D01*
X013329Y016265D01*
X013329Y016448D01*
X013259Y016617D01*
X013181Y016694D01*
X013181Y017018D01*
X013259Y017096D01*
X013329Y017265D01*
X013329Y017448D01*
X013259Y017617D01*
X013181Y017694D01*
X013181Y017994D01*
X013181Y017694D01*
X013129Y017746D01*
X012960Y017816D01*
X012777Y017816D01*
X012608Y017746D01*
X012479Y017617D01*
X012409Y017448D01*
X012409Y017265D01*
X012479Y017096D01*
X012608Y016966D01*
X012777Y016896D01*
X012960Y016896D01*
X013129Y016966D01*
X013181Y017018D01*
X013181Y016694D01*
X013129Y016746D01*
X012960Y016816D01*
X012777Y016816D01*
X012608Y016746D01*
X012479Y016617D01*
X012409Y016448D01*
X012409Y016265D01*
X012479Y016096D01*
X012608Y015966D01*
X012777Y015896D01*
X012960Y015896D01*
X013129Y015966D01*
X013181Y016018D01*
X013181Y015694D01*
X013129Y015746D01*
X012960Y015816D01*
X012777Y015816D01*
X012608Y015746D01*
X012479Y015617D01*
X012409Y015448D01*
X012409Y015265D01*
X012479Y015096D01*
X012608Y014966D01*
X012777Y014896D01*
X012960Y014896D01*
X013129Y014966D01*
X013181Y015018D01*
X013181Y014694D01*
X013129Y014746D01*
X012960Y014816D01*
X012777Y014816D01*
X012608Y014746D01*
X012479Y014617D01*
X012409Y014448D01*
X012409Y014265D01*
X012479Y014096D01*
X012608Y013966D01*
X012777Y013896D01*
X012960Y013896D01*
X013129Y013966D01*
X013181Y014018D01*
X013181Y013554D01*
X013160Y013554D01*
X013027Y013499D01*
X012926Y013398D01*
X012871Y013265D01*
X012871Y013122D01*
X012926Y012990D01*
X013027Y012889D01*
X013160Y012834D01*
X013181Y012834D01*
X013181Y005694D01*
X013129Y005746D01*
X012960Y005816D01*
X012777Y005816D01*
X012608Y005746D01*
X012479Y005617D01*
X012409Y005448D01*
X012409Y005265D01*
X012479Y005096D01*
X012608Y004966D01*
X012777Y004896D01*
X012960Y004896D01*
X013129Y004966D01*
X013181Y005018D01*
X013181Y004694D01*
X013129Y004746D01*
X012960Y004816D01*
X012777Y004816D01*
X012608Y004746D01*
X012479Y004617D01*
X012409Y004448D01*
X012409Y004265D01*
X012479Y004096D01*
X012608Y003966D01*
X012777Y003896D01*
X012960Y003896D01*
X013129Y003966D01*
X013181Y004018D01*
X013181Y003694D01*
X013129Y003746D01*
X012960Y003816D01*
X012777Y003816D01*
X012608Y003746D01*
X012479Y003617D01*
X012409Y003448D01*
X012409Y003265D01*
X012440Y003189D02*
X011244Y003189D01*
X011244Y003031D02*
X012544Y003031D01*
X012576Y002713D02*
X011244Y002713D01*
X011244Y002555D02*
X012453Y002555D01*
X012428Y002494D02*
X012409Y002448D01*
X012409Y002265D01*
X012479Y002096D01*
X012608Y001966D01*
X012777Y001896D01*
X012960Y001896D01*
X013129Y001966D01*
X013259Y002096D01*
X013329Y002265D01*
X013329Y002448D01*
X013310Y002494D01*
X013428Y002494D01*
X013409Y002448D01*
X013409Y002265D01*
X013479Y002096D01*
X013608Y001966D01*
X013777Y001896D01*
X013960Y001896D01*
X014129Y001966D01*
X014259Y002096D01*
X014329Y002265D01*
X014329Y002448D01*
X014310Y002494D01*
X022976Y002494D01*
X022976Y002448D01*
X023052Y002167D01*
X023197Y001915D01*
X023403Y001710D01*
X023655Y001564D01*
X023936Y001489D01*
X024227Y001489D01*
X024508Y001564D01*
X024760Y001710D01*
X024966Y001915D01*
X025111Y002167D01*
X025181Y002430D01*
X025181Y000974D01*
X011877Y000974D01*
X011931Y000996D01*
X012054Y001120D01*
X012121Y001281D01*
X012121Y001456D01*
X012054Y001618D01*
X011931Y001742D01*
X011769Y001809D01*
X011594Y001809D01*
X011432Y001742D01*
X011308Y001618D01*
X011244Y001462D01*
X011244Y002494D01*
X012428Y002494D01*
X012409Y002396D02*
X011244Y002396D01*
X011244Y002238D02*
X012420Y002238D01*
X012495Y002079D02*
X011244Y002079D01*
X011244Y001921D02*
X012719Y001921D01*
X013019Y001921D02*
X013719Y001921D01*
X013495Y002079D02*
X013242Y002079D01*
X013318Y002238D02*
X013420Y002238D01*
X013409Y002396D02*
X013329Y002396D01*
X013181Y002713D02*
X013162Y002713D01*
X013181Y002872D02*
X011244Y002872D01*
X011244Y003506D02*
X012433Y003506D01*
X012527Y003665D02*
X011244Y003665D01*
X011244Y003823D02*
X013181Y003823D01*
X013181Y003982D02*
X013145Y003982D01*
X013681Y003936D02*
X013681Y003777D01*
X013777Y003816D01*
X013960Y003816D01*
X014129Y003746D01*
X014259Y003617D01*
X014310Y003494D01*
X017875Y003494D01*
X017876Y003498D01*
X017977Y003599D01*
X018110Y003654D01*
X018253Y003654D01*
X018385Y003599D01*
X018487Y003498D01*
X018488Y003494D01*
X023430Y003494D01*
X023655Y003624D01*
X023929Y003697D01*
X023802Y003917D01*
X023726Y004198D01*
X023726Y004489D01*
X023802Y004770D01*
X023947Y005022D01*
X024153Y005228D01*
X024405Y005374D01*
X024686Y005449D01*
X024977Y005449D01*
X025258Y005374D01*
X025510Y005228D01*
X025716Y005022D01*
X025861Y004770D01*
X025936Y004489D01*
X025936Y004198D01*
X025861Y003917D01*
X025716Y003665D01*
X025544Y003494D01*
X028200Y003494D01*
X028176Y014432D01*
X025693Y014443D01*
X025510Y014260D01*
X025258Y014114D01*
X024977Y014039D01*
X024686Y014039D01*
X024405Y014114D01*
X024153Y014260D01*
X023962Y014450D01*
X017325Y014478D01*
X017285Y014439D01*
X017153Y014384D01*
X017010Y014384D01*
X016877Y014439D01*
X016836Y014480D01*
X016558Y014482D01*
X016503Y014459D01*
X016360Y014459D01*
X016302Y014483D01*
X014333Y014491D01*
X014349Y014452D01*
X014349Y014376D01*
X013889Y014376D01*
X013889Y014336D01*
X013889Y013876D01*
X013964Y013876D01*
X014141Y013949D01*
X014276Y014084D01*
X014349Y014261D01*
X014349Y014336D01*
X013889Y014336D01*
X013849Y014336D01*
X013849Y013876D01*
X013773Y013876D01*
X013681Y013915D01*
X013681Y012068D01*
X013797Y012116D01*
X013941Y012116D01*
X014073Y012062D01*
X014174Y011960D01*
X014229Y011828D01*
X014229Y011685D01*
X014174Y011552D01*
X014073Y011451D01*
X013941Y011396D01*
X013797Y011396D01*
X013681Y011444D01*
X013681Y009404D01*
X013803Y009404D01*
X013935Y009349D01*
X014037Y009248D01*
X014081Y009142D01*
X014110Y009154D01*
X014253Y009154D01*
X014385Y009099D01*
X014487Y008998D01*
X014541Y008865D01*
X014541Y008855D01*
X014591Y008876D01*
X014772Y008876D01*
X014940Y008806D01*
X015069Y008678D01*
X015138Y008510D01*
X015138Y008404D01*
X015253Y008404D01*
X015385Y008349D01*
X015487Y008248D01*
X015541Y008115D01*
X015541Y007972D01*
X015487Y007840D01*
X015385Y007739D01*
X015253Y007684D01*
X015110Y007684D01*
X014977Y007739D01*
X014876Y007840D01*
X014821Y007972D01*
X014821Y007982D01*
X014772Y007962D01*
X014591Y007962D01*
X014423Y008032D01*
X014294Y008160D01*
X014225Y008328D01*
X014225Y008434D01*
X014138Y008434D01*
X014138Y008328D01*
X014069Y008160D01*
X013940Y008032D01*
X013772Y007962D01*
X013681Y007962D01*
X013681Y005777D01*
X013777Y005816D01*
X013960Y005816D01*
X014129Y005746D01*
X014259Y005617D01*
X014329Y005448D01*
X014329Y005265D01*
X014259Y005096D01*
X014129Y004966D01*
X013960Y004896D01*
X013777Y004896D01*
X013681Y004936D01*
X013681Y004777D01*
X013777Y004816D01*
X013960Y004816D01*
X014129Y004746D01*
X014259Y004617D01*
X014329Y004448D01*
X014329Y004265D01*
X014259Y004096D01*
X014129Y003966D01*
X013960Y003896D01*
X013777Y003896D01*
X013681Y003936D01*
X013681Y003823D02*
X023856Y003823D01*
X023809Y003665D02*
X014211Y003665D01*
X014305Y003506D02*
X017885Y003506D01*
X018478Y003506D02*
X023452Y003506D01*
X023784Y003982D02*
X014145Y003982D01*
X014277Y004140D02*
X023742Y004140D01*
X023726Y004299D02*
X014329Y004299D01*
X014325Y004457D02*
X023726Y004457D01*
X023760Y004616D02*
X014259Y004616D01*
X014061Y004775D02*
X023804Y004775D01*
X023896Y004933D02*
X014049Y004933D01*
X014255Y005092D02*
X024016Y005092D01*
X024191Y005250D02*
X018572Y005250D01*
X018612Y005290D02*
X018510Y005189D01*
X018378Y005134D01*
X018235Y005134D01*
X018102Y005189D01*
X018001Y005290D01*
X017946Y005422D01*
X017946Y005565D01*
X018001Y005698D01*
X018102Y005799D01*
X018235Y005854D01*
X018378Y005854D01*
X018510Y005799D01*
X018612Y005698D01*
X018666Y005565D01*
X018666Y005422D01*
X018612Y005290D01*
X018661Y005409D02*
X024536Y005409D01*
X024547Y005746D02*
X024691Y005746D01*
X024823Y005801D01*
X024924Y005902D01*
X024979Y006035D01*
X024979Y006178D01*
X024924Y006310D01*
X024823Y006412D01*
X024691Y006466D01*
X024547Y006466D01*
X024415Y006412D01*
X024314Y006310D01*
X024259Y006178D01*
X024259Y006035D01*
X024314Y005902D01*
X024415Y005801D01*
X024547Y005746D01*
X024332Y005884D02*
X013681Y005884D01*
X013681Y006043D02*
X024259Y006043D01*
X024269Y006201D02*
X023798Y006201D01*
X023837Y006240D02*
X023735Y006139D01*
X023603Y006084D01*
X023460Y006084D01*
X023327Y006139D01*
X023226Y006240D01*
X023171Y006372D01*
X023171Y006386D01*
X022978Y006306D01*
X022759Y006306D01*
X022557Y006390D01*
X022403Y006545D01*
X022319Y006747D01*
X022319Y006966D01*
X022403Y007168D01*
X022557Y007323D01*
X022639Y007356D01*
X022557Y007390D01*
X022403Y007545D01*
X022319Y007747D01*
X022319Y007966D01*
X022403Y008168D01*
X022557Y008323D01*
X022639Y008356D01*
X022557Y008390D01*
X022403Y008545D01*
X022319Y008747D01*
X022319Y008966D01*
X022403Y009168D01*
X022557Y009323D01*
X022639Y009356D01*
X022557Y009390D01*
X022403Y009545D01*
X022319Y009747D01*
X022319Y009966D01*
X022403Y010168D01*
X022557Y010323D01*
X022759Y010406D01*
X022978Y010406D01*
X023180Y010323D01*
X023335Y010168D01*
X023419Y009966D01*
X023419Y009747D01*
X023335Y009545D01*
X023180Y009390D01*
X023099Y009356D01*
X023180Y009323D01*
X023335Y009168D01*
X023419Y008966D01*
X023419Y008747D01*
X023335Y008545D01*
X023180Y008390D01*
X023099Y008356D01*
X023180Y008323D01*
X023335Y008168D01*
X023419Y007966D01*
X023419Y007747D01*
X023335Y007545D01*
X023180Y007390D01*
X023099Y007356D01*
X023180Y007323D01*
X023335Y007168D01*
X023419Y006966D01*
X023419Y006787D01*
X023460Y006804D01*
X023603Y006804D01*
X023735Y006749D01*
X023837Y006648D01*
X023891Y006515D01*
X023891Y006372D01*
X023837Y006240D01*
X023886Y006360D02*
X024363Y006360D01*
X023890Y006519D02*
X028194Y006519D01*
X028193Y006677D02*
X023807Y006677D01*
X023419Y006836D02*
X028193Y006836D01*
X028193Y006994D02*
X023407Y006994D01*
X023341Y007153D02*
X024313Y007153D01*
X024327Y007139D02*
X024460Y007084D01*
X024603Y007084D01*
X024735Y007139D01*
X024837Y007240D01*
X024891Y007372D01*
X024891Y007515D01*
X024837Y007648D01*
X024735Y007749D01*
X024603Y007804D01*
X024460Y007804D01*
X024327Y007749D01*
X024226Y007648D01*
X024171Y007515D01*
X024171Y007372D01*
X024226Y007240D01*
X024327Y007139D01*
X024197Y007311D02*
X023192Y007311D01*
X023260Y007470D02*
X024171Y007470D01*
X024218Y007628D02*
X023370Y007628D01*
X023419Y007787D02*
X024419Y007787D01*
X024644Y007787D02*
X028191Y007787D01*
X028190Y007945D02*
X023419Y007945D01*
X023362Y008104D02*
X028190Y008104D01*
X028190Y008262D02*
X023241Y008262D01*
X023211Y008421D02*
X028189Y008421D01*
X028189Y008580D02*
X023350Y008580D01*
X023415Y008738D02*
X028189Y008738D01*
X028188Y008897D02*
X023419Y008897D01*
X023382Y009055D02*
X028188Y009055D01*
X028188Y009214D02*
X023289Y009214D01*
X023137Y009372D02*
X028187Y009372D01*
X028187Y009531D02*
X023321Y009531D01*
X023395Y009689D02*
X028187Y009689D01*
X028186Y009848D02*
X023419Y009848D01*
X023402Y010006D02*
X028186Y010006D01*
X028185Y010165D02*
X024287Y010165D01*
X024337Y010215D02*
X024391Y010347D01*
X024391Y010490D01*
X024337Y010623D01*
X024235Y010724D01*
X024103Y010779D01*
X023960Y010779D01*
X023827Y010724D01*
X023726Y010623D01*
X023671Y010490D01*
X023671Y010347D01*
X023726Y010215D01*
X023827Y010114D01*
X023960Y010059D01*
X024103Y010059D01*
X024235Y010114D01*
X024337Y010215D01*
X024382Y010324D02*
X028185Y010324D01*
X028185Y010482D02*
X024391Y010482D01*
X024319Y010641D02*
X028184Y010641D01*
X028184Y010799D02*
X022146Y010799D01*
X022187Y010840D02*
X022241Y010972D01*
X022241Y011115D01*
X022187Y011248D01*
X022085Y011349D01*
X021953Y011404D01*
X021810Y011404D01*
X021677Y011349D01*
X021576Y011248D01*
X021521Y011115D01*
X021521Y010972D01*
X021576Y010840D01*
X021677Y010739D01*
X021810Y010684D01*
X021953Y010684D01*
X022085Y010739D01*
X022187Y010840D01*
X022235Y010958D02*
X028184Y010958D01*
X028183Y011116D02*
X022241Y011116D01*
X022160Y011275D02*
X028183Y011275D01*
X028183Y011433D02*
X024247Y011433D01*
X024260Y011439D02*
X024362Y011540D01*
X024416Y011672D01*
X024416Y011815D01*
X024362Y011948D01*
X024260Y012049D01*
X024128Y012104D01*
X023985Y012104D01*
X023852Y012049D01*
X023751Y011948D01*
X023696Y011815D01*
X023696Y011672D01*
X023751Y011540D01*
X023852Y011439D01*
X023985Y011384D01*
X024128Y011384D01*
X024260Y011439D01*
X024383Y011592D02*
X028182Y011592D01*
X028182Y011750D02*
X024416Y011750D01*
X024378Y011909D02*
X028182Y011909D01*
X028181Y012068D02*
X024216Y012068D01*
X023897Y012068D02*
X020864Y012068D01*
X020835Y012039D02*
X020937Y012140D01*
X020991Y012272D01*
X020991Y012415D01*
X020937Y012548D01*
X020835Y012649D01*
X020703Y012704D01*
X020560Y012704D01*
X020427Y012649D01*
X020326Y012548D01*
X020271Y012415D01*
X020271Y012272D01*
X020326Y012140D01*
X020427Y012039D01*
X020560Y011984D01*
X020703Y011984D01*
X020835Y012039D01*
X020972Y012226D02*
X028181Y012226D01*
X028181Y012385D02*
X020991Y012385D01*
X020939Y012543D02*
X028180Y012543D01*
X028180Y012702D02*
X020708Y012702D01*
X020555Y012702D02*
X016683Y012702D01*
X016691Y012722D02*
X016637Y012590D01*
X016535Y012489D01*
X016403Y012434D01*
X016260Y012434D01*
X016127Y012489D01*
X016026Y012590D01*
X015971Y012722D01*
X015971Y012865D01*
X016026Y012998D01*
X016127Y013099D01*
X016260Y013154D01*
X016403Y013154D01*
X016535Y013099D01*
X016637Y012998D01*
X016691Y012865D01*
X016691Y012722D01*
X016691Y012860D02*
X028179Y012860D01*
X028179Y013019D02*
X019865Y013019D01*
X019835Y012989D02*
X019937Y013090D01*
X019991Y013222D01*
X019991Y013365D01*
X019937Y013498D01*
X019835Y013599D01*
X019703Y013654D01*
X019560Y013654D01*
X019427Y013599D01*
X019326Y013498D01*
X019271Y013365D01*
X019271Y013222D01*
X019326Y013090D01*
X019427Y012989D01*
X019560Y012934D01*
X019703Y012934D01*
X019835Y012989D01*
X019973Y013177D02*
X028179Y013177D01*
X028178Y013336D02*
X019991Y013336D01*
X019938Y013494D02*
X028178Y013494D01*
X028178Y013653D02*
X019705Y013653D01*
X019558Y013653D02*
X013681Y013653D01*
X013681Y013811D02*
X028177Y013811D01*
X028177Y013970D02*
X014161Y013970D01*
X014294Y014129D02*
X024380Y014129D01*
X024125Y014287D02*
X014349Y014287D01*
X014349Y014446D02*
X016870Y014446D01*
X017292Y014446D02*
X023967Y014446D01*
X023726Y015080D02*
X022216Y015080D01*
X022176Y015238D02*
X023726Y015238D01*
X023755Y015397D02*
X022005Y015397D01*
X021708Y015397D02*
X014349Y015397D01*
X014340Y015238D02*
X021537Y015238D01*
X021496Y015080D02*
X017211Y015080D01*
X016952Y015080D02*
X016679Y015080D01*
X016183Y015080D02*
X014271Y015080D01*
X013889Y015397D02*
X013849Y015397D01*
X013849Y015555D02*
X013889Y015555D01*
X013889Y015714D02*
X013849Y015714D01*
X013777Y015896D02*
X013960Y015896D01*
X014129Y015966D01*
X014259Y016096D01*
X014329Y016265D01*
X014329Y016448D01*
X014259Y016617D01*
X014129Y016746D01*
X013960Y016816D01*
X013777Y016816D01*
X013608Y016746D01*
X013479Y016617D01*
X013409Y016448D01*
X013409Y016265D01*
X013479Y016096D01*
X013608Y015966D01*
X013777Y015896D01*
X013544Y016031D02*
X013194Y016031D01*
X013181Y015873D02*
X023997Y015873D01*
X023885Y015714D02*
X014190Y015714D01*
X014306Y015555D02*
X023798Y015555D01*
X023778Y016031D02*
X018564Y016031D01*
X018557Y016024D02*
X018742Y016209D01*
X018842Y016451D01*
X018842Y016712D01*
X018742Y016954D01*
X018557Y017138D01*
X018316Y017239D01*
X018054Y017239D01*
X017813Y017138D01*
X017628Y016954D01*
X017528Y016712D01*
X017528Y016451D01*
X017628Y016209D01*
X017813Y016024D01*
X018054Y015924D01*
X018316Y015924D01*
X018557Y016024D01*
X018723Y016190D02*
X023438Y016190D01*
X023264Y016348D02*
X018800Y016348D01*
X018842Y016507D02*
X023144Y016507D01*
X023053Y016665D02*
X018842Y016665D01*
X018796Y016824D02*
X023010Y016824D01*
X022976Y016982D02*
X018713Y016982D01*
X018551Y017141D02*
X022976Y017141D01*
X022993Y017299D02*
X014329Y017299D01*
X014329Y017265D02*
X014259Y017096D01*
X014129Y016966D01*
X013960Y016896D01*
X013777Y016896D01*
X013608Y016966D01*
X013479Y017096D01*
X013409Y017265D01*
X013409Y017448D01*
X013479Y017617D01*
X013608Y017746D01*
X013777Y017816D01*
X013960Y017816D01*
X014129Y017746D01*
X014259Y017617D01*
X014329Y017448D01*
X014329Y017265D01*
X014278Y017141D02*
X016086Y017141D01*
X016081Y017138D02*
X015896Y016954D01*
X015796Y016712D01*
X015796Y016451D01*
X015896Y016209D01*
X016081Y016024D01*
X016322Y015924D01*
X016584Y015924D01*
X016825Y016024D01*
X017010Y016209D01*
X017110Y016451D01*
X017110Y016712D01*
X017010Y016954D01*
X016825Y017138D01*
X016584Y017239D01*
X016322Y017239D01*
X016081Y017138D01*
X015924Y016982D02*
X014145Y016982D01*
X014211Y016665D02*
X015796Y016665D01*
X015796Y016507D02*
X014305Y016507D01*
X014329Y016348D02*
X015838Y016348D01*
X015915Y016190D02*
X014298Y016190D01*
X014194Y016031D02*
X016074Y016031D01*
X016832Y016031D02*
X017806Y016031D01*
X017647Y016190D02*
X016990Y016190D01*
X017067Y016348D02*
X017570Y016348D01*
X017528Y016507D02*
X017110Y016507D01*
X017110Y016665D02*
X017528Y016665D01*
X017574Y016824D02*
X017064Y016824D01*
X016981Y016982D02*
X017657Y016982D01*
X017819Y017141D02*
X016819Y017141D01*
X015842Y016824D02*
X013181Y016824D01*
X011244Y016824D01*
X011244Y016982D02*
X012592Y016982D01*
X012460Y017141D02*
X011244Y017141D01*
X011244Y017299D02*
X012409Y017299D01*
X012413Y017458D02*
X011244Y017458D01*
X011244Y017617D02*
X012479Y017617D01*
X012678Y017775D02*
X011244Y017775D01*
X011244Y017934D02*
X013181Y017934D01*
X023359Y017934D01*
X023200Y017775D02*
X014060Y017775D01*
X014259Y017617D02*
X023107Y017617D01*
X023035Y017458D02*
X014325Y017458D01*
X013678Y017775D02*
X013181Y017775D01*
X013060Y017775D01*
X013259Y017617D02*
X013479Y017617D01*
X013413Y017458D02*
X013325Y017458D01*
X013329Y017299D02*
X013409Y017299D01*
X013460Y017141D02*
X013278Y017141D01*
X013181Y016982D02*
X013592Y016982D01*
X013181Y016982D02*
X013145Y016982D01*
X013211Y016665D02*
X013527Y016665D01*
X013433Y016507D02*
X013305Y016507D01*
X013329Y016348D02*
X013409Y016348D01*
X013440Y016190D02*
X013298Y016190D01*
X013181Y015873D02*
X011244Y015873D01*
X011244Y016031D02*
X012544Y016031D01*
X012440Y016190D02*
X011244Y016190D01*
X011244Y016348D02*
X012409Y016348D01*
X012433Y016507D02*
X011244Y016507D01*
X011244Y016665D02*
X012527Y016665D01*
X012576Y015714D02*
X011244Y015714D01*
X011244Y015555D02*
X012454Y015555D01*
X012409Y015397D02*
X011244Y015397D01*
X011244Y015238D02*
X012420Y015238D01*
X012495Y015080D02*
X011244Y015080D01*
X011244Y014921D02*
X012717Y014921D01*
X012648Y014763D02*
X011244Y014763D01*
X011244Y014604D02*
X012474Y014604D01*
X012409Y014446D02*
X011244Y014446D01*
X011244Y014287D02*
X012409Y014287D01*
X012465Y014129D02*
X011244Y014129D01*
X011244Y013970D02*
X012605Y013970D01*
X013133Y013970D02*
X013181Y013970D01*
X013181Y013811D02*
X011244Y013811D01*
X011244Y013653D02*
X013181Y013653D01*
X013023Y013494D02*
X011244Y013494D01*
X011244Y013336D02*
X012901Y013336D01*
X012871Y013177D02*
X011244Y013177D01*
X011244Y013019D02*
X012914Y013019D01*
X013096Y012860D02*
X011244Y012860D01*
X011244Y012702D02*
X013181Y012702D01*
X013181Y012543D02*
X011244Y012543D01*
X011244Y012385D02*
X013181Y012385D01*
X013181Y012226D02*
X011244Y012226D01*
X011244Y012068D02*
X013181Y012068D01*
X013181Y011909D02*
X011244Y011909D01*
X011244Y011750D02*
X013181Y011750D01*
X013181Y011592D02*
X011244Y011592D01*
X011244Y011433D02*
X013181Y011433D01*
X013181Y011275D02*
X011244Y011275D01*
X011244Y011116D02*
X013181Y011116D01*
X013181Y010958D02*
X011244Y010958D01*
X011244Y010799D02*
X013181Y010799D01*
X013181Y010641D02*
X011244Y010641D01*
X011244Y010482D02*
X013181Y010482D01*
X013181Y010324D02*
X011244Y010324D01*
X011244Y010165D02*
X013181Y010165D01*
X013181Y010006D02*
X011244Y010006D01*
X011244Y009848D02*
X013181Y009848D01*
X013181Y009689D02*
X011244Y009689D01*
X011244Y009531D02*
X013181Y009531D01*
X013181Y009372D02*
X011244Y009372D01*
X011244Y009214D02*
X013181Y009214D01*
X013181Y009055D02*
X011244Y009055D01*
X011244Y008897D02*
X013181Y008897D01*
X013181Y008738D02*
X013037Y008738D01*
X013086Y008689D02*
X012952Y008823D01*
X012776Y008896D01*
X012700Y008896D01*
X012700Y008438D01*
X012663Y008438D01*
X012663Y008896D01*
X012587Y008896D01*
X012411Y008823D01*
X012277Y008689D01*
X012205Y008514D01*
X012205Y008437D01*
X012663Y008437D01*
X012663Y008400D01*
X012700Y008400D01*
X012700Y007942D01*
X012776Y007942D01*
X012952Y008015D01*
X013086Y008149D01*
X013158Y008324D01*
X013158Y008400D01*
X012700Y008400D01*
X012700Y008437D01*
X013158Y008437D01*
X013158Y008514D01*
X013086Y008689D01*
X013131Y008580D02*
X013181Y008580D01*
X013181Y008421D02*
X012700Y008421D01*
X012663Y008421D02*
X012138Y008421D01*
X012205Y008400D02*
X012205Y008324D01*
X012277Y008149D01*
X012411Y008015D01*
X012587Y007942D01*
X012663Y007942D01*
X012663Y008400D01*
X012205Y008400D01*
X012230Y008262D02*
X012111Y008262D01*
X012013Y008104D02*
X012322Y008104D01*
X012578Y007945D02*
X011244Y007945D01*
X011244Y007787D02*
X013181Y007787D01*
X013181Y007945D02*
X012784Y007945D01*
X012700Y007945D02*
X012663Y007945D01*
X012663Y008104D02*
X012700Y008104D01*
X012700Y008262D02*
X012663Y008262D01*
X012663Y008580D02*
X012700Y008580D01*
X012700Y008738D02*
X012663Y008738D01*
X012326Y008738D02*
X012008Y008738D01*
X012109Y008580D02*
X012232Y008580D01*
X013041Y008104D02*
X013181Y008104D01*
X013181Y008262D02*
X013133Y008262D01*
X013681Y007945D02*
X014833Y007945D01*
X014929Y007787D02*
X013681Y007787D01*
X013681Y007628D02*
X022368Y007628D01*
X022319Y007787D02*
X015434Y007787D01*
X015530Y007945D02*
X022319Y007945D01*
X022376Y008104D02*
X015541Y008104D01*
X015472Y008262D02*
X022497Y008262D01*
X022526Y008421D02*
X015138Y008421D01*
X015109Y008580D02*
X022388Y008580D01*
X022323Y008738D02*
X015008Y008738D01*
X014528Y008897D02*
X022319Y008897D01*
X022356Y009055D02*
X014429Y009055D01*
X014051Y009214D02*
X022449Y009214D01*
X022601Y009372D02*
X013879Y009372D01*
X013681Y009531D02*
X022417Y009531D01*
X022343Y009689D02*
X019286Y009689D01*
X019235Y009639D02*
X019337Y009740D01*
X019391Y009872D01*
X019391Y010015D01*
X019384Y010034D01*
X019503Y010034D01*
X019635Y010089D01*
X019737Y010190D01*
X019791Y010322D01*
X019791Y010465D01*
X019737Y010598D01*
X019635Y010699D01*
X019503Y010754D01*
X019484Y010754D01*
X019491Y010772D01*
X019491Y010915D01*
X019437Y011048D01*
X019335Y011149D01*
X019203Y011204D01*
X019060Y011204D01*
X018927Y011149D01*
X018826Y011048D01*
X018771Y010915D01*
X018771Y010772D01*
X018826Y010640D01*
X018927Y010539D01*
X019060Y010484D01*
X019079Y010484D01*
X019071Y010465D01*
X019071Y010322D01*
X019079Y010304D01*
X018960Y010304D01*
X018827Y010249D01*
X018748Y010170D01*
X018737Y010198D01*
X018635Y010299D01*
X018503Y010354D01*
X018360Y010354D01*
X018227Y010299D01*
X018126Y010198D01*
X018071Y010065D01*
X018071Y009922D01*
X018126Y009790D01*
X018227Y009689D01*
X013681Y009689D01*
X013681Y009848D02*
X018102Y009848D01*
X018071Y010006D02*
X017003Y010006D01*
X016985Y009989D02*
X017087Y010090D01*
X017141Y010222D01*
X017141Y010365D01*
X017087Y010498D01*
X016985Y010599D01*
X016853Y010654D01*
X016710Y010654D01*
X016577Y010599D01*
X016476Y010498D01*
X016421Y010365D01*
X016421Y010222D01*
X016476Y010090D01*
X016577Y009989D01*
X016710Y009934D01*
X016853Y009934D01*
X016985Y009989D01*
X017118Y010165D02*
X018113Y010165D01*
X018287Y010324D02*
X017141Y010324D01*
X017093Y010482D02*
X019078Y010482D01*
X019071Y010324D02*
X018576Y010324D01*
X018826Y010641D02*
X016885Y010641D01*
X016678Y010641D02*
X013681Y010641D01*
X013681Y010799D02*
X018771Y010799D01*
X018789Y010958D02*
X013681Y010958D01*
X013681Y011116D02*
X018895Y011116D01*
X019368Y011116D02*
X021522Y011116D01*
X021527Y010958D02*
X019474Y010958D01*
X019491Y010799D02*
X021617Y010799D01*
X021485Y010699D02*
X021353Y010754D01*
X021210Y010754D01*
X021077Y010699D01*
X020976Y010598D01*
X020921Y010465D01*
X020921Y010322D01*
X020976Y010190D01*
X021077Y010089D01*
X021210Y010034D01*
X021353Y010034D01*
X021485Y010089D01*
X021587Y010190D01*
X021641Y010322D01*
X021641Y010465D01*
X021587Y010598D01*
X021485Y010699D01*
X021544Y010641D02*
X023744Y010641D01*
X023671Y010482D02*
X021635Y010482D01*
X021641Y010324D02*
X022560Y010324D01*
X022401Y010165D02*
X021562Y010165D01*
X021001Y010165D02*
X019712Y010165D01*
X019791Y010324D02*
X020921Y010324D01*
X020928Y010482D02*
X019785Y010482D01*
X019694Y010641D02*
X021019Y010641D01*
X021210Y011284D02*
X021353Y011284D01*
X021485Y011339D01*
X021587Y011440D01*
X021641Y011572D01*
X021641Y011715D01*
X021587Y011848D01*
X021485Y011949D01*
X021353Y012004D01*
X021210Y012004D01*
X021077Y011949D01*
X020976Y011848D01*
X020921Y011715D01*
X020921Y011572D01*
X020976Y011440D01*
X021077Y011339D01*
X021210Y011284D01*
X020983Y011433D02*
X018480Y011433D01*
X018487Y011440D02*
X018541Y011572D01*
X018541Y011715D01*
X018487Y011848D01*
X018385Y011949D01*
X018253Y012004D01*
X018110Y012004D01*
X017977Y011949D01*
X017876Y011848D01*
X017821Y011715D01*
X017821Y011572D01*
X017876Y011440D01*
X017977Y011339D01*
X018110Y011284D01*
X018253Y011284D01*
X018385Y011339D01*
X018487Y011440D01*
X018541Y011592D02*
X019240Y011592D01*
X019260Y011584D02*
X019403Y011584D01*
X019535Y011639D01*
X019637Y011740D01*
X019691Y011872D01*
X019691Y012015D01*
X019637Y012148D01*
X019535Y012249D01*
X019403Y012304D01*
X019260Y012304D01*
X019127Y012249D01*
X019026Y012148D01*
X018971Y012015D01*
X018971Y011872D01*
X019026Y011740D01*
X019127Y011639D01*
X019260Y011584D01*
X019422Y011592D02*
X020921Y011592D01*
X020936Y011750D02*
X019641Y011750D01*
X019691Y011909D02*
X021037Y011909D01*
X021525Y011909D02*
X023735Y011909D01*
X023696Y011750D02*
X021627Y011750D01*
X021641Y011592D02*
X023730Y011592D01*
X023865Y011433D02*
X021580Y011433D01*
X021603Y011275D02*
X013681Y011275D01*
X013681Y011433D02*
X013708Y011433D01*
X014030Y011433D02*
X016851Y011433D01*
X016910Y011409D02*
X016777Y011464D01*
X016676Y011565D01*
X016621Y011697D01*
X016621Y011840D01*
X016676Y011973D01*
X016777Y012074D01*
X016910Y012129D01*
X017053Y012129D01*
X017185Y012074D01*
X017287Y011973D01*
X017341Y011840D01*
X017341Y011697D01*
X017287Y011565D01*
X017185Y011464D01*
X017053Y011409D01*
X016910Y011409D01*
X017112Y011433D02*
X017883Y011433D01*
X017821Y011592D02*
X017298Y011592D01*
X017341Y011750D02*
X017836Y011750D01*
X017937Y011909D02*
X017313Y011909D01*
X017192Y012068D02*
X018993Y012068D01*
X018971Y011909D02*
X018425Y011909D01*
X018527Y011750D02*
X019022Y011750D01*
X019105Y012226D02*
X015508Y012226D01*
X015473Y012262D02*
X015341Y012316D01*
X015197Y012316D01*
X015065Y012262D01*
X014964Y012160D01*
X014909Y012028D01*
X014909Y011885D01*
X014964Y011752D01*
X015065Y011651D01*
X015197Y011596D01*
X015341Y011596D01*
X015473Y011651D01*
X015574Y011752D01*
X015629Y011885D01*
X015629Y012028D01*
X015574Y012160D01*
X015473Y012262D01*
X015613Y012068D02*
X016771Y012068D01*
X016650Y011909D02*
X015629Y011909D01*
X015572Y011750D02*
X016621Y011750D01*
X016665Y011592D02*
X014190Y011592D01*
X014229Y011750D02*
X014966Y011750D01*
X014909Y011909D02*
X014195Y011909D01*
X014058Y012068D02*
X014925Y012068D01*
X015030Y012226D02*
X013681Y012226D01*
X013681Y012385D02*
X020271Y012385D01*
X020291Y012226D02*
X019558Y012226D01*
X019670Y012068D02*
X020399Y012068D01*
X020324Y012543D02*
X016590Y012543D01*
X016616Y013019D02*
X019397Y013019D01*
X019290Y013177D02*
X013681Y013177D01*
X013681Y013019D02*
X016047Y013019D01*
X015971Y012860D02*
X013681Y012860D01*
X013681Y012702D02*
X015980Y012702D01*
X016073Y012543D02*
X013681Y012543D01*
X013681Y013336D02*
X019271Y013336D01*
X019325Y013494D02*
X013681Y013494D01*
X013849Y013970D02*
X013889Y013970D01*
X013889Y014129D02*
X013849Y014129D01*
X013849Y014287D02*
X013889Y014287D01*
X013181Y014763D02*
X013090Y014763D01*
X013021Y014921D02*
X013181Y014921D01*
X013243Y015080D02*
X013467Y015080D01*
X013398Y015238D02*
X013318Y015238D01*
X013329Y015397D02*
X013389Y015397D01*
X013432Y015555D02*
X013284Y015555D01*
X013181Y015714D02*
X013548Y015714D01*
X013181Y015714D02*
X013162Y015714D01*
X010056Y015714D02*
X004978Y015714D01*
X004916Y015822D02*
X005061Y015570D01*
X005136Y015289D01*
X005136Y014998D01*
X005061Y014717D01*
X004916Y014465D01*
X004710Y014260D01*
X004458Y014114D01*
X004177Y014039D01*
X003886Y014039D01*
X003605Y014114D01*
X003353Y014260D01*
X003147Y014465D01*
X003002Y014717D01*
X002926Y014998D01*
X002926Y015289D01*
X003002Y015570D01*
X003147Y015822D01*
X003353Y016028D01*
X003605Y016174D01*
X003886Y016249D01*
X004177Y016249D01*
X004458Y016174D01*
X004710Y016028D01*
X004916Y015822D01*
X004865Y015873D02*
X010056Y015873D01*
X010056Y016031D02*
X004705Y016031D01*
X004398Y016190D02*
X010056Y016190D01*
X010056Y016348D02*
X002629Y016348D01*
X002787Y016507D02*
X010056Y016507D01*
X010056Y016665D02*
X002912Y016665D01*
X003003Y016824D02*
X010056Y016824D01*
X010056Y016982D02*
X003076Y016982D01*
X003119Y017141D02*
X010056Y017141D01*
X010056Y017299D02*
X003161Y017299D01*
X003161Y017458D02*
X010056Y017458D01*
X010056Y017617D02*
X003161Y017617D01*
X003161Y017775D02*
X010056Y017775D01*
X010056Y017934D02*
X003161Y017934D01*
X003665Y016190D02*
X002382Y016190D01*
X001941Y016031D02*
X003358Y016031D01*
X003197Y015873D02*
X000681Y015873D01*
X000681Y015714D02*
X003085Y015714D01*
X002998Y015555D02*
X000681Y015555D01*
X000681Y015397D02*
X002955Y015397D01*
X002926Y015238D02*
X000681Y015238D01*
X000681Y015080D02*
X002926Y015080D01*
X002947Y014921D02*
X000681Y014921D01*
X000681Y014763D02*
X002990Y014763D01*
X003067Y014604D02*
X000681Y014604D01*
X000681Y014446D02*
X003167Y014446D01*
X003325Y014287D02*
X000681Y014287D01*
X000681Y014129D02*
X003580Y014129D01*
X004483Y014129D02*
X008098Y014129D01*
X008071Y014065D02*
X008071Y013922D01*
X008126Y013790D01*
X008227Y013689D01*
X008360Y013634D01*
X008503Y013634D01*
X008635Y013689D01*
X008737Y013790D01*
X008791Y013922D01*
X008791Y014065D01*
X008737Y014198D01*
X008635Y014299D01*
X008503Y014354D01*
X008360Y014354D01*
X008227Y014299D01*
X008126Y014198D01*
X008071Y014065D01*
X008071Y013970D02*
X000681Y013970D01*
X000681Y013811D02*
X008117Y013811D01*
X008314Y013653D02*
X000681Y013653D01*
X000681Y013494D02*
X009547Y013494D01*
X009454Y013653D02*
X008549Y013653D01*
X008746Y013811D02*
X009446Y013811D01*
X009524Y013970D02*
X008791Y013970D01*
X008765Y014129D02*
X010056Y014129D01*
X010056Y014287D02*
X008647Y014287D01*
X008469Y014529D02*
X008294Y014529D01*
X008132Y014596D01*
X008008Y014720D01*
X007941Y014881D01*
X007941Y015056D01*
X008008Y015218D01*
X008132Y015342D01*
X008294Y015409D01*
X008469Y015409D01*
X008631Y015342D01*
X008754Y015218D01*
X008821Y015056D01*
X008821Y014881D01*
X008754Y014720D01*
X008631Y014596D01*
X008469Y014529D01*
X008639Y014604D02*
X010056Y014604D01*
X010056Y014446D02*
X004896Y014446D01*
X004996Y014604D02*
X006096Y014604D01*
X006121Y014579D02*
X005991Y014708D01*
X005921Y014877D01*
X005921Y014959D01*
X006371Y014959D01*
X006371Y014979D01*
X005921Y014979D01*
X005921Y015060D01*
X005991Y015229D01*
X006121Y015359D01*
X006290Y015429D01*
X006371Y015429D01*
X006371Y014979D01*
X006391Y014979D01*
X006391Y015429D01*
X006473Y015429D01*
X006642Y015359D01*
X006771Y015229D01*
X006841Y015060D01*
X006841Y014979D01*
X006392Y014979D01*
X006392Y014959D01*
X006841Y014959D01*
X006841Y014877D01*
X006771Y014708D01*
X006642Y014579D01*
X006473Y014509D01*
X006391Y014509D01*
X006391Y014959D01*
X006371Y014959D01*
X006371Y014509D01*
X006290Y014509D01*
X006121Y014579D01*
X005969Y014763D02*
X005073Y014763D01*
X005116Y014921D02*
X005921Y014921D01*
X005930Y015080D02*
X005136Y015080D01*
X005136Y015238D02*
X006000Y015238D01*
X006213Y015397D02*
X005108Y015397D01*
X005065Y015555D02*
X010056Y015555D01*
X010056Y015397D02*
X008498Y015397D01*
X008265Y015397D02*
X007498Y015397D01*
X007469Y015409D02*
X007294Y015409D01*
X007132Y015342D01*
X007008Y015218D01*
X006941Y015056D01*
X006941Y014881D01*
X007008Y014720D01*
X007132Y014596D01*
X007294Y014529D01*
X007469Y014529D01*
X007631Y014596D01*
X007754Y014720D01*
X007821Y014881D01*
X007821Y015056D01*
X007754Y015218D01*
X007631Y015342D01*
X007469Y015409D01*
X007265Y015397D02*
X006550Y015397D01*
X006391Y015397D02*
X006371Y015397D01*
X006371Y015238D02*
X006391Y015238D01*
X006391Y015080D02*
X006371Y015080D01*
X006371Y014921D02*
X006391Y014921D01*
X006391Y014763D02*
X006371Y014763D01*
X006371Y014604D02*
X006391Y014604D01*
X006667Y014604D02*
X007124Y014604D01*
X006991Y014763D02*
X006794Y014763D01*
X006841Y014921D02*
X006941Y014921D01*
X006951Y015080D02*
X006833Y015080D01*
X006762Y015238D02*
X007029Y015238D01*
X007734Y015238D02*
X008029Y015238D01*
X007951Y015080D02*
X007812Y015080D01*
X007821Y014921D02*
X007941Y014921D01*
X007991Y014763D02*
X007772Y014763D01*
X007639Y014604D02*
X008124Y014604D01*
X008216Y014287D02*
X004737Y014287D01*
X004854Y012906D02*
X004680Y012834D01*
X004546Y012700D01*
X004474Y012526D01*
X004474Y012337D01*
X004546Y012162D01*
X004680Y012029D01*
X004854Y011956D01*
X005043Y011956D01*
X005218Y012029D01*
X005352Y012162D01*
X005424Y012337D01*
X005424Y012526D01*
X005352Y012700D01*
X005218Y012834D01*
X005043Y012906D01*
X004854Y012906D01*
X004743Y012860D02*
X003581Y012860D01*
X003662Y012838D02*
X003390Y012911D01*
X003108Y012911D01*
X002836Y012838D01*
X002592Y012698D01*
X002393Y012498D01*
X002252Y012254D01*
X002179Y011982D01*
X002179Y011701D01*
X002252Y011428D01*
X002393Y011184D01*
X002592Y010985D01*
X002836Y010844D01*
X003108Y010771D01*
X003390Y010771D01*
X003662Y010844D01*
X003906Y010985D01*
X004105Y011184D01*
X004246Y011428D01*
X004319Y011701D01*
X004319Y011982D01*
X004246Y012254D01*
X004105Y012498D01*
X003906Y012698D01*
X003662Y012838D01*
X003899Y012702D02*
X004547Y012702D01*
X004481Y012543D02*
X004060Y012543D01*
X004171Y012385D02*
X004474Y012385D01*
X004520Y012226D02*
X004254Y012226D01*
X004296Y012068D02*
X004641Y012068D01*
X004319Y011909D02*
X010056Y011909D01*
X010056Y012068D02*
X006437Y012068D01*
X006398Y012029D02*
X006532Y012162D01*
X006604Y012337D01*
X006604Y012526D01*
X006532Y012700D01*
X006398Y012834D01*
X006223Y012906D01*
X006034Y012906D01*
X005860Y012834D01*
X005726Y012700D01*
X005654Y012526D01*
X005654Y012337D01*
X005726Y012162D01*
X005860Y012029D01*
X006034Y011956D01*
X006223Y011956D01*
X006398Y012029D01*
X006558Y012226D02*
X010056Y012226D01*
X010056Y012385D02*
X006604Y012385D01*
X006597Y012543D02*
X010056Y012543D01*
X010056Y012702D02*
X006530Y012702D01*
X006335Y012860D02*
X010056Y012860D01*
X010056Y013019D02*
X000681Y013019D01*
X000681Y013177D02*
X010056Y013177D01*
X010056Y013336D02*
X000681Y013336D01*
X000681Y012860D02*
X002917Y012860D01*
X002599Y012702D02*
X000681Y012702D01*
X000681Y012543D02*
X002437Y012543D01*
X002327Y012385D02*
X000681Y012385D01*
X000681Y012226D02*
X002244Y012226D01*
X002202Y012068D02*
X000681Y012068D01*
X000681Y011909D02*
X002179Y011909D01*
X002179Y011750D02*
X000681Y011750D01*
X000681Y011592D02*
X002208Y011592D01*
X002251Y011433D02*
X000681Y011433D01*
X000681Y011275D02*
X002341Y011275D01*
X002461Y011116D02*
X000681Y011116D01*
X000681Y010958D02*
X002639Y010958D01*
X003004Y010799D02*
X000681Y010799D01*
X000681Y010641D02*
X010056Y010641D01*
X010056Y010799D02*
X006278Y010799D01*
X006223Y010776D02*
X006398Y010849D01*
X006532Y010982D01*
X006604Y011157D01*
X006604Y011346D01*
X006532Y011520D01*
X006398Y011654D01*
X006223Y011726D01*
X006034Y011726D01*
X005860Y011654D01*
X005726Y011520D01*
X005654Y011346D01*
X005654Y011157D01*
X005726Y010982D01*
X005860Y010849D01*
X006034Y010776D01*
X006223Y010776D01*
X005979Y010799D02*
X005151Y010799D01*
X005229Y010832D02*
X005369Y010971D01*
X005444Y011153D01*
X005444Y011226D01*
X004974Y011226D01*
X004974Y010756D01*
X005047Y010756D01*
X005229Y010832D01*
X005355Y010958D02*
X005751Y010958D01*
X005671Y011116D02*
X005429Y011116D01*
X005444Y011276D02*
X004974Y011276D01*
X004974Y011226D01*
X004924Y011226D01*
X004924Y010756D01*
X004850Y010756D01*
X004669Y010832D01*
X004529Y010971D01*
X004454Y011153D01*
X004454Y011226D01*
X004924Y011226D01*
X004924Y011276D01*
X004454Y011276D01*
X004454Y011350D01*
X004529Y011532D01*
X004669Y011671D01*
X004850Y011746D01*
X004924Y011746D01*
X004924Y011277D01*
X004974Y011277D01*
X004974Y011746D01*
X005047Y011746D01*
X005229Y011671D01*
X005369Y011532D01*
X005444Y011350D01*
X005444Y011276D01*
X005409Y011433D02*
X005690Y011433D01*
X005654Y011275D02*
X004974Y011275D01*
X004924Y011275D02*
X004157Y011275D01*
X004247Y011433D02*
X004489Y011433D01*
X004589Y011592D02*
X004290Y011592D01*
X004319Y011750D02*
X010056Y011750D01*
X010056Y011592D02*
X010032Y011592D01*
X009831Y011592D02*
X006460Y011592D01*
X006568Y011433D02*
X009620Y011433D01*
X009571Y011275D02*
X006604Y011275D01*
X006587Y011116D02*
X009595Y011116D01*
X009708Y010958D02*
X006507Y010958D01*
X005798Y011592D02*
X005308Y011592D01*
X004974Y011592D02*
X004924Y011592D01*
X004924Y011433D02*
X004974Y011433D01*
X004974Y011116D02*
X004924Y011116D01*
X004924Y010958D02*
X004974Y010958D01*
X004974Y010799D02*
X004924Y010799D01*
X004747Y010799D02*
X003493Y010799D01*
X003858Y010958D02*
X004543Y010958D01*
X004469Y011116D02*
X004037Y011116D01*
X005257Y012068D02*
X005821Y012068D01*
X005700Y012226D02*
X005378Y012226D01*
X005424Y012385D02*
X005654Y012385D01*
X005661Y012543D02*
X005417Y012543D01*
X005350Y012702D02*
X005727Y012702D01*
X005923Y012860D02*
X005155Y012860D01*
X008772Y014763D02*
X010056Y014763D01*
X010056Y014921D02*
X008821Y014921D01*
X008812Y015080D02*
X010056Y015080D01*
X010056Y015238D02*
X008734Y015238D01*
X008985Y010604D02*
X008852Y010549D01*
X008751Y010448D01*
X008696Y010316D01*
X008696Y010172D01*
X008751Y010040D01*
X008829Y009963D01*
X008751Y009885D01*
X008696Y009753D01*
X008696Y009610D01*
X008751Y009477D01*
X008852Y009376D01*
X008985Y009321D01*
X009128Y009321D01*
X009260Y009376D01*
X009362Y009477D01*
X009416Y009610D01*
X009416Y009753D01*
X009362Y009885D01*
X009284Y009963D01*
X009362Y010040D01*
X009416Y010172D01*
X009416Y010316D01*
X009362Y010448D01*
X009260Y010549D01*
X009128Y010604D01*
X008985Y010604D01*
X008786Y010482D02*
X000681Y010482D01*
X000681Y010324D02*
X008700Y010324D01*
X008699Y010165D02*
X000681Y010165D01*
X000681Y010006D02*
X008785Y010006D01*
X008736Y009848D02*
X000681Y009848D01*
X000681Y009689D02*
X008696Y009689D01*
X008729Y009531D02*
X000681Y009531D01*
X000681Y009372D02*
X008862Y009372D01*
X009251Y009372D02*
X010056Y009372D01*
X010056Y009214D02*
X000681Y009214D01*
X000681Y009055D02*
X010056Y009055D01*
X010056Y008897D02*
X000681Y008897D01*
X000681Y008738D02*
X003009Y008738D01*
X003096Y008761D02*
X002823Y008688D01*
X002579Y008548D01*
X002380Y008348D01*
X002239Y008104D01*
X000681Y008104D01*
X000681Y008262D02*
X002331Y008262D01*
X002239Y008104D02*
X002166Y007832D01*
X002166Y007550D01*
X002239Y007278D01*
X002380Y007034D01*
X002579Y006835D01*
X002823Y006694D01*
X003096Y006621D01*
X003377Y006621D01*
X003649Y006694D01*
X003893Y006835D01*
X004093Y007034D01*
X004234Y007278D01*
X004306Y007550D01*
X004306Y007832D01*
X004234Y008104D01*
X004496Y008104D01*
X004461Y008187D02*
X004534Y008012D01*
X004667Y007879D01*
X004842Y007806D01*
X005031Y007806D01*
X005206Y007879D01*
X005339Y008012D01*
X005411Y008187D01*
X005411Y008376D01*
X005339Y008550D01*
X005206Y008684D01*
X005031Y008756D01*
X004842Y008756D01*
X004667Y008684D01*
X004534Y008550D01*
X004461Y008376D01*
X004461Y008187D01*
X004461Y008262D02*
X004142Y008262D01*
X004093Y008348D02*
X003893Y008548D01*
X003649Y008688D01*
X003377Y008761D01*
X003096Y008761D01*
X003464Y008738D02*
X004798Y008738D01*
X005075Y008738D02*
X005978Y008738D01*
X006022Y008756D02*
X005847Y008684D01*
X005714Y008550D01*
X005641Y008376D01*
X005641Y008187D01*
X005714Y008012D01*
X005847Y007879D01*
X006022Y007806D01*
X006211Y007806D01*
X006386Y007879D01*
X006519Y008012D01*
X006591Y008187D01*
X006591Y008376D01*
X006519Y008550D01*
X006386Y008684D01*
X006211Y008756D01*
X006022Y008756D01*
X006255Y008738D02*
X007355Y008738D01*
X007294Y008678D02*
X007225Y008510D01*
X007225Y008328D01*
X007294Y008160D01*
X007423Y008032D01*
X007591Y007962D01*
X007772Y007962D01*
X007940Y008032D01*
X008069Y008160D01*
X008138Y008328D01*
X008138Y008510D01*
X008069Y008678D01*
X007940Y008806D01*
X007772Y008876D01*
X007591Y008876D01*
X007423Y008806D01*
X007294Y008678D01*
X007254Y008580D02*
X006490Y008580D01*
X006573Y008421D02*
X007225Y008421D01*
X007252Y008262D02*
X006591Y008262D01*
X006557Y008104D02*
X007350Y008104D01*
X008013Y008104D02*
X008322Y008104D01*
X008277Y008149D02*
X008411Y008015D01*
X008587Y007942D01*
X008663Y007942D01*
X008663Y008400D01*
X008700Y008400D01*
X008700Y007942D01*
X008776Y007942D01*
X008952Y008015D01*
X009086Y008149D01*
X009158Y008324D01*
X009158Y008400D01*
X008700Y008400D01*
X008700Y008437D01*
X009158Y008437D01*
X009158Y008514D01*
X009086Y008689D01*
X008952Y008823D01*
X008776Y008896D01*
X008700Y008896D01*
X008700Y008438D01*
X008663Y008438D01*
X008663Y008896D01*
X008587Y008896D01*
X008411Y008823D01*
X008277Y008689D01*
X008205Y008514D01*
X008205Y008437D01*
X008663Y008437D01*
X008663Y008400D01*
X008205Y008400D01*
X008205Y008324D01*
X008277Y008149D01*
X008230Y008262D02*
X008111Y008262D01*
X008138Y008421D02*
X008663Y008421D01*
X008700Y008421D02*
X009225Y008421D01*
X009252Y008262D02*
X009133Y008262D01*
X009041Y008104D02*
X009350Y008104D01*
X009254Y008580D02*
X009131Y008580D01*
X009037Y008738D02*
X009355Y008738D01*
X010008Y008738D02*
X010056Y008738D01*
X010056Y008104D02*
X010013Y008104D01*
X010056Y007945D02*
X008784Y007945D01*
X008700Y007945D02*
X008663Y007945D01*
X008578Y007945D02*
X006452Y007945D01*
X006211Y007576D02*
X006022Y007576D01*
X005847Y007504D01*
X005714Y007370D01*
X005641Y007196D01*
X005641Y007007D01*
X005714Y006832D01*
X005847Y006699D01*
X006022Y006626D01*
X006211Y006626D01*
X006386Y006699D01*
X006519Y006832D01*
X006591Y007007D01*
X006591Y007196D01*
X006519Y007370D01*
X006386Y007504D01*
X006211Y007576D01*
X006420Y007470D02*
X010056Y007470D01*
X010056Y007628D02*
X004306Y007628D01*
X004306Y007787D02*
X010056Y007787D01*
X010056Y007311D02*
X006544Y007311D01*
X006591Y007153D02*
X010056Y007153D01*
X010056Y006994D02*
X006586Y006994D01*
X006520Y006836D02*
X010056Y006836D01*
X010056Y006677D02*
X006333Y006677D01*
X005900Y006677D02*
X005205Y006677D01*
X005217Y006682D02*
X005356Y006821D01*
X005431Y007003D01*
X005431Y007076D01*
X004962Y007076D01*
X004962Y007126D01*
X005431Y007126D01*
X005431Y007200D01*
X005356Y007382D01*
X005217Y007521D01*
X005035Y007596D01*
X004961Y007596D01*
X004961Y007127D01*
X004911Y007127D01*
X004911Y007596D01*
X004838Y007596D01*
X004656Y007521D01*
X004517Y007382D01*
X004441Y007200D01*
X004441Y007126D01*
X004911Y007126D01*
X004911Y007076D01*
X004441Y007076D01*
X004441Y007003D01*
X004517Y006821D01*
X004656Y006682D01*
X004838Y006606D01*
X004911Y006606D01*
X004911Y007076D01*
X004961Y007076D01*
X004961Y006606D01*
X005035Y006606D01*
X005217Y006682D01*
X005362Y006836D02*
X005712Y006836D01*
X005647Y006994D02*
X005428Y006994D01*
X005431Y007153D02*
X005641Y007153D01*
X005689Y007311D02*
X005385Y007311D01*
X005268Y007470D02*
X005813Y007470D01*
X005781Y007945D02*
X005272Y007945D01*
X005377Y008104D02*
X005676Y008104D01*
X005641Y008262D02*
X005411Y008262D01*
X005393Y008421D02*
X005660Y008421D01*
X005743Y008580D02*
X005310Y008580D01*
X004563Y008580D02*
X003838Y008580D01*
X004020Y008421D02*
X004480Y008421D01*
X004093Y008348D02*
X004234Y008104D01*
X004276Y007945D02*
X004601Y007945D01*
X004605Y007470D02*
X004285Y007470D01*
X004242Y007311D02*
X004488Y007311D01*
X004441Y007153D02*
X004161Y007153D01*
X004052Y006994D02*
X004445Y006994D01*
X004511Y006836D02*
X003894Y006836D01*
X003585Y006677D02*
X004667Y006677D01*
X004911Y006677D02*
X004961Y006677D01*
X004961Y006836D02*
X004911Y006836D01*
X004911Y006994D02*
X004961Y006994D01*
X004961Y007153D02*
X004911Y007153D01*
X004911Y007311D02*
X004961Y007311D01*
X004961Y007470D02*
X004911Y007470D01*
X002888Y006677D02*
X000681Y006677D01*
X000681Y006519D02*
X010056Y006519D01*
X010056Y006360D02*
X000681Y006360D01*
X000681Y006201D02*
X010056Y006201D01*
X010056Y006043D02*
X000681Y006043D01*
X000681Y005884D02*
X010056Y005884D01*
X010056Y005726D02*
X000681Y005726D01*
X000681Y006836D02*
X002579Y006836D01*
X002420Y006994D02*
X000681Y006994D01*
X000681Y007153D02*
X002312Y007153D01*
X002231Y007311D02*
X000681Y007311D01*
X000681Y007470D02*
X002188Y007470D01*
X002166Y007628D02*
X000681Y007628D01*
X000681Y007787D02*
X002166Y007787D01*
X002197Y007945D02*
X000681Y007945D01*
X000681Y008421D02*
X002453Y008421D01*
X002635Y008580D02*
X000681Y008580D01*
X008008Y008738D02*
X008326Y008738D01*
X008232Y008580D02*
X008109Y008580D01*
X008663Y008580D02*
X008700Y008580D01*
X008700Y008738D02*
X008663Y008738D01*
X008663Y008262D02*
X008700Y008262D01*
X008700Y008104D02*
X008663Y008104D01*
X009384Y009531D02*
X010056Y009531D01*
X010056Y009689D02*
X009416Y009689D01*
X009377Y009848D02*
X010056Y009848D01*
X010056Y010006D02*
X009328Y010006D01*
X009413Y010165D02*
X010056Y010165D01*
X010056Y010324D02*
X009413Y010324D01*
X009327Y010482D02*
X010056Y010482D01*
X011244Y008738D02*
X011355Y008738D01*
X011254Y008580D02*
X011244Y008580D01*
X011244Y008262D02*
X011252Y008262D01*
X011244Y008104D02*
X011350Y008104D01*
X011244Y007628D02*
X013181Y007628D01*
X013181Y007470D02*
X011244Y007470D01*
X011244Y007311D02*
X013181Y007311D01*
X013181Y007153D02*
X011244Y007153D01*
X011244Y006994D02*
X013181Y006994D01*
X013181Y006836D02*
X011244Y006836D01*
X011244Y006677D02*
X013181Y006677D01*
X013181Y006519D02*
X011244Y006519D01*
X011244Y006360D02*
X013181Y006360D01*
X013181Y006201D02*
X011244Y006201D01*
X011244Y006043D02*
X013181Y006043D01*
X013181Y005884D02*
X011244Y005884D01*
X011244Y005726D02*
X012588Y005726D01*
X012458Y005567D02*
X011244Y005567D01*
X011244Y005409D02*
X012409Y005409D01*
X012415Y005250D02*
X011244Y005250D01*
X011244Y005092D02*
X012483Y005092D01*
X012689Y004933D02*
X011244Y004933D01*
X011244Y004775D02*
X012676Y004775D01*
X012479Y004616D02*
X011244Y004616D01*
X011244Y004457D02*
X012413Y004457D01*
X012409Y004299D02*
X011244Y004299D01*
X011244Y004140D02*
X012461Y004140D01*
X012593Y003982D02*
X011244Y003982D01*
X013061Y004775D02*
X013181Y004775D01*
X013181Y004933D02*
X013049Y004933D01*
X013681Y004933D02*
X013689Y004933D01*
X014323Y005250D02*
X018041Y005250D01*
X017952Y005409D02*
X014329Y005409D01*
X014279Y005567D02*
X017947Y005567D01*
X018029Y005726D02*
X014150Y005726D01*
X013681Y006201D02*
X020385Y006201D01*
X020397Y006196D02*
X020541Y006196D01*
X020673Y006251D01*
X020774Y006352D01*
X020829Y006485D01*
X020829Y006628D01*
X020774Y006760D01*
X020673Y006862D01*
X020541Y006916D01*
X020397Y006916D01*
X020265Y006862D01*
X020164Y006760D01*
X020109Y006628D01*
X020109Y006485D01*
X020164Y006352D01*
X020265Y006251D01*
X020397Y006196D01*
X020553Y006201D02*
X023265Y006201D01*
X023176Y006360D02*
X023108Y006360D01*
X022630Y006360D02*
X020777Y006360D01*
X020829Y006519D02*
X022429Y006519D01*
X022348Y006677D02*
X020809Y006677D01*
X020699Y006836D02*
X022319Y006836D01*
X022331Y006994D02*
X013681Y006994D01*
X013681Y006836D02*
X020239Y006836D01*
X020129Y006677D02*
X013681Y006677D01*
X013681Y006519D02*
X020109Y006519D01*
X020161Y006360D02*
X013681Y006360D01*
X013681Y007153D02*
X022396Y007153D01*
X022546Y007311D02*
X013681Y007311D01*
X013681Y007470D02*
X022478Y007470D01*
X024749Y007153D02*
X025363Y007153D01*
X025326Y007190D02*
X025427Y007089D01*
X025560Y007034D01*
X025703Y007034D01*
X025835Y007089D01*
X025937Y007190D01*
X025991Y007322D01*
X025991Y007465D01*
X025937Y007598D01*
X025835Y007699D01*
X025703Y007754D01*
X025560Y007754D01*
X025427Y007699D01*
X025326Y007598D01*
X025271Y007465D01*
X025271Y007322D01*
X025326Y007190D01*
X025276Y007311D02*
X024866Y007311D01*
X024891Y007470D02*
X025273Y007470D01*
X025357Y007628D02*
X024845Y007628D01*
X025906Y007628D02*
X028191Y007628D01*
X028191Y007470D02*
X025990Y007470D01*
X025987Y007311D02*
X028192Y007311D01*
X028192Y007153D02*
X025899Y007153D01*
X024874Y006360D02*
X028194Y006360D01*
X028194Y006201D02*
X024969Y006201D01*
X024979Y006043D02*
X028195Y006043D01*
X028195Y005884D02*
X024906Y005884D01*
X025127Y005409D02*
X028196Y005409D01*
X028196Y005567D02*
X018666Y005567D01*
X018584Y005726D02*
X028195Y005726D01*
X028196Y005250D02*
X025472Y005250D01*
X025646Y005092D02*
X028197Y005092D01*
X028197Y004933D02*
X025767Y004933D01*
X025859Y004775D02*
X028197Y004775D01*
X028198Y004616D02*
X025902Y004616D01*
X025936Y004457D02*
X028198Y004457D01*
X028199Y004299D02*
X025936Y004299D01*
X025921Y004140D02*
X028199Y004140D01*
X028199Y003982D02*
X025878Y003982D01*
X025807Y003823D02*
X028200Y003823D01*
X028200Y003665D02*
X025715Y003665D01*
X025556Y003506D02*
X028200Y003506D01*
X025181Y002396D02*
X025172Y002396D01*
X025181Y002238D02*
X025130Y002238D01*
X025181Y002079D02*
X025060Y002079D01*
X024969Y001921D02*
X025181Y001921D01*
X025181Y001762D02*
X024812Y001762D01*
X024576Y001604D02*
X025181Y001604D01*
X025181Y001445D02*
X012121Y001445D01*
X012121Y001287D02*
X025181Y001287D01*
X025181Y001128D02*
X012058Y001128D01*
X012060Y001604D02*
X023586Y001604D01*
X023350Y001762D02*
X011882Y001762D01*
X011481Y001762D02*
X011244Y001762D01*
X011244Y001604D02*
X011302Y001604D01*
X014019Y001921D02*
X023194Y001921D01*
X023103Y002079D02*
X014242Y002079D01*
X014318Y002238D02*
X023033Y002238D01*
X022990Y002396D02*
X014329Y002396D01*
X013181Y005726D02*
X013150Y005726D01*
X014013Y008104D02*
X014350Y008104D01*
X014252Y008262D02*
X014111Y008262D01*
X014138Y008421D02*
X014225Y008421D01*
X013681Y010006D02*
X016560Y010006D01*
X016445Y010165D02*
X013681Y010165D01*
X013681Y010324D02*
X016421Y010324D01*
X016470Y010482D02*
X013681Y010482D01*
X018227Y009689D02*
X018360Y009634D01*
X018503Y009634D01*
X018635Y009689D01*
X018715Y009768D01*
X018726Y009740D01*
X018827Y009639D01*
X018960Y009584D01*
X019103Y009584D01*
X019235Y009639D01*
X019381Y009848D02*
X022319Y009848D01*
X022336Y010006D02*
X019391Y010006D01*
X018777Y009689D02*
X018636Y009689D01*
X023178Y010324D02*
X023681Y010324D01*
X023776Y010165D02*
X023336Y010165D01*
X025283Y014129D02*
X028177Y014129D01*
X028176Y014287D02*
X025537Y014287D01*
D16*
X021856Y015069D03*
X019631Y013294D03*
X020631Y012344D03*
X021631Y012344D03*
X021281Y011644D03*
X021881Y011044D03*
X021281Y010394D03*
X019431Y010394D03*
X019131Y010844D03*
X018431Y009994D03*
X019031Y009944D03*
X019081Y008794D03*
X016781Y009744D03*
X016781Y010294D03*
X015281Y009044D03*
X014181Y008794D03*
X013731Y009044D03*
X015181Y008044D03*
X018306Y005494D03*
X020469Y006556D03*
X021731Y006344D03*
X023531Y006444D03*
X024619Y006106D03*
X024531Y007444D03*
X025631Y007394D03*
X024031Y010419D03*
X024056Y011744D03*
X019331Y011944D03*
X018681Y011844D03*
X018181Y011644D03*
X016981Y011769D03*
X016331Y012794D03*
X015269Y011956D03*
X014281Y012044D03*
X013869Y011756D03*
X013231Y012394D03*
X013231Y013194D03*
X016431Y014819D03*
X017081Y014744D03*
X020531Y016994D03*
X009931Y011244D03*
X009056Y010244D03*
X009056Y009681D03*
X008031Y009844D03*
X009806Y013744D03*
X008431Y013994D03*
X018181Y003294D03*
X019081Y002494D03*
D17*
X011581Y002544D02*
X011556Y002619D01*
X011581Y002544D02*
X011556Y002494D01*
X013181Y012394D02*
X013231Y012394D01*
D18*
X013106Y009044D02*
X013056Y008994D01*
X013106Y009044D02*
X013731Y009044D01*
M02*
