G75*
G70*
%OFA0B0*%
%FSLAX24Y24*%
%IPPOS*%
%LPD*%
%AMOC8*
5,1,8,0,0,1.08239X$1,22.5*
%
%ADD10C,0.1330*%
%ADD11R,0.0828X0.0237*%
%ADD12R,0.0237X0.0828*%
%ADD13R,0.0960X0.0560*%
%ADD14R,0.0946X0.1497*%
%ADD15R,0.0840X0.2180*%
%ADD16R,0.0277X0.1064*%
%ADD17R,0.0867X0.1064*%
%ADD18C,0.0434*%
%ADD19C,0.0840*%
%ADD20C,0.1260*%
%ADD21C,0.0740*%
%ADD22R,0.0470X0.0200*%
%ADD23R,0.1143X0.0710*%
%ADD24R,0.0474X0.0513*%
%ADD25C,0.0640*%
%ADD26OC8,0.0680*%
%ADD27OC8,0.0930*%
%ADD28R,0.0336X0.0218*%
%ADD29R,0.0218X0.0336*%
%ADD30R,0.1300X0.1300*%
%ADD31R,0.0592X0.0671*%
%ADD32R,0.0671X0.0592*%
%ADD33R,0.0552X0.0552*%
%ADD34R,0.0513X0.0474*%
%ADD35C,0.0480*%
%ADD36C,0.0580*%
%ADD37C,0.0640*%
D10*
X004031Y004344D03*
X004031Y015144D03*
X024081Y017094D03*
X024831Y015144D03*
X024831Y004344D03*
X024081Y002594D03*
D11*
X020608Y008786D03*
X020608Y009101D03*
X020608Y009416D03*
X020608Y009731D03*
X020608Y010046D03*
X020608Y010361D03*
X020608Y010676D03*
X020608Y010991D03*
X020608Y011306D03*
X020608Y011621D03*
X020608Y011936D03*
X016120Y011936D03*
X016120Y011621D03*
X016120Y011306D03*
X016120Y010991D03*
X016120Y010676D03*
X016120Y010361D03*
X016120Y010046D03*
X016120Y009731D03*
X016120Y009416D03*
X016120Y009101D03*
X016120Y008786D03*
D12*
X016789Y008117D03*
X017104Y008117D03*
X017419Y008117D03*
X017734Y008117D03*
X018049Y008117D03*
X018364Y008117D03*
X018679Y008117D03*
X018994Y008117D03*
X019309Y008117D03*
X019624Y008117D03*
X019939Y008117D03*
X019939Y012605D03*
X019624Y012605D03*
X019309Y012605D03*
X018994Y012605D03*
X018679Y012605D03*
X018364Y012605D03*
X018049Y012605D03*
X017734Y012605D03*
X017419Y012605D03*
X017104Y012605D03*
X016789Y012605D03*
D13*
X020624Y014146D03*
X020624Y015056D03*
X020624Y015966D03*
D14*
X023064Y015056D03*
D15*
X025219Y012706D03*
X027369Y012706D03*
X027369Y008906D03*
X025219Y008906D03*
D16*
X017949Y015597D03*
X017634Y015597D03*
X017319Y015597D03*
X017004Y015597D03*
X016689Y015597D03*
D17*
X015547Y015597D03*
X015547Y017762D03*
X019091Y017762D03*
X019091Y015597D03*
D18*
X018185Y016581D03*
X016453Y016581D03*
D19*
X006129Y012431D03*
X004949Y012431D03*
X004949Y011251D03*
X006129Y011251D03*
X006116Y008281D03*
X004936Y008281D03*
X004936Y007101D03*
X006116Y007101D03*
D20*
X003236Y007691D03*
X003249Y011841D03*
D21*
X007681Y008419D03*
X008681Y008419D03*
X009681Y008419D03*
X011681Y008419D03*
X012681Y008419D03*
X013681Y008419D03*
X014681Y008419D03*
D22*
X021720Y008496D03*
X021720Y008752D03*
X021720Y009008D03*
X021720Y008240D03*
X021720Y007984D03*
X021720Y007728D03*
X021720Y007473D03*
X021720Y007217D03*
X021720Y006961D03*
X021720Y006705D03*
X024018Y006705D03*
X024018Y006961D03*
X024018Y007217D03*
X024018Y007473D03*
X024018Y007728D03*
X024018Y007984D03*
X024018Y008240D03*
X024018Y008496D03*
X024018Y008752D03*
X024018Y009008D03*
D23*
X008869Y007245D03*
X008869Y006143D03*
D24*
X007404Y005431D03*
X006734Y005431D03*
X018847Y006044D03*
X019516Y006044D03*
D25*
X011961Y002369D02*
X011401Y002369D01*
X011401Y001369D02*
X011961Y001369D01*
X009774Y001369D02*
X009214Y001369D01*
X009214Y002369D02*
X009774Y002369D01*
X007744Y004076D02*
X007744Y004636D01*
X006744Y004636D02*
X006744Y004076D01*
X006381Y014689D02*
X006381Y015249D01*
X007381Y015249D02*
X007381Y014689D01*
X008381Y014689D02*
X008381Y015249D01*
D26*
X012869Y015356D03*
X013869Y015356D03*
X013869Y016356D03*
X012869Y016356D03*
X012869Y017356D03*
X013869Y017356D03*
X013869Y014356D03*
X012869Y014356D03*
X012869Y005356D03*
X013869Y005356D03*
X013869Y004356D03*
X012869Y004356D03*
X012869Y003356D03*
X013869Y003356D03*
X013869Y002356D03*
X012869Y002356D03*
D27*
X022869Y006856D03*
X022869Y007856D03*
X022869Y008856D03*
X022869Y009856D03*
D28*
X015012Y009833D03*
X015012Y010089D03*
X015012Y010345D03*
X015012Y010600D03*
X015012Y010856D03*
X013299Y010856D03*
X013299Y010600D03*
X013299Y010345D03*
X013299Y010089D03*
X013299Y009833D03*
D29*
X013653Y009488D03*
X013909Y009488D03*
X014165Y009488D03*
X014421Y009488D03*
X014677Y009488D03*
X014677Y011201D03*
X014421Y011201D03*
X014165Y011201D03*
X013909Y011201D03*
X013653Y011201D03*
D30*
X014165Y010345D03*
D31*
X013966Y007431D03*
X013297Y007431D03*
X022745Y013056D03*
X023493Y013056D03*
X018168Y013906D03*
X017420Y013906D03*
X026320Y006906D03*
X027068Y006906D03*
D32*
X017619Y003693D03*
X017619Y002945D03*
D33*
X018706Y003006D03*
X019532Y003006D03*
X020143Y006044D03*
X020970Y006044D03*
X026281Y006106D03*
X026281Y005406D03*
X027107Y005406D03*
X027107Y006106D03*
D34*
X025369Y006022D03*
X025369Y006691D03*
X023156Y005504D03*
X023156Y004834D03*
X020544Y003703D03*
X020544Y003034D03*
D35*
X019081Y002494D03*
X018181Y003294D03*
X018306Y005494D03*
X020469Y006556D03*
X021731Y006344D03*
X023531Y006444D03*
X024531Y007444D03*
X025631Y007394D03*
X024031Y010419D03*
X024056Y011744D03*
X021881Y011044D03*
X021281Y011644D03*
X021631Y012344D03*
X020631Y012344D03*
X019331Y011944D03*
X018681Y011844D03*
X018181Y011644D03*
X016981Y011769D03*
X016331Y012794D03*
X015269Y011956D03*
X014281Y012044D03*
X013869Y011756D03*
X013231Y012394D03*
X013231Y013194D03*
X009931Y011244D03*
X009056Y010244D03*
X009056Y009681D03*
X013731Y009044D03*
X014181Y008794D03*
X015281Y009044D03*
X016781Y009744D03*
X016781Y010294D03*
X018431Y009994D03*
X019031Y009944D03*
X019431Y010394D03*
X019131Y010844D03*
X021281Y010394D03*
X019081Y008794D03*
X015181Y008044D03*
X019631Y013294D03*
X017081Y014744D03*
X009806Y013744D03*
X008431Y013994D03*
D36*
X008031Y009844D03*
X016431Y014819D03*
X020531Y016994D03*
X021856Y015069D03*
D37*
X024619Y006106D03*
M02*
