G75*
G70*
%OFA0B0*%
%FSLAX24Y24*%
%IPPOS*%
%LPD*%
%AMOC8*
5,1,8,0,0,1.08239X$1,22.5*
%
%ADD10C,0.0594*%
%ADD11C,0.0560*%
%ADD12C,0.0600*%
%ADD13C,0.0780*%
%ADD14C,0.0160*%
%ADD15C,0.0400*%
%ADD16C,0.0100*%
D10*
X008740Y008106D03*
X009740Y008106D03*
X010740Y008106D03*
X012740Y008106D03*
X013740Y008106D03*
X014740Y008106D03*
X015740Y008106D03*
D11*
X007927Y003794D03*
X006927Y003794D03*
D12*
X013927Y004044D03*
X014927Y004044D03*
X014927Y005044D03*
X013927Y005044D03*
X013927Y003044D03*
X014927Y003044D03*
X014927Y002044D03*
X013927Y002044D03*
X013927Y014044D03*
X014927Y014044D03*
X014927Y015044D03*
X013927Y015044D03*
X013927Y016044D03*
X014927Y016044D03*
X014927Y017044D03*
X013927Y017044D03*
D13*
X023927Y009544D03*
X023927Y008544D03*
X023927Y007544D03*
X023927Y006544D03*
D14*
X004220Y001876D02*
X004119Y002253D01*
X003924Y002590D01*
X003924Y002590D01*
X003648Y002866D01*
X003311Y003061D01*
X002935Y003161D01*
X002934Y003161D01*
X002835Y003161D01*
X002740Y003161D01*
X002644Y003161D01*
X001740Y003161D01*
X001740Y005089D01*
X001986Y005023D01*
X002268Y005023D01*
X002540Y005096D01*
X004794Y005096D01*
X004663Y005061D02*
X004944Y005136D01*
X005235Y005136D01*
X005516Y005061D01*
X005768Y004916D01*
X005974Y004710D01*
X006119Y004458D01*
X006195Y004177D01*
X006195Y003886D01*
X006119Y003605D01*
X005974Y003353D01*
X005768Y003147D01*
X005516Y003002D01*
X005235Y002926D01*
X004944Y002926D01*
X004663Y003002D01*
X004411Y003147D01*
X004205Y003353D01*
X004060Y003605D01*
X003985Y003886D01*
X003985Y004177D01*
X004060Y004458D01*
X004205Y004710D01*
X004411Y004916D01*
X004663Y005061D01*
X004450Y004938D02*
X001740Y004938D01*
X001740Y004779D02*
X004275Y004779D01*
X004154Y004621D02*
X001740Y004621D01*
X001740Y004462D02*
X004062Y004462D01*
X004019Y004304D02*
X001740Y004304D01*
X001740Y004145D02*
X003985Y004145D01*
X003985Y003986D02*
X001740Y003986D01*
X001740Y003828D02*
X004000Y003828D01*
X004043Y003669D02*
X001740Y003669D01*
X001740Y003511D02*
X004114Y003511D01*
X004206Y003352D02*
X001740Y003352D01*
X001740Y003194D02*
X004365Y003194D01*
X004605Y003035D02*
X003355Y003035D01*
X003311Y003061D02*
X003311Y003061D01*
X003629Y002877D02*
X011115Y002877D01*
X011115Y003035D02*
X005574Y003035D01*
X005815Y003194D02*
X011115Y003194D01*
X011115Y003352D02*
X005973Y003352D01*
X006065Y003511D02*
X006588Y003511D01*
X006554Y003545D02*
X006678Y003421D01*
X006840Y003354D01*
X007015Y003354D01*
X007176Y003421D01*
X007300Y003545D01*
X007367Y003706D01*
X007367Y003881D01*
X007300Y004043D01*
X007176Y004167D01*
X007015Y004234D01*
X006840Y004234D01*
X006678Y004167D01*
X006554Y004043D01*
X006487Y003881D01*
X006487Y003706D01*
X006554Y003545D01*
X006503Y003669D02*
X006137Y003669D01*
X006179Y003828D02*
X006487Y003828D01*
X006531Y003986D02*
X006195Y003986D01*
X006195Y004145D02*
X006656Y004145D01*
X006161Y004304D02*
X011115Y004304D01*
X011115Y004462D02*
X006117Y004462D01*
X006025Y004621D02*
X011115Y004621D01*
X011115Y004779D02*
X005905Y004779D01*
X005730Y004938D02*
X011115Y004938D01*
X011115Y005096D02*
X005385Y005096D01*
X007198Y004145D02*
X007656Y004145D01*
X007678Y004167D02*
X007554Y004043D01*
X007487Y003881D01*
X007487Y003706D01*
X007554Y003545D01*
X007678Y003421D01*
X007840Y003354D01*
X008015Y003354D01*
X008176Y003421D01*
X008300Y003545D01*
X008367Y003706D01*
X008367Y003881D01*
X008300Y004043D01*
X008176Y004167D01*
X008015Y004234D01*
X007840Y004234D01*
X007678Y004167D01*
X007531Y003986D02*
X007324Y003986D01*
X007367Y003828D02*
X007487Y003828D01*
X007503Y003669D02*
X007352Y003669D01*
X007266Y003511D02*
X007588Y003511D01*
X008266Y003511D02*
X011115Y003511D01*
X011115Y003669D02*
X008352Y003669D01*
X008367Y003828D02*
X011115Y003828D01*
X011115Y003986D02*
X008324Y003986D01*
X008198Y004145D02*
X011115Y004145D01*
X012615Y004145D02*
X013471Y004145D01*
X013467Y004135D02*
X013467Y003952D01*
X013537Y003783D01*
X013667Y003654D01*
X013836Y003584D01*
X014019Y003584D01*
X014188Y003654D01*
X014240Y003706D01*
X014240Y003382D01*
X014188Y003434D01*
X014019Y003504D01*
X013836Y003504D01*
X013667Y003434D01*
X013537Y003304D01*
X013467Y003135D01*
X013467Y002952D01*
X013537Y002783D01*
X013667Y002654D01*
X013836Y002584D01*
X014019Y002584D01*
X014188Y002654D01*
X014240Y002706D01*
X014240Y002382D01*
X014188Y002434D01*
X014019Y002504D01*
X013836Y002504D01*
X013667Y002434D01*
X013537Y002304D01*
X013510Y002238D01*
X012615Y002306D01*
X012615Y007664D01*
X012649Y007650D01*
X012831Y007650D01*
X012999Y007719D01*
X013127Y007848D01*
X013197Y008016D01*
X013197Y008197D01*
X013127Y008365D01*
X012999Y008494D01*
X012831Y008563D01*
X012649Y008563D01*
X012615Y008549D01*
X012615Y017681D01*
X014240Y017681D01*
X024489Y017681D01*
X024461Y017666D01*
X024255Y017460D01*
X024110Y017208D01*
X024035Y016927D01*
X024035Y016636D01*
X024110Y016355D01*
X024255Y016103D01*
X024461Y015897D01*
X024713Y015752D01*
X024994Y015676D01*
X025172Y015676D01*
X025005Y015510D01*
X024860Y015258D01*
X024785Y014977D01*
X024785Y014686D01*
X024786Y014681D01*
X015243Y014681D01*
X015334Y014772D01*
X015407Y014948D01*
X015407Y015024D01*
X014947Y015024D01*
X014947Y015064D01*
X014907Y015064D01*
X014907Y015024D01*
X014447Y015024D01*
X014447Y014948D01*
X014520Y014772D01*
X014611Y014681D01*
X014240Y014681D01*
X014240Y014706D01*
X014317Y014783D01*
X014387Y014952D01*
X014387Y015135D01*
X014317Y015304D01*
X014240Y015382D01*
X014240Y015706D01*
X014317Y015783D01*
X014387Y015952D01*
X014387Y016135D01*
X014317Y016304D01*
X014240Y016382D01*
X014240Y016706D01*
X014317Y016783D01*
X014387Y016952D01*
X014387Y017135D01*
X014317Y017304D01*
X014537Y017304D01*
X014467Y017135D01*
X014467Y016952D01*
X014537Y016783D01*
X014667Y016654D01*
X014836Y016584D01*
X015019Y016584D01*
X015188Y016654D01*
X015317Y016783D01*
X015387Y016952D01*
X015387Y017135D01*
X015317Y017304D01*
X024166Y017304D01*
X024093Y017146D02*
X018685Y017146D01*
X018644Y017187D02*
X018511Y017241D01*
X018368Y017241D01*
X018236Y017187D01*
X018134Y017085D01*
X018080Y016953D01*
X018080Y016830D01*
X017933Y016976D01*
X017692Y017076D01*
X017430Y017076D01*
X017189Y016976D01*
X017004Y016791D01*
X016904Y016550D01*
X016904Y016288D01*
X017004Y016047D01*
X017189Y015862D01*
X017430Y015762D01*
X017692Y015762D01*
X017933Y015862D01*
X018118Y016047D01*
X018218Y016288D01*
X018218Y016550D01*
X018187Y016625D01*
X018236Y016576D01*
X018368Y016521D01*
X018511Y016521D01*
X018644Y016576D01*
X018650Y016582D01*
X018636Y016550D01*
X018636Y016288D01*
X018736Y016047D01*
X018921Y015862D01*
X019163Y015762D01*
X019424Y015762D01*
X019666Y015862D01*
X019850Y016047D01*
X019950Y016288D01*
X019950Y016550D01*
X019850Y016791D01*
X019666Y016976D01*
X019424Y017076D01*
X019163Y017076D01*
X018921Y016976D01*
X018800Y016855D01*
X018800Y016953D01*
X018745Y017085D01*
X018644Y017187D01*
X018786Y016987D02*
X018948Y016987D01*
X018636Y016511D02*
X018218Y016511D01*
X018218Y016353D02*
X018636Y016353D01*
X018675Y016194D02*
X018179Y016194D01*
X018107Y016036D02*
X018747Y016036D01*
X018906Y015877D02*
X017949Y015877D01*
X017173Y015877D02*
X015356Y015877D01*
X015387Y015952D02*
X015317Y015783D01*
X015188Y015654D01*
X015019Y015584D01*
X014836Y015584D01*
X014667Y015654D01*
X014537Y015783D01*
X014467Y015952D01*
X014467Y016135D01*
X014537Y016304D01*
X014667Y016434D01*
X014836Y016504D01*
X015019Y016504D01*
X015188Y016434D01*
X015317Y016304D01*
X015387Y016135D01*
X015387Y015952D01*
X015387Y016036D02*
X017015Y016036D01*
X016943Y016194D02*
X015363Y016194D01*
X015269Y016353D02*
X016904Y016353D01*
X016904Y016511D02*
X014240Y016511D01*
X012615Y016511D01*
X012615Y016353D02*
X013586Y016353D01*
X013537Y016304D02*
X013467Y016135D01*
X013467Y015952D01*
X013537Y015783D01*
X013667Y015654D01*
X013836Y015584D01*
X014019Y015584D01*
X014188Y015654D01*
X014240Y015706D01*
X014240Y015382D01*
X014188Y015434D01*
X014019Y015504D01*
X013836Y015504D01*
X013667Y015434D01*
X013537Y015304D01*
X013467Y015135D01*
X013467Y014952D01*
X013537Y014783D01*
X013667Y014654D01*
X013836Y014584D01*
X014019Y014584D01*
X014188Y014654D01*
X014240Y014706D01*
X014240Y014382D01*
X014188Y014434D01*
X014019Y014504D01*
X013836Y014504D01*
X013667Y014434D01*
X013537Y014304D01*
X013467Y014135D01*
X013467Y013952D01*
X013537Y013783D01*
X013667Y013654D01*
X013836Y013584D01*
X014019Y013584D01*
X014188Y013654D01*
X014240Y013706D01*
X014240Y005382D01*
X014188Y005434D01*
X014019Y005504D01*
X013836Y005504D01*
X013667Y005434D01*
X013537Y005304D01*
X013467Y005135D01*
X013467Y004952D01*
X013537Y004783D01*
X013667Y004654D01*
X013836Y004584D01*
X014019Y004584D01*
X014188Y004654D01*
X014240Y004706D01*
X014240Y004382D01*
X014188Y004434D01*
X014019Y004504D01*
X013836Y004504D01*
X013667Y004434D01*
X013537Y004304D01*
X012615Y004304D01*
X012615Y004462D02*
X013735Y004462D01*
X013747Y004621D02*
X012615Y004621D01*
X012615Y004779D02*
X013541Y004779D01*
X013473Y004938D02*
X012615Y004938D01*
X012615Y005096D02*
X013467Y005096D01*
X013517Y005255D02*
X012615Y005255D01*
X012615Y005413D02*
X013646Y005413D01*
X014208Y005413D02*
X014240Y005413D01*
X014240Y005572D02*
X012615Y005572D01*
X012615Y005730D02*
X014240Y005730D01*
X014240Y005889D02*
X012615Y005889D01*
X012615Y006048D02*
X014240Y006048D01*
X014240Y006206D02*
X012615Y006206D01*
X012615Y006365D02*
X014240Y006365D01*
X014240Y006523D02*
X012615Y006523D01*
X012615Y006682D02*
X014240Y006682D01*
X014240Y006840D02*
X012615Y006840D01*
X012615Y006999D02*
X014240Y006999D01*
X014240Y007157D02*
X012615Y007157D01*
X012615Y007316D02*
X014240Y007316D01*
X014240Y007474D02*
X012615Y007474D01*
X012615Y007633D02*
X013637Y007633D01*
X013645Y007630D02*
X013721Y007630D01*
X013721Y008088D01*
X013263Y008088D01*
X013263Y008012D01*
X013335Y007836D01*
X013470Y007702D01*
X013645Y007630D01*
X013721Y007633D02*
X013758Y007633D01*
X013758Y007630D02*
X013835Y007630D01*
X014010Y007702D01*
X014144Y007836D01*
X014217Y008012D01*
X014217Y008088D01*
X013758Y008088D01*
X013758Y007630D01*
X013843Y007633D02*
X014240Y007633D01*
X014240Y007791D02*
X014099Y007791D01*
X014191Y007950D02*
X014240Y007950D01*
X014240Y008109D02*
X013758Y008109D01*
X013758Y008125D02*
X014217Y008125D01*
X014217Y008201D01*
X014144Y008377D01*
X014010Y008511D01*
X013835Y008583D01*
X013758Y008583D01*
X013758Y008125D01*
X013721Y008125D01*
X013721Y008088D01*
X013758Y008088D01*
X013758Y008125D01*
X013721Y008125D02*
X013721Y008583D01*
X013645Y008583D01*
X013470Y008511D01*
X013335Y008377D01*
X013263Y008201D01*
X013263Y008125D01*
X013721Y008125D01*
X013721Y008109D02*
X013197Y008109D01*
X013168Y008267D02*
X013290Y008267D01*
X013385Y008426D02*
X013067Y008426D01*
X012615Y008584D02*
X014240Y008584D01*
X014240Y008426D02*
X014095Y008426D01*
X014189Y008267D02*
X014240Y008267D01*
X013758Y008267D02*
X013721Y008267D01*
X013721Y008426D02*
X013758Y008426D01*
X013758Y007950D02*
X013721Y007950D01*
X013721Y007791D02*
X013758Y007791D01*
X013380Y007791D02*
X013071Y007791D01*
X013169Y007950D02*
X013288Y007950D01*
X012615Y008743D02*
X014240Y008743D01*
X014240Y008901D02*
X012615Y008901D01*
X012615Y009060D02*
X014240Y009060D01*
X014240Y009218D02*
X012615Y009218D01*
X012615Y009377D02*
X014240Y009377D01*
X014240Y009535D02*
X012615Y009535D01*
X012615Y009694D02*
X014240Y009694D01*
X014240Y009853D02*
X012615Y009853D01*
X012615Y010011D02*
X014240Y010011D01*
X014240Y010170D02*
X012615Y010170D01*
X012615Y010328D02*
X014240Y010328D01*
X014240Y010487D02*
X012615Y010487D01*
X012615Y010645D02*
X014240Y010645D01*
X014240Y010804D02*
X012615Y010804D01*
X012615Y010962D02*
X014240Y010962D01*
X014240Y011121D02*
X012615Y011121D01*
X012615Y011279D02*
X014240Y011279D01*
X014240Y011438D02*
X012615Y011438D01*
X012615Y011597D02*
X014240Y011597D01*
X014240Y011755D02*
X012615Y011755D01*
X012615Y011914D02*
X014240Y011914D01*
X014240Y012072D02*
X012615Y012072D01*
X012615Y012231D02*
X014240Y012231D01*
X014240Y012389D02*
X012615Y012389D01*
X012615Y012548D02*
X014240Y012548D01*
X014240Y012706D02*
X012615Y012706D01*
X012615Y012865D02*
X014240Y012865D01*
X014240Y013023D02*
X012615Y013023D01*
X012615Y013182D02*
X014240Y013182D01*
X014240Y013341D02*
X012615Y013341D01*
X012615Y013499D02*
X014240Y013499D01*
X014240Y013658D02*
X014191Y013658D01*
X013663Y013658D02*
X012615Y013658D01*
X012615Y013816D02*
X013524Y013816D01*
X013467Y013975D02*
X012615Y013975D01*
X012615Y014133D02*
X013467Y014133D01*
X013532Y014292D02*
X012615Y014292D01*
X012615Y014450D02*
X013706Y014450D01*
X013776Y014609D02*
X012615Y014609D01*
X012615Y014767D02*
X013553Y014767D01*
X013478Y014926D02*
X012615Y014926D01*
X012615Y015084D02*
X013467Y015084D01*
X013512Y015243D02*
X012615Y015243D01*
X012615Y015402D02*
X013634Y015402D01*
X013602Y015719D02*
X012615Y015719D01*
X012615Y015877D02*
X013498Y015877D01*
X013467Y016036D02*
X012615Y016036D01*
X012615Y016194D02*
X013492Y016194D01*
X013537Y016304D02*
X013667Y016434D01*
X013836Y016504D01*
X014019Y016504D01*
X014188Y016434D01*
X014240Y016382D01*
X014240Y016706D01*
X014188Y016654D01*
X014019Y016584D01*
X013836Y016584D01*
X013667Y016654D01*
X013537Y016783D01*
X013467Y016952D01*
X013467Y017135D01*
X013537Y017304D01*
X012615Y017304D01*
X012615Y017146D02*
X013471Y017146D01*
X013467Y016987D02*
X012615Y016987D01*
X012615Y016828D02*
X013519Y016828D01*
X013651Y016670D02*
X012615Y016670D01*
X013537Y017304D02*
X013667Y017434D01*
X013836Y017504D01*
X014019Y017504D01*
X014188Y017434D01*
X014240Y017382D01*
X014240Y017681D01*
X014240Y017382D01*
X014317Y017304D01*
X014383Y017146D02*
X014471Y017146D01*
X014467Y016987D02*
X014387Y016987D01*
X014336Y016828D02*
X014519Y016828D01*
X014651Y016670D02*
X014240Y016670D01*
X014204Y016670D01*
X014269Y016353D02*
X014586Y016353D01*
X014492Y016194D02*
X014363Y016194D01*
X014387Y016036D02*
X014467Y016036D01*
X014498Y015877D02*
X014356Y015877D01*
X014252Y015719D02*
X014602Y015719D01*
X014655Y015451D02*
X014832Y015524D01*
X014907Y015524D01*
X014907Y015064D01*
X014447Y015064D01*
X014447Y015139D01*
X014520Y015316D01*
X014655Y015451D01*
X014606Y015402D02*
X014240Y015402D01*
X014220Y015402D01*
X014240Y015560D02*
X025056Y015560D01*
X024943Y015402D02*
X022529Y015402D01*
X022545Y015385D02*
X022444Y015487D01*
X022311Y015541D01*
X022168Y015541D01*
X022036Y015487D01*
X021934Y015385D01*
X021880Y015253D01*
X021880Y015110D01*
X021934Y014977D01*
X022036Y014876D01*
X022168Y014821D01*
X022311Y014821D01*
X022444Y014876D01*
X022545Y014977D01*
X022600Y015110D01*
X022600Y015253D01*
X022545Y015385D01*
X022600Y015243D02*
X024856Y015243D01*
X024814Y015084D02*
X022589Y015084D01*
X022493Y014926D02*
X024785Y014926D01*
X024785Y014767D02*
X015329Y014767D01*
X015398Y014926D02*
X021986Y014926D01*
X021890Y015084D02*
X015407Y015084D01*
X015407Y015064D02*
X015407Y015139D01*
X015334Y015316D01*
X015199Y015451D01*
X015023Y015524D01*
X014947Y015524D01*
X014947Y015064D01*
X015407Y015064D01*
X015364Y015243D02*
X021880Y015243D01*
X021951Y015402D02*
X015248Y015402D01*
X014947Y015402D02*
X014907Y015402D01*
X014907Y015243D02*
X014947Y015243D01*
X014947Y015084D02*
X014907Y015084D01*
X014490Y015243D02*
X014343Y015243D01*
X014387Y015084D02*
X014447Y015084D01*
X014456Y014926D02*
X014376Y014926D01*
X014301Y014767D02*
X014525Y014767D01*
X014240Y014609D02*
X014079Y014609D01*
X014148Y014450D02*
X014240Y014450D01*
X014907Y014024D02*
X014947Y014024D01*
X014947Y013564D01*
X015023Y013564D01*
X015199Y013637D01*
X015334Y013772D01*
X015407Y013948D01*
X015407Y014024D01*
X014947Y014024D01*
X014947Y014064D01*
X015407Y014064D01*
X015407Y014139D01*
X015390Y014181D01*
X024631Y014181D01*
X024534Y014085D01*
X024480Y013953D01*
X024480Y013810D01*
X024534Y013677D01*
X024636Y013576D01*
X024768Y013521D01*
X024911Y013521D01*
X025044Y013576D01*
X025145Y013677D01*
X025200Y013810D01*
X025200Y013953D01*
X025196Y013963D01*
X025211Y013947D01*
X025463Y013802D01*
X025744Y013726D01*
X026035Y013726D01*
X026316Y013802D01*
X026568Y013947D01*
X026774Y014153D01*
X026790Y014181D01*
X029234Y014181D01*
X029259Y003181D01*
X026602Y003181D01*
X026774Y003353D01*
X026919Y003605D01*
X026995Y003886D01*
X026995Y004177D01*
X026919Y004458D01*
X026774Y004710D01*
X026568Y004916D01*
X026316Y005061D01*
X026035Y005136D01*
X025744Y005136D01*
X025463Y005061D01*
X025211Y004916D01*
X025005Y004710D01*
X024860Y004458D01*
X024785Y004177D01*
X024785Y003886D01*
X024860Y003605D01*
X024987Y003384D01*
X024713Y003311D01*
X024489Y003181D01*
X019546Y003181D01*
X019545Y003185D01*
X019444Y003287D01*
X019311Y003341D01*
X019168Y003341D01*
X019036Y003287D01*
X018934Y003185D01*
X018933Y003181D01*
X015368Y003181D01*
X015317Y003304D01*
X015188Y003434D01*
X015019Y003504D01*
X014836Y003504D01*
X014740Y003464D01*
X014740Y003624D01*
X014836Y003584D01*
X015019Y003584D01*
X015188Y003654D01*
X015317Y003783D01*
X015387Y003952D01*
X015387Y004135D01*
X015317Y004304D01*
X015188Y004434D01*
X015019Y004504D01*
X014836Y004504D01*
X014740Y004464D01*
X014740Y004624D01*
X014836Y004584D01*
X015019Y004584D01*
X015188Y004654D01*
X015317Y004783D01*
X015387Y004952D01*
X015387Y005135D01*
X015317Y005304D01*
X015188Y005434D01*
X015019Y005504D01*
X014836Y005504D01*
X014740Y005464D01*
X014740Y007650D01*
X014831Y007650D01*
X014999Y007719D01*
X015127Y007848D01*
X015197Y008016D01*
X015197Y008197D01*
X015127Y008365D01*
X015042Y008450D01*
X015132Y008540D01*
X015187Y008672D01*
X015187Y008816D01*
X015132Y008948D01*
X015031Y009049D01*
X014899Y009104D01*
X014756Y009104D01*
X014740Y009097D01*
X014740Y011132D01*
X014856Y011084D01*
X014999Y011084D01*
X015131Y011139D01*
X015232Y011240D01*
X015287Y011372D01*
X015287Y011516D01*
X015232Y011648D01*
X015131Y011749D01*
X015065Y011776D01*
X015100Y011860D01*
X015100Y012003D01*
X015045Y012135D01*
X014944Y012237D01*
X014811Y012291D01*
X014740Y012291D01*
X014740Y013602D01*
X014832Y013564D01*
X014907Y013564D01*
X014907Y014024D01*
X014907Y013975D02*
X014947Y013975D01*
X014947Y013816D02*
X014907Y013816D01*
X014907Y013658D02*
X014947Y013658D01*
X014740Y013499D02*
X029236Y013499D01*
X029236Y013341D02*
X020963Y013341D01*
X020961Y013341D02*
X020818Y013341D01*
X020686Y013287D01*
X020584Y013185D01*
X020530Y013053D01*
X020530Y012918D01*
X019003Y011391D01*
X018868Y011391D01*
X018736Y011337D01*
X018640Y011240D01*
X018544Y011337D01*
X018411Y011391D01*
X018268Y011391D01*
X018136Y011337D01*
X018134Y011334D01*
X017150Y012318D01*
X017150Y012453D01*
X017095Y012585D01*
X016994Y012687D01*
X016861Y012741D01*
X016718Y012741D01*
X016586Y012687D01*
X016484Y012585D01*
X016430Y012453D01*
X016430Y012310D01*
X016484Y012177D01*
X016586Y012076D01*
X016718Y012021D01*
X016853Y012021D01*
X018026Y010848D01*
X018034Y010827D01*
X018136Y010726D01*
X018268Y010671D01*
X018411Y010671D01*
X018544Y010726D01*
X018640Y010822D01*
X018736Y010726D01*
X018868Y010671D01*
X019011Y010671D01*
X019144Y010726D01*
X019245Y010827D01*
X019300Y010960D01*
X019300Y011094D01*
X020827Y012621D01*
X020961Y012621D01*
X021094Y012676D01*
X021195Y012777D01*
X021250Y012910D01*
X021250Y013053D01*
X021195Y013185D01*
X021094Y013287D01*
X020961Y013341D01*
X020816Y013341D02*
X019913Y013341D01*
X019911Y013341D02*
X019768Y013341D01*
X019636Y013287D01*
X019534Y013185D01*
X019480Y013053D01*
X019480Y012910D01*
X019534Y012777D01*
X019636Y012676D01*
X019768Y012621D01*
X019911Y012621D01*
X020044Y012676D01*
X020145Y012777D01*
X020200Y012910D01*
X020200Y013053D01*
X020145Y013185D01*
X020044Y013287D01*
X019911Y013341D01*
X019766Y013341D02*
X014740Y013341D01*
X014740Y013182D02*
X019533Y013182D01*
X019480Y013023D02*
X014740Y013023D01*
X014740Y012865D02*
X019498Y012865D01*
X019606Y012706D02*
X016946Y012706D01*
X017110Y012548D02*
X020159Y012548D01*
X020074Y012706D02*
X020318Y012706D01*
X020181Y012865D02*
X020476Y012865D01*
X020530Y013023D02*
X020200Y013023D01*
X020146Y013182D02*
X020583Y013182D01*
X021196Y013182D02*
X029236Y013182D01*
X029237Y013023D02*
X021250Y013023D01*
X021231Y012865D02*
X029237Y012865D01*
X029237Y012706D02*
X021124Y012706D01*
X020753Y012548D02*
X029238Y012548D01*
X029238Y012389D02*
X020594Y012389D01*
X020436Y012231D02*
X029238Y012231D01*
X029239Y012072D02*
X020277Y012072D01*
X020256Y011904D02*
X020123Y011849D01*
X020022Y011748D01*
X019967Y011616D01*
X019967Y011472D01*
X020022Y011340D01*
X020123Y011239D01*
X020256Y011184D01*
X020399Y011184D01*
X020488Y011221D01*
X020522Y011140D01*
X020623Y011039D01*
X020756Y010984D01*
X020899Y010984D01*
X021031Y011039D01*
X021132Y011140D01*
X021187Y011272D01*
X021187Y011416D01*
X021132Y011548D01*
X021031Y011649D01*
X020899Y011704D01*
X020756Y011704D01*
X020666Y011667D01*
X020632Y011748D01*
X020531Y011849D01*
X020399Y011904D01*
X020256Y011904D01*
X020119Y011914D02*
X029239Y011914D01*
X029240Y011755D02*
X023425Y011755D01*
X023432Y011748D02*
X023331Y011849D01*
X023199Y011904D01*
X023056Y011904D01*
X022923Y011849D01*
X022822Y011748D01*
X022767Y011616D01*
X022767Y011472D01*
X022822Y011340D01*
X022923Y011239D01*
X023056Y011184D01*
X023199Y011184D01*
X023257Y011208D01*
X023184Y011135D01*
X023130Y011003D01*
X023130Y010860D01*
X023184Y010727D01*
X023231Y010681D01*
X023184Y010635D01*
X023130Y010503D01*
X023130Y010360D01*
X023184Y010227D01*
X023286Y010126D01*
X023418Y010071D01*
X023561Y010071D01*
X023694Y010126D01*
X023795Y010227D01*
X023850Y010360D01*
X023850Y010503D01*
X023795Y010635D01*
X023749Y010681D01*
X023795Y010727D01*
X023850Y010860D01*
X023850Y011003D01*
X023795Y011135D01*
X023694Y011237D01*
X023561Y011291D01*
X023418Y011291D01*
X023359Y011267D01*
X023432Y011340D01*
X023487Y011472D01*
X023487Y011616D01*
X023432Y011748D01*
X023487Y011597D02*
X029240Y011597D01*
X029240Y011438D02*
X023473Y011438D01*
X023389Y011279D02*
X023372Y011279D01*
X023590Y011279D02*
X029241Y011279D01*
X029241Y011121D02*
X023801Y011121D01*
X023850Y010962D02*
X029241Y010962D01*
X029242Y010804D02*
X023826Y010804D01*
X023785Y010645D02*
X029242Y010645D01*
X029242Y010487D02*
X023850Y010487D01*
X023837Y010328D02*
X029243Y010328D01*
X029243Y010170D02*
X023737Y010170D01*
X023818Y010094D02*
X023616Y010010D01*
X023461Y009856D01*
X023377Y009653D01*
X023377Y009435D01*
X023461Y009232D01*
X023616Y009078D01*
X023697Y009044D01*
X023616Y009010D01*
X023461Y008855D01*
X023377Y008653D01*
X023377Y008434D01*
X023461Y008232D01*
X023616Y008078D01*
X023697Y008044D01*
X023616Y008010D01*
X023461Y007855D01*
X023377Y007653D01*
X023377Y007434D01*
X023461Y007232D01*
X023616Y007078D01*
X023697Y007044D01*
X023616Y007010D01*
X023461Y006855D01*
X023377Y006653D01*
X023377Y006434D01*
X023461Y006232D01*
X023616Y006078D01*
X023818Y005994D01*
X024037Y005994D01*
X024239Y006078D01*
X024393Y006232D01*
X024477Y006434D01*
X024477Y006653D01*
X024393Y006855D01*
X024239Y007010D01*
X024157Y007044D01*
X024239Y007078D01*
X024393Y007232D01*
X024477Y007434D01*
X024477Y007653D01*
X024393Y007855D01*
X024239Y008010D01*
X024157Y008044D01*
X024239Y008078D01*
X024393Y008232D01*
X024477Y008434D01*
X024477Y008653D01*
X024393Y008855D01*
X024239Y009010D01*
X024157Y009044D01*
X024239Y009078D01*
X024393Y009232D01*
X024477Y009435D01*
X024477Y009653D01*
X024393Y009856D01*
X024239Y010010D01*
X024037Y010094D01*
X023818Y010094D01*
X023618Y010011D02*
X022669Y010011D01*
X022631Y010049D02*
X022732Y009948D01*
X022787Y009816D01*
X022787Y009672D01*
X022732Y009540D01*
X022631Y009439D01*
X022499Y009384D01*
X022356Y009384D01*
X022223Y009439D01*
X022122Y009540D01*
X022067Y009672D01*
X022067Y009816D01*
X022122Y009948D01*
X022223Y010049D01*
X022356Y010104D01*
X022499Y010104D01*
X022631Y010049D01*
X022772Y009853D02*
X023460Y009853D01*
X023394Y009694D02*
X022787Y009694D01*
X022728Y009535D02*
X023377Y009535D01*
X023401Y009377D02*
X020944Y009377D01*
X020982Y009415D02*
X020881Y009314D01*
X020749Y009259D01*
X020691Y009259D01*
X020725Y009178D01*
X020725Y009035D01*
X020670Y008903D01*
X020569Y008801D01*
X020436Y008746D01*
X020293Y008746D01*
X020161Y008801D01*
X020060Y008903D01*
X020005Y009035D01*
X020005Y009178D01*
X020060Y009310D01*
X020161Y009412D01*
X020293Y009466D01*
X020351Y009466D01*
X020317Y009547D01*
X020317Y009691D01*
X020334Y009731D01*
X020311Y009721D01*
X020168Y009721D01*
X020036Y009776D01*
X019934Y009877D01*
X019880Y010010D01*
X019880Y010153D01*
X019902Y010206D01*
X019823Y010239D01*
X019722Y010340D01*
X019667Y010472D01*
X019667Y010616D01*
X019722Y010748D01*
X019823Y010849D01*
X019956Y010904D01*
X020099Y010904D01*
X020231Y010849D01*
X020332Y010748D01*
X020387Y010616D01*
X020387Y010472D01*
X020365Y010419D01*
X020444Y010387D01*
X020545Y010285D01*
X020600Y010153D01*
X020600Y010010D01*
X020583Y009970D01*
X020606Y009979D01*
X020749Y009979D01*
X020881Y009924D01*
X020982Y009823D01*
X021037Y009691D01*
X021037Y009547D01*
X020982Y009415D01*
X021032Y009535D02*
X022127Y009535D01*
X022067Y009694D02*
X021036Y009694D01*
X020953Y009853D02*
X022083Y009853D01*
X022185Y010011D02*
X020600Y010011D01*
X020593Y010170D02*
X023242Y010170D01*
X023143Y010328D02*
X020502Y010328D01*
X020387Y010487D02*
X023130Y010487D01*
X023194Y010645D02*
X020375Y010645D01*
X020276Y010804D02*
X023153Y010804D01*
X023130Y010962D02*
X019300Y010962D01*
X019326Y011121D02*
X020541Y011121D01*
X020083Y011279D02*
X019485Y011279D01*
X019643Y011438D02*
X019981Y011438D01*
X019967Y011597D02*
X019802Y011597D01*
X019960Y011755D02*
X020029Y011755D01*
X019683Y012072D02*
X017396Y012072D01*
X017554Y011914D02*
X019525Y011914D01*
X019366Y011755D02*
X017713Y011755D01*
X017871Y011597D02*
X019208Y011597D01*
X019049Y011438D02*
X018030Y011438D01*
X017753Y011121D02*
X015088Y011121D01*
X015249Y011279D02*
X017595Y011279D01*
X017436Y011438D02*
X016630Y011438D01*
X016632Y011440D02*
X016687Y011572D01*
X016687Y011716D01*
X016632Y011848D01*
X016531Y011949D01*
X016399Y012004D01*
X016256Y012004D01*
X016123Y011949D01*
X016022Y011848D01*
X015967Y011716D01*
X015967Y011572D01*
X016022Y011440D01*
X016123Y011339D01*
X016256Y011284D01*
X016399Y011284D01*
X016531Y011339D01*
X016632Y011440D01*
X016687Y011597D02*
X017278Y011597D01*
X017119Y011755D02*
X016671Y011755D01*
X016567Y011914D02*
X016960Y011914D01*
X016596Y012072D02*
X015071Y012072D01*
X015100Y011914D02*
X016088Y011914D01*
X015984Y011755D02*
X015117Y011755D01*
X015254Y011597D02*
X015967Y011597D01*
X016024Y011438D02*
X015287Y011438D01*
X014766Y011121D02*
X014740Y011121D01*
X014740Y010962D02*
X017912Y010962D01*
X018058Y010804D02*
X014740Y010804D01*
X014740Y010645D02*
X019680Y010645D01*
X019667Y010487D02*
X014740Y010487D01*
X014740Y010328D02*
X019734Y010328D01*
X019887Y010170D02*
X014740Y010170D01*
X014740Y010011D02*
X018573Y010011D01*
X018560Y009998D02*
X018505Y009866D01*
X018505Y009722D01*
X018560Y009590D01*
X018661Y009489D01*
X018793Y009434D01*
X018936Y009434D01*
X019069Y009489D01*
X019170Y009590D01*
X019225Y009722D01*
X019225Y009866D01*
X019170Y009998D01*
X019069Y010099D01*
X018936Y010154D01*
X018793Y010154D01*
X018661Y010099D01*
X018560Y009998D01*
X018505Y009853D02*
X014740Y009853D01*
X014740Y009694D02*
X018516Y009694D01*
X018614Y009535D02*
X014740Y009535D01*
X014740Y009377D02*
X020126Y009377D01*
X020021Y009218D02*
X014740Y009218D01*
X015005Y009060D02*
X020005Y009060D01*
X020061Y008901D02*
X015152Y008901D01*
X015187Y008743D02*
X023414Y008743D01*
X023377Y008584D02*
X015151Y008584D01*
X015067Y008426D02*
X015413Y008426D01*
X015352Y008365D02*
X015283Y008197D01*
X015283Y008016D01*
X015352Y007848D01*
X015481Y007719D01*
X015649Y007650D01*
X015831Y007650D01*
X015999Y007719D01*
X016127Y007848D01*
X016197Y008016D01*
X016197Y008197D01*
X016127Y008365D01*
X015999Y008494D01*
X015831Y008563D01*
X015649Y008563D01*
X015481Y008494D01*
X015352Y008365D01*
X015312Y008267D02*
X015168Y008267D01*
X015197Y008109D02*
X015283Y008109D01*
X015310Y007950D02*
X015169Y007950D01*
X015071Y007791D02*
X015409Y007791D01*
X016071Y007791D02*
X023434Y007791D01*
X023377Y007633D02*
X014740Y007633D01*
X014740Y007474D02*
X023377Y007474D01*
X023426Y007316D02*
X014740Y007316D01*
X014740Y007157D02*
X023536Y007157D01*
X023604Y006999D02*
X014740Y006999D01*
X014740Y006840D02*
X023455Y006840D01*
X023389Y006682D02*
X014740Y006682D01*
X014740Y006523D02*
X021297Y006523D01*
X021323Y006549D02*
X021222Y006448D01*
X021167Y006316D01*
X021167Y006172D01*
X021222Y006040D01*
X021323Y005939D01*
X021456Y005884D01*
X021599Y005884D01*
X021731Y005939D01*
X021832Y006040D01*
X021887Y006172D01*
X021887Y006316D01*
X021832Y006448D01*
X021731Y006549D01*
X021599Y006604D01*
X021456Y006604D01*
X021323Y006549D01*
X021188Y006365D02*
X014740Y006365D01*
X014740Y006206D02*
X021167Y006206D01*
X021219Y006048D02*
X014740Y006048D01*
X014740Y005889D02*
X021443Y005889D01*
X021611Y005889D02*
X025327Y005889D01*
X025317Y005866D02*
X025317Y005722D01*
X025372Y005590D01*
X025473Y005489D01*
X025606Y005434D01*
X025749Y005434D01*
X025881Y005489D01*
X025982Y005590D01*
X026037Y005722D01*
X026037Y005866D01*
X025982Y005998D01*
X025881Y006099D01*
X025749Y006154D01*
X025606Y006154D01*
X025473Y006099D01*
X025372Y005998D01*
X025317Y005866D01*
X025317Y005730D02*
X014740Y005730D01*
X014740Y005572D02*
X025390Y005572D01*
X025964Y005572D02*
X029253Y005572D01*
X029253Y005730D02*
X026037Y005730D01*
X026027Y005889D02*
X029253Y005889D01*
X029252Y006048D02*
X025933Y006048D01*
X025422Y006048D02*
X024166Y006048D01*
X024367Y006206D02*
X029252Y006206D01*
X029251Y006365D02*
X024448Y006365D01*
X024477Y006523D02*
X029251Y006523D01*
X029251Y006682D02*
X024465Y006682D01*
X024400Y006840D02*
X029250Y006840D01*
X029250Y006999D02*
X024250Y006999D01*
X024318Y007157D02*
X029250Y007157D01*
X029249Y007316D02*
X024428Y007316D01*
X024477Y007474D02*
X029249Y007474D01*
X029249Y007633D02*
X024477Y007633D01*
X024420Y007791D02*
X025970Y007791D01*
X026018Y007771D02*
X026161Y007771D01*
X026294Y007826D01*
X026395Y007927D01*
X026450Y008060D01*
X026450Y008203D01*
X026395Y008335D01*
X026294Y008437D01*
X026161Y008491D01*
X026018Y008491D01*
X025886Y008437D01*
X025784Y008335D01*
X025730Y008203D01*
X025730Y008060D01*
X025784Y007927D01*
X025886Y007826D01*
X026018Y007771D01*
X026210Y007791D02*
X029248Y007791D01*
X029248Y007950D02*
X026404Y007950D01*
X026450Y008109D02*
X029248Y008109D01*
X029247Y008267D02*
X026423Y008267D01*
X026304Y008426D02*
X029247Y008426D01*
X029247Y008584D02*
X025951Y008584D01*
X025932Y008540D02*
X025987Y008672D01*
X025987Y008816D01*
X025932Y008948D01*
X025831Y009049D01*
X025699Y009104D01*
X025556Y009104D01*
X025423Y009049D01*
X025322Y008948D01*
X025267Y008816D01*
X025267Y008672D01*
X025322Y008540D01*
X025423Y008439D01*
X025556Y008384D01*
X025699Y008384D01*
X025831Y008439D01*
X025932Y008540D01*
X025875Y008426D02*
X025800Y008426D01*
X025756Y008267D02*
X024408Y008267D01*
X024474Y008426D02*
X025455Y008426D01*
X025304Y008584D02*
X024477Y008584D01*
X024440Y008743D02*
X025267Y008743D01*
X025303Y008901D02*
X024348Y008901D01*
X024196Y009060D02*
X025449Y009060D01*
X025805Y009060D02*
X029246Y009060D01*
X029245Y009218D02*
X024379Y009218D01*
X024453Y009377D02*
X029245Y009377D01*
X029244Y009535D02*
X024477Y009535D01*
X024460Y009694D02*
X029244Y009694D01*
X029244Y009853D02*
X024395Y009853D01*
X024237Y010011D02*
X029243Y010011D01*
X029246Y008901D02*
X025952Y008901D01*
X025987Y008743D02*
X029246Y008743D01*
X025775Y007950D02*
X024299Y007950D01*
X024270Y008109D02*
X025730Y008109D01*
X023659Y009060D02*
X020725Y009060D01*
X020708Y009218D02*
X023475Y009218D01*
X023507Y008901D02*
X020669Y008901D01*
X020322Y009535D02*
X019115Y009535D01*
X019213Y009694D02*
X020319Y009694D01*
X019959Y009853D02*
X019225Y009853D01*
X019157Y010011D02*
X019880Y010011D01*
X019778Y010804D02*
X019221Y010804D01*
X018658Y010804D02*
X018621Y010804D01*
X018601Y011279D02*
X018679Y011279D01*
X019842Y012231D02*
X017237Y012231D01*
X017150Y012389D02*
X020001Y012389D01*
X020625Y011755D02*
X022829Y011755D01*
X022767Y011597D02*
X021084Y011597D01*
X021178Y011438D02*
X022781Y011438D01*
X022883Y011279D02*
X021187Y011279D01*
X021113Y011121D02*
X023179Y011121D01*
X023381Y008426D02*
X016067Y008426D01*
X016168Y008267D02*
X023447Y008267D01*
X023585Y008109D02*
X016197Y008109D01*
X016169Y007950D02*
X023556Y007950D01*
X023377Y006523D02*
X021757Y006523D01*
X021867Y006365D02*
X023406Y006365D01*
X023487Y006206D02*
X021887Y006206D01*
X021835Y006048D02*
X023688Y006048D01*
X025250Y004938D02*
X019630Y004938D01*
X019670Y004977D02*
X019725Y005110D01*
X019725Y005253D01*
X019670Y005385D01*
X019569Y005487D01*
X019436Y005541D01*
X019293Y005541D01*
X019161Y005487D01*
X019059Y005385D01*
X019005Y005253D01*
X019005Y005110D01*
X019059Y004977D01*
X019161Y004876D01*
X019293Y004821D01*
X019436Y004821D01*
X019569Y004876D01*
X019670Y004977D01*
X019719Y005096D02*
X025594Y005096D01*
X026185Y005096D02*
X029254Y005096D01*
X029255Y004938D02*
X026530Y004938D01*
X026705Y004779D02*
X029255Y004779D01*
X029255Y004621D02*
X026825Y004621D01*
X026917Y004462D02*
X029256Y004462D01*
X029256Y004304D02*
X026961Y004304D01*
X026995Y004145D02*
X029256Y004145D01*
X029257Y003986D02*
X026995Y003986D01*
X026979Y003828D02*
X029257Y003828D01*
X029257Y003669D02*
X026937Y003669D01*
X026865Y003511D02*
X029258Y003511D01*
X029258Y003352D02*
X026773Y003352D01*
X026615Y003194D02*
X029259Y003194D01*
X026240Y002117D02*
X026169Y001855D01*
X026024Y001603D01*
X025818Y001397D01*
X025566Y001252D01*
X025285Y001176D01*
X024994Y001176D01*
X024713Y001252D01*
X024461Y001397D01*
X024255Y001603D01*
X024110Y001855D01*
X024035Y002136D01*
X024035Y002181D01*
X015368Y002181D01*
X015387Y002135D01*
X015387Y001952D01*
X015317Y001783D01*
X015188Y001654D01*
X015019Y001584D01*
X014836Y001584D01*
X014667Y001654D01*
X014537Y001783D01*
X014467Y001952D01*
X014467Y002135D01*
X014486Y002181D01*
X014368Y002181D01*
X014387Y002135D01*
X014387Y001952D01*
X014317Y001783D01*
X014188Y001654D01*
X014019Y001584D01*
X013836Y001584D01*
X013667Y001654D01*
X013537Y001783D01*
X013467Y001952D01*
X013467Y002135D01*
X013486Y002181D01*
X012615Y002181D01*
X012615Y000661D01*
X026240Y000661D01*
X026240Y002117D01*
X026240Y002084D02*
X026231Y002084D01*
X026240Y001925D02*
X026188Y001925D01*
X026240Y001767D02*
X026119Y001767D01*
X026027Y001608D02*
X026240Y001608D01*
X026240Y001450D02*
X025871Y001450D01*
X025635Y001291D02*
X026240Y001291D01*
X026240Y001133D02*
X012615Y001133D01*
X012615Y001291D02*
X024645Y001291D01*
X024409Y001450D02*
X012615Y001450D01*
X012615Y001608D02*
X013777Y001608D01*
X013554Y001767D02*
X012615Y001767D01*
X012615Y001925D02*
X013478Y001925D01*
X013467Y002084D02*
X012615Y002084D01*
X012615Y002401D02*
X013634Y002401D01*
X013512Y002242D02*
X013446Y002242D01*
X014240Y002560D02*
X012615Y002560D01*
X012615Y002718D02*
X013602Y002718D01*
X013499Y002877D02*
X012615Y002877D01*
X012615Y003035D02*
X013467Y003035D01*
X013491Y003194D02*
X012615Y003194D01*
X012615Y003352D02*
X013585Y003352D01*
X013651Y003669D02*
X012615Y003669D01*
X012615Y003511D02*
X014240Y003511D01*
X014240Y003669D02*
X014203Y003669D01*
X014740Y003511D02*
X024914Y003511D01*
X024867Y003352D02*
X015269Y003352D01*
X015363Y003194D02*
X018943Y003194D01*
X019536Y003194D02*
X024510Y003194D01*
X024843Y003669D02*
X015203Y003669D01*
X015336Y003828D02*
X024800Y003828D01*
X024785Y003986D02*
X015387Y003986D01*
X015383Y004145D02*
X024785Y004145D01*
X024819Y004304D02*
X015318Y004304D01*
X015120Y004462D02*
X024862Y004462D01*
X024954Y004621D02*
X015107Y004621D01*
X015313Y004779D02*
X025075Y004779D01*
X024049Y002084D02*
X015387Y002084D01*
X015376Y001925D02*
X024091Y001925D01*
X024161Y001767D02*
X015301Y001767D01*
X015078Y001608D02*
X024252Y001608D01*
X026240Y000974D02*
X012615Y000974D01*
X012615Y000816D02*
X026240Y000816D01*
X029254Y005255D02*
X019724Y005255D01*
X019642Y005413D02*
X029254Y005413D01*
X019099Y004938D02*
X015381Y004938D01*
X015387Y005096D02*
X019010Y005096D01*
X019005Y005255D02*
X015338Y005255D01*
X015208Y005413D02*
X019088Y005413D01*
X014747Y004621D02*
X014740Y004621D01*
X014240Y004621D02*
X014107Y004621D01*
X014120Y004462D02*
X014240Y004462D01*
X013537Y004304D02*
X013467Y004135D01*
X013467Y003986D02*
X012615Y003986D01*
X012615Y003828D02*
X013519Y003828D01*
X014221Y002401D02*
X014240Y002401D01*
X014387Y002084D02*
X014467Y002084D01*
X014478Y001925D02*
X014376Y001925D01*
X014301Y001767D02*
X014554Y001767D01*
X014777Y001608D02*
X014078Y001608D01*
X011115Y001608D02*
X004220Y001608D01*
X004220Y001450D02*
X011115Y001450D01*
X011115Y001291D02*
X004220Y001291D01*
X004220Y001133D02*
X011115Y001133D01*
X011115Y000974D02*
X004220Y000974D01*
X004220Y000816D02*
X011115Y000816D01*
X011115Y000681D02*
X004220Y000681D01*
X004220Y001777D01*
X004220Y001876D01*
X004220Y001876D01*
X004206Y001925D02*
X011115Y001925D01*
X011115Y001767D02*
X004220Y001767D01*
X004164Y002084D02*
X011115Y002084D01*
X011115Y002242D02*
X004121Y002242D01*
X004119Y002253D02*
X004119Y002253D01*
X004033Y002401D02*
X011115Y002401D01*
X011115Y002560D02*
X003942Y002560D01*
X003796Y002718D02*
X011115Y002718D01*
X011115Y000681D02*
X011115Y007835D01*
X010999Y007719D01*
X010831Y007650D01*
X010649Y007650D01*
X010481Y007719D01*
X010352Y007848D01*
X010283Y008016D01*
X010283Y008197D01*
X010352Y008365D01*
X010481Y008494D01*
X010649Y008563D01*
X010831Y008563D01*
X010999Y008494D01*
X011115Y008378D01*
X011115Y017681D01*
X004220Y017681D01*
X004220Y017277D01*
X004220Y017181D01*
X004220Y016987D01*
X011115Y016987D01*
X011115Y016828D02*
X004177Y016828D01*
X004135Y016670D02*
X011115Y016670D01*
X011115Y016511D02*
X004062Y016511D01*
X004119Y016610D02*
X004119Y016610D01*
X004220Y016987D01*
X004220Y016987D01*
X004220Y017146D02*
X011115Y017146D01*
X011115Y017304D02*
X004220Y017304D01*
X004220Y017463D02*
X011115Y017463D01*
X011115Y017621D02*
X004220Y017621D01*
X004119Y016610D02*
X003924Y016273D01*
X003924Y016273D01*
X003648Y015997D01*
X003648Y015997D01*
X003311Y015802D01*
X003311Y015802D01*
X002935Y015701D01*
X002934Y015701D01*
X002835Y015701D01*
X001740Y015701D01*
X001740Y014012D01*
X001936Y014064D01*
X002218Y014064D01*
X002490Y013991D01*
X002735Y013851D01*
X002934Y013651D01*
X003075Y013407D01*
X003148Y013135D01*
X003148Y012853D01*
X003075Y012581D01*
X002934Y012337D01*
X002735Y012137D01*
X002490Y011996D01*
X002218Y011923D01*
X001936Y011923D01*
X001740Y011976D01*
X001740Y007098D01*
X001986Y007164D01*
X002268Y007164D01*
X002540Y007091D01*
X002785Y006951D01*
X002984Y006751D01*
X003125Y006507D01*
X003198Y006235D01*
X003198Y005953D01*
X003125Y005681D01*
X002984Y005437D01*
X002785Y005237D01*
X002540Y005096D01*
X002802Y005255D02*
X011115Y005255D01*
X011115Y005413D02*
X002961Y005413D01*
X003062Y005572D02*
X011115Y005572D01*
X011115Y005730D02*
X003138Y005730D01*
X003181Y005889D02*
X011115Y005889D01*
X011115Y006048D02*
X003198Y006048D01*
X003198Y006206D02*
X011115Y006206D01*
X011115Y006365D02*
X003163Y006365D01*
X003116Y006523D02*
X011115Y006523D01*
X011115Y006682D02*
X003024Y006682D01*
X002895Y006840D02*
X011115Y006840D01*
X011115Y006999D02*
X002701Y006999D01*
X002295Y007157D02*
X005880Y007157D01*
X005911Y007126D02*
X006043Y007071D01*
X006186Y007071D01*
X006319Y007126D01*
X006420Y007227D01*
X006475Y007360D01*
X006475Y007503D01*
X006420Y007635D01*
X006319Y007737D01*
X006186Y007791D01*
X006043Y007791D01*
X005911Y007737D01*
X005809Y007635D01*
X005755Y007503D01*
X005755Y007360D01*
X005809Y007227D01*
X005911Y007126D01*
X005773Y007316D02*
X001740Y007316D01*
X001740Y007474D02*
X003563Y007474D01*
X003653Y007422D02*
X003391Y007574D01*
X003177Y007788D01*
X003026Y008050D01*
X002947Y008343D01*
X002947Y008645D01*
X003026Y008938D01*
X003177Y009200D01*
X003391Y009414D01*
X003616Y009544D01*
X003391Y009674D01*
X003177Y009888D01*
X003026Y010150D01*
X002947Y010443D01*
X002947Y010745D01*
X003026Y011038D01*
X003177Y011300D01*
X003391Y011514D01*
X003653Y011666D01*
X003946Y011744D01*
X004249Y011744D01*
X004541Y011666D01*
X004803Y011514D01*
X005017Y011300D01*
X005169Y011038D01*
X005247Y010745D01*
X005247Y010443D01*
X005169Y010150D01*
X005017Y009888D01*
X004803Y009674D01*
X004578Y009544D01*
X004803Y009414D01*
X005017Y009200D01*
X005169Y008938D01*
X005247Y008645D01*
X005247Y008343D01*
X005169Y008050D01*
X005017Y007788D01*
X004803Y007574D01*
X004541Y007422D01*
X004249Y007344D01*
X003946Y007344D01*
X003653Y007422D01*
X003332Y007633D02*
X001740Y007633D01*
X001740Y007791D02*
X003175Y007791D01*
X003083Y007950D02*
X001740Y007950D01*
X001740Y008109D02*
X003010Y008109D01*
X002967Y008267D02*
X001740Y008267D01*
X001740Y008426D02*
X002947Y008426D01*
X002947Y008584D02*
X001740Y008584D01*
X001740Y008743D02*
X002973Y008743D01*
X003016Y008901D02*
X001740Y008901D01*
X001740Y009060D02*
X003096Y009060D01*
X003195Y009218D02*
X001740Y009218D01*
X001740Y009377D02*
X003354Y009377D01*
X003601Y009535D02*
X001740Y009535D01*
X001740Y009694D02*
X003371Y009694D01*
X003212Y009853D02*
X001740Y009853D01*
X001740Y010011D02*
X003106Y010011D01*
X003020Y010170D02*
X001740Y010170D01*
X001740Y010328D02*
X002978Y010328D01*
X002947Y010487D02*
X001740Y010487D01*
X001740Y010645D02*
X002947Y010645D01*
X002963Y010804D02*
X001740Y010804D01*
X001740Y010962D02*
X003005Y010962D01*
X003074Y011121D02*
X001740Y011121D01*
X001740Y011279D02*
X003165Y011279D01*
X003315Y011438D02*
X001740Y011438D01*
X001740Y011597D02*
X003534Y011597D01*
X002828Y012231D02*
X011115Y012231D01*
X011115Y012389D02*
X002964Y012389D01*
X003056Y012548D02*
X011115Y012548D01*
X011115Y012706D02*
X004399Y012706D01*
X004420Y012727D02*
X004475Y012860D01*
X004475Y013003D01*
X004420Y013135D01*
X004319Y013237D01*
X004186Y013291D01*
X004043Y013291D01*
X003911Y013237D01*
X003809Y013135D01*
X003755Y013003D01*
X003755Y012860D01*
X003809Y012727D01*
X003911Y012626D01*
X004043Y012571D01*
X004186Y012571D01*
X004319Y012626D01*
X004420Y012727D01*
X004475Y012865D02*
X011115Y012865D01*
X011115Y013023D02*
X004466Y013023D01*
X004373Y013182D02*
X011115Y013182D01*
X011115Y013341D02*
X007408Y013341D01*
X007420Y013352D02*
X007475Y013485D01*
X007475Y013628D01*
X007420Y013760D01*
X007319Y013862D01*
X007186Y013916D01*
X007043Y013916D01*
X006911Y013862D01*
X006809Y013760D01*
X006755Y013628D01*
X006755Y013485D01*
X006809Y013352D01*
X006911Y013251D01*
X007043Y013196D01*
X007186Y013196D01*
X007319Y013251D01*
X007420Y013352D01*
X007475Y013499D02*
X011115Y013499D01*
X011115Y013658D02*
X007462Y013658D01*
X007364Y013816D02*
X011115Y013816D01*
X011115Y013975D02*
X005796Y013975D01*
X005768Y013947D02*
X005974Y014153D01*
X006119Y014405D01*
X006195Y014686D01*
X006195Y014977D01*
X006119Y015258D01*
X005974Y015510D01*
X005768Y015716D01*
X005516Y015861D01*
X005235Y015936D01*
X004944Y015936D01*
X004663Y015861D01*
X004411Y015716D01*
X004205Y015510D01*
X004060Y015258D01*
X003985Y014977D01*
X003985Y014686D01*
X004060Y014405D01*
X004205Y014153D01*
X004411Y013947D01*
X004663Y013802D01*
X004944Y013726D01*
X005235Y013726D01*
X005516Y013802D01*
X005768Y013947D01*
X005541Y013816D02*
X006865Y013816D01*
X006767Y013658D02*
X002927Y013658D01*
X003022Y013499D02*
X006755Y013499D01*
X006821Y013341D02*
X003093Y013341D01*
X003135Y013182D02*
X003856Y013182D01*
X003763Y013023D02*
X003148Y013023D01*
X003148Y012865D02*
X003755Y012865D01*
X003831Y012706D02*
X003108Y012706D01*
X002622Y012072D02*
X011115Y012072D01*
X011115Y011914D02*
X001740Y011914D01*
X001740Y011755D02*
X011115Y011755D01*
X011115Y011597D02*
X004661Y011597D01*
X004879Y011438D02*
X011115Y011438D01*
X011115Y011279D02*
X005029Y011279D01*
X005121Y011121D02*
X009558Y011121D01*
X009536Y011112D02*
X009434Y011010D01*
X009380Y010878D01*
X009380Y010735D01*
X009434Y010602D01*
X009536Y010501D01*
X009668Y010446D01*
X009811Y010446D01*
X009944Y010501D01*
X010045Y010602D01*
X010100Y010735D01*
X010100Y010878D01*
X010045Y011010D01*
X009944Y011112D01*
X009811Y011166D01*
X009668Y011166D01*
X009536Y011112D01*
X009415Y010962D02*
X005189Y010962D01*
X005231Y010804D02*
X009380Y010804D01*
X009417Y010645D02*
X005247Y010645D01*
X005247Y010487D02*
X009571Y010487D01*
X009909Y010487D02*
X011115Y010487D01*
X011115Y010645D02*
X010063Y010645D01*
X010100Y010804D02*
X011115Y010804D01*
X011115Y010962D02*
X010065Y010962D01*
X009921Y011121D02*
X011115Y011121D01*
X011115Y010328D02*
X005216Y010328D01*
X005174Y010170D02*
X011115Y010170D01*
X011115Y010011D02*
X005089Y010011D01*
X004982Y009853D02*
X011115Y009853D01*
X011115Y009694D02*
X004824Y009694D01*
X004593Y009535D02*
X011115Y009535D01*
X011115Y009377D02*
X004841Y009377D01*
X004999Y009218D02*
X011115Y009218D01*
X011115Y009060D02*
X005098Y009060D01*
X005179Y008901D02*
X011115Y008901D01*
X011115Y008743D02*
X005221Y008743D01*
X005247Y008584D02*
X011115Y008584D01*
X011115Y008426D02*
X011067Y008426D01*
X010413Y008426D02*
X010095Y008426D01*
X010144Y008377D02*
X010010Y008511D01*
X009835Y008583D01*
X009758Y008583D01*
X009758Y008125D01*
X009721Y008125D01*
X009721Y008088D01*
X009263Y008088D01*
X009263Y008012D01*
X009335Y007836D01*
X009470Y007702D01*
X009645Y007630D01*
X009721Y007630D01*
X009721Y008088D01*
X009758Y008088D01*
X009758Y007630D01*
X009835Y007630D01*
X010010Y007702D01*
X010144Y007836D01*
X010217Y008012D01*
X010217Y008088D01*
X009758Y008088D01*
X009758Y008125D01*
X010217Y008125D01*
X010217Y008201D01*
X010144Y008377D01*
X010189Y008267D02*
X010312Y008267D01*
X010283Y008109D02*
X009758Y008109D01*
X009721Y008109D02*
X009197Y008109D01*
X009263Y008125D02*
X009721Y008125D01*
X009721Y008583D01*
X009645Y008583D01*
X009470Y008511D01*
X009335Y008377D01*
X009263Y008201D01*
X009263Y008125D01*
X009197Y008197D02*
X009197Y008016D01*
X009127Y007848D01*
X008999Y007719D01*
X008831Y007650D01*
X008649Y007650D01*
X008481Y007719D01*
X008352Y007848D01*
X008283Y008016D01*
X008283Y008197D01*
X008352Y008365D01*
X008481Y008494D01*
X008649Y008563D01*
X008831Y008563D01*
X008999Y008494D01*
X009127Y008365D01*
X009197Y008197D01*
X009168Y008267D02*
X009290Y008267D01*
X009385Y008426D02*
X009067Y008426D01*
X009169Y007950D02*
X009288Y007950D01*
X009380Y007791D02*
X009071Y007791D01*
X009637Y007633D02*
X006421Y007633D01*
X006475Y007474D02*
X011115Y007474D01*
X011115Y007316D02*
X006456Y007316D01*
X006350Y007157D02*
X011115Y007157D01*
X011115Y007633D02*
X009843Y007633D01*
X009758Y007633D02*
X009721Y007633D01*
X009721Y007791D02*
X009758Y007791D01*
X009758Y007950D02*
X009721Y007950D01*
X009721Y008267D02*
X009758Y008267D01*
X009758Y008426D02*
X009721Y008426D01*
X010191Y007950D02*
X010310Y007950D01*
X010409Y007791D02*
X010099Y007791D01*
X011071Y007791D02*
X011115Y007791D01*
X008409Y007791D02*
X005020Y007791D01*
X005111Y007950D02*
X008310Y007950D01*
X008283Y008109D02*
X005184Y008109D01*
X005227Y008267D02*
X008312Y008267D01*
X008413Y008426D02*
X005247Y008426D01*
X004863Y007633D02*
X005809Y007633D01*
X005755Y007474D02*
X004631Y007474D01*
X001960Y007157D02*
X001740Y007157D01*
X003648Y002866D02*
X003648Y002866D01*
X014949Y012231D02*
X016462Y012231D01*
X016430Y012389D02*
X014740Y012389D01*
X014740Y012548D02*
X016469Y012548D01*
X016633Y012706D02*
X014740Y012706D01*
X015220Y013658D02*
X024554Y013658D01*
X024480Y013816D02*
X015352Y013816D01*
X015407Y013975D02*
X024489Y013975D01*
X024582Y014133D02*
X015407Y014133D01*
X014240Y015560D02*
X012615Y015560D01*
X011115Y015560D02*
X005924Y015560D01*
X006036Y015402D02*
X011115Y015402D01*
X011115Y015243D02*
X006123Y015243D01*
X006166Y015084D02*
X011115Y015084D01*
X011115Y014926D02*
X006195Y014926D01*
X006195Y014767D02*
X011115Y014767D01*
X011115Y014609D02*
X006174Y014609D01*
X006131Y014450D02*
X011115Y014450D01*
X011115Y014292D02*
X006054Y014292D01*
X005954Y014133D02*
X011115Y014133D01*
X011115Y015719D02*
X005763Y015719D01*
X005456Y015877D02*
X011115Y015877D01*
X011115Y016036D02*
X003687Y016036D01*
X003846Y016194D02*
X011115Y016194D01*
X011115Y016353D02*
X003970Y016353D01*
X003441Y015877D02*
X004723Y015877D01*
X004417Y015719D02*
X002999Y015719D01*
X004056Y015243D02*
X001740Y015243D01*
X001740Y015084D02*
X004014Y015084D01*
X003985Y014926D02*
X001740Y014926D01*
X001740Y014767D02*
X003985Y014767D01*
X004005Y014609D02*
X001740Y014609D01*
X001740Y014450D02*
X004048Y014450D01*
X004125Y014292D02*
X001740Y014292D01*
X001740Y014133D02*
X004225Y014133D01*
X004384Y013975D02*
X002520Y013975D01*
X002769Y013816D02*
X004638Y013816D01*
X004143Y015402D02*
X001740Y015402D01*
X001740Y015560D02*
X004256Y015560D01*
X012615Y017463D02*
X013736Y017463D01*
X014118Y017463D02*
X014240Y017463D01*
X014736Y017463D01*
X014667Y017434D02*
X014537Y017304D01*
X014667Y017434D02*
X014836Y017504D01*
X015019Y017504D01*
X015188Y017434D01*
X015317Y017304D01*
X015383Y017146D02*
X018195Y017146D01*
X018094Y016987D02*
X017907Y016987D01*
X017215Y016987D02*
X015387Y016987D01*
X015336Y016828D02*
X017041Y016828D01*
X016954Y016670D02*
X015204Y016670D01*
X015118Y017463D02*
X024258Y017463D01*
X024417Y017621D02*
X014240Y017621D01*
X012615Y017621D01*
X015252Y015719D02*
X024837Y015719D01*
X024496Y015877D02*
X019681Y015877D01*
X019840Y016036D02*
X024323Y016036D01*
X024203Y016194D02*
X019912Y016194D01*
X019950Y016353D02*
X024111Y016353D01*
X024068Y016511D02*
X019950Y016511D01*
X019901Y016670D02*
X024035Y016670D01*
X024035Y016828D02*
X019813Y016828D01*
X019639Y016987D02*
X024051Y016987D01*
X026754Y014133D02*
X029234Y014133D01*
X029235Y013975D02*
X026596Y013975D01*
X026341Y013816D02*
X029235Y013816D01*
X029235Y013658D02*
X025125Y013658D01*
X025200Y013816D02*
X025438Y013816D01*
D15*
X024840Y013881D03*
X022240Y013681D03*
X020890Y012981D03*
X019840Y012981D03*
X018115Y013931D03*
X016790Y012381D03*
X016327Y011644D03*
X015340Y011731D03*
X014927Y011444D03*
X014740Y011931D03*
X018340Y011031D03*
X018940Y011031D03*
X018327Y010544D03*
X018865Y009794D03*
X020027Y009544D03*
X020365Y009106D03*
X020677Y009619D03*
X020240Y010081D03*
X020027Y010544D03*
X020827Y011344D03*
X020327Y011544D03*
X022427Y009744D03*
X023490Y010431D03*
X023490Y010931D03*
X023127Y011544D03*
X025627Y008744D03*
X026090Y008131D03*
X022827Y006044D03*
X021527Y006244D03*
X019365Y005181D03*
X019240Y002981D03*
X020140Y002181D03*
X025677Y005794D03*
X019827Y008544D03*
X016340Y008731D03*
X014827Y008744D03*
X009740Y010806D03*
X007240Y010056D03*
X007115Y012431D03*
X007115Y013556D03*
X009740Y012556D03*
X004115Y012931D03*
X006115Y007431D03*
X006740Y004931D03*
X022240Y015181D03*
X020740Y016681D03*
X018440Y016881D03*
D16*
X020890Y012981D02*
X018940Y011031D01*
X018340Y011031D02*
X018340Y010981D01*
X018190Y010981D01*
X016790Y012381D01*
X012615Y002306D02*
X012640Y002231D01*
X012615Y002181D01*
M02*
