%
M48
M72
T01C0.0240
T02C0.0354
T03C0.0360
T04C0.0394
T05C0.0400
T06C0.0420
T07C0.0520
T08C0.1180
T09C0.1250
T10C0.1340
%
T01
X13731Y8731
X14181Y8481
X15281Y8731
X15181Y7731
X16781Y9431
X16781Y10031
X18431Y9681
X19031Y9631
X19431Y10081
X19131Y10531
X18181Y11331
X18681Y11531
X19331Y11631
X20631Y12031
X21281Y11331
X22431Y10931
X22431Y10431
X24569Y8744
X25031Y8131
X21731Y6031
X20469Y6244
X18306Y5181
X18181Y2981
X19081Y2181
X24619Y5794
X19081Y8481
X17119Y11369
X16331Y12481
X15269Y11644
X14281Y11731
X13869Y11444
X13231Y12081
X13231Y12881
X9931Y10931
X9056Y9931
X9056Y9369
X6181Y10056
X8556Y13556
X9806Y13431
X18731Y12981
X18831Y13481
X19631Y12981
X21181Y13681
X21181Y15181
X19681Y16681
T02
X18235Y16269
X16503Y16269
T03
X7931Y14681
X6931Y14681
X5931Y14681
X6869Y3294
X7869Y3294
T04
X7681Y8106
X8681Y8106
X9681Y8106
X11681Y8106
X12681Y8106
X13681Y8106
X14681Y8106
T05
X13869Y5044
X12869Y5044
X12869Y4044
X13869Y4044
X13869Y3044
X12869Y3044
X12869Y2044
X13869Y2044
X13869Y14044
X12869Y14044
X12869Y15044
X13869Y15044
X13869Y16044
X12869Y16044
X12869Y17044
X13869Y17044
T06
X6629Y13119
X5449Y13119
X5449Y11939
X6629Y11939
X6616Y6969
X5436Y6969
X5436Y5789
X6616Y5789
T07
X22869Y6544
X22869Y7544
X22869Y8544
X22869Y9544
T08
X3749Y12529
X3736Y6379
T09
X4031Y4031
X4031Y14831
X24081Y16781
X24831Y14831
X24831Y4031
X24081Y2281
T10
X3039Y8494
X3039Y10594
M30
