G75*
G70*
%OFA0B0*%
%FSLAX24Y24*%
%IPPOS*%
%LPD*%
%AMOC8*
5,1,8,0,0,1.08239X$1,22.5*
%
%ADD10R,0.0760X0.2100*%
%ADD11R,0.0591X0.0512*%
%ADD12R,0.0138X0.0472*%
%ADD13R,0.0394X0.0433*%
%ADD14R,0.0197X0.0984*%
%ADD15R,0.0787X0.0984*%
%ADD16C,0.0660*%
%ADD17R,0.0787X0.0394*%
%ADD18R,0.0512X0.0236*%
%ADD19R,0.1063X0.0630*%
%ADD20C,0.0560*%
%ADD21OC8,0.0600*%
%ADD22R,0.2100X0.0650*%
%ADD23OC8,0.0850*%
%ADD24R,0.0433X0.0394*%
%ADD25C,0.0100*%
%ADD26C,0.0400*%
%ADD27C,0.0500*%
%ADD28C,0.0320*%
%ADD29C,0.0240*%
%ADD30C,0.0560*%
%ADD31C,0.0200*%
D10*
X027827Y009594D03*
X027827Y013394D03*
D11*
X024240Y013170D03*
X024240Y013918D03*
X021927Y007918D03*
X021927Y007170D03*
D12*
X021311Y008330D03*
X021055Y008330D03*
X020799Y008330D03*
X020543Y008330D03*
X020543Y010633D03*
X020799Y010633D03*
X021055Y010633D03*
X021311Y010633D03*
D13*
X018762Y011544D03*
X018093Y011544D03*
D14*
X018112Y015435D03*
X017797Y015435D03*
X018427Y015435D03*
X018742Y015435D03*
X019057Y015435D03*
D15*
X020199Y015435D03*
X020199Y017600D03*
X016656Y017600D03*
X016656Y015435D03*
D16*
X015740Y008106D03*
X014740Y008106D03*
X013740Y008106D03*
X012740Y008106D03*
X010740Y008106D03*
X009740Y008106D03*
X008740Y008106D03*
D17*
X010585Y009444D03*
X010585Y010444D03*
X010585Y011444D03*
X010585Y012444D03*
X014227Y012444D03*
X014227Y011444D03*
X014227Y010444D03*
X014227Y009444D03*
D18*
X017409Y009544D03*
X017409Y010044D03*
X017409Y010544D03*
X019477Y010544D03*
X019477Y010044D03*
X019477Y009544D03*
X019477Y009044D03*
X017409Y009044D03*
D19*
X016302Y009868D03*
X016302Y010970D03*
D20*
X006927Y004074D02*
X006927Y003514D01*
X007927Y003514D02*
X007927Y004074D01*
D21*
X013927Y004044D03*
X014927Y004044D03*
X014927Y005044D03*
X013927Y005044D03*
X013927Y003044D03*
X014927Y003044D03*
X014927Y002044D03*
X013927Y002044D03*
X013927Y014044D03*
X014927Y014044D03*
X014927Y015044D03*
X013927Y015044D03*
X013927Y016044D03*
X014927Y016044D03*
X014927Y017044D03*
X013927Y017044D03*
D22*
X008677Y010044D03*
X008677Y009044D03*
D23*
X023927Y008544D03*
X023927Y009544D03*
X023927Y007544D03*
X023927Y006544D03*
D24*
X024802Y007147D03*
X024802Y007816D03*
D25*
X024740Y007794D01*
X024177Y007794D01*
X023927Y007544D01*
X024802Y007147D02*
X024840Y007181D01*
X025590Y007931D01*
X025590Y008731D01*
X025627Y008744D01*
X027790Y009631D02*
X027827Y009594D01*
X027840Y009631D01*
X027840Y009681D01*
X027740Y009806D01*
X023127Y011544D02*
X023127Y006544D01*
X023527Y006144D01*
X023527Y005944D01*
X023227Y005644D01*
X020427Y005644D01*
X017427Y008644D01*
X017427Y009044D01*
X017409Y009044D01*
X017409Y009544D02*
X017827Y009544D01*
X018827Y010544D01*
X018827Y011031D01*
X018940Y011031D01*
X018827Y011031D02*
X018827Y011044D01*
X018027Y011244D02*
X017827Y011044D01*
X018327Y010544D01*
X017827Y011044D02*
X017652Y010869D01*
X017640Y010881D01*
X016090Y012431D01*
X014240Y012431D01*
X014227Y012444D01*
X016327Y011644D02*
X016327Y011044D01*
X016302Y010970D01*
X015627Y010781D02*
X013790Y010781D01*
X013690Y010681D01*
X013690Y008181D01*
X013740Y008131D01*
X013740Y008106D01*
X013790Y008081D01*
X014240Y007631D01*
X014940Y007631D01*
X015240Y007931D01*
X015240Y008331D01*
X014840Y008731D01*
X014827Y008744D01*
X014527Y008144D02*
X014227Y008444D01*
X014227Y009444D01*
X014527Y008144D02*
X014740Y008106D01*
X016302Y009868D02*
X016227Y009944D01*
X015627Y010544D01*
X015627Y010781D01*
X017327Y010544D02*
X017409Y010544D01*
X017427Y010544D01*
X017427Y010044D01*
X017409Y010044D01*
X017327Y010544D02*
X017652Y010869D01*
X018027Y011244D02*
X018027Y011544D01*
X018093Y011544D01*
X018762Y011544D02*
X019327Y011544D01*
X019927Y010944D01*
X020227Y010944D01*
X020327Y010844D01*
X020327Y011544D01*
X020827Y011344D02*
X020827Y010644D01*
X020799Y010633D01*
X021027Y010644D02*
X021055Y010633D01*
X021027Y010544D01*
X021027Y009744D01*
X020854Y009744D01*
X020766Y009707D02*
X020677Y009619D01*
X020766Y009707D02*
X020781Y009720D01*
X020797Y009730D01*
X020815Y009738D01*
X020834Y009742D01*
X020854Y009744D01*
X021027Y009744D02*
X021027Y008844D01*
X021927Y007944D01*
X021927Y007918D01*
X022390Y008231D02*
X022390Y006731D01*
X022365Y006706D01*
X022827Y006244D01*
X022827Y006044D01*
X022365Y006706D02*
X021927Y007144D01*
X021927Y007170D01*
X022390Y008231D02*
X021840Y008781D01*
X021840Y010681D01*
X021815Y010706D01*
X021790Y010681D01*
X021340Y010681D01*
X021311Y010633D01*
X021815Y010706D02*
X024240Y013131D01*
X024240Y013170D01*
X024240Y013918D02*
X024240Y013931D01*
X022540Y013931D01*
X021790Y014681D01*
X019340Y014681D01*
X019040Y014981D01*
X019040Y015431D01*
X019057Y015435D01*
X018440Y015481D02*
X018427Y015435D01*
X018440Y015481D02*
X018440Y016881D01*
X018112Y015435D02*
X018090Y015431D01*
X018090Y014831D01*
X018240Y014681D01*
X018640Y014681D01*
X019840Y013481D01*
X019840Y012981D01*
X017540Y014431D02*
X017540Y014456D01*
X017790Y014831D01*
X017790Y015431D01*
X017797Y015435D01*
X017540Y014431D02*
X016865Y012631D01*
X016790Y012381D01*
X019477Y010544D02*
X020027Y010544D01*
X020327Y010844D02*
X020527Y010644D01*
X020543Y010633D01*
X020240Y010081D02*
X020227Y010044D01*
X019477Y010044D01*
X019477Y009544D02*
X020027Y009544D01*
X020250Y009044D02*
X020270Y009046D01*
X020289Y009050D01*
X020307Y009058D01*
X020323Y009068D01*
X020338Y009081D01*
X020339Y009081D02*
X020365Y009106D01*
X020250Y009044D02*
X019477Y009044D01*
X020527Y008344D02*
X020543Y008330D01*
X020527Y008344D02*
X020827Y008344D01*
X020799Y008330D01*
X020827Y008344D02*
X021027Y008344D01*
X021055Y008330D01*
X021027Y008344D02*
X021327Y008344D01*
X021311Y008330D01*
X021027Y008344D02*
X021027Y008844D01*
X019390Y005181D02*
X019302Y005169D01*
X019365Y005181D02*
X019390Y005181D01*
X014927Y005044D02*
X014890Y005081D01*
X006927Y003794D02*
X006890Y003831D01*
X010440Y010381D02*
X010585Y010444D01*
X005690Y011331D02*
X005602Y011444D01*
X004402Y012644D02*
X004290Y012531D01*
X024240Y013918D02*
X024290Y013931D01*
X024790Y013931D01*
X024840Y013881D01*
X027790Y013381D02*
X027827Y013394D01*
D26*
X024840Y013881D03*
X023127Y011544D03*
X023490Y010931D03*
X023490Y010431D03*
X022427Y009744D03*
X020677Y009619D03*
X020365Y009106D03*
X020027Y009544D03*
X020240Y010081D03*
X020027Y010544D03*
X018940Y011031D03*
X018340Y011031D03*
X018327Y010544D03*
X018865Y009794D03*
X019827Y008544D03*
X021527Y006244D03*
X022827Y006044D03*
X019365Y005181D03*
X019240Y002981D03*
X020140Y002181D03*
X026090Y008131D03*
X025627Y008744D03*
X020827Y011344D03*
X020327Y011544D03*
X019840Y012981D03*
X020890Y012981D03*
X018115Y013931D03*
X016790Y012381D03*
X016327Y011644D03*
X015340Y011731D03*
X014927Y011444D03*
X014740Y011931D03*
X014827Y008744D03*
X016340Y008731D03*
X018440Y016881D03*
D27*
X020740Y016681D03*
X022240Y015181D03*
X022240Y013681D03*
X009740Y012556D03*
X009740Y010806D03*
X007240Y010056D03*
X007115Y012431D03*
X007115Y013556D03*
X004115Y012931D03*
X006115Y007431D03*
X006740Y004931D03*
D28*
X008740Y008106D02*
X008740Y008981D01*
X008677Y009044D01*
X010185Y009044D01*
X010585Y009444D01*
X010585Y010444D02*
X010223Y010806D01*
X009740Y010806D01*
X010585Y011444D02*
X005602Y011444D01*
X004402Y012644D01*
X004115Y012931D01*
X007240Y010056D02*
X007252Y010044D01*
X008677Y010044D01*
X009852Y012444D02*
X009740Y012556D01*
X009852Y012444D02*
X010585Y012444D01*
X023490Y010931D02*
X025365Y010931D01*
X027827Y013394D01*
X027115Y010431D02*
X023490Y010431D01*
X027115Y010431D02*
X027740Y009806D01*
D29*
X025677Y005794D02*
X025214Y005206D01*
X024625Y004544D02*
X019865Y004544D01*
X019240Y004544D01*
X016615Y007294D01*
X013990Y007294D01*
X013936Y007291D01*
X013882Y007292D01*
X013829Y007297D01*
X013776Y007306D01*
X013723Y007319D01*
X013672Y007335D01*
X013622Y007355D01*
X013574Y007379D01*
X013527Y007406D01*
X013483Y007436D01*
X013441Y007469D01*
X013401Y007505D01*
X013364Y007544D01*
X013330Y007586D01*
X013298Y007630D01*
X013270Y007675D01*
X013246Y007723D01*
X013225Y007773D01*
X013207Y007823D01*
X013193Y007875D01*
X013183Y007928D01*
X013177Y007982D01*
X013177Y007981D02*
X013177Y010481D01*
X013177Y010482D02*
X013168Y010537D01*
X013163Y010593D01*
X013162Y010649D01*
X013165Y010705D01*
X013171Y010761D01*
X013181Y010816D01*
X013195Y010870D01*
X013213Y010923D01*
X013234Y010975D01*
X013259Y011025D01*
X013287Y011074D01*
X013319Y011120D01*
X013353Y011165D01*
X013391Y011206D01*
X013431Y011246D01*
X013474Y011282D01*
X013519Y011315D01*
X013566Y011345D01*
X013615Y011372D01*
X013666Y011395D01*
X013719Y011415D01*
X013772Y011431D01*
X013827Y011444D01*
X014227Y011444D01*
X014227Y010444D02*
X014277Y010444D01*
X014344Y010442D01*
X014411Y010436D01*
X014477Y010427D01*
X014542Y010413D01*
X014607Y010396D01*
X014670Y010375D01*
X014732Y010350D01*
X014793Y010322D01*
X014852Y010290D01*
X014909Y010255D01*
X014964Y010216D01*
X015016Y010175D01*
X015066Y010130D01*
X015113Y010083D01*
X015158Y010033D01*
X015199Y009981D01*
X015238Y009926D01*
X015273Y009869D01*
X015305Y009810D01*
X015333Y009749D01*
X015358Y009687D01*
X015379Y009624D01*
X015396Y009559D01*
X015410Y009494D01*
X015419Y009428D01*
X015425Y009361D01*
X015427Y009294D01*
X015429Y009274D01*
X015433Y009255D01*
X015441Y009237D01*
X015451Y009221D01*
X015464Y009206D01*
X015479Y009193D01*
X015495Y009183D01*
X015513Y009175D01*
X015532Y009171D01*
X015552Y009169D01*
X016636Y009169D01*
X016813Y009096D02*
X016801Y007858D01*
X017573Y007086D01*
X017573Y007010D01*
X017365Y007231D01*
X017573Y007010D02*
X019302Y005169D01*
X019808Y004544D02*
X019865Y004544D01*
X024625Y004545D02*
X024682Y004575D01*
X024738Y004608D01*
X024792Y004644D01*
X024844Y004683D01*
X024893Y004725D01*
X024940Y004770D01*
X024985Y004817D01*
X025027Y004866D01*
X025065Y004918D01*
X025101Y004972D01*
X025134Y005028D01*
X025164Y005086D01*
X025190Y005145D01*
X025213Y005206D01*
X016813Y009096D02*
X016792Y009114D01*
X016769Y009131D01*
X016744Y009144D01*
X016719Y009155D01*
X016692Y009163D01*
X016664Y009167D01*
X016636Y009169D01*
D30*
X025677Y005794D03*
D31*
X014890Y005081D02*
X012324Y007647D01*
X012177Y008001D02*
X012177Y011119D01*
X012843Y011785D01*
X013197Y011931D02*
X014740Y011931D01*
X013197Y011931D02*
X013153Y011929D01*
X013110Y011923D01*
X013068Y011914D01*
X013026Y011901D01*
X012986Y011884D01*
X012947Y011864D01*
X012910Y011841D01*
X012876Y011814D01*
X012843Y011785D01*
X012177Y008001D02*
X012179Y007957D01*
X012185Y007914D01*
X012194Y007872D01*
X012207Y007830D01*
X012224Y007790D01*
X012244Y007751D01*
X012267Y007714D01*
X012294Y007680D01*
X012323Y007647D01*
M02*
