G75*
G70*
%OFA0B0*%
%FSLAX24Y24*%
%IPPOS*%
%LPD*%
%AMOC8*
5,1,8,0,0,1.08239X$1,22.5*
%
%ADD10R,0.0748X0.0157*%
%ADD11R,0.0157X0.0748*%
%ADD12R,0.0880X0.0480*%
%ADD13R,0.0866X0.1417*%
%ADD14R,0.1150X0.0512*%
%ADD15R,0.0390X0.0120*%
%ADD16R,0.1063X0.0630*%
%ADD17R,0.0760X0.2100*%
%ADD18R,0.0433X0.0394*%
%ADD19R,0.0256X0.0138*%
%ADD20R,0.0138X0.0256*%
%ADD21R,0.0591X0.0512*%
%ADD22R,0.0472X0.0472*%
%ADD23R,0.0394X0.0433*%
%ADD24R,0.0512X0.0591*%
%ADD25R,0.0630X0.1063*%
D10*
X017178Y008474D03*
X017178Y008789D03*
X017178Y009104D03*
X017178Y009419D03*
X017178Y009734D03*
X017178Y010049D03*
X017178Y010364D03*
X017178Y010679D03*
X017178Y010994D03*
X017178Y011309D03*
X017178Y011624D03*
X021666Y011624D03*
X021666Y011309D03*
X021666Y010994D03*
X021666Y010679D03*
X021666Y010364D03*
X021666Y010049D03*
X021666Y009734D03*
X021666Y009419D03*
X021666Y009104D03*
X021666Y008789D03*
X021666Y008474D03*
D11*
X020997Y007805D03*
X020682Y007805D03*
X020367Y007805D03*
X020052Y007805D03*
X019737Y007805D03*
X019422Y007805D03*
X019107Y007805D03*
X018792Y007805D03*
X018477Y007805D03*
X018162Y007805D03*
X017847Y007805D03*
X017847Y012293D03*
X018162Y012293D03*
X018477Y012293D03*
X018792Y012293D03*
X019107Y012293D03*
X019422Y012293D03*
X019737Y012293D03*
X020052Y012293D03*
X020367Y012293D03*
X020682Y012293D03*
X020997Y012293D03*
D12*
X020957Y013884D03*
X020957Y014794D03*
X020957Y015704D03*
D13*
X023397Y014794D03*
D14*
X004285Y005503D03*
X004285Y006684D03*
X006104Y006684D03*
X006104Y005503D03*
X006054Y012403D03*
X006054Y013584D03*
X004235Y013584D03*
X004235Y012403D03*
D15*
X022778Y008696D03*
X022778Y008440D03*
X022778Y008184D03*
X022778Y007928D03*
X022778Y007672D03*
X022778Y007416D03*
X022778Y007160D03*
X022778Y006904D03*
X022778Y006648D03*
X022778Y006392D03*
X025076Y006392D03*
X025076Y006648D03*
X025076Y006904D03*
X025076Y007160D03*
X025076Y007416D03*
X025076Y007672D03*
X025076Y007928D03*
X025076Y008184D03*
X025076Y008440D03*
X025076Y008696D03*
D16*
X008552Y007033D03*
X008552Y005930D03*
D17*
X027827Y009594D03*
X027827Y013394D03*
D18*
X026427Y006379D03*
X026427Y005709D03*
X023527Y005129D03*
X023527Y004459D03*
X021602Y003391D03*
X021602Y002722D03*
X009427Y003584D03*
X009427Y004254D03*
D19*
X014357Y009520D03*
X014357Y009776D03*
X014357Y010032D03*
X014357Y010288D03*
X014357Y010544D03*
X016070Y010544D03*
X016070Y010288D03*
X016070Y010032D03*
X016070Y009776D03*
X016070Y009520D03*
D20*
X015735Y009176D03*
X015479Y009176D03*
X015223Y009176D03*
X014968Y009176D03*
X014712Y009176D03*
X014712Y010888D03*
X014968Y010888D03*
X015223Y010888D03*
X015479Y010888D03*
X015735Y010888D03*
D21*
X019302Y013445D03*
X019302Y014193D03*
X018677Y003380D03*
X018677Y002632D03*
D22*
X019764Y002694D03*
X020591Y002694D03*
X021201Y005731D03*
X022028Y005731D03*
X027339Y005669D03*
X028166Y005669D03*
X028166Y006494D03*
X027339Y006494D03*
D23*
X020574Y005731D03*
X019905Y005731D03*
D24*
X026053Y007544D03*
X026801Y007544D03*
X024551Y012744D03*
X023803Y012744D03*
D25*
X014991Y006369D03*
X013888Y006369D03*
M02*
