G75*
G70*
%OFA0B0*%
%FSLAX24Y24*%
%IPPOS*%
%LPD*%
%AMOC8*
5,1,8,0,0,1.08239X$1,22.5*
%
%ADD10C,0.1330*%
%ADD11R,0.0840X0.2180*%
%ADD12R,0.0671X0.0592*%
%ADD13R,0.0218X0.0552*%
%ADD14R,0.0474X0.0513*%
%ADD15R,0.0277X0.1064*%
%ADD16R,0.0867X0.1064*%
%ADD17C,0.0434*%
%ADD18C,0.0840*%
%ADD19C,0.1260*%
%ADD20C,0.0740*%
%ADD21R,0.0316X0.0592*%
%ADD22C,0.0640*%
%ADD23OC8,0.0680*%
%ADD24R,0.2180X0.0730*%
%ADD25C,0.1420*%
%ADD26OC8,0.0930*%
%ADD27R,0.0513X0.0474*%
%ADD28R,0.0950X0.0320*%
%ADD29R,0.0946X0.0316*%
%ADD30C,0.0580*%
%ADD31C,0.0480*%
%ADD32C,0.0640*%
D10*
X004031Y004031D03*
X004031Y014831D03*
X024081Y016781D03*
X024831Y014831D03*
X024831Y004031D03*
X024081Y002281D03*
D11*
X026769Y009594D03*
X026769Y013394D03*
D12*
X022244Y013920D03*
X022244Y014668D03*
X015244Y010754D03*
X015244Y010084D03*
X020869Y007918D03*
X020869Y007170D03*
D13*
X020253Y008330D03*
X019997Y008330D03*
X019741Y008330D03*
X019485Y008330D03*
X019485Y010633D03*
X019741Y010633D03*
X019997Y010633D03*
X020253Y010633D03*
D14*
X019329Y012294D03*
X018659Y012294D03*
D15*
X017999Y015285D03*
X017684Y015285D03*
X017369Y015285D03*
X017054Y015285D03*
X016739Y015285D03*
D16*
X015597Y015285D03*
X015597Y017450D03*
X019141Y017450D03*
X019141Y015285D03*
D17*
X018235Y016269D03*
X016503Y016269D03*
D18*
X006629Y013119D03*
X005449Y013119D03*
X005449Y011939D03*
X006629Y011939D03*
X006616Y006969D03*
X005436Y006969D03*
X005436Y005789D03*
X006616Y005789D03*
D19*
X003736Y006379D03*
X003749Y012529D03*
D20*
X007681Y008106D03*
X008681Y008106D03*
X009681Y008106D03*
X011681Y008106D03*
X012681Y008106D03*
X013681Y008106D03*
X014681Y008106D03*
D21*
X017169Y008694D03*
X017669Y008694D03*
X018169Y008694D03*
X018669Y008694D03*
X018669Y010762D03*
X018169Y010762D03*
X017669Y010762D03*
X017169Y010762D03*
D22*
X007931Y014401D02*
X007931Y014961D01*
X006931Y014961D02*
X006931Y014401D01*
X005931Y014401D02*
X005931Y014961D01*
X006869Y003574D02*
X006869Y003014D01*
X007869Y003014D02*
X007869Y003574D01*
D23*
X012869Y004044D03*
X013869Y004044D03*
X013869Y005044D03*
X012869Y005044D03*
X012869Y003044D03*
X013869Y003044D03*
X013869Y002044D03*
X012869Y002044D03*
X012869Y014044D03*
X013869Y014044D03*
X013869Y015044D03*
X012869Y015044D03*
X012869Y016044D03*
X013869Y016044D03*
X013869Y017044D03*
X012869Y017044D03*
D24*
X007619Y010044D03*
X007619Y009044D03*
D25*
X003039Y008494D03*
X003039Y010594D03*
D26*
X022869Y009544D03*
X022869Y008544D03*
X022869Y007544D03*
X022869Y006544D03*
D27*
X023744Y007147D03*
X023744Y007816D03*
D28*
X009836Y011431D03*
X009836Y011931D03*
X009836Y012431D03*
X009836Y012931D03*
X007776Y012931D03*
X007776Y012431D03*
X007776Y011931D03*
X007776Y011431D03*
D29*
X009908Y010431D03*
X009908Y009931D03*
X009908Y009431D03*
X009908Y008931D03*
X011955Y008931D03*
X011955Y009431D03*
X011955Y009931D03*
X011955Y010431D03*
D30*
X008556Y013556D03*
X006181Y010056D03*
X019681Y016681D03*
X021181Y015181D03*
X021181Y013681D03*
D31*
X019631Y012981D03*
X018831Y013481D03*
X018731Y012981D03*
X018681Y011531D03*
X018181Y011331D03*
X017119Y011369D03*
X016331Y012481D03*
X015269Y011644D03*
X014281Y011731D03*
X013869Y011444D03*
X013231Y012081D03*
X013231Y012881D03*
X009931Y010931D03*
X009056Y009931D03*
X009056Y009369D03*
X013731Y008731D03*
X014181Y008481D03*
X015281Y008731D03*
X015181Y007731D03*
X016781Y009431D03*
X016781Y010031D03*
X018431Y009681D03*
X019031Y009631D03*
X019431Y010081D03*
X019131Y010531D03*
X019331Y011631D03*
X020631Y012031D03*
X021281Y011331D03*
X022431Y010931D03*
X022431Y010431D03*
X024569Y008744D03*
X025031Y008131D03*
X021731Y006031D03*
X020469Y006244D03*
X018306Y005181D03*
X018181Y002981D03*
X019081Y002181D03*
X019081Y008481D03*
X009806Y013431D03*
D32*
X024619Y005794D03*
M02*
